<svg width="16" height="16" viewBox="0 0 16 16" fill="none" xmlns="http://www.w3.org/2000/svg">
<path d="M7.53749 0.0343418C6.66874 0.178092 5.83749 0.793716 5.44374 1.57809C5.18749 2.09372 5.12499 2.51872 5.12499 3.75622V4.56247H3.97812C3.26249 4.56247 2.78437 4.57497 2.70937 4.59684C2.55624 4.63747 2.35624 4.81872 2.31562 4.94684C2.29687 5.00309 2.16874 7.14059 2.02812 9.70309C1.74062 14.9187 1.74374 14.5906 1.96874 15.05C2.16562 15.4531 2.53124 15.7656 2.99687 15.9312C3.12812 15.9781 3.58437 15.9843 7.87499 15.9937C11.2 16 12.6687 15.9937 12.8125 15.9687C12.925 15.95 13.1281 15.8781 13.2687 15.8125C13.7375 15.5875 14.1031 15.0968 14.1906 14.5781C14.225 14.3843 14.1969 13.7656 13.9719 9.73434C13.8312 7.19059 13.7031 5.05309 13.6844 4.98434C13.6406 4.82497 13.4562 4.64059 13.2969 4.59684C13.2156 4.57497 12.7594 4.56247 12.0094 4.56247H10.8437V3.54684C10.8437 2.42497 10.825 2.25622 10.65 1.79997C10.45 1.28434 9.99062 0.734342 9.49375 0.428092C8.94062 0.0812168 8.17812 -0.071909 7.53749 0.0343418ZM8.57187 1.24372C9.05937 1.42184 9.46562 1.84372 9.63125 2.34059C9.69375 2.53122 9.7 2.61872 9.7125 3.55309L9.72187 4.56247H8.00312H6.28124V3.63122C6.28124 2.95622 6.29374 2.64684 6.32499 2.49684C6.45624 1.88122 6.93124 1.38122 7.56249 1.19997C7.78124 1.13747 8.34687 1.15934 8.57187 1.24372Z" fill="white"/>
</svg>
