<svg width="16" height="16" viewBox="0 0 16 16" fill="none" xmlns="http://www.w3.org/2000/svg">
<path d="M2.04062 0.0624027C1.40625 0.228028 0.934375 0.693653 0.728125 1.35928C0.675 1.5374 0.671875 1.79365 0.671875 6.9999C0.671875 12.2062 0.675 12.4624 0.728125 12.6405C0.86875 13.0968 1.14687 13.4655 1.53125 13.7155C1.77813 13.8749 2.06563 13.9655 2.4 13.9905L2.65625 14.0093V9.21553C2.65625 6.0999 2.66875 4.32803 2.6875 4.15615C2.78125 3.40615 3.08125 2.78428 3.60625 2.26553C4.02188 1.85303 4.46875 1.59678 5.05625 1.42803C5.29688 1.35928 5.3125 1.35928 8.60313 1.3499C10.6687 1.34678 11.9062 1.33115 11.9062 1.3124C11.9062 1.24053 11.7906 0.996778 11.6625 0.803028C11.4219 0.431153 11.0531 0.174903 10.6 0.0592785C10.375 0.00302792 10.2188 -9.72748e-05 6.31563 0.00302792C2.45938 0.00302792 2.25625 0.00615311 2.04062 0.0624027Z" fill="white"/>
<path d="M5.60938 2.67806C5.28751 2.72181 4.92188 2.88431 4.65001 3.10619C4.43438 3.28119 4.18126 3.64994 4.08751 3.93119L4.01563 4.14056L4.00626 9.23431C3.99688 14.9062 3.98438 14.5562 4.21251 15.0062C4.36251 15.3124 4.68751 15.6374 4.99376 15.7874C5.44063 16.0124 5.20313 16.0031 9.76563 15.9937L13.8594 15.9843L14.0938 15.8999C14.6719 15.6874 15.0813 15.2468 15.2719 14.6374C15.325 14.4624 15.3281 14.2124 15.3281 9.32806V4.20306L15.2594 3.98431C15.0781 3.40619 14.6188 2.94369 14.0313 2.74056L13.8281 2.67181L9.76563 2.66869C7.53126 2.66556 5.66251 2.67181 5.60938 2.67806ZM12.3938 5.39369C12.55 5.46869 12.6344 5.60619 12.65 5.80931C12.6625 6.01556 12.5875 6.15619 12.4063 6.26244C12.3 6.32806 12.2563 6.32806 9.72501 6.33744C8.02813 6.34369 7.11251 6.33431 7.03126 6.31244C6.87188 6.26869 6.70001 6.07806 6.67188 5.90931C6.64376 5.74369 6.75001 5.51556 6.90313 5.41556L7.00938 5.34369H9.64688C12.0188 5.34369 12.2969 5.34994 12.3938 5.39369ZM12.4281 8.08119C12.7344 8.30931 12.7344 8.69056 12.4281 8.91869C12.3406 8.98431 12.3219 8.98431 9.69688 8.99369L7.05626 8.99994L6.93438 8.93119C6.59063 8.74056 6.58438 8.26244 6.92501 8.07181L7.04688 7.99994L9.69376 8.00931C12.3219 8.01556 12.3406 8.01556 12.4281 8.08119ZM12.3938 10.3937C12.55 10.4687 12.6344 10.6062 12.65 10.8093C12.6625 11.0156 12.5875 11.1562 12.4063 11.2624C12.3 11.3281 12.2563 11.3281 9.72501 11.3374C8.02813 11.3437 7.11251 11.3343 7.03126 11.3124C6.87188 11.2687 6.70001 11.0781 6.67188 10.9093C6.64376 10.7437 6.75001 10.5156 6.90313 10.4156L7.00938 10.3437H9.64688C12.0188 10.3437 12.2969 10.3499 12.3938 10.3937ZM12.4281 13.0812C12.7344 13.3093 12.7344 13.6906 12.4281 13.9187C12.3406 13.9843 12.3219 13.9843 9.69688 13.9937L7.05626 13.9999L6.93438 13.9312C6.59063 13.7406 6.58438 13.2624 6.92501 13.0718L7.04688 12.9999L9.69376 13.0093C12.3219 13.0156 12.3406 13.0156 12.4281 13.0812Z" fill="white"/>
</svg>
