<svg width="20" height="20" viewBox="0 0 20 20" fill="none" xmlns="http://www.w3.org/2000/svg">
<path d="M2.67578 0.847656C1.82422 0.964844 1.16406 1.53516 0.910156 2.36328C0.847656 2.56641 0.839844 2.74219 0.839844 3.75C0.839844 4.75781 0.847656 4.93359 0.910156 5.13672C1.13281 5.85938 1.64062 6.36719 2.36328 6.58984C2.57812 6.65625 2.77734 6.66016 5 6.66016C7.22266 6.66016 7.42188 6.65625 7.63672 6.58984C8.36328 6.36719 8.86719 5.86328 9.08984 5.13672C9.15234 4.93359 9.16016 4.75781 9.16016 3.75C9.16016 2.74219 9.15234 2.56641 9.08984 2.36328C8.91797 1.80859 8.55078 1.34375 8.08594 1.09766C7.60156 0.839844 7.67969 0.84375 5.11719 0.835938C3.83984 0.832031 2.74219 0.835938 2.67578 0.847656Z" fill="white"/>
<path d="M12.6758 0.847645C11.8242 0.964832 11.1641 1.53514 10.9102 2.36327C10.8438 2.58593 10.8398 2.82811 10.8398 6.69921V10.8008L10.9414 11.0781C11.207 11.8086 11.8203 12.3359 12.5391 12.4609C12.7109 12.4922 13.543 12.5 15.1562 12.4922C17.4922 12.4805 17.5234 12.4766 17.75 12.3906C18.3984 12.1484 18.8242 11.7187 19.0586 11.0781L19.1602 10.8008V6.69921C19.1602 2.82811 19.1562 2.58593 19.0898 2.36327C18.918 1.80858 18.5508 1.34374 18.0859 1.09764C17.6016 0.839832 17.6797 0.843739 15.1172 0.835926C13.8398 0.83202 12.7422 0.835926 12.6758 0.847645Z" fill="white"/>
<path d="M2.48047 7.54688C2.375 7.56641 2.16406 7.64062 2.01172 7.71484C1.50781 7.96094 1.14453 8.36719 0.941406 8.92188L0.839844 9.19922V13.3008C0.839844 17.1719 0.84375 17.4141 0.910156 17.6367C1.13281 18.3594 1.64062 18.8672 2.36328 19.0898C2.57812 19.1562 2.77734 19.1602 5 19.1602C7.22266 19.1602 7.42188 19.1562 7.63672 19.0898C8.36328 18.8672 8.86719 18.3633 9.08984 17.6367C9.15625 17.4141 9.16016 17.1719 9.16016 13.3008V9.19922L9.05859 8.92188C8.79297 8.19922 8.19141 7.67188 7.48438 7.54297C7.19141 7.48828 2.76172 7.49219 2.48047 7.54688Z" fill="white"/>
<path d="M12.6758 13.3477C11.8242 13.4648 11.1641 14.0352 10.9102 14.8633C10.8477 15.0664 10.8398 15.2422 10.8398 16.25C10.8398 17.2578 10.8477 17.4336 10.9102 17.6367C11.1328 18.3594 11.6406 18.8672 12.3633 19.0898C12.5781 19.1562 12.7773 19.1602 15 19.1602C17.2227 19.1602 17.4219 19.1562 17.6367 19.0898C18.3633 18.8672 18.8672 18.3633 19.0898 17.6367C19.1523 17.4336 19.1602 17.2578 19.1602 16.25C19.1602 15.2422 19.1523 15.0664 19.0898 14.8633C18.918 14.3086 18.5508 13.8438 18.0859 13.5977C17.6016 13.3398 17.6797 13.3438 15.1172 13.3359C13.8398 13.332 12.7422 13.3359 12.6758 13.3477Z" fill="white"/>
</svg>
