<svg width="24" height="24" viewBox="0 0 24 24" fill="none" xmlns="http://www.w3.org/2000/svg">
<path fill-rule="evenodd" clip-rule="evenodd" d="M3.02312 1.9974C3.15838 1.83536 3.23986 1.62628 3.23986 1.39804C3.23986 0.883291 2.82545 0.466003 2.31426 0.466003C1.80311 0.466003 1.38874 0.883224 1.38867 1.39792L1.38745 1.39792C0.876258 1.39792 0.461857 1.8152 0.461857 2.32996C0.461857 2.52188 0.519468 2.70026 0.618227 2.84852C0.258121 2.97613 0 3.32168 0 3.72793C0 4.07524 0.188644 4.37817 0.468381 4.53851C0.522985 5.00082 0.913642 5.35931 1.38745 5.35931C1.49888 5.35931 1.60571 5.33948 1.70465 5.30313C1.89222 5.74738 2.37755 6.11817 3.02233 6.33073C3.01274 6.39422 3.00781 6.45881 3.00781 6.52432C3.00781 7.2354 3.58881 7.84021 4.3993 8.06343C4.39751 8.09382 4.3966 8.12443 4.3966 8.15525C4.3966 8.78605 4.77761 9.33321 5.33513 9.60455C5.32716 9.6642 5.32307 9.72481 5.32307 9.78622C5.32307 10.22 5.52725 10.6142 5.86026 10.9064C5.81138 11.0672 5.78493 11.239 5.78493 11.4175C5.78493 11.5963 5.81145 11.7684 5.86046 11.9293C5.69225 11.8995 5.51134 11.8833 5.32291 11.8833C5.02343 11.8833 4.74293 11.9243 4.50226 11.9956C4.34187 11.5105 4.04352 11.1845 3.70196 11.1845C3.69966 11.1845 3.69736 11.1845 3.69506 11.1846C3.69961 11.1469 3.70201 11.108 3.70201 11.0681C3.70201 10.7463 3.54661 10.4855 3.35491 10.4855C3.1669 10.4855 3.01381 10.7364 3.00798 11.0495C2.60963 11.2806 2.2361 12.0054 2.09382 12.9037C1.91264 14.0477 2.17506 15.0398 2.67996 15.1198C2.97626 15.1667 3.29023 14.8891 3.5357 14.4204C3.58963 14.4376 3.6452 14.4466 3.70196 14.4466C4.09217 14.4466 4.42599 14.0211 4.56213 13.419C4.78896 13.4799 5.04793 13.5144 5.32291 13.5144C5.68601 13.5144 6.0212 13.4543 6.29132 13.3527C6.36636 13.513 6.53533 13.655 6.76739 13.7633C6.84758 14.0961 7.00865 14.3834 7.22119 14.5875C7.18949 14.7302 7.17285 14.8778 7.17285 15.029C7.17285 15.8941 7.71752 16.6433 8.51146 17.0074C7.79904 17.6223 7.65284 18.6622 8.19586 19.3804C8.38073 19.625 8.62255 19.8019 8.89182 19.908C8.92554 19.9668 8.9633 20.0241 9.00514 20.0794C9.11469 20.2243 9.24425 20.3455 9.38766 20.4422C8.93104 20.7929 8.68632 21.2425 8.84098 21.447C8.99581 21.6518 9.49226 21.5335 9.94982 21.1827L9.96825 21.1684C9.95639 21.2176 9.9502 21.2685 9.9502 21.3204C9.9502 21.7429 10.3603 22.0903 10.8858 22.1318C10.9557 22.529 11.3909 22.8349 11.9173 22.8349L11.9226 22.8349C12.1062 22.98 12.3474 23.0681 12.6116 23.0681C12.6505 23.0681 12.6888 23.0661 12.7266 23.0624L12.7266 23.0679C12.7266 23.454 13.1928 23.7669 13.7679 23.7669C14.1302 23.7669 14.4493 23.6427 14.6358 23.4542C14.7775 23.6363 15.1643 23.7669 15.6194 23.7669C16.1691 23.7669 16.6192 23.5764 16.658 23.3348C16.7552 23.3944 16.8766 23.4299 17.0082 23.4299C17.3277 23.4299 17.5867 23.2212 17.5867 22.9638C17.5867 22.7065 17.3277 22.4978 17.0082 22.4978C16.6887 22.4978 16.4297 22.7065 16.4297 22.9638C16.4297 22.9793 16.4306 22.9946 16.4325 23.0097C16.2416 22.9032 15.9483 22.8349 15.6194 22.8349C15.2901 22.8349 14.9964 22.9033 14.8056 23.0101C14.7619 22.6511 14.314 22.3689 13.7679 22.3689C13.717 22.3689 13.667 22.3713 13.618 22.3761C13.6408 22.2995 13.6529 22.219 13.6529 22.136C13.6529 21.7447 13.3835 21.4098 13.0017 21.2716C13.1199 21.1204 13.1892 20.9364 13.1892 20.7379C13.1892 20.4595 13.0528 20.2096 12.8365 20.0388C13.0528 19.868 13.1892 19.6181 13.1892 19.3396C13.1892 19.0081 12.9958 18.717 12.7045 18.5518C12.8628 18.3883 12.9586 18.175 12.9586 17.9417C12.9586 17.5902 12.7413 17.2842 12.4204 17.1254C12.469 17.0177 12.4957 16.9 12.4957 16.7767C12.4957 16.4886 12.3497 16.2311 12.1204 16.0601C12.5982 15.9755 12.9586 15.5983 12.9586 15.1458L12.9586 15.1438C12.997 15.1451 13.0356 15.1457 13.0744 15.1457C13.5217 15.1457 13.9408 15.0588 14.3008 14.9071C14.3543 14.9108 14.4083 14.9127 14.4628 14.9127C14.6841 14.9127 14.8986 14.8815 15.1023 14.823C15.2673 14.8815 15.441 14.9128 15.6202 14.9128C16.7065 14.9128 17.5871 13.7652 17.5871 12.3497C17.5871 12.3296 17.5869 12.3097 17.5866 12.2897C17.983 12.1486 18.2692 11.7726 18.2803 11.3278C19.1014 11.1783 19.6691 10.8573 19.6691 10.4854C19.6691 10.4678 19.6678 10.4503 19.6653 10.433C20.611 10.3054 21.289 9.9598 21.289 9.55342C21.289 9.38035 21.1661 9.2183 20.9518 9.07942C21.4426 8.90889 21.7509 8.66247 21.7509 8.38844C21.7509 8.30108 21.7196 8.21652 21.661 8.13633C22.7689 8.04965 23.6025 7.67372 23.6025 7.22312C23.6025 6.88344 23.1288 6.58621 22.421 6.42331C22.437 6.38011 22.4453 6.33595 22.4453 6.29104C22.4453 5.77629 21.3575 5.35901 20.0156 5.35901C19.8677 5.35901 19.7228 5.36408 19.5821 5.3738C19.1489 5.22005 18.5693 5.1261 17.9326 5.1261C16.5907 5.1261 15.5029 5.54338 15.5029 6.05813C15.5029 6.16916 15.5535 6.27566 15.6464 6.37441C15.2696 6.5386 15.041 6.75407 15.041 6.99002C15.041 7.10099 15.0916 7.20743 15.1843 7.30614C14.807 7.47037 14.5781 7.68598 14.5781 7.9221C14.5781 8.00795 14.6084 8.09108 14.665 8.17002C14.1851 8.34029 13.8846 8.5839 13.8846 8.85443C13.8846 8.9299 13.908 9.00327 13.9522 9.07355C13.4236 9.24452 13.0878 9.50042 13.0878 9.78642C13.0878 9.90616 13.1466 10.0206 13.2539 10.1258C12.9127 10.3327 12.6236 10.6244 12.4125 10.9737C11.8906 11.0304 11.4844 11.4755 11.4844 12.0161C11.4844 12.0361 11.4849 12.056 11.486 12.0757C11.0869 12.3239 10.8014 12.664 10.6929 13.0503C10.365 12.9 9.99461 12.8154 9.60253 12.8154C9.515 12.8154 9.42854 12.8196 9.3434 12.8279C9.295 12.7742 9.23539 12.7237 9.16609 12.677C9.0735 12.3797 8.91463 12.1256 8.71288 11.9445C8.76488 11.7792 8.7931 11.6019 8.7931 11.4175C8.7931 11.2395 8.76679 11.0681 8.71816 10.9077C9.05204 10.6154 9.25683 10.2206 9.25683 9.78622C9.25683 9.05161 8.67119 8.43042 7.86596 8.22621C7.86703 8.20268 7.86757 8.17903 7.86757 8.15525C7.86757 7.60664 7.57938 7.12129 7.13751 6.82562C7.1608 6.72797 7.17298 6.62726 7.17298 6.52432C7.17298 6.14744 7.00977 5.80042 6.73569 5.52424C6.86864 5.33015 6.9421 5.11698 6.9421 4.8933C6.9421 4.16656 6.16667 3.55084 5.09528 3.34C4.71546 3.02728 4.13193 2.81973 3.47113 2.79777L3.47113 2.79595C3.47113 2.45715 3.29161 2.16057 3.02312 1.9974ZM1.73587 3.24793L1.72403 3.25618C1.71474 3.24027 1.705 3.22466 1.69481 3.20937L1.71258 3.20287C1.71995 3.21813 1.72771 3.23315 1.73587 3.24793ZM19.1246 20.0956C19.4018 20.2556 19.2842 20.9865 18.862 21.7282C18.4398 22.4698 17.8728 22.9413 17.5956 22.7813C17.3184 22.6213 17.436 21.8904 17.8582 21.1488C18.2805 20.4071 18.8474 19.9356 19.1246 20.0956Z" fill="white"/>
<path d="M2.79171 0.0962868C0.78821 0.752331 -0.255178 2.42943 0.0534299 4.50608C0.0828211 4.70832 0.122009 4.89576 0.136705 4.92042C0.156299 4.95002 0.366936 5.07827 0.611863 5.20652C2.37044 6.13879 3.85469 7.75177 4.96666 9.94186C5.29486 10.5782 5.71124 11.5844 5.66715 11.6239C5.65246 11.6387 5.5153 11.6288 5.35854 11.5992C5.20179 11.5696 4.99115 11.545 4.88339 11.545C4.67765 11.545 4.68255 11.5647 4.78052 11.2145C4.80011 11.1454 4.77562 11.0764 4.70214 11.0024C4.59927 10.8988 4.42782 10.8939 4.10942 10.9827C4.04574 11.0024 4.02614 10.9333 3.99675 10.5732C3.96246 10.1194 3.87919 9.9172 3.72733 9.9172C3.59507 9.9172 3.20319 10.1984 3.01215 10.4302C2.33615 11.2638 2.02754 12.3145 1.97366 13.9965L1.94426 14.9732L2.09122 15.1261C2.21858 15.2494 2.31165 15.2889 2.67415 15.353C2.90928 15.3974 3.13461 15.422 3.164 15.4072C3.19829 15.3924 3.31585 15.2494 3.42362 15.0817C3.56568 14.8597 3.70774 14.7167 3.94287 14.5638C4.28087 14.3369 4.56008 14.0162 4.66295 13.7301L4.72663 13.5575L5.1675 13.5822C5.66225 13.6068 6.13741 13.7203 6.46071 13.8781L6.67625 13.9866L6.81341 14.5391C7.03384 15.4319 7.54329 16.3839 7.99886 16.7489L8.16541 16.887L7.88619 17.7059C7.48451 18.865 7.48451 18.8946 7.89109 19.4372C8.20459 19.8565 8.34175 19.9552 8.66506 20.0094C8.94917 20.0538 9.01285 20.1475 8.8414 20.2856C8.61607 20.4632 8.523 20.7345 8.523 21.2426C8.523 21.7802 8.54259 21.8098 9.02755 21.9331C9.34105 22.0121 9.36555 22.0121 9.44882 21.9331C9.50271 21.8838 9.55659 21.7753 9.57129 21.6865C9.59088 21.5977 9.63497 21.4843 9.67905 21.43C9.74763 21.3462 9.74763 21.3659 9.71824 21.6964C9.68395 22.1157 9.69865 22.1453 10.0758 22.3228C10.4334 22.4856 10.6147 22.4856 10.6882 22.3228L10.742 22.1995L10.987 22.4708C11.9618 23.5708 13.5342 24.1134 15.3809 23.9802C16.4488 23.9013 16.8799 23.7385 17.8106 23.0578C19.192 22.0466 19.4663 21.5977 19.5447 20.2067C19.5888 19.4027 19.5545 19.2399 19.3488 19.2399C19.29 19.2399 19.0353 19.4323 18.7707 19.674C18.1976 20.2067 17.9821 20.4386 17.8106 20.7296C17.6784 20.9614 17.4873 21.6224 17.4873 21.8592C17.4873 21.9529 17.4334 22.0417 17.3061 22.1502C16.6693 22.7125 15.2732 22.8704 14.4208 22.4757C13.9702 22.2686 13.5538 21.7358 13.3725 21.139C13.3383 21.0305 13.2942 20.4534 13.2746 19.8565C13.2109 18.2238 13.0443 17.2767 12.6868 16.5516L12.4908 16.157L12.7308 15.935C13.4558 15.2691 14.5188 14.9436 15.7483 15.0176C16.0471 15.0324 16.4243 15.062 16.586 15.0768C16.7868 15.0965 16.8995 15.0866 16.9191 15.0521C16.9387 15.0225 17.0073 14.7808 17.0709 14.5144C17.4383 12.9902 18.08 11.9643 19.1038 11.2638C19.5692 10.9481 20.2207 10.6867 20.691 10.6275C21.0779 10.5782 21.1416 10.519 21.1808 10.154C21.2592 9.44367 21.5531 8.83202 21.9793 8.50646C22.332 8.23517 22.6798 8.13158 23.3313 8.09705C24.1003 8.05759 24.1248 8.02799 23.8113 7.38182C23.0325 5.76884 21.0584 4.88589 18.2466 4.88589C17.3502 4.88589 15.67 5.0684 15.5622 5.17692C15.5426 5.19665 15.4838 5.39396 15.4299 5.61099C15.1213 6.92308 14.1416 8.41274 12.1479 10.6176C11.7854 11.0172 11.6189 11.254 11.3886 11.688C11.227 11.9938 11.0164 12.3342 10.9233 12.4477L10.7469 12.645L10.3697 12.5907C10.1591 12.5562 9.8358 12.5315 9.65456 12.5315H9.31656L9.23329 12.2947C9.1843 12.1616 9.14021 11.8459 9.12552 11.545C9.09613 10.8939 9.1745 10.5584 9.50271 9.932C9.63497 9.68043 9.73294 9.44367 9.71824 9.4042C9.70355 9.36968 9.50271 9.1921 9.26758 9.01452C8.22419 8.23023 7.53839 7.21904 7.1906 5.93655C7.10242 5.61593 7.08283 5.39889 7.07793 4.64913C7.06813 3.95362 7.04854 3.72672 6.99955 3.67739C6.96037 3.64287 6.73013 3.57874 6.48521 3.53435C4.94707 3.25812 3.8351 2.64647 3.45301 1.86218C3.27177 1.48236 3.23748 1.01869 3.35504 0.555023C3.502 -0.0171642 3.39913 -0.101019 2.79171 0.0962868ZM2.80151 0.929905C2.73783 2.03482 3.38443 2.94243 4.63356 3.50475C5.02055 3.68233 5.76022 3.90923 6.22559 3.99802L6.54889 4.05721L6.57828 4.8267C6.59787 5.43835 6.62727 5.70471 6.72524 6.08453C6.89179 6.71098 7.171 7.34236 7.5237 7.88001C7.79802 8.30422 8.47401 9.03426 8.90998 9.37954L9.12552 9.55219L8.97366 9.87281C8.64056 10.5535 8.5328 11.471 8.69445 12.1813C8.73853 12.3589 8.75323 12.5167 8.73364 12.5364C8.65526 12.6154 8.25358 12.5956 8.08213 12.5068C7.98906 12.4575 7.73923 12.3441 7.5286 12.2602L7.14651 12.1024L6.8281 11.1504C6.37254 9.80375 6.24518 9.56698 6.03944 9.70016C5.8484 9.82348 5.8582 9.87774 6.21579 10.8791C6.41173 11.4118 6.55869 11.8607 6.54889 11.8755C6.5097 11.9149 6.26967 11.8311 6.26967 11.7768C6.26967 11.6782 5.71614 10.3315 5.48101 9.85308C4.33965 7.56926 2.79171 5.84776 0.949862 4.8267C0.577573 4.61953 0.562878 4.60473 0.523689 4.39263C0.469805 4.09174 0.518791 3.19893 0.606964 2.86351C0.807804 2.12854 1.31725 1.43304 1.94916 1.03349C2.22838 0.855915 2.70844 0.604349 2.79171 0.599417C2.80641 0.594484 2.81131 0.747396 2.80151 0.929905ZM20.0346 5.52221C21.5825 5.7935 22.6161 6.36569 23.1892 7.2733C23.2872 7.42128 23.3656 7.55939 23.3656 7.57419C23.3656 7.58899 23.2627 7.59885 23.1402 7.59885C22.8512 7.59885 22.3908 7.71724 22.043 7.88495C21.6707 8.06252 21.1955 8.54592 21.0143 8.94054C20.8624 9.26609 20.7204 9.75936 20.7204 9.95173C20.7204 10.08 20.6812 10.0997 20.108 10.2625C18.5993 10.6768 17.3747 11.9347 16.8015 13.6562C16.7231 13.8979 16.635 14.2037 16.6056 14.3369L16.5517 14.5835L16.2725 14.549C15.2242 14.4158 14.0192 14.5934 13.2256 14.9978C12.7014 15.2593 11.903 15.9696 11.903 16.1718C11.903 16.2063 11.9667 16.3198 12.0499 16.4184C12.481 16.966 12.7161 18.0659 12.7798 19.9058C12.819 20.9614 12.8337 21.065 12.9562 21.4103C13.2109 22.1206 13.6273 22.6188 14.2004 22.9098C14.9303 23.2847 16.2235 23.2748 17.0416 22.8901C17.2963 22.7668 17.3404 22.7569 17.2718 22.8358C17.1493 22.969 16.586 23.26 16.2382 23.3636C16.0178 23.4327 15.7826 23.4524 15.3075 23.4524C13.9996 23.4524 13.2697 23.0874 12.4908 22.0417C12.1185 21.5484 11.6581 20.6063 11.4719 19.97C11.3495 19.5309 11.3397 19.452 11.3788 19.1413C11.4131 18.8798 11.4131 18.7812 11.3641 18.722C11.2858 18.6283 11.0996 18.6233 11.0115 18.7171C10.9723 18.7565 10.8841 19.1561 10.8057 19.6888C10.7322 20.187 10.6588 20.6309 10.649 20.6803C10.6294 20.7444 10.5412 20.7641 10.1444 20.7789C9.68885 20.7937 9.64966 20.8036 9.47331 20.9466C9.37044 21.0255 9.24798 21.1785 9.1941 21.2771C9.14511 21.3758 9.08143 21.4448 9.05694 21.43C8.98346 21.3856 9.00795 20.8529 9.08633 20.7345C9.16961 20.6161 9.36065 20.5421 9.73783 20.4977C10.0807 20.4534 10.1542 20.3695 10.1297 20.0686C10.0954 19.743 9.90439 19.4718 9.57129 19.2794C9.23819 19.0919 9.1745 18.9686 9.13042 18.4112L9.09613 18.0117L9.26268 17.844C9.40963 17.696 9.49291 17.6664 9.97297 17.5727C10.6294 17.4395 10.6588 17.4444 11.1437 17.8834C11.3397 18.061 11.5405 18.2041 11.5944 18.2041C11.7266 18.2041 11.805 18.1103 11.805 17.9476C11.805 17.839 11.7217 17.7404 11.3886 17.4444C10.8351 16.961 10.6931 16.9216 9.97297 17.0696L9.45862 17.1731L9.00305 16.8673C8.75323 16.6996 8.46422 16.4924 8.36135 16.4135C7.97926 16.1126 7.54819 15.3579 7.32776 14.6082L7.24938 14.3467L7.46491 14.5243C7.58738 14.623 7.71474 14.7019 7.75393 14.7019C7.86659 14.7019 7.98416 14.5638 7.98416 14.4306C7.98416 14.1494 6.78402 13.3898 6.04924 13.2023C5.52509 13.0692 4.89808 13.0198 4.37884 13.0741C3.74203 13.1432 3.58038 13.2517 3.72243 13.523C3.76162 13.592 3.8253 13.6167 3.96736 13.6167C4.07513 13.6167 4.1633 13.6364 4.1633 13.6562C4.1633 13.7252 3.70284 14.1445 3.47751 14.2777C3.33055 14.3615 3.20809 14.4898 3.11012 14.6575C2.96806 14.8942 2.95826 14.9041 2.79171 14.8745C2.43412 14.8104 2.44881 14.8351 2.44881 14.3418C2.45371 12.8324 2.72803 11.6486 3.24727 10.9432C3.35994 10.7853 3.46771 10.6571 3.4922 10.6571C3.5118 10.6571 3.52649 10.7903 3.52649 10.9531C3.52649 11.2194 3.5118 11.2638 3.35504 11.4414C3.13461 11.6831 2.94357 12.1122 2.87499 12.497C2.81131 12.8867 2.85049 13.0642 3.01704 13.1037C3.20809 13.153 3.31096 13.0198 3.35014 12.6746C3.39913 12.1665 3.64406 11.7423 3.98206 11.5598C4.06043 11.5203 4.13391 11.5006 4.1535 11.5154C4.1682 11.5351 4.10942 11.7275 4.02124 11.9544C3.8253 12.4526 3.79101 12.6104 3.86939 12.7042C3.95266 12.8028 4.13391 12.7979 4.22208 12.6894C4.26127 12.645 4.34945 12.4773 4.41313 12.3145L4.53069 12.0234L4.94707 12.053C5.63286 12.1024 6.74483 12.4329 7.64126 12.862L8.20459 13.1284L8.53279 13.0741C8.96876 13.01 9.8701 13.01 10.3648 13.084C10.6833 13.1284 10.791 13.1284 10.9184 13.0741C11.1633 12.9754 11.467 12.5907 11.7805 11.9889C12.0255 11.5252 12.1724 11.323 12.6574 10.7853C14.0583 9.23156 14.8176 8.20557 15.3663 7.12532C15.6161 6.63205 15.9198 5.84283 15.9198 5.67512C15.9198 5.56167 16.0178 5.54687 17.3649 5.40875C17.8694 5.35943 19.4908 5.42355 20.0346 5.52221ZM8.8463 17.5677C8.66016 17.7897 8.60627 18.0265 8.64056 18.4458C8.65526 18.6529 8.68955 18.8996 8.71894 18.9884C8.79732 19.2596 8.99816 19.526 9.20879 19.6345C9.42433 19.743 9.60068 19.9009 9.60068 19.9798C9.60068 20.0785 9.46842 20.0242 9.36065 19.8762C9.22839 19.6987 8.97856 19.5359 8.83161 19.5359C8.77282 19.5359 8.67485 19.5112 8.61117 19.4816C8.44952 19.4076 8.08213 18.9045 8.08213 18.7615C8.08213 18.6924 8.1948 18.3076 8.33196 17.9081L8.58178 17.1731L8.77282 17.3014L8.96387 17.4247L8.8463 17.5677ZM19.0108 20.7986C18.8932 21.4202 18.5454 21.9085 17.8547 22.4067L17.5118 22.6582L17.7469 22.4067C17.9282 22.2044 17.9772 22.1206 17.9772 21.9825C17.9772 21.4251 18.2025 20.9318 18.6826 20.4336L19.0304 20.0686L19.0451 20.2955C19.0548 20.4188 19.0353 20.6457 19.0108 20.7986ZM11.8834 22.0318C12.0352 22.2686 12.3047 22.6139 12.481 22.8013C12.6525 22.9838 12.7798 23.1367 12.7602 23.1367C12.6672 23.1367 12.0499 22.7618 11.7707 22.5349C11.4376 22.2735 11.1682 21.9627 10.9282 21.5879C10.7518 21.3018 10.742 21.2623 10.8694 21.2623C10.9919 21.2623 11.0653 21.1686 11.0996 20.9614C11.1143 20.8677 11.1388 20.7641 11.1486 20.7246C11.1633 20.6852 11.2662 20.8677 11.3837 21.1291C11.5013 21.3906 11.7266 21.8 11.8834 22.0318ZM10.3844 21.6372C10.3844 21.7556 10.3257 21.8542 10.2522 21.8542C10.1983 21.8542 10.1836 21.8246 10.2081 21.7408C10.2228 21.6816 10.2375 21.578 10.2375 21.5089C10.2424 21.3906 10.2424 21.3906 10.311 21.4793C10.3502 21.5336 10.3844 21.6027 10.3844 21.6372Z" fill="#3E3E3E"/>
<path d="M1.89108 2.3356C1.79311 2.45398 1.65595 2.68089 1.58247 2.84366C1.45511 3.11003 1.44531 3.17908 1.44531 3.72661C1.45021 4.45171 1.52369 4.68848 1.75392 4.68848C1.98905 4.68848 2.02824 4.59476 1.95966 4.20508C1.84209 3.5441 1.94496 3.06563 2.30745 2.58223C2.45931 2.37999 2.45931 2.37013 2.38093 2.24681C2.25847 2.05444 2.09682 2.08404 1.89108 2.3356Z" fill="#3E3E3E"/>
<path d="M3.01214 4.16086C2.87498 4.19539 2.73782 4.23978 2.70843 4.25951C2.61046 4.31871 2.60067 4.49135 2.69374 4.59987C2.77701 4.70345 2.78681 4.70345 3.12481 4.63933C3.8253 4.50615 4.69234 4.64426 5.53489 5.01914C5.8288 5.14739 6.00025 5.13753 6.04923 4.98461C6.10802 4.79717 6.02964 4.70345 5.67695 4.54561C5.02544 4.24965 4.54049 4.1362 3.86939 4.11647C3.4726 4.1066 3.1689 4.1214 3.01214 4.16086Z" fill="#3E3E3E"/>
<path d="M16.3459 5.94637C16.3067 5.98583 16.2382 6.17327 16.1941 6.36564C15.9197 7.58894 14.9351 9.1378 13.2109 11.0467C12.8484 11.4463 12.5887 11.7768 12.5887 11.836C12.5887 11.9593 12.7161 12.0875 12.8337 12.0875C12.8876 12.0875 13.1325 11.8606 13.4117 11.5548C15.2829 9.52748 16.3704 7.83558 16.6741 6.47416C16.7574 6.09928 16.7378 5.96117 16.5762 5.90197C16.4635 5.85758 16.4243 5.86251 16.3459 5.94637Z" fill="#3E3E3E"/>
<path d="M16.8701 7.03173C16.7966 7.14025 16.7966 7.16491 16.8652 7.2685C16.9191 7.35235 17.0317 7.40168 17.306 7.46087C18.4866 7.7223 19.4712 8.60525 19.8337 9.73483C19.9023 9.93706 20.0541 10.0111 20.2256 9.91733C20.3676 9.84334 20.3578 9.66577 20.1864 9.27116C19.7014 8.12185 18.6874 7.2833 17.4334 6.9824C17.0121 6.88375 16.9631 6.88868 16.8701 7.03173Z" fill="#3E3E3E"/>
<path d="M15.9098 9.57702C15.7922 9.64114 15.802 9.76939 15.944 10.2281C16.1841 10.9878 16.1841 12.1568 15.9489 13.2272C15.7922 13.9079 15.7922 13.9917 15.9245 14.0657C16.1057 14.1595 16.2429 14.0559 16.3261 13.755C16.6543 12.6007 16.718 11.2245 16.4829 10.3021C16.3016 9.61648 16.1596 9.42904 15.9098 9.57702Z" fill="#3E3E3E"/>
<path d="M2.70345 13.6464C2.50261 13.7845 2.61037 14.11 2.8602 14.11C2.98756 14.11 3.13452 13.967 3.13452 13.8486C3.13452 13.75 2.96797 13.5675 2.87489 13.5675C2.84061 13.5675 2.76223 13.602 2.70345 13.6464Z" fill="#3E3E3E"/>

</svg>
