<svg width="75" height="75" viewBox="0 0 75 75" fill="none" xmlns="http://www.w3.org/2000/svg">
<g filter="url(#filter0_dii_733_299)">
<rect x="9" y="9" width="48" height="48" rx="24" fill="url(#paint0_linear_733_299)"/>
</g>
<circle cx="32.9841" cy="33" r="19.52" fill="url(#paint1_linear_733_299)" stroke="white" stroke-width="1.14613"/>
<path d="M26.5814 23.1095C26.5178 23.1646 26.4881 23.2366 26.4881 23.3299C26.4881 23.491 26.4881 23.491 27.1494 23.9742C27.391 24.1565 27.8276 24.5125 28.1159 24.7626C28.6118 25.195 29.5528 26.1445 29.7266 26.3861L29.8029 26.4963L29.3239 26.5896C28.0565 26.827 26.7637 27.3483 25.7294 28.035C25.2504 28.3529 25.1656 28.4801 25.3013 28.6624C25.386 28.7768 25.3903 28.7768 26.0134 28.7895L26.6407 28.8023L26.1363 29.3194C25.5344 29.934 25.1995 30.3452 24.7629 31.0065C24.2585 31.7652 23.6608 33.0199 23.6608 33.3124C23.6608 33.4396 23.8134 33.5879 23.9448 33.5879C23.9999 33.5879 24.1822 33.4947 24.3518 33.3802C24.7333 33.1259 25.2292 32.8207 25.2292 32.8419C25.2292 32.8546 25.1402 33.0115 25.03 33.1937C24.5722 33.9694 24.1059 35.0546 23.8516 35.9405C23.7286 36.3771 23.5506 37.2206 23.5082 37.5852C23.4828 37.8056 23.4913 37.8395 23.576 37.9328C23.7541 38.1235 23.8304 38.0811 24.4535 37.4877C24.7714 37.1825 25.0384 36.9409 25.0469 36.9536C25.0596 36.9621 25.0088 37.1528 24.9367 37.369C24.5001 38.7381 24.2543 40.0734 24.2543 41.0822C24.2543 41.4892 24.2627 41.5273 24.3602 41.6206C24.5595 41.824 24.6739 41.7562 25.1571 41.1331C25.2928 40.9593 25.4623 40.7474 25.5386 40.6626L25.6743 40.5058V41.5104C25.6785 42.6167 25.7082 42.8414 25.8905 42.9219C26.0303 42.9855 26.2084 42.9219 26.2762 42.782C26.3143 42.7057 26.3143 42.5997 26.2804 42.3624C26.2211 41.9385 26.2677 40.7304 26.3694 40.137C26.4118 39.8784 26.4373 39.641 26.4246 39.6071C26.3822 39.4799 26.272 39.3952 26.1575 39.3952C25.9964 39.3952 25.4793 39.8148 25.0851 40.2769L24.8901 40.5015V40.3616C24.8901 40.137 25.0469 39.2468 25.1868 38.683C25.3352 38.0811 25.6276 37.1528 25.8735 36.5212C25.9837 36.233 26.0346 36.0507 26.0176 35.9829C25.9837 35.8472 25.8099 35.7328 25.6828 35.7667C25.5429 35.8006 24.9028 36.2627 24.5679 36.5679C24.4196 36.7077 24.2797 36.8095 24.267 36.7925C24.2288 36.7586 24.4662 35.9024 24.657 35.381C25.0088 34.423 25.7802 33.0326 26.3864 32.2569C26.5983 31.9856 26.628 31.867 26.5136 31.7313C26.3694 31.566 26.2804 31.5787 25.7718 31.8415C25.509 31.9772 25.1444 32.1806 24.9664 32.2866C24.7884 32.3968 24.6315 32.4858 24.6146 32.4858C24.5722 32.4858 24.9113 31.8797 25.2207 31.4049C25.7718 30.5529 26.5305 29.6882 27.319 29.0227C27.6453 28.7429 27.6877 28.6921 27.6877 28.5691C27.6877 28.4886 27.6538 28.3996 27.6114 28.3614C27.5394 28.2978 27.1579 28.2215 26.7764 28.1961L26.6068 28.1834L27.0138 27.9842C27.4588 27.768 28.0777 27.5264 28.527 27.395C29.1968 27.2 30.2734 27.005 30.2734 27.0813C30.2734 27.0982 30.07 27.3059 29.8241 27.5391C28.438 28.8531 27.586 30.6123 27.2638 32.8249C26.8188 35.8727 27.3995 39.6156 28.7135 42.2055C29.0187 42.8032 29.1374 42.9558 29.2943 42.9558C29.4214 42.9558 29.5952 42.8032 29.5952 42.6888C29.5952 42.6464 29.4935 42.4175 29.3663 42.1801C28.8704 41.256 28.5143 40.2938 28.2176 39.0857C27.5775 36.4916 27.5351 33.855 28.0904 31.7313C28.4889 30.2265 29.0866 29.1371 30.0742 28.141L30.6168 27.59L30.71 27.7383C30.7609 27.8188 30.8796 28.0181 30.9728 28.1834C31.1933 28.5691 31.3967 28.6921 31.7994 28.6921C32.1343 28.6878 32.4098 28.5606 32.6726 28.2809C33.0668 27.8655 33.0753 27.7722 32.7489 27.2339C32.6218 27.0177 32.52 26.8312 32.5285 26.8227C32.5836 26.7719 33.3254 26.7591 33.7069 26.8015C34.5335 26.899 35.3346 27.1661 36.1443 27.6111C36.7716 27.9587 36.9624 28.1749 37.1997 28.798C37.2718 28.9845 37.3566 29.1202 37.4668 29.2134C37.56 29.294 38.2213 29.6416 39.0055 30.0188L40.3831 30.6843L40.913 30.6886C41.5954 30.6886 41.8031 30.786 41.8031 31.0997C41.8031 31.2099 41.5318 32.0874 41.4683 32.1891C41.4343 32.24 41.1758 32.2018 39.7176 31.9348C38.7766 31.761 37.9542 31.6211 37.8864 31.6211C37.7508 31.6253 37.6067 31.7652 37.6067 31.8966C37.6067 31.939 37.649 32.0196 37.7042 32.0831C37.7889 32.1806 37.9119 32.2103 39.4506 32.4901C40.3619 32.6554 41.1122 32.7995 41.1207 32.8037C41.1461 32.8334 41.0062 33.003 40.8663 33.1047C40.6883 33.2361 40.3619 33.3336 40.1118 33.3336C40.0059 33.3336 39.7473 33.2997 39.5353 33.2615C38.9546 33.1556 38.2934 33.1768 37.204 33.3378C36.4198 33.4523 36.1485 33.4777 35.5084 33.4777C34.826 33.4777 34.6861 33.465 34.1944 33.3548C32.7828 33.0496 31.9096 33.3548 31.4603 34.3213C31.0788 35.1351 31.0831 36.144 31.4603 37.2885C31.8333 38.4033 32.3378 39.2256 33.3678 40.3871C34.1266 41.2433 34.258 41.3959 34.5632 41.7901C34.7285 41.9978 34.9743 42.3369 35.11 42.5362C35.2456 42.7396 35.3855 42.9134 35.4236 42.9304C35.6271 43.0067 35.8263 42.8753 35.8263 42.6676C35.8263 42.5955 35.7543 42.4302 35.6525 42.2776C35.4491 41.9639 34.8938 41.2221 34.6818 40.9847C34.3682 40.6329 34.2664 40.6668 35.6483 40.6668H36.8818L37.5304 41.2518C38.251 41.9003 38.535 42.2013 38.8486 42.6294C38.9758 42.799 39.0987 42.9261 39.1623 42.9389C39.387 42.9982 39.5608 42.8032 39.4972 42.5616C39.4209 42.2479 38.6197 41.4086 37.2887 40.2429C35.0845 38.31 34.4318 37.4199 34.1435 35.9659C34.0672 35.5675 34.0503 34.5247 34.1181 34.1814C34.1605 33.961 34.1223 33.9694 34.809 34.0542C35.394 34.1263 36.0764 34.0924 37.2464 33.927C38.3908 33.766 38.819 33.7533 39.5438 33.8592C40.0059 33.9313 40.15 33.9355 40.3958 33.8974C41.0232 33.7999 41.481 33.4692 41.8158 32.8673C42.0108 32.5113 42.3584 31.4855 42.3839 31.1675C42.405 30.9598 42.3923 30.8835 42.2948 30.6886C42.0787 30.2477 41.7565 30.0951 41.0444 30.1036L40.5569 30.1078L39.2429 29.472C38.518 29.1244 37.8949 28.8065 37.8568 28.7641C37.8186 28.726 37.755 28.5946 37.7126 28.4801C37.4753 27.8104 37.0556 27.4034 36.1315 26.9372C35.4618 26.6023 34.7793 26.3692 34.0884 26.2505C33.6815 26.1784 32.6557 26.1784 32.3378 26.2505L32.0919 26.3056L31.6172 25.8435C30.816 25.0721 29.9004 24.432 28.7517 23.8513C28.1286 23.5334 26.9035 23.0332 26.7594 23.0332C26.717 23.0332 26.6365 23.0671 26.5814 23.1095ZM29.7224 25.0933C30.6761 25.7206 31.6087 26.5938 32.0877 27.3102C32.2318 27.5264 32.3505 27.7214 32.3505 27.7468C32.3505 27.8231 32.1004 28.0266 31.9435 28.0774C31.7019 28.158 31.6129 28.1071 31.4349 27.7934C30.9686 26.9499 30.2819 26.064 29.4045 25.1568L28.811 24.5422L29.0654 24.6863C29.2052 24.7626 29.502 24.9449 29.7224 25.0933ZM33.567 33.8592C33.5713 33.8635 33.5543 33.961 33.5289 34.0754C33.5077 34.1941 33.4865 34.5586 33.4823 34.8893L33.4738 35.4954H32.6175H31.7613L31.7867 35.3343C31.9181 34.3848 32.2954 33.9313 33.0287 33.8423C33.211 33.8211 33.5204 33.8295 33.567 33.8592ZM33.5586 36.1397C33.567 36.1694 33.6221 36.3771 33.6857 36.5975C33.7451 36.8179 33.8807 37.1782 33.9824 37.3902L34.1689 37.7844H33.2194H32.2699L32.1428 37.4495C31.9944 37.0638 31.8588 36.5806 31.8164 36.2881L31.7909 36.0889H32.6642C33.3297 36.0889 33.5458 36.1016 33.5586 36.1397ZM34.8556 38.7042C35.004 38.8865 35.3643 39.268 35.6525 39.552L36.1739 40.0734L35.0167 40.0691H33.8553L33.5967 39.764C33.3212 39.4418 32.8549 38.806 32.6938 38.5347L32.5963 38.3778H33.5925H34.5844L34.8556 38.7042Z" fill="#3E3E3E"/>
<path d="M34.7538 28.9168C34.6351 29.0482 34.6648 29.2389 34.8216 29.3746C35.0802 29.595 35.8516 29.9002 36.1441 29.9002C36.2671 29.9002 36.4197 29.7307 36.4197 29.5992C36.4197 29.4212 36.3306 29.3534 35.9873 29.2686C35.6567 29.1838 35.3727 29.0609 35.1946 28.921C35.0675 28.8193 34.8428 28.8193 34.7538 28.9168Z" fill="#3E3E3E"/>
<defs>
<filter id="filter0_dii_733_299" x="0.56479" y="0.880664" width="73.6" height="73.6" filterUnits="userSpaceOnUse" color-interpolation-filters="sRGB">
<feFlood flood-opacity="0" result="BackgroundImageFix"/>
<feColorMatrix in="SourceAlpha" type="matrix" values="0 0 0 0 0 0 0 0 0 0 0 0 0 0 0 0 0 0 127 0" result="hardAlpha"/>
<feOffset dx="4.36479" dy="4.68066"/>
<feGaussianBlur stdDeviation="6.4"/>
<feColorMatrix type="matrix" values="0 0 0 0 0 0 0 0 0 0.0196078 0 0 0 0 0.0329412 0 0 0 0.24 0"/>
<feBlend mode="normal" in2="BackgroundImageFix" result="effect1_dropShadow_733_299"/>
<feBlend mode="normal" in="SourceGraphic" in2="effect1_dropShadow_733_299" result="shape"/>
<feColorMatrix in="SourceAlpha" type="matrix" values="0 0 0 0 0 0 0 0 0 0 0 0 0 0 0 0 0 0 127 0" result="hardAlpha"/>
<feOffset dx="1.35793" dy="1.45621"/>
<feGaussianBlur stdDeviation="0.995556"/>
<feComposite in2="hardAlpha" operator="arithmetic" k2="-1" k3="1"/>
<feColorMatrix type="matrix" values="0 0 0 0 0 0 0 0 0 0.113725 0 0 0 0 0.191059 0 0 0 1 0"/>
<feBlend mode="normal" in2="shape" result="effect2_innerShadow_733_299"/>
<feColorMatrix in="SourceAlpha" type="matrix" values="0 0 0 0 0 0 0 0 0 0 0 0 0 0 0 0 0 0 127 0" result="hardAlpha"/>
<feOffset dx="-1.35793" dy="-1.45621"/>
<feGaussianBlur stdDeviation="0.995556"/>
<feComposite in2="hardAlpha" operator="arithmetic" k2="-1" k3="1"/>
<feColorMatrix type="matrix" values="0 0 0 0 0 0 0 0 0 0.0784314 0 0 0 0 0.131765 0 0 0 1 0"/>
<feBlend mode="normal" in2="effect2_innerShadow_733_299" result="effect3_innerShadow_733_299"/>
</filter>
<linearGradient id="paint0_linear_733_299" x1="17.1217" y1="1.42642" x2="49.8576" y2="36.5314" gradientUnits="userSpaceOnUse">
<stop stop-color="#001523"/>
<stop offset="1" stop-color="#001C2F"/>
</linearGradient>
<linearGradient id="paint1_linear_733_299" x1="18.8401" y1="19.56" x2="79.5601" y2="80.04" gradientUnits="userSpaceOnUse">
<stop stop-color="#C4B186"/>
<stop offset="1" stop-color="#AB8964"/>
</linearGradient>
</defs>
</svg>
