<svg width="24" height="24" viewBox="0 0 24 24" fill="none" xmlns="http://www.w3.org/2000/svg">
<path d="M7.58879 3.00752C5.54933 3.13081 4.12873 3.52532 3.43602 4.15935C3.13713 4.43409 3.01758 4.67714 3.01758 5.01177C3.02109 5.33583 3.11955 5.54365 3.40789 5.82544C4.17093 6.58276 6.00996 7.04067 8.29205 7.04419C9.03751 7.04419 9.86033 6.9984 10.0432 6.94556C10.0783 6.935 10.2049 6.84694 10.3245 6.74831C10.9223 6.26574 11.7943 5.90293 12.9055 5.6775C13.1481 5.62819 13.3837 5.56478 13.4259 5.5366C13.5419 5.46263 13.6263 5.22663 13.6228 4.98711C13.6193 4.03959 12.2127 3.3175 9.90253 3.07445C9.39618 3.02161 8.01427 2.98287 7.58879 3.00752Z" fill="white"/>
<path d="M14.9027 6.29739C12.9266 6.40306 11.4603 6.8187 10.7781 7.47035C10.4898 7.74862 10.3843 7.97053 10.3843 8.29459C10.3843 9.03781 11.1614 9.62605 12.6277 9.99238C13.5841 10.2354 14.4105 10.3235 15.6939 10.3235C18.0639 10.3235 19.8994 9.85853 20.6484 9.06247C20.8981 8.79829 20.986 8.59751 20.9825 8.28754C20.9754 7.6042 20.3601 7.08993 19.0731 6.69894C18.0393 6.38545 16.3409 6.22342 14.9027 6.29739Z" fill="white"/>
<path d="M3.26372 6.96664C3.22504 6.98073 3.15471 7.03709 3.10548 7.08992C3.02812 7.17446 3.01757 7.21321 3.02109 7.45273C3.02109 7.65703 3.04219 7.76622 3.10196 7.88598C3.33053 8.36503 3.86149 8.72784 4.77573 9.02724C5.75678 9.3513 6.89607 9.50629 8.31315 9.50629C8.80895 9.50629 9.26959 9.49572 9.33991 9.48515C9.4876 9.45697 9.63528 9.32312 9.67045 9.18927C9.68099 9.13996 9.67396 9.01315 9.64935 8.90396C9.62473 8.79829 9.58605 8.57285 9.56144 8.40378C9.51924 8.09733 9.47002 7.99166 9.3153 7.91064C9.28013 7.88951 8.81246 7.8719 8.19008 7.86485C6.2772 7.84724 5.00781 7.61476 3.74897 7.05822C3.45711 6.92789 3.38679 6.9138 3.26372 6.96664Z" fill="white"/>
<path d="M3.22509 9.45347C3.04928 9.54153 2.98598 9.68243 3.0106 9.9607C3.03521 10.2707 3.14422 10.4961 3.38684 10.7391C4.14988 11.507 6.02408 11.972 8.36595 11.972C9.11844 11.972 9.31184 11.9614 9.42436 11.9156C9.6494 11.824 9.72676 11.6197 9.64589 11.3344C9.62479 11.2675 9.58611 11.0632 9.55798 10.88C9.50875 10.5525 9.46304 10.4538 9.31535 10.3763C9.27316 10.3517 8.84768 10.3341 8.20771 10.3305C6.29835 10.3129 4.94457 10.0699 3.75957 9.52392C3.45365 9.38302 3.38333 9.37246 3.22509 9.45347Z" fill="white"/>
<path d="M10.6762 10.2355C10.5566 10.2531 10.3984 10.4327 10.3738 10.5771C10.3421 10.7814 10.4089 11.0808 10.532 11.2922C10.9575 12.0002 12.2761 12.518 14.1995 12.7293C15.0188 12.8174 16.4535 12.8103 17.2833 12.7152C18.9677 12.5145 20.1069 12.1094 20.666 11.5106C20.877 11.2851 20.9755 11.0632 20.9931 10.7709C21.0071 10.5173 20.972 10.4151 20.8243 10.3024C20.6836 10.2002 20.5148 10.2179 20.1702 10.3764C19.3967 10.7321 18.5703 10.9329 17.2411 11.0949C16.7418 11.1583 14.6145 11.1548 14.094 11.0949C12.8844 10.9505 12.037 10.7427 11.281 10.4116C10.9329 10.2566 10.7922 10.2179 10.6762 10.2355Z" fill="white"/>
<path d="M3.22504 11.9192C3.07384 11.9932 3 12.1376 3 12.363C3.00703 13.2472 4.06193 13.9129 6.00645 14.2581L6.43193 14.3356L6.86795 14.1912C7.58528 13.9622 7.92636 13.8847 8.78083 13.7649C9.18169 13.7086 9.28718 13.6804 9.3575 13.617C9.60013 13.388 9.60364 13.0534 9.3575 12.8738C9.26959 12.8069 9.19927 12.8033 8.24986 12.7963C6.3405 12.7787 4.93046 12.5286 3.78414 12.0002C3.46064 11.8488 3.38679 11.8382 3.22504 11.9192Z" fill="white"/>
<path d="M10.6409 12.7118C10.2998 12.8104 10.2682 13.4092 10.5987 13.5783C10.7042 13.6347 11.1262 13.6382 11.2387 13.5853C11.4321 13.4973 11.5129 13.1732 11.3828 13.0006C11.309 12.902 11.0066 12.7329 10.8413 12.7012C10.7921 12.6907 10.7042 12.6942 10.6409 12.7118Z" fill="white"/>
<path d="M20.4408 12.7223C20.374 12.7469 20.2158 12.8174 20.0892 12.8773C19.1574 13.3105 17.7614 13.5712 16.1404 13.6134C15.3633 13.6346 15.2929 13.6416 15.191 13.7085C15.1206 13.7543 15.0573 13.8424 15.0292 13.9269C14.9835 14.0608 14.9835 14.0819 15.0503 14.2087C15.1066 14.3214 15.1804 14.3778 15.4617 14.5293C15.8169 14.7195 15.9681 14.8181 16.2001 15.0259C16.4322 15.2337 16.5236 15.2549 16.9913 15.2091C19.0659 15.0083 20.5076 14.4412 20.8839 13.6698C20.9964 13.4444 21.0351 13.0569 20.9612 12.923C20.8593 12.7328 20.6377 12.6448 20.4408 12.7223Z" fill="white"/>
<path d="M10.0678 14.5081C7.00154 14.642 5.10625 15.6036 5.51766 16.8188C5.68996 17.3296 6.25257 17.7382 7.20901 18.0587C8.19358 18.3863 9.28363 18.5307 10.771 18.5307C11.9033 18.5307 12.5327 18.4779 13.3907 18.3053C14.2944 18.1256 15.0258 17.8403 15.5075 17.4845C16.3268 16.8822 16.26 15.9946 15.3563 15.4204C14.319 14.7653 12.2795 14.413 10.0678 14.5081Z" fill="white"/>
<path d="M20.476 15.1739C20.4268 15.1879 20.2686 15.2584 20.1209 15.3253C19.5372 15.5965 18.6862 15.8185 17.7333 15.9488C17.2867 16.0122 17.1742 16.0404 17.1074 16.1002C16.9843 16.213 16.9351 16.3292 16.907 16.5652C16.8964 16.6814 16.8613 16.8893 16.8296 17.0302C16.7804 17.2415 16.7804 17.2979 16.8191 17.3894C16.9246 17.6466 17.0722 17.6783 17.7157 17.5867C18.6018 17.4599 19.5653 17.1816 20.0541 16.9104C20.462 16.6814 20.8242 16.3222 20.9261 16.0439C21.0105 15.8185 21.0246 15.5191 20.9578 15.3887C20.8699 15.2161 20.6483 15.1175 20.476 15.1739Z" fill="white"/>
<path d="M5.59515 18.5519C5.50021 18.6364 5.48263 18.6787 5.46856 18.8654C5.39472 19.9045 6.75202 20.6477 9.25915 20.9365C9.96241 21.0211 11.5764 21.0211 12.2832 20.9365C13.5596 20.7921 14.4317 20.5632 15.0962 20.2074C15.789 19.834 16.0808 19.4571 16.0808 18.9358C16.0808 18.7033 16.0738 18.6822 15.9613 18.5695C15.7995 18.4075 15.6518 18.411 15.2861 18.5765C14.5829 18.9041 13.6405 19.1472 12.5786 19.2775C11.9597 19.355 10.3035 19.3867 9.61078 19.3338C8.28161 19.2317 7.21617 18.9957 6.32303 18.6047C5.90107 18.418 5.7569 18.4075 5.59515 18.5519Z" fill="white"/>
</svg>
