<svg width="24" height="24" viewBox="0 0 24 24" fill="none" xmlns="http://www.w3.org/2000/svg">
<path d="M11.1984 0.0890257C10.0125 0.346838 8.78435 1.15778 7.73903 2.36715C7.04997 3.16403 6.37966 4.14371 5.82185 5.1609C5.61091 5.54059 5.58278 5.73278 5.6906 5.94371C5.7281 6.01403 6.15466 6.46403 6.64216 6.94215C7.27966 7.57496 7.56091 7.8234 7.66403 7.84215C7.76716 7.8609 8.14684 7.75778 9.07966 7.4484C9.78278 7.21403 10.425 7.02184 10.5 7.02184C10.8 7.01246 10.8562 7.08746 11.4422 8.25934C11.7468 8.8734 12 9.42653 12 9.49684C12 9.75465 11.789 9.97965 11.5453 9.98434C11.2359 9.98434 11.1703 9.91871 10.7765 9.1359C10.3828 8.35778 10.2843 8.24059 10.0078 8.24059C9.91872 8.24059 9.32809 8.41403 8.68591 8.62965C7.77184 8.93434 7.4906 9.00934 7.38278 8.98121C7.28903 8.95778 6.93747 8.64371 6.31872 8.02965L5.39528 7.1109L5.17966 7.13434C5.06247 7.1484 4.92185 7.19996 4.87497 7.24215C4.67341 7.42496 3.90934 9.61403 3.56716 10.9922C3.09841 12.9 2.91091 14.625 3.05153 15.8812C3.28122 17.9953 4.17185 19.8703 5.6531 21.3468C7.00778 22.7062 8.69059 23.5593 10.6406 23.8922C11.2406 23.9906 12.614 24.0047 13.2422 23.9109C17.3531 23.3156 20.5031 20.0578 20.9531 15.9468C21.0093 15.4406 21.0093 15.4078 20.9203 15.2906C20.8406 15.1828 19.3734 14.2265 18.2812 13.5703C17.6625 13.1953 17.6625 13.1953 16.6828 14.6531C16.2468 15.3047 15.8437 15.8718 15.7875 15.9093C15.7312 15.9515 15.614 15.9843 15.5297 15.9843C15.3187 15.9843 13.2656 14.9578 13.1297 14.7843C12.8812 14.4703 13.125 14.0156 13.5422 14.0156C13.6125 14.0156 13.9968 14.175 14.3953 14.3718C15.1593 14.7468 15.2812 14.7703 15.4828 14.5875C15.5343 14.5453 15.9328 13.9781 16.364 13.3265C17.2078 12.0703 17.3015 11.9625 17.5968 12.0187C17.6765 12.0375 18.3 12.3937 18.9843 12.8203C20.2828 13.6312 20.3718 13.6687 20.625 13.514C20.8828 13.364 20.9062 13.2047 20.7656 12.4406C20.2968 9.86246 19.2984 7.09215 18.0515 4.90309C16.7297 2.58746 15.15 0.956213 13.6218 0.337463C12.8437 0.0187132 11.9297 -0.0703493 11.1984 0.0890257Z" fill="#D9AE6A"/>
</svg>
