<svg width="24" height="24" viewBox="0 0 24 24" fill="none" xmlns="http://www.w3.org/2000/svg">
<path d="M11.1984 0.0890503C10.0125 0.346863 8.78435 1.1578 7.73903 2.36718C7.04997 3.16405 6.37966 4.14374 5.82185 5.16093C5.61091 5.54062 5.58278 5.7328 5.6906 5.94374C5.7281 6.01405 6.15466 6.46405 6.64216 6.94218C7.27966 7.57499 7.56091 7.82343 7.66403 7.84218C7.76716 7.86093 8.14684 7.7578 9.07966 7.44843C9.78278 7.21405 10.425 7.02186 10.5 7.02186C10.8 7.01249 10.8562 7.08749 11.4422 8.25936C11.7468 8.87343 12 9.42655 12 9.49686C12 9.75468 11.789 9.97968 11.5453 9.98436C11.2359 9.98436 11.1703 9.91874 10.7765 9.13593C10.3828 8.3578 10.2843 8.24061 10.0078 8.24061C9.91872 8.24061 9.32809 8.41405 8.68591 8.62968C7.77184 8.93436 7.4906 9.00936 7.38278 8.98124C7.28903 8.9578 6.93747 8.64374 6.31872 8.02968L5.39528 7.11093L5.17966 7.13437C5.06247 7.14843 4.92185 7.19999 4.87497 7.24218C4.67341 7.42499 3.90934 9.61405 3.56716 10.9922C3.09841 12.9 2.91091 14.625 3.05153 15.8812C3.28122 17.9953 4.17184 19.8703 5.6531 21.3469C7.00778 22.7062 8.69059 23.5594 10.6406 23.8922C11.2406 23.9906 12.614 24.0047 13.2422 23.9109C17.3531 23.3156 20.5031 20.0578 20.9531 15.9469C21.0093 15.4406 21.0093 15.4078 20.9203 15.2906C20.8406 15.1828 19.3734 14.2266 18.2812 13.5703C17.6625 13.1953 17.6625 13.1953 16.6828 14.6531C16.2468 15.3047 15.8437 15.8719 15.7875 15.9094C15.7312 15.9516 15.614 15.9844 15.5297 15.9844C15.3187 15.9844 13.2656 14.9578 13.1297 14.7844C12.8812 14.4703 13.125 14.0156 13.5422 14.0156C13.6125 14.0156 13.9968 14.175 14.3953 14.3719C15.1593 14.7469 15.2812 14.7703 15.4828 14.5875C15.5343 14.5453 15.9328 13.9781 16.364 13.3266C17.2078 12.0703 17.3015 11.9625 17.5968 12.0187C17.6765 12.0375 18.3 12.3937 18.9843 12.8203C20.2828 13.6312 20.3718 13.6687 20.625 13.5141C20.8828 13.3641 20.9062 13.2047 20.7656 12.4406C20.2968 9.86249 19.2984 7.09218 18.0515 4.90311C16.7297 2.58749 15.15 0.956238 13.6218 0.337488C12.8437 0.0187378 11.9297 -0.0703239 11.1984 0.0890503Z" fill="white"/>
</svg>
