<svg width="24" height="20" viewBox="0 0 24 20" fill="none" xmlns="http://www.w3.org/2000/svg">
<path d="M9.39839 0.0999385C8.83589 0.296813 8.43746 0.648376 8.18902 1.17806C8.04371 1.47806 8.03902 1.52025 8.01558 2.24213L7.99214 2.99213L5.06246 3.01556L2.13277 3.039L1.81871 3.16088C1.14371 3.42338 0.590581 3.92963 0.281206 4.57181C0.0280807 5.09213 -0.00473181 5.37338 0.00933069 6.80775L0.0233932 8.04525L6.01402 10.0421L12 12.039L17.9906 10.0421L23.9765 8.04525L23.9906 6.80775C24.0046 5.38275 23.9718 5.12025 23.7234 4.58588C23.4187 3.939 22.8656 3.42806 22.1812 3.16088L21.8671 3.039L18.9375 3.01556L16.0078 2.99213L15.9843 2.23744L15.9609 1.48744L15.7875 1.13588C15.5718 0.699939 15.2625 0.395251 14.8218 0.189001L14.5078 0.039001L12.0703 0.029626C9.85308 0.020251 9.61402 0.0249385 9.39839 0.0999385ZM13.9921 2.49994V2.99213H12H10.0078L9.99371 2.5515C9.98902 2.30775 9.99371 2.07806 10.0031 2.04525C10.0265 1.99369 10.3921 1.98431 12.0093 1.99369L13.9921 2.00775V2.49994Z" fill="#D9AE6A"/>
<path d="M3.93825e-06 13.5672C3.93825e-06 17.9547 -0.00468357 17.8703 0.309379 18.489C0.539066 18.9484 1.07344 19.4875 1.5 19.6937C2.14219 20.0031 1.3875 19.9843 12 19.9843C22.6125 19.9843 21.8578 20.0031 22.5 19.6937C22.9641 19.4687 23.4797 18.9343 23.7141 18.4328C23.8172 18.2172 23.9203 17.9125 23.9484 17.7625C24.0281 17.3359 24.0188 9.60622 23.9438 9.63434C23.9109 9.6484 21.3 10.5203 18.1406 11.5703L12.3984 13.4875H12H11.6016L5.85938 11.5703C2.7 10.5203 0.0890664 9.6484 0.0609414 9.63434C0.0140664 9.62028 3.93825e-06 10.4265 3.93825e-06 13.5672Z" fill="#D9AE6A"/>
</svg>
