<svg width="24" height="24" viewBox="0 0 24 24" fill="none" xmlns="http://www.w3.org/2000/svg">
<g clip-path="url(#clip0_616_5704)">
<path d="M9.39839 2.1C8.83589 2.29688 8.43746 2.64844 8.18902 3.17812C8.04371 3.47812 8.03902 3.52031 8.01558 4.24219L7.99214 4.99219L5.06246 5.01562L2.13277 5.03906L1.81871 5.16094C1.14371 5.42344 0.590581 5.92969 0.281206 6.57187C0.0280807 7.09219 -0.00473181 7.37344 0.00933069 8.80781L0.0233932 10.0453L6.01402 12.0422L12 14.0391L17.9906 12.0422L23.9765 10.0453L23.9906 8.80781C24.0046 7.38281 23.9718 7.12031 23.7234 6.58594C23.4187 5.93906 22.8656 5.42812 22.1812 5.16094L21.8671 5.03906L18.9375 5.01562L16.0078 4.99219L15.9843 4.2375L15.9609 3.4875L15.7875 3.13594C15.5718 2.7 15.2625 2.39531 14.8218 2.18906L14.5078 2.03906L12.0703 2.02969C9.85308 2.02031 9.61402 2.025 9.39839 2.1ZM13.9921 4.5V4.99219H12H10.0078L9.99371 4.55156C9.98902 4.30781 9.99371 4.07812 10.0031 4.04531C10.0265 3.99375 10.3921 3.98438 12.0093 3.99375L13.9921 4.00781V4.5Z" fill="white"/>
<path d="M3.93825e-06 15.5672C3.93825e-06 19.9547 -0.00468357 19.8703 0.309379 20.4891C0.539066 20.9485 1.07344 21.4875 1.5 21.6938C2.14219 22.0032 1.3875 21.9844 12 21.9844C22.6125 21.9844 21.8578 22.0032 22.5 21.6938C22.9641 21.4688 23.4797 20.9344 23.7141 20.4328C23.8172 20.2172 23.9203 19.9125 23.9484 19.7625C24.0281 19.336 24.0188 11.6063 23.9438 11.6344C23.9109 11.6485 21.3 12.5203 18.1406 13.5703L12.3984 15.4875H12H11.6016L5.85938 13.5703C2.7 12.5203 0.0890664 11.6485 0.0609414 11.6344C0.0140664 11.6203 3.93825e-06 12.4266 3.93825e-06 15.5672Z" fill="white"/>
</g>
<defs>
<clipPath id="clip0_616_5704">
<rect width="24" height="24" fill="white"/>
</clipPath>
</defs>
</svg>
