<svg width="16" height="16" viewBox="0 0 16 16" fill="none" xmlns="http://www.w3.org/2000/svg">
<path d="M2.3125 0.0218744C1.68437 0.128125 1.12188 0.625 0.928125 1.23438L0.859375 1.45312V7V12.5469L0.940625 12.7687C1.04375 13.05 1.21563 13.3094 1.41875 13.4875C1.55625 13.6094 4.85625 15.5469 5.38125 15.8156C5.60313 15.9281 5.89375 16 6.13125 16C6.70312 16 7.33437 15.65 7.62188 15.1719C7.825 14.8344 7.85625 14.7031 7.875 14.0469L7.89062 13.4531L9.34375 13.4375C10.7469 13.4219 10.8031 13.4188 10.9781 13.3531C11.5656 13.1312 11.9812 12.65 12.1094 12.0469C12.1656 11.7812 12.1781 9.80937 12.125 9.61875C12.0563 9.37187 11.8406 9.20937 11.5781 9.20937C11.3281 9.20937 11.1469 9.33437 11.0469 9.56875C11.0094 9.66563 11 9.8625 11 10.7562C11 11.7281 10.9938 11.8406 10.9406 11.9531C10.8719 12.1094 10.725 12.2375 10.5688 12.2812C10.4969 12.3 9.95312 12.3125 9.16563 12.3125H7.875V8.35C7.875 3.99687 7.88438 4.23438 7.68438 3.83437C7.62188 3.7125 7.50313 3.55937 7.3625 3.42188C7.15938 3.22188 6.99062 3.11875 5.375 2.1875L3.60625 1.17188L7.09063 1.1625L10.5781 1.15625L10.7156 1.24062C10.8031 1.29688 10.8813 1.37813 10.9281 1.46562C11 1.60312 11 1.60625 11 2.825C11 3.94375 11.0063 4.05625 11.0594 4.17188C11.2375 4.56563 11.7375 4.6375 12.0125 4.3125C12.1531 4.14375 12.1625 4.05 12.15 2.69063C12.1406 1.45937 12.1375 1.41562 12.0688 1.21875C11.9688 0.940625 11.8625 0.765625 11.6625 0.55625C11.4594 0.340625 11.2563 0.20625 10.975 0.0968752L10.7656 0.015625L6.57812 0.0124998C4.275 0.00937462 2.35625 0.0124998 2.3125 0.0218744Z" fill="white"/>
<path d="M12.8438 4.55937C12.5656 4.64687 12.4062 4.84687 12.4062 5.10625C12.4062 5.33125 12.4656 5.425 12.8406 5.79688L13.1875 6.14062L10.9719 6.15625L8.75625 6.17188L8.63438 6.26875C8.48125 6.39375 8.40625 6.54062 8.40625 6.73125C8.40625 6.9375 8.52188 7.13125 8.69688 7.22812L8.82812 7.29688L10.9938 7.3125L13.1562 7.32812L12.8406 7.64062C12.6688 7.8125 12.5 8.00625 12.4656 8.06875C12.4 8.19687 12.3875 8.41563 12.4406 8.55312C12.5125 8.74375 12.7531 8.90625 12.9688 8.90625C13.1875 8.90625 13.3063 8.80937 14.2094 7.90312C14.9406 7.16562 15.0938 6.99375 15.1219 6.89062C15.1656 6.73438 15.1656 6.70312 15.1219 6.54688C15.0938 6.44375 14.9406 6.275 14.2375 5.56875C13.7719 5.09687 13.3344 4.68125 13.2656 4.64062C13.1219 4.55625 12.9563 4.525 12.8438 4.55937Z" fill="white"/>
</svg>
