<svg width="24" height="24" viewBox="0 0 24 24" fill="none" xmlns="http://www.w3.org/2000/svg">
<g clip-path="url(#clip0_884_459)">
<path d="M15.3277 0.0262737C15.2902 0.0403345 11.836 3.47117 7.65053 7.65191C-0.321933 15.6197 -0.0641523 15.3525 0.0248993 15.6572C0.0623948 15.7837 8.00674 23.7609 8.24109 23.9062C8.59729 24.1265 7.98799 24.6983 16.3448 16.3415C24.3219 8.36432 24.0642 8.63148 23.9751 8.32683C23.9376 8.20965 16.1339 0.359045 15.8245 0.129385C15.6511 0.0028379 15.4918 -0.0299694 15.3277 0.0262737ZM20.8442 8.17216C20.9942 8.32214 21.0083 8.35495 20.9848 8.53305C20.9614 8.71116 20.8771 8.80958 19.8647 9.82196C19.1569 10.5297 18.7211 10.9328 18.6226 10.9656C18.3414 11.0593 17.9993 10.8015 17.9993 10.4922C17.9993 10.3 18.1446 10.1266 19.2038 9.07205C20.2677 8.01749 20.2771 8.00812 20.4787 8.00812C20.6474 8.00812 20.7083 8.03624 20.8442 8.17216ZM11.7469 9.13767C12.7499 9.447 13.706 10.1875 14.3528 11.153C14.9856 12.1045 15.1731 13.2247 14.8262 13.9699C14.6434 14.3636 14.3716 14.6307 13.9779 14.8182C13.6779 14.9635 13.6404 14.9682 13.078 14.9635C12.5484 14.9588 12.4546 14.9448 12.1125 14.8229C10.5096 14.2324 9.1691 12.6294 9.0238 11.1202C8.92069 10.0891 9.50656 9.24078 10.4627 9.03924C10.758 8.97831 11.3813 9.02518 11.7469 9.13767ZM5.69608 13.0419C5.86013 13.1122 6.00073 13.3184 6.00073 13.4918C6.00073 13.684 5.85544 13.8574 4.79619 14.9073C3.7885 15.9103 3.71351 15.9759 3.54947 15.9759C3.31512 15.9759 3.16514 15.8962 3.0714 15.7181C2.90267 15.4135 2.94954 15.3478 4.13534 14.1621C5.09147 13.2106 5.33988 12.9903 5.49923 12.9809C5.51798 12.9763 5.60703 13.0044 5.69608 13.0419Z" fill="#D9AE6A"/>
<path d="M1.47796 11.5943C0.835851 11.8333 0.249984 12.0723 0.179681 12.1286C-0.0218574 12.2926 -0.0312313 12.4848 0.142185 12.9629C0.221863 13.1925 0.306228 13.4081 0.329662 13.4456C0.367158 13.5018 0.639 13.2534 1.55764 12.3301C2.20912 11.6833 2.72 11.149 2.69656 11.1537C2.66844 11.1584 2.12476 11.3552 1.47796 11.5943Z" fill="#D9AE6A"/>
<path d="M20.3426 13.7494C19.274 14.8181 18.421 15.6945 18.4538 15.6945C18.4819 15.6945 18.9459 15.5352 19.4755 15.3383C20.5254 14.954 20.6519 14.9352 20.8535 15.1508C21.0738 15.3852 21.0082 15.7976 20.7223 15.9289C20.4223 16.0695 18.0788 16.9131 17.9945 16.9131C17.8632 16.9131 17.7132 16.8287 17.6008 16.6928V16.6928C17.5504 16.6324 17.4591 16.6283 17.4035 16.6839L15.4448 18.6426C14.63 19.4607 13.925 20.1764 13.5988 20.5153C13.4676 20.6517 13.4924 20.6958 13.6707 20.6322C15.1616 20.1004 22.4833 17.4134 23.5907 16.9881C23.8297 16.8991 23.9984 16.6975 23.9984 16.51C23.9984 16.4213 22.7971 13.0723 22.4235 12.1021C22.3555 11.9254 22.2406 11.8985 22.1023 12.0278C21.7741 12.3345 21.1035 12.9885 20.3426 13.7494Z" fill="#D9AE6A"/>
<path d="M2.63534 19.8198C2.74782 20.1479 4.0461 23.7006 4.0836 23.7662C4.13515 23.8647 4.36481 23.9912 4.49605 23.9912C4.58978 23.9912 6.13647 23.4428 6.1974 23.3866C6.21615 23.3678 5.41937 22.5429 4.42106 21.554C3.42743 20.5604 2.62596 19.7823 2.63534 19.8198Z" fill="#D9AE6A"/>
</g>
<defs>
<clipPath id="clip0_884_459">
<rect width="24" height="24" fill="white"/>
</clipPath>
</defs>
</svg>
