<svg width="31" height="18" viewBox="0 0 31 18" fill="none" xmlns="http://www.w3.org/2000/svg">
<path d="M9.66579 0.55755C9.41265 0.667402 9.12369 0.772478 8.73444 0.89666C8.54339 0.956362 7.81741 1.21666 6.97919 1.52711C6.55173 1.68473 6.06933 1.86383 5.90455 1.92354C5.31708 2.13608 4.95887 2.31041 4.71051 2.49668C4.27588 2.82623 3.62871 3.43042 3.27766 3.83639C3.20602 3.91998 3.13437 4.00117 3.12243 4.0155C3.10811 4.03222 2.97915 4.15162 2.83586 4.28296C1.29316 5.68955 0.786886 6.3606 0.485987 7.41136C0.292552 8.08957 0.282999 8.67465 0.45733 9.20242C0.552853 9.48899 0.600615 9.5869 0.825095 9.95706C0.994649 10.2341 1.50331 10.7714 1.77317 10.9601C1.81854 10.9911 1.86152 11.0221 1.86869 11.0293C1.89257 11.0532 2.07406 11.1702 2.2675 11.2872C2.47765 11.4138 2.96004 11.6263 3.03646 11.6263C3.06273 11.6263 3.11288 11.6407 3.15109 11.6598C3.28721 11.729 3.81259 11.8675 4.10155 11.9129C4.18036 11.9272 4.31648 11.9535 4.40245 11.9726C4.59588 12.0156 5.41738 12.1063 5.55351 12.1016C5.60843 12.0992 5.8162 12.1039 6.01202 12.1135C6.31769 12.1278 6.46814 12.1422 6.75232 12.1875C6.8574 12.2042 7.12964 12.2807 7.51651 12.4025C8.17562 12.6078 8.38578 12.6651 8.62697 12.6986C8.89921 12.7368 9.2025 12.7535 9.57027 12.7511C10.1721 12.7487 10.3846 12.6938 10.547 12.5075C10.6521 12.3834 10.6903 12.2759 10.6592 12.1923C10.6258 12.1087 10.4921 11.963 10.3082 11.815C10.1697 11.7027 10.1506 11.6765 10.1052 11.5284C10.0288 11.2896 9.95475 11.2132 9.6443 11.0651C9.2431 10.8717 9.11414 10.7212 8.78459 10.0454C8.66996 9.81138 8.61981 9.73974 8.46936 9.5869C8.31174 9.4269 8.13264 9.27884 7.96547 9.1666C7.93682 9.1475 7.7601 9.02809 7.57144 8.90152C7.38517 8.77495 7.12248 8.58391 6.99113 8.47883C6.68546 8.23525 6.31053 7.84838 6.24366 7.70748C6.14336 7.5021 6.11948 7.15106 6.1959 7.00777C6.21023 6.97911 6.2556 6.92896 6.29859 6.89314C6.39172 6.81434 6.42516 6.71404 6.37501 6.66628C6.34396 6.63523 6.32725 6.64001 6.24366 6.69493C5.98336 6.86687 5.87351 7.27285 5.96426 7.74569C6.00008 7.94151 6.03351 8.04181 6.15292 8.31644L6.19351 8.40719L6.05262 8.29734C5.74933 8.06569 5.5941 7.75524 5.62754 7.44479C5.63948 7.33016 5.65619 7.2824 5.71351 7.21792C5.76605 7.15583 5.78515 7.11046 5.78515 7.0412C5.78515 6.90747 5.74455 6.90031 5.63948 7.01971C5.43171 7.25613 5.32186 7.61912 5.37201 7.89853C5.42216 8.1636 5.60127 8.49077 5.83769 8.75346C5.95948 8.88958 6.13142 9.15944 6.21739 9.34809C6.2556 9.43168 6.28665 9.5081 6.28665 9.51526C6.28665 9.54631 5.73261 9.50093 5.49619 9.45317C4.94454 9.34093 4.35707 9.06391 4.00364 8.75346C3.87229 8.63645 3.71946 8.43585 3.65975 8.29973C3.50453 7.94151 3.62871 7.52599 4.00364 7.13912C4.17558 6.9624 4.57917 6.65911 4.64364 6.65911C4.65797 6.65911 4.69857 6.63284 4.73678 6.6018C4.83708 6.51821 5.3744 6.31284 5.74694 6.21731C6.33202 6.06686 6.77143 6.0597 7.94637 6.17194C8.22577 6.19821 8.45742 6.20776 8.69384 6.19582L9.03295 6.18388V6.2603C9.03295 6.6018 8.92787 7.06031 8.69862 7.72181C8.64608 7.87942 8.59832 8.05136 8.59832 8.1039C8.59593 8.15644 8.62458 8.26868 8.65802 8.35465C8.69145 8.44062 8.75354 8.60062 8.79414 8.71286C8.83474 8.8251 8.89205 8.97555 8.91832 9.0472C9.31235 10.0884 9.92848 11.0818 10.6807 11.8771C10.9267 12.1398 11.5142 12.7248 11.6001 12.7965C11.8246 12.9804 11.9607 13.0974 11.9822 13.1189C12.1064 13.2574 12.7584 13.7493 13.1094 13.969C13.1858 14.0168 13.4414 14.1792 13.6778 14.3296C14.2843 14.7141 14.3823 14.7714 14.8623 15.0174C15.0151 15.0938 15.199 15.1894 15.2682 15.2276C15.3399 15.2658 15.4736 15.3374 15.5644 15.3876C15.6575 15.4377 15.7578 15.4974 15.7912 15.5213C15.8247 15.5428 16.1136 15.6956 16.436 15.8604C16.7584 16.0228 17.1548 16.2258 17.3196 16.3094C17.6945 16.5028 18.2916 16.7894 18.5734 16.9112C19.0366 17.1118 19.5835 17.2527 20.1137 17.3076C20.5435 17.353 21.4056 17.3362 21.7376 17.2742C21.771 17.267 21.8307 17.2574 21.8689 17.2503C22.2056 17.1977 22.5376 17.1046 22.7764 17.0019C22.8027 16.99 22.8647 16.9637 22.9149 16.9398C22.9627 16.9183 23.1346 16.8538 23.297 16.7989C23.8367 16.6055 24.0874 16.498 24.7824 16.1518C25.4391 15.827 25.8618 15.6383 25.9358 15.6383C25.9525 15.6383 26.0122 15.612 26.0672 15.581C26.2367 15.4831 26.5878 15.3756 26.743 15.3732L26.8839 15.3708L26.7048 15.3279C26.3824 15.2491 25.2576 15.1846 24.2331 15.1846C22.4946 15.1846 21.9883 15.132 21.1286 14.8693C20.3405 14.6282 19.3065 14.098 18.7429 13.6466C18.3823 13.3601 17.8808 12.8466 17.7113 12.5935C17.193 11.8222 16.9065 10.9075 16.8515 9.86392C16.8348 9.53675 16.8778 9.13078 16.9518 8.89197C17.0139 8.69853 16.9972 8.66988 16.7154 8.49077C16.5793 8.40241 16.3691 8.25435 16.2474 8.15883C15.9894 7.95345 15.9823 7.96301 16.448 7.93912C16.6199 7.93196 16.8253 7.91286 16.9017 7.90092C17.1357 7.86271 17.1501 7.87465 16.9781 7.96062C16.8014 8.05136 16.639 8.1851 16.67 8.21614C16.6796 8.22569 16.7584 8.22569 16.842 8.21614C16.928 8.20659 17.033 8.20181 17.076 8.20659L17.1548 8.21375L17.045 8.33316C16.9805 8.40241 16.9375 8.46928 16.9423 8.49316C16.9518 8.53615 16.928 8.53615 17.3984 8.50749C17.5393 8.49794 17.6539 8.49794 17.6539 8.5051C17.6539 8.51227 17.611 8.59107 17.5608 8.68182C17.5107 8.77018 17.4605 8.87048 17.451 8.90152C17.4342 8.95406 17.439 8.95645 17.5154 8.93973C17.5584 8.93018 17.6205 8.90869 17.6539 8.89197C17.7638 8.83704 17.9262 8.81078 18.3584 8.77257C18.9363 8.7248 19.0128 8.71286 19.2635 8.65555C20.1017 8.45973 20.6176 8.21614 20.9495 7.86032C21.1095 7.69076 21.1286 7.61434 21.0546 7.45673C20.9996 7.3421 20.7895 7.13912 20.6247 7.04359C20.2952 6.85255 20.128 6.74508 19.9823 6.62807C19.8987 6.5612 19.8319 6.50389 19.8343 6.5015C19.8366 6.49672 19.9799 6.48239 20.1495 6.46806C20.3214 6.45374 20.4934 6.43702 20.5316 6.43463C20.5722 6.42985 20.6844 6.41791 20.7823 6.40836C20.8802 6.39881 20.9829 6.38687 21.0092 6.3797C21.0355 6.37493 21.2886 6.3606 21.5704 6.34866C21.8522 6.33672 22.1173 6.32 22.1555 6.31523C22.2462 6.29851 23.168 6.23403 23.5167 6.21731C23.8439 6.20299 24.6104 6.20299 24.8182 6.21731C25.7185 6.28418 25.9955 6.35344 26.4469 6.61851C26.7239 6.7809 26.9388 6.98867 27.0391 7.1821C27.1442 7.39225 27.1561 7.65972 27.0726 7.96539C26.9985 8.24241 26.9006 8.47644 26.7597 8.70331C26.5711 9.0066 26.5448 9.02809 25.7615 9.48183C24.7633 10.0621 24.5483 10.1648 23.7077 10.4729C22.817 10.8001 22.2295 10.9648 21.4391 11.1129C20.7513 11.2395 19.7698 11.3541 19.2444 11.3708C19.1298 11.3732 19.051 11.3851 19.0462 11.4018C19.039 11.421 19.1943 11.4329 19.5811 11.4424C20.0874 11.4544 20.4623 11.4926 20.8898 11.5786C21.5107 11.7004 22.4229 11.7242 23.051 11.6359C23.4212 11.5857 23.6982 11.526 24.1257 11.4066C24.2642 11.3684 24.4409 11.3183 24.5197 11.2992C24.6725 11.2586 25.0952 11.0866 25.9048 10.7356C26.4516 10.4992 26.7669 10.3439 27.1705 10.1194C27.3161 10.0383 27.4809 9.94512 27.5406 9.91407C27.8272 9.75407 28.257 9.45317 28.6105 9.15705C29.3078 8.57913 29.7663 7.98927 29.955 7.43524C30.029 7.21792 30.0362 6.7809 29.9693 6.53971C29.8786 6.20299 29.5991 5.72059 29.3341 5.43641C28.9639 5.03999 28.1472 4.63401 27.2755 4.41431C25.9621 4.08237 24.5197 3.90087 23.1585 3.89371C22.1459 3.88893 20.7393 3.77191 19.8032 3.61191C18.934 3.46385 18.411 3.30863 17.3005 2.85967C15.8509 2.27697 15.027 1.99996 14.1005 1.78742C13.587 1.66801 13.3076 1.63935 12.5196 1.62025L11.7912 1.60114L11.5882 1.52711C10.6425 1.17607 10.1864 0.877554 10.0694 0.536058C10.0431 0.462029 10.0192 0.426207 9.99296 0.428595C9.96908 0.430983 9.8234 0.488297 9.66579 0.55755ZM10.098 0.85845C10.1434 0.910988 10.1434 0.910988 10.0909 0.877554C10.0598 0.85845 10.0359 0.836958 10.0359 0.827404C10.0359 0.798748 10.0503 0.805912 10.098 0.85845ZM8.98041 0.961138C8.96369 0.980242 8.94459 0.989794 8.93981 0.987406C8.92787 0.973078 8.96369 0.927704 8.98757 0.927704C8.99951 0.927704 8.99713 0.942034 8.98041 0.961138ZM10.3321 1.08532C10.3392 1.10442 10.3559 1.11636 10.3679 1.10681C10.3798 1.09965 10.3965 1.10204 10.4037 1.11398C10.4276 1.15457 10.3464 1.13308 10.3058 1.09009C10.2843 1.06621 10.2795 1.04711 10.2915 1.04711C10.3058 1.04711 10.3249 1.06383 10.3321 1.08532ZM10.5948 1.23338C10.6019 1.24532 10.5924 1.25487 10.5733 1.25487C10.5542 1.25487 10.5446 1.24532 10.5518 1.23338C10.5589 1.22383 10.5685 1.21428 10.5733 1.21428C10.578 1.21428 10.5876 1.22383 10.5948 1.23338ZM10.621 1.3289C10.6139 1.33607 10.5948 1.3289 10.578 1.31219C10.5565 1.28831 10.5589 1.28592 10.5924 1.30025C10.6162 1.30741 10.6282 1.32174 10.621 1.3289ZM11.0509 1.54861C11.058 1.56293 11.0485 1.56532 11.0294 1.55816C10.9864 1.54144 10.9792 1.52473 11.0127 1.52473C11.027 1.52473 11.0437 1.53428 11.0509 1.54861ZM11.1679 1.54383C11.1727 1.55338 11.1583 1.56293 11.1345 1.56293C11.1106 1.56293 11.0963 1.55338 11.101 1.54383C11.1082 1.53428 11.1225 1.52473 11.1345 1.52473C11.1464 1.52473 11.1607 1.53428 11.1679 1.54383ZM11.433 1.62025C11.4401 1.63458 11.4306 1.63697 11.4115 1.6298C11.3685 1.61308 11.3613 1.59637 11.3948 1.59637C11.4091 1.59637 11.4258 1.60592 11.433 1.62025ZM11.3375 1.71577C11.3446 1.72771 11.3398 1.73965 11.3279 1.73965C11.3136 1.73965 11.3016 1.72771 11.3016 1.71577C11.3016 1.70144 11.3064 1.69189 11.3112 1.69189C11.3183 1.69189 11.3303 1.70144 11.3375 1.71577ZM12.0539 1.85428C12.0467 1.86145 12.0276 1.85428 12.0109 1.83757C11.9894 1.81368 11.9918 1.8113 12.0252 1.82562C12.0491 1.83279 12.061 1.84712 12.0539 1.85428ZM12.8945 1.87339C12.8873 1.88055 12.8658 1.88294 12.8491 1.87577C12.83 1.86861 12.8372 1.86145 12.8634 1.86145C12.8897 1.85906 12.904 1.86622 12.8945 1.87339ZM12.147 1.89966C12.1351 1.9116 12.1184 1.92831 12.1088 1.94264C12.0992 1.95697 12.0897 1.94742 12.0897 1.92354C12.0897 1.90204 12.1064 1.88294 12.1303 1.88294C12.1518 1.88294 12.159 1.8901 12.147 1.89966ZM14.024 1.91637C14.024 1.92115 14.0073 1.93309 13.9858 1.94025C13.9667 1.94742 13.9572 1.94503 13.9643 1.9307C13.9787 1.90682 14.024 1.89727 14.024 1.91637ZM13.5393 2.01667C13.5321 2.02384 13.5106 2.02622 13.4939 2.01906C13.4748 2.0119 13.482 2.00473 13.5082 2.00473C13.5345 2.00234 13.5488 2.00951 13.5393 2.01667ZM6.0359 2.06921C6.02873 2.07637 6.00963 2.06921 5.99291 2.05249C5.97142 2.02861 5.97381 2.02622 6.00724 2.04055C6.03112 2.04772 6.04306 2.06205 6.0359 2.06921ZM12.9136 2.05011C12.9064 2.06205 12.8849 2.07399 12.8706 2.07399C12.8539 2.07399 12.8563 2.06443 12.8778 2.05011C12.9231 2.02145 12.9327 2.02145 12.9136 2.05011ZM5.62037 2.23399C5.59171 2.28175 5.58694 2.26742 5.60843 2.20533C5.61798 2.18384 5.62992 2.1719 5.6347 2.17906C5.64186 2.18384 5.6347 2.21011 5.62037 2.23399ZM15.8032 2.40832C15.8103 2.42026 15.8056 2.4322 15.7936 2.4322C15.7793 2.4322 15.7674 2.42026 15.7674 2.40832C15.7674 2.39399 15.7721 2.38444 15.7769 2.38444C15.7841 2.38444 15.796 2.39399 15.8032 2.40832ZM15.7315 2.45608C15.7244 2.46802 15.7029 2.47996 15.6885 2.47996C15.6718 2.47996 15.6742 2.47041 15.6957 2.45608C15.7411 2.42742 15.7506 2.42742 15.7315 2.45608ZM16.4384 2.66384C16.4694 2.70205 16.4671 2.70444 16.4312 2.6734C16.4074 2.65668 16.3883 2.63757 16.3883 2.6328C16.3883 2.61369 16.4074 2.62563 16.4384 2.66384ZM16.5435 2.69489C16.5363 2.70683 16.5148 2.71877 16.5005 2.71877C16.4838 2.71877 16.4862 2.70922 16.5077 2.69489C16.553 2.66623 16.5626 2.66623 16.5435 2.69489ZM5.95232 2.79996C5.95232 2.80474 5.9356 2.81668 5.91411 2.82384C5.895 2.83101 5.88545 2.82862 5.89261 2.81429C5.90694 2.79041 5.95232 2.78086 5.95232 2.79996ZM16.8539 2.83817C16.8611 2.85011 16.8563 2.86205 16.8444 2.86205C16.83 2.86205 16.8181 2.85011 16.8181 2.83817C16.8181 2.82384 16.8229 2.81429 16.8277 2.81429C16.8348 2.81429 16.8468 2.82384 16.8539 2.83817ZM16.9375 2.87161C16.9375 2.87638 16.9208 2.88832 16.8993 2.89549C16.8802 2.90265 16.8706 2.90026 16.8778 2.88593C16.8921 2.86205 16.9375 2.8525 16.9375 2.87161ZM7.33024 2.95041C7.33024 2.97191 7.32069 2.97429 7.29681 2.95519C7.28009 2.94086 7.26576 2.92653 7.26576 2.92176C7.26576 2.91937 7.28009 2.91698 7.29681 2.91698C7.31591 2.91698 7.33024 2.93131 7.33024 2.95041ZM17.2575 3.02683C17.2527 3.034 17.2289 3.01967 17.205 2.99579C17.1668 2.95519 17.1668 2.9528 17.2169 2.98385C17.2456 3.00056 17.2647 3.01967 17.2575 3.02683ZM4.33797 3.02683C4.3714 3.06265 4.37379 3.07698 4.34752 3.09131C4.33081 3.10086 4.32364 3.10086 4.33319 3.08892C4.35946 3.06265 4.30454 3.00295 4.27349 3.02206C4.25916 3.02922 4.25677 3.02444 4.26633 3.01012C4.28782 2.97429 4.29021 2.97429 4.33797 3.02683ZM5.60366 3.06743C5.61082 3.08653 5.60843 3.09609 5.5941 3.08892C5.57977 3.08176 5.57022 3.06504 5.57022 3.05071C5.57022 3.01728 5.58694 3.02444 5.60366 3.06743ZM7.22517 3.04594C7.23233 3.05788 7.21084 3.06743 7.1774 3.06982C7.13203 3.07221 7.12487 3.06743 7.14875 3.05071C7.18934 3.02444 7.21084 3.02444 7.22517 3.04594ZM4.84663 3.06743C4.83947 3.07459 4.81798 3.07698 4.80126 3.06982C4.78215 3.06265 4.78932 3.05549 4.81559 3.05549C4.84186 3.0531 4.85618 3.06027 4.84663 3.06743ZM17.7256 3.19639C17.7256 3.20833 17.7136 3.22027 17.6993 3.22027C17.6874 3.22027 17.6826 3.20833 17.6898 3.19639C17.6969 3.18206 17.7089 3.17251 17.716 3.17251C17.7208 3.17251 17.7256 3.18206 17.7256 3.19639ZM5.01141 3.23937C4.98753 3.24415 4.95887 3.23937 4.94454 3.22504C4.93022 3.21071 4.94454 3.20833 4.98992 3.21549C5.04007 3.22743 5.04484 3.23221 5.01141 3.23937ZM4.02991 3.26564C4.03707 3.27758 4.03468 3.2943 4.02274 3.30146C4.0108 3.30863 4.00125 3.29907 4.00125 3.27997C4.00125 3.23937 4.00841 3.2346 4.02991 3.26564ZM5.18813 3.2537C5.18813 3.25848 5.17141 3.27042 5.14992 3.27758C5.13081 3.28475 5.12126 3.28236 5.12843 3.26803C5.14276 3.24415 5.18813 3.2346 5.18813 3.2537ZM4.01797 3.35161C4.01797 3.35639 3.99409 3.3731 3.96543 3.38743C3.91289 3.4137 3.91289 3.41131 3.95588 3.37788C4.00603 3.33728 4.01797 3.33251 4.01797 3.35161ZM4.40006 3.38743C4.40006 3.39937 4.38096 3.41131 4.35946 3.41131C4.32364 3.41131 4.32125 3.40654 4.3523 3.38743C4.39767 3.35878 4.40006 3.35878 4.40006 3.38743ZM18.2199 3.37788C18.2127 3.38505 18.1913 3.38743 18.1745 3.38027C18.1554 3.3731 18.1626 3.36594 18.1889 3.36594C18.2151 3.36355 18.2295 3.37072 18.2199 3.37788ZM14.7548 3.54982C14.7142 3.58803 14.7118 3.58803 14.7429 3.53788C14.7596 3.50922 14.7787 3.49012 14.7858 3.49728C14.793 3.50206 14.7787 3.52594 14.7548 3.54982ZM14.7739 3.62147C14.7811 3.63341 14.7715 3.64296 14.7524 3.64296C14.7333 3.64296 14.7238 3.63341 14.7309 3.62147C14.7381 3.61191 14.7476 3.60236 14.7524 3.60236C14.7572 3.60236 14.7667 3.61191 14.7739 3.62147ZM3.7911 3.72176C3.78393 3.73371 3.75766 3.74565 3.73617 3.74326C3.70274 3.74326 3.70513 3.73848 3.74334 3.72176C3.80781 3.6955 3.80781 3.6955 3.7911 3.72176ZM6.27471 3.72176C6.28187 3.73609 6.27232 3.73848 6.25321 3.73132C6.21023 3.7146 6.20306 3.69788 6.2365 3.69788C6.25083 3.69788 6.26754 3.70744 6.27471 3.72176ZM19.9322 3.78386C19.9441 3.81729 19.9417 3.81968 19.9107 3.79341C19.8701 3.75997 19.8653 3.74565 19.8964 3.74565C19.9083 3.74565 19.925 3.76236 19.9322 3.78386ZM3.67169 3.81251C3.66453 3.81968 3.64542 3.81251 3.62871 3.7958C3.60722 3.77191 3.6096 3.76953 3.64304 3.78386C3.66692 3.79102 3.67886 3.80535 3.67169 3.81251ZM14.6927 3.77908C14.6927 3.78624 14.6832 3.79818 14.6688 3.80535C14.6569 3.81251 14.6449 3.80774 14.6449 3.7958C14.6449 3.78147 14.6569 3.76953 14.6688 3.76953C14.6832 3.76953 14.6927 3.7743 14.6927 3.77908ZM14.7906 3.82445C14.7667 3.84595 14.7644 3.84356 14.7787 3.81012C14.7858 3.78624 14.8002 3.7743 14.8073 3.78147C14.8145 3.78863 14.8073 3.80774 14.7906 3.82445ZM5.78515 3.8746C5.78515 3.87938 5.76843 3.89132 5.74694 3.89848C5.72784 3.90565 5.71828 3.90326 5.72545 3.88893C5.73978 3.86505 5.78515 3.8555 5.78515 3.8746ZM8.15652 3.89371C8.14219 3.91042 8.13503 3.94386 8.13741 3.96535C8.14219 3.99162 8.13264 4.00117 8.10876 3.99162C8.0801 3.97968 8.0801 3.9749 8.10637 3.95819C8.12309 3.94625 8.12786 3.93669 8.11592 3.93669C8.10398 3.93669 8.10876 3.91998 8.12547 3.90087C8.1613 3.85789 8.18995 3.85311 8.15652 3.89371ZM7.92487 3.91042C7.91532 3.92236 7.92487 3.93669 7.9392 3.94386C7.95592 3.94863 7.94159 3.95341 7.90577 3.95341C7.85562 3.95341 7.84846 3.94863 7.86995 3.92236C7.90338 3.88654 7.94398 3.87699 7.92487 3.91042ZM21.9453 3.95102C21.9382 3.95819 21.9167 3.96057 21.9 3.95341C21.8809 3.94625 21.888 3.93908 21.9143 3.93908C21.9406 3.93669 21.9549 3.94386 21.9453 3.95102ZM5.82097 3.98445C5.82814 3.9964 5.82336 4.00834 5.81142 4.00834C5.79709 4.00834 5.78515 3.9964 5.78515 3.98445C5.78515 3.97013 5.78993 3.96057 5.7947 3.96057C5.80187 3.96057 5.81381 3.97013 5.82097 3.98445ZM6.14336 3.97013C6.14336 3.98684 6.02396 4.00117 6.01202 3.98684C6.00724 3.97729 6.0359 3.96774 6.07411 3.96535C6.11232 3.96296 6.14336 3.96296 6.14336 3.97013ZM22.6212 4.04416C22.6212 4.0561 22.6092 4.05132 22.5973 4.03222C22.5853 4.01311 22.5734 3.98445 22.5734 3.97251C22.5734 3.95819 22.5853 3.96535 22.5973 3.98445C22.6092 4.00356 22.6212 4.02983 22.6212 4.04416ZM14.5494 4.00834C14.5494 4.02028 14.5375 4.03222 14.5232 4.03222C14.5112 4.03222 14.5064 4.02028 14.5136 4.00834C14.5208 3.99401 14.5327 3.98445 14.5399 3.98445C14.5447 3.98445 14.5494 3.99401 14.5494 4.00834ZM22.9674 4.00595C22.9746 4.01789 22.9722 4.0346 22.9603 4.04177C22.9483 4.04893 22.9388 4.03938 22.9388 4.02028C22.9388 3.97968 22.9459 3.9749 22.9674 4.00595ZM23.1537 4.02028C23.1656 4.04655 23.1298 4.05132 23.0749 4.03222C23.0677 4.02983 23.0534 4.02744 23.0438 4.02983C23.0319 4.03222 23.0295 4.02505 23.0343 4.01311C23.0558 3.98207 23.1418 3.98684 23.1537 4.02028ZM3.42094 4.02266C3.42094 4.04177 3.37557 4.05371 3.36363 4.03699C3.35647 4.02505 3.36602 4.0155 3.38512 4.0155C3.40423 4.0155 3.42094 4.02028 3.42094 4.02266ZM5.61798 4.08953C5.60127 4.10625 5.58694 4.10625 5.57022 4.08953C5.55589 4.0752 5.56306 4.06565 5.5941 4.06565C5.62515 4.06565 5.63231 4.0752 5.61798 4.08953ZM8.37861 4.08475C8.39055 4.0752 8.39055 4.07759 8.381 4.08953C8.35234 4.12535 8.2998 4.12535 8.2998 4.08953C8.2998 4.06804 8.30936 4.06326 8.32846 4.07998C8.34518 4.09192 8.36667 4.09431 8.37861 4.08475ZM8.21145 4.17072C8.20428 4.17789 8.21622 4.19461 8.23771 4.21132C8.27592 4.23998 8.27831 4.23998 8.13741 4.22565C8.12547 4.22326 8.13264 4.21132 8.15652 4.19699C8.17801 4.18267 8.18995 4.16117 8.18279 4.14684C8.17085 4.13013 8.17801 4.12774 8.19473 4.13729C8.21145 4.14923 8.21861 4.16117 8.21145 4.17072ZM5.71112 4.18505C5.73261 4.21132 5.73261 4.22326 5.70873 4.23759C5.69201 4.24714 5.68485 4.24714 5.6944 4.2352C5.70395 4.22565 5.70157 4.20177 5.68724 4.18267C5.67291 4.16595 5.66575 4.15162 5.67291 4.15162C5.67769 4.15162 5.69679 4.16595 5.71112 4.18505ZM3.16781 4.22565C3.16064 4.23759 3.14393 4.24237 3.13199 4.23282C3.12005 4.22565 3.11527 4.20893 3.12482 4.19699C3.13199 4.18505 3.1487 4.18028 3.16064 4.18983C3.17258 4.19699 3.17736 4.21371 3.16781 4.22565ZM5.25977 4.27102C5.25977 4.28296 5.24783 4.29491 5.2335 4.29491C5.22156 4.29491 5.21679 4.28296 5.22395 4.27102C5.23111 4.2567 5.24305 4.24714 5.25022 4.24714C5.25499 4.24714 5.25977 4.2567 5.25977 4.27102ZM8.31652 4.35461C8.34995 4.39998 8.34995 4.39998 8.31174 4.36894C8.28786 4.35222 8.26876 4.32595 8.26876 4.31162C8.26876 4.29729 8.27115 4.29252 8.27592 4.29729C8.27831 4.30207 8.29742 4.32834 8.31652 4.35461ZM8.50757 4.31879C8.50757 4.33073 8.50279 4.34267 8.49802 4.34267C8.49085 4.34267 8.47891 4.33073 8.47175 4.31879C8.46458 4.30446 8.46936 4.29491 8.4813 4.29491C8.49563 4.29491 8.50757 4.30446 8.50757 4.31879ZM5.43649 4.34744C5.42455 4.36655 5.4341 4.36894 5.46515 4.357C5.49858 4.34506 5.50336 4.34744 5.48186 4.36894C5.45082 4.39998 5.3935 4.3761 5.415 4.34028C5.42455 4.32834 5.4341 4.31879 5.44127 4.31879C5.44843 4.31879 5.44604 4.33073 5.43649 4.34744ZM8.25443 4.357C8.2616 4.3761 8.25921 4.38565 8.24488 4.37849C8.23055 4.37132 8.221 4.35461 8.221 4.34028C8.221 4.30685 8.23771 4.31401 8.25443 4.357ZM14.6473 4.44536C14.6235 4.46685 14.6211 4.46446 14.6354 4.43103C14.6426 4.40715 14.6569 4.39521 14.6641 4.40237C14.6712 4.40953 14.6641 4.42864 14.6473 4.44536ZM8.64847 4.49073C8.63652 4.51461 8.6222 4.53371 8.61981 4.53371C8.61503 4.53371 8.61264 4.51461 8.61264 4.49073C8.61264 4.46685 8.62697 4.44536 8.64369 4.44536C8.66279 4.44536 8.66518 4.45968 8.64847 4.49073ZM16.9996 4.49789C16.9948 4.53849 16.8897 4.62207 16.8897 4.58625C16.8897 4.57431 16.9136 4.55282 16.9447 4.53849C16.9781 4.52177 16.9829 4.51222 16.9614 4.51222C16.9303 4.50983 16.9303 4.50745 16.9614 4.48595C17.0068 4.4573 17.0068 4.45491 16.9996 4.49789ZM5.04484 4.4955C5.04484 4.50028 5.02813 4.51222 5.00663 4.51939C4.98753 4.52655 4.97798 4.52416 4.98514 4.50983C4.99947 4.48595 5.04484 4.4764 5.04484 4.4955ZM26.7143 4.50745C26.7239 4.51939 26.7072 4.52416 26.6809 4.517C26.626 4.50267 26.6188 4.48595 26.6666 4.48595C26.6857 4.48595 26.7072 4.4955 26.7143 4.50745ZM5.28365 4.53371C5.28365 4.54565 5.27171 4.5576 5.25738 4.5576C5.24544 4.5576 5.24067 4.54565 5.24783 4.53371C5.25499 4.51939 5.26693 4.50983 5.2741 4.50983C5.27888 4.50983 5.28365 4.51939 5.28365 4.53371ZM27.3376 4.5576C27.3472 4.57192 27.3758 4.5767 27.4045 4.56954C27.4499 4.5576 27.4523 4.5576 27.414 4.58148C27.383 4.60058 27.3615 4.59819 27.3209 4.57192C27.2923 4.55043 27.2803 4.53371 27.2946 4.53371C27.3114 4.53371 27.3305 4.54565 27.3376 4.5576ZM8.53145 4.58148C8.53145 4.59342 8.52667 4.60536 8.5219 4.60536C8.51473 4.60536 8.50279 4.59342 8.49563 4.58148C8.48846 4.56715 8.49324 4.5576 8.50518 4.5576C8.51951 4.5576 8.53145 4.56715 8.53145 4.58148ZM8.47175 4.62446C8.46458 4.63163 8.44548 4.62446 8.42876 4.60775C8.40727 4.58386 8.40966 4.58148 8.44309 4.5958C8.46697 4.60297 8.47891 4.6173 8.47175 4.62446ZM5.06156 4.67222C5.03051 4.70566 5.02813 4.72237 5.04962 4.74387C5.07111 4.76536 5.07111 4.77969 5.04723 4.80118C5.02335 4.82267 5.01857 4.82267 5.03051 4.80357C5.03768 4.78924 5.03051 4.76058 5.0138 4.74387C4.98514 4.71999 4.98753 4.70804 5.03051 4.67222C5.09499 4.6173 5.10932 4.6173 5.06156 4.67222ZM16.6987 4.68416C16.6987 4.68894 16.6796 4.69133 16.6557 4.69133C16.6318 4.69133 16.6103 4.677 16.6103 4.66028C16.6103 4.64118 16.6247 4.63879 16.6557 4.65551C16.6796 4.66745 16.6987 4.68178 16.6987 4.68416ZM26.9914 4.66506C26.9914 4.69372 26.946 4.69372 26.9364 4.66506C26.9269 4.64357 26.934 4.6364 26.9579 4.64595C26.9746 4.65312 26.9914 4.66267 26.9914 4.66506ZM15.2181 4.72476C15.2181 4.7367 15.2014 4.74148 15.1823 4.73431C15.1632 4.72476 15.1464 4.71521 15.1464 4.71043C15.1464 4.70566 15.1632 4.70088 15.1823 4.70088C15.2014 4.70088 15.2181 4.71043 15.2181 4.72476ZM27.9752 4.73431C28.0445 4.7367 27.9967 4.76058 27.9155 4.76297C27.8726 4.76536 27.8535 4.76058 27.8726 4.75342C27.8988 4.74387 27.8988 4.73909 27.8726 4.71999C27.8487 4.70327 27.8535 4.70088 27.8869 4.71521C27.9132 4.72476 27.9538 4.73193 27.9752 4.73431ZM4.99708 4.77252C4.99708 4.78446 4.98036 4.78924 4.96126 4.78207C4.94216 4.77252 4.92544 4.76297 4.92544 4.75819C4.92544 4.75342 4.94216 4.74864 4.96126 4.74864C4.98036 4.74864 4.99708 4.75819 4.99708 4.77252ZM26.9054 4.78685C26.9125 4.80596 26.9102 4.81551 26.8958 4.80834C26.8815 4.80118 26.872 4.78446 26.872 4.77013C26.872 4.7367 26.8887 4.74387 26.9054 4.78685ZM27.2899 4.83939C27.2827 4.84655 27.2636 4.83939 27.2469 4.82267C27.2254 4.79879 27.2278 4.7964 27.2612 4.81073C27.2851 4.8179 27.297 4.83222 27.2899 4.83939ZM4.62215 4.87999C4.60544 4.93014 4.59349 4.92536 4.59827 4.87043C4.59827 4.84416 4.61021 4.82745 4.61976 4.83461C4.62932 4.84178 4.6317 4.86088 4.62215 4.87999ZM4.92783 4.87282C4.94216 4.90387 4.94693 4.92058 4.93738 4.90864C4.92544 4.89909 4.89439 4.91103 4.86812 4.93252C4.81798 4.97551 4.81798 4.97551 4.86096 4.92297C4.88723 4.89431 4.89917 4.85849 4.88962 4.84655C4.88245 4.83222 4.88007 4.82028 4.88723 4.82028C4.89439 4.82028 4.9135 4.84416 4.92783 4.87282ZM27.4212 4.82984C27.4212 4.83461 27.4021 4.85372 27.3806 4.87043C27.3424 4.90148 27.34 4.89909 27.3711 4.86088C27.4021 4.82267 27.4212 4.81073 27.4212 4.82984ZM27.1824 4.87999C27.1824 4.88476 27.1681 4.89909 27.1514 4.91342C27.1275 4.93252 27.1179 4.93014 27.1179 4.90864C27.1179 4.88954 27.1323 4.87521 27.1514 4.87521C27.1681 4.87521 27.1824 4.8776 27.1824 4.87999ZM28.3669 4.9373C28.3573 4.95163 28.3311 4.96118 28.3096 4.96118C28.2738 4.95879 28.2738 4.95641 28.312 4.94685C28.3335 4.94208 28.3526 4.92775 28.3526 4.91581C28.3526 4.90387 28.3335 4.89909 28.312 4.90626C28.2761 4.9182 28.2738 4.91581 28.3048 4.89431C28.3454 4.86566 28.3908 4.8967 28.3669 4.9373ZM27.5836 4.94924C27.5669 4.96835 27.543 4.9779 27.5311 4.97073C27.5215 4.96357 27.5263 4.94924 27.543 4.9373C27.5955 4.90626 27.617 4.91103 27.5836 4.94924ZM28.5317 4.98506C28.5364 4.99461 28.515 5.00178 28.4863 5.00178C28.4576 5.00178 28.4314 4.98984 28.4314 4.97312C28.4314 4.94685 28.5126 4.95641 28.5317 4.98506ZM8.65802 5.02566C8.64847 5.05432 8.63891 5.0567 8.62458 5.03282C8.60309 4.997 8.61981 4.95641 8.65085 4.97551C8.66279 4.98267 8.66518 5.00656 8.65802 5.02566ZM14.8599 4.97312C14.8599 4.9779 14.8432 4.98984 14.8217 4.997C14.8026 5.00417 14.793 5.00178 14.8002 4.98745C14.8145 4.96357 14.8599 4.95402 14.8599 4.97312ZM27.6696 4.98267C27.6743 4.99223 27.66 5.00178 27.6361 5.00178C27.6123 5.00178 27.5979 4.99223 27.6027 4.98267C27.6099 4.97312 27.6242 4.96357 27.6361 4.96357C27.6481 4.96357 27.6624 4.97312 27.6696 4.98267ZM4.48364 5.08297C4.48842 5.11163 4.48842 5.13074 4.47887 5.12357C4.4717 5.11402 4.44305 5.1188 4.41439 5.13312C4.37379 5.15223 4.37618 5.14745 4.42394 5.10924C4.45737 5.08297 4.46931 5.05909 4.4526 5.05909C4.43588 5.05909 4.42872 5.04715 4.43588 5.03282C4.45737 5.00178 4.4717 5.01611 4.48364 5.08297ZM2.2269 5.04238C2.2269 5.04715 2.19824 5.07581 2.16242 5.10924L2.09556 5.16656L2.15287 5.09969C2.2078 5.03999 2.2269 5.02327 2.2269 5.04238ZM27.8654 5.06387C27.8749 5.08059 27.8726 5.08775 27.863 5.07581C27.8511 5.06626 27.82 5.0782 27.7938 5.09969C27.7436 5.14268 27.7436 5.14268 27.789 5.08775C27.8415 5.02566 27.8439 5.02566 27.8654 5.06387ZM28.7227 5.10447C28.7156 5.11641 28.7203 5.13312 28.7347 5.14268C28.7466 5.14984 28.7585 5.16895 28.7585 5.18566C28.7585 5.19999 28.7442 5.19044 28.7251 5.16656C28.6941 5.12357 28.6941 5.08297 28.7251 5.08297C28.7323 5.08297 28.7323 5.09253 28.7227 5.10447ZM2.2269 5.13074C2.2269 5.14268 2.21496 5.15462 2.20063 5.15462C2.18869 5.15462 2.18392 5.14268 2.19108 5.13074C2.19824 5.11641 2.21018 5.10685 2.21735 5.10685C2.22213 5.10685 2.2269 5.11641 2.2269 5.13074ZM27.8678 5.14268C27.8678 5.16178 27.8582 5.1785 27.8463 5.1785C27.8224 5.1785 27.82 5.14506 27.8439 5.12357C27.8654 5.09969 27.8678 5.10208 27.8678 5.14268ZM27.6218 5.14984C27.629 5.16178 27.6194 5.17133 27.6003 5.17133C27.5812 5.17133 27.5717 5.16178 27.5788 5.14984C27.586 5.14029 27.5955 5.13074 27.6003 5.13074C27.6051 5.13074 27.6146 5.14029 27.6218 5.14984ZM4.72245 5.1785C4.72962 5.19283 4.72006 5.19521 4.70096 5.18805C4.65797 5.17133 4.65081 5.15462 4.68424 5.15462C4.69857 5.15462 4.71529 5.16417 4.72245 5.1785ZM27.5024 5.17611C27.512 5.18805 27.4952 5.19283 27.469 5.18566C27.414 5.17133 27.4069 5.15462 27.4546 5.15462C27.4737 5.15462 27.4952 5.16417 27.5024 5.17611ZM4.29498 5.25014C4.2926 5.26924 4.30692 5.28357 4.32364 5.2788C4.35707 5.27402 4.36185 5.28835 4.33081 5.30745C4.32125 5.31462 4.28782 5.29551 4.26155 5.26686C4.21379 5.21671 4.21379 5.21193 4.25439 5.21193C4.27827 5.21193 4.29737 5.22865 4.29498 5.25014ZM4.38573 5.22148C4.3929 5.23342 4.38334 5.24298 4.36424 5.24298C4.34513 5.24298 4.33558 5.23342 4.34275 5.22148C4.34991 5.21193 4.35946 5.20238 4.36424 5.20238C4.36901 5.20238 4.37857 5.21193 4.38573 5.22148ZM28.9735 5.28119C28.9735 5.28596 28.9544 5.28835 28.9305 5.28835C28.9066 5.28835 28.8851 5.27402 28.8851 5.2573C28.8851 5.2382 28.8994 5.23581 28.9305 5.25253C28.9544 5.26447 28.9735 5.2788 28.9735 5.28119ZM4.51946 5.25969C4.51946 5.26447 4.50036 5.28357 4.47887 5.30029C4.44066 5.33134 4.43827 5.32895 4.46931 5.29074C4.50036 5.25253 4.51946 5.24059 4.51946 5.25969ZM27.7914 5.27402C27.8009 5.28835 27.7985 5.2979 27.7866 5.29551C27.7269 5.28596 27.703 5.30029 27.7197 5.3385C27.7317 5.37432 27.7293 5.37671 27.703 5.35044C27.6767 5.32417 27.6791 5.31223 27.7173 5.28357C27.7746 5.24298 27.7723 5.24298 27.7914 5.27402ZM2.02153 5.33372C2.01197 5.35283 2.01675 5.36954 2.03108 5.36954C2.04541 5.36954 2.06212 5.35522 2.0669 5.3385C2.07645 5.31701 2.08123 5.31701 2.08123 5.3385C2.08362 5.3791 2.03585 5.40298 2.0072 5.37432C1.99287 5.35999 1.99048 5.3385 1.99765 5.32417C2.02153 5.28596 2.03585 5.29313 2.02153 5.33372ZM29.0093 5.32178C29.0021 5.33372 29.0141 5.34566 29.0379 5.34805C29.0762 5.34805 29.0762 5.35044 29.0332 5.36716C28.9711 5.39342 28.94 5.37432 28.9759 5.33134C29.0069 5.29313 29.0308 5.28596 29.0093 5.32178ZM4.52902 5.34089C4.53618 5.35283 4.52663 5.36238 4.50752 5.36238C4.48842 5.36238 4.47887 5.35283 4.48603 5.34089C4.4932 5.33134 4.50275 5.32178 4.50752 5.32178C4.5123 5.32178 4.52185 5.33134 4.52902 5.34089ZM4.24961 5.41014C4.24961 5.43163 4.24006 5.43402 4.21618 5.41492C4.19946 5.40059 4.18513 5.38626 4.18513 5.38148C4.18513 5.3791 4.19946 5.37671 4.21618 5.37671C4.23528 5.37671 4.24961 5.39104 4.24961 5.41014ZM1.82093 5.45074C1.82093 5.45551 1.80182 5.47462 1.78033 5.49134C1.74212 5.52238 1.73973 5.51999 1.77078 5.48178C1.80182 5.44357 1.82093 5.43163 1.82093 5.45074ZM28.2403 5.49134C28.2212 5.51044 28.2093 5.50805 28.1973 5.48656C28.1854 5.46746 28.1878 5.46268 28.2045 5.47462C28.2212 5.48417 28.2332 5.4794 28.2332 5.46268C28.2332 5.44596 28.2403 5.44119 28.2499 5.44835C28.2594 5.4579 28.2547 5.47701 28.2403 5.49134ZM1.86869 5.47223C1.86869 5.47701 1.84003 5.50566 1.80421 5.5391L1.73734 5.59641L1.79466 5.52955C1.84958 5.46984 1.86869 5.45313 1.86869 5.47223ZM8.83474 5.52477C8.79891 5.56298 8.78936 5.55581 8.80847 5.50328C8.81563 5.48178 8.83235 5.47223 8.84429 5.4794C8.85623 5.48656 8.85145 5.50566 8.83474 5.52477ZM4.13976 5.57731C4.1111 5.62507 4.10633 5.61074 4.12782 5.54865C4.13737 5.52716 4.14931 5.51522 4.15409 5.52238C4.16125 5.52716 4.15409 5.55343 4.13976 5.57731ZM4.34991 5.58925C4.33797 5.61313 4.33319 5.64656 4.34275 5.66328C4.3523 5.68 4.34991 5.68238 4.33797 5.67283C4.30454 5.64179 4.30931 5.54387 4.34513 5.54387C4.36424 5.54387 4.36663 5.55581 4.34991 5.58925ZM1.70152 5.59402C1.70152 5.5988 1.68242 5.61791 1.66093 5.63462C1.62272 5.66567 1.62033 5.66328 1.65137 5.62507C1.68242 5.58686 1.70152 5.57492 1.70152 5.59402ZM4.09916 5.6585C4.092 5.67044 4.07528 5.67522 4.06334 5.66805C4.0514 5.6585 4.04185 5.66567 4.04185 5.67761C4.04185 5.69194 4.02991 5.70388 4.01319 5.70388C3.99886 5.70388 4.00603 5.68477 4.02991 5.65611C4.0705 5.61074 4.12782 5.61313 4.09916 5.6585ZM9.12369 5.69194C9.11653 5.6991 9.1022 5.68716 9.09504 5.66328C9.08071 5.62985 9.0831 5.62746 9.10698 5.64895C9.12369 5.66567 9.13086 5.68477 9.12369 5.69194ZM4.25916 5.72059C4.23051 5.76835 4.22573 5.75403 4.24722 5.69194C4.25677 5.67044 4.26872 5.6585 4.27349 5.66567C4.28066 5.67044 4.27349 5.69671 4.25916 5.72059ZM1.70152 5.74209C1.70152 5.76119 1.65615 5.77313 1.64421 5.75641C1.63704 5.74447 1.6466 5.73492 1.6657 5.73492C1.68481 5.73492 1.70152 5.7397 1.70152 5.74209ZM28.4003 5.76119C28.4003 5.76835 28.3908 5.7803 28.3764 5.78746C28.3645 5.79462 28.3526 5.78985 28.3526 5.77791C28.3526 5.76358 28.3645 5.75164 28.3764 5.75164C28.3908 5.75164 28.4003 5.75641 28.4003 5.76119ZM28.2475 5.84C28.2308 5.85671 28.1854 5.82328 28.1854 5.79462C28.1854 5.7803 28.1997 5.7803 28.2212 5.7994C28.2427 5.81612 28.2523 5.83522 28.2475 5.84ZM28.4385 5.84716C28.4385 5.87582 28.429 5.88537 28.417 5.87343C28.4051 5.86149 28.4027 5.84 28.4099 5.82567C28.4338 5.78985 28.4385 5.79224 28.4385 5.84716ZM3.92961 5.90448C3.92244 5.91403 3.90811 5.90925 3.89617 5.89254C3.86513 5.84 3.8699 5.8185 3.90811 5.85194C3.92722 5.86865 3.93677 5.89254 3.92961 5.90448ZM1.49615 5.92358C1.49376 5.95463 1.48898 5.98328 1.48898 5.98806C1.48659 5.99522 1.47465 5.98806 1.45794 5.97134C1.43883 5.95224 1.43883 5.93552 1.46271 5.90686C1.50092 5.8591 1.50331 5.86149 1.49615 5.92358ZM7.67174 5.97612C7.67174 5.98089 7.65741 5.99761 7.6383 6.01194C7.61204 6.03343 7.6001 6.03343 7.58577 6.01194C7.57621 5.99522 7.5786 5.99045 7.59532 6C7.60965 6.00716 7.62636 6.00478 7.63592 5.99045C7.65025 5.96657 7.67174 5.95701 7.67174 5.97612ZM28.4887 6.06686C28.4815 6.08597 28.4744 6.07881 28.4744 6.05254C28.472 6.02627 28.4791 6.01194 28.4863 6.02149C28.4935 6.02866 28.4958 6.05015 28.4887 6.06686ZM23.8558 6.07642C23.8486 6.08358 23.8271 6.08597 23.8104 6.07881C23.7913 6.07164 23.7985 6.06448 23.8248 6.06448C23.851 6.06209 23.8654 6.06925 23.8558 6.07642ZM25.2122 6.08358C25.2194 6.09552 25.217 6.11224 25.2051 6.1194C25.1931 6.12657 25.1836 6.11701 25.1836 6.09791C25.1836 6.05731 25.1907 6.05254 25.2122 6.08358ZM25.0976 6.1003C25.0904 6.10746 25.0689 6.10985 25.0522 6.10269C25.0331 6.09552 25.0403 6.08836 25.0666 6.08836C25.0928 6.08597 25.1072 6.09313 25.0976 6.1003ZM28.3191 6.17672C28.2785 6.21493 28.2761 6.21493 28.3072 6.16478C28.3239 6.13612 28.343 6.11701 28.3502 6.12418C28.3573 6.12896 28.343 6.15284 28.3191 6.17672ZM29.6684 6.15045C29.6994 6.18866 29.6971 6.19105 29.6612 6.16C29.6206 6.12896 29.6087 6.10985 29.6278 6.10985C29.6326 6.10985 29.6517 6.12896 29.6684 6.15045ZM25.974 6.25791C25.9669 6.26746 25.9478 6.26985 25.9287 6.2603C25.8785 6.24358 25.8833 6.23164 25.9382 6.23642C25.9645 6.23642 25.9812 6.24836 25.974 6.25791ZM1.21913 6.3009C1.20241 6.32478 1.1857 6.3415 1.17853 6.33672C1.16898 6.32717 1.22152 6.25314 1.23823 6.25314C1.24301 6.25314 1.23585 6.27463 1.21913 6.3009ZM14.9745 6.31284C14.9673 6.32 14.953 6.30806 14.9458 6.28418C14.9315 6.25075 14.9339 6.24836 14.9578 6.26985C14.9745 6.28657 14.9817 6.30567 14.9745 6.31284ZM14.8121 6.33672C14.8455 6.38209 14.8455 6.38209 14.8073 6.35105C14.7835 6.33433 14.7644 6.30806 14.7644 6.29373C14.7644 6.2794 14.7667 6.27463 14.7715 6.2794C14.7739 6.28418 14.793 6.31045 14.8121 6.33672ZM14.7333 6.37732C14.7261 6.39642 14.719 6.38926 14.719 6.36299C14.7166 6.33672 14.7238 6.32239 14.7309 6.33194C14.7381 6.33911 14.7405 6.3606 14.7333 6.37732ZM15.039 6.34627C15.0461 6.35821 15.0438 6.37493 15.0318 6.38209C15.0199 6.38926 15.0103 6.3797 15.0103 6.3606C15.0103 6.32 15.0175 6.31523 15.039 6.34627ZM18.2629 6.39403L18.3107 6.45135L18.2581 6.41791C18.2271 6.39881 18.2032 6.37015 18.2032 6.35105C18.2032 6.33194 18.2056 6.32239 18.2104 6.32717C18.2127 6.33194 18.2366 6.36299 18.2629 6.39403ZM19.8032 6.38448C19.7865 6.40359 19.7626 6.4203 19.7483 6.4203C19.734 6.4203 19.7435 6.40359 19.7698 6.38448C19.8295 6.33911 19.8414 6.33911 19.8032 6.38448ZM26.5281 6.43463C26.5305 6.45612 26.5281 6.46568 26.5185 6.45851C26.5114 6.44896 26.5018 6.42508 26.4994 6.40597C26.497 6.38448 26.4994 6.37493 26.509 6.38209C26.5161 6.39165 26.5257 6.41553 26.5281 6.43463ZM4.80603 6.44418C4.78693 6.45612 4.76066 6.46806 4.74633 6.46806C4.73439 6.46806 4.73917 6.45612 4.75827 6.44418C4.77738 6.43224 4.80603 6.4203 4.81798 6.4203C4.8323 6.4203 4.82514 6.43224 4.80603 6.44418ZM4.6532 6.5206C4.66275 6.53732 4.66036 6.53971 4.64126 6.53015C4.62454 6.5206 4.57917 6.54209 4.52902 6.58508C4.48364 6.62568 4.43827 6.65911 4.43111 6.65911C4.412 6.65911 4.59827 6.49433 4.61976 6.49194C4.62932 6.49194 4.64364 6.50389 4.6532 6.5206ZM19.7244 6.55165C19.7244 6.59941 19.7149 6.59702 19.6838 6.53971C19.6647 6.50389 19.6647 6.49672 19.691 6.50627C19.7101 6.51344 19.7244 6.53254 19.7244 6.55165ZM0.987485 6.59463C0.963604 6.61613 0.961216 6.61374 0.975544 6.5803C0.982709 6.55642 0.997037 6.54448 1.0042 6.55165C1.01137 6.55881 1.0042 6.57792 0.987485 6.59463ZM4.43349 6.58986C4.42633 6.6018 4.40961 6.60657 4.39767 6.59702C4.38573 6.58986 4.38096 6.57314 4.39051 6.5612C4.39767 6.54926 4.41439 6.54448 4.42633 6.55404C4.43827 6.5612 4.44305 6.57792 4.43349 6.58986ZM19.2301 6.58747C19.2301 6.59941 19.2205 6.61135 19.2062 6.61135C19.1943 6.61135 19.1823 6.59941 19.1823 6.58747C19.1823 6.57314 19.1943 6.56359 19.2062 6.56359C19.2205 6.56359 19.2301 6.57314 19.2301 6.58747ZM18.6928 6.61135C18.6999 6.62568 18.6904 6.62807 18.6713 6.6209C18.6283 6.60419 18.6211 6.58747 18.6545 6.58747C18.6689 6.58747 18.6856 6.59702 18.6928 6.61135ZM3.75766 6.66628C3.73378 6.68777 3.7314 6.68538 3.74572 6.65195C3.75289 6.62807 3.76722 6.61613 3.77438 6.62329C3.78155 6.63045 3.77438 6.64956 3.75766 6.66628ZM18.6092 6.63523C18.6092 6.64717 18.6044 6.65911 18.5996 6.65911C18.5925 6.65911 18.5805 6.64717 18.5734 6.63523C18.5662 6.6209 18.571 6.61135 18.5829 6.61135C18.5972 6.61135 18.6092 6.6209 18.6092 6.63523ZM19.8343 6.65911C19.8438 6.65911 19.8462 6.64717 19.839 6.63523C19.8152 6.59463 19.8438 6.60896 19.8772 6.65195C19.894 6.67583 19.9011 6.68777 19.8892 6.67822C19.8772 6.66866 19.8462 6.67344 19.8175 6.68777C19.7913 6.7021 19.7746 6.70448 19.7841 6.69493C19.7937 6.68299 19.7889 6.65911 19.7746 6.63762C19.7507 6.60657 19.7507 6.60419 19.7793 6.62807C19.7984 6.64478 19.8223 6.65911 19.8343 6.65911ZM15.1417 6.69493C15.1345 6.7021 15.1202 6.69016 15.113 6.66628C15.0987 6.63284 15.1011 6.63045 15.125 6.65195C15.1417 6.66866 15.1488 6.68777 15.1417 6.69493ZM18.8408 6.64956C18.8337 6.65672 18.8122 6.65911 18.7954 6.65195C18.7763 6.64478 18.7835 6.63762 18.8098 6.63762C18.836 6.63523 18.8504 6.64239 18.8408 6.64956ZM4.37618 6.66866C4.37618 6.67344 4.35946 6.69016 4.34036 6.70687C4.30931 6.73314 4.30692 6.73075 4.31887 6.69732C4.33081 6.66389 4.37618 6.64239 4.37618 6.66866ZM14.9411 6.69732C14.9482 6.71642 14.9458 6.72598 14.9315 6.71881C14.9172 6.71165 14.9076 6.69493 14.9076 6.6806C14.9076 6.64717 14.9244 6.65433 14.9411 6.69732ZM19.2611 6.67583C19.2444 6.6806 19.2157 6.6806 19.2014 6.67583C19.1847 6.66866 19.1966 6.66389 19.2301 6.66389C19.2635 6.66389 19.2754 6.66866 19.2611 6.67583ZM3.49975 6.74269C3.49259 6.76419 3.48065 6.77613 3.47587 6.76896C3.46871 6.7618 3.47109 6.74747 3.48065 6.73314C3.50214 6.69493 3.51647 6.7021 3.49975 6.74269ZM4.26872 6.73075C4.27588 6.74269 4.2711 6.75463 4.25916 6.75463C4.24483 6.75463 4.23289 6.74269 4.23289 6.73075C4.23289 6.71642 4.23767 6.70687 4.24245 6.70687C4.24961 6.70687 4.26155 6.71642 4.26872 6.73075ZM27.0272 6.75463C27.0343 6.76896 27.0248 6.77135 27.0057 6.76419C26.9627 6.74747 26.9555 6.73075 26.989 6.73075C27.0033 6.73075 27.02 6.74031 27.0272 6.75463ZM4.17797 6.79046C4.17797 6.80956 4.16842 6.81911 4.15648 6.81195C4.14453 6.80478 4.14215 6.78807 4.14931 6.77613C4.1708 6.74508 4.17797 6.74986 4.17797 6.79046ZM15.242 6.76419C15.242 6.76896 15.2229 6.78807 15.2014 6.80478C15.1632 6.83583 15.1608 6.83344 15.1918 6.79523C15.2229 6.75702 15.242 6.74508 15.242 6.76419ZM4.10155 6.87404C4.10871 6.88837 4.09916 6.89075 4.08006 6.88359C4.03707 6.86687 4.02991 6.85016 4.06334 6.85016C4.07767 6.85016 4.09438 6.85971 4.10155 6.87404ZM15.0748 6.89792C15.1035 6.91464 15.0987 6.91941 15.0557 6.91464C15.027 6.91464 15.0032 6.9027 15.0032 6.89314C15.0032 6.86687 15.0318 6.86926 15.0748 6.89792ZM3.87707 6.9624C3.90811 7.00061 3.90573 7.00299 3.8699 6.97195C3.83647 6.94568 3.82692 6.94568 3.82692 6.96956C3.82692 6.98867 3.81976 6.99583 3.81259 6.98628C3.80065 6.97434 3.81976 6.9218 3.83647 6.9218C3.84125 6.9218 3.86035 6.9409 3.87707 6.9624ZM3.94871 6.9624C3.97976 7.00061 3.97737 7.00299 3.94155 6.97195C3.91767 6.95523 3.89856 6.93613 3.89856 6.93135C3.89856 6.91225 3.91767 6.92419 3.94871 6.9624ZM5.69679 7.07703C5.68963 7.09852 5.67769 7.11046 5.67291 7.10329C5.66575 7.09613 5.66813 7.0818 5.67769 7.06747C5.69918 7.02926 5.71351 7.03643 5.69679 7.07703ZM3.80304 7.13673C3.8317 7.15344 3.82692 7.15822 3.78393 7.15344C3.75528 7.15344 3.7314 7.1415 3.7314 7.13195C3.7314 7.10568 3.76005 7.10807 3.80304 7.13673ZM3.56423 7.18449C3.56423 7.21076 3.55468 7.23225 3.54274 7.23225C3.5308 7.23225 3.52602 7.21076 3.53318 7.18449C3.54035 7.15822 3.5499 7.13673 3.55468 7.13673C3.55945 7.13673 3.56423 7.15822 3.56423 7.18449ZM15.402 7.17255C15.402 7.19165 15.3924 7.20121 15.3805 7.19404C15.3685 7.18688 15.3662 7.17016 15.3733 7.15822C15.3948 7.12718 15.402 7.13195 15.402 7.17255ZM20.651 7.18449C20.6438 7.19643 20.6462 7.20837 20.6605 7.20837C20.6749 7.20837 20.6796 7.22509 20.6725 7.24419C20.651 7.29912 20.6223 7.28718 20.6295 7.22509C20.6367 7.16061 20.6367 7.16061 20.6534 7.16061C20.6605 7.16061 20.6582 7.17016 20.651 7.18449ZM27.3018 7.29434C27.3018 7.31345 27.2564 7.32539 27.2445 7.30867C27.2373 7.29673 27.2469 7.28718 27.266 7.28718C27.2851 7.28718 27.3018 7.29195 27.3018 7.29434ZM29.8571 7.31822C29.8571 7.33733 29.8117 7.34927 29.7997 7.33255C29.7926 7.32061 29.8021 7.31106 29.8212 7.31106C29.8403 7.31106 29.8571 7.31583 29.8571 7.31822ZM3.56423 7.33733C3.56423 7.3421 3.54513 7.36121 3.52363 7.37792C3.48542 7.40897 3.48303 7.40658 3.51408 7.36837C3.54513 7.33016 3.56423 7.31822 3.56423 7.33733ZM3.65737 7.36837C3.64304 7.38509 3.61677 7.39942 3.60244 7.39703C3.58572 7.39703 3.58811 7.39225 3.60722 7.3827C3.62154 7.37792 3.6311 7.3636 3.62632 7.35404C3.61916 7.34449 3.62871 7.33494 3.64781 7.33494C3.67408 7.33494 3.67647 7.34449 3.65737 7.36837ZM15.6241 7.33494C15.6241 7.33972 15.6002 7.3636 15.5715 7.38986L15.5166 7.43524L15.562 7.38031C15.605 7.33016 15.6241 7.31583 15.6241 7.33494ZM15.3232 7.39464C15.3303 7.40658 15.3208 7.41613 15.3017 7.41613C15.2826 7.41613 15.273 7.40658 15.2802 7.39464C15.2873 7.38509 15.2969 7.37554 15.3017 7.37554C15.3064 7.37554 15.316 7.38509 15.3232 7.39464ZM15.6479 7.38509C15.6479 7.38986 15.6288 7.40897 15.6073 7.42569C15.5691 7.45673 15.5668 7.45434 15.5978 7.41613C15.6288 7.37792 15.6479 7.36598 15.6479 7.38509ZM20.8802 7.39225C20.8564 7.4018 20.8564 7.40897 20.8755 7.4233C20.897 7.43524 20.8946 7.44718 20.8659 7.47106C20.8349 7.49733 20.8325 7.49494 20.8444 7.45912C20.8588 7.42569 20.854 7.42091 20.8277 7.43524C20.799 7.45434 20.799 7.44957 20.8277 7.41613C20.8444 7.39464 20.8731 7.37554 20.8874 7.37792C20.9017 7.37792 20.8993 7.38509 20.8802 7.39225ZM29.8571 7.38986C29.8571 7.40897 29.8117 7.42091 29.7997 7.40419C29.7926 7.39225 29.8021 7.3827 29.8212 7.3827C29.8403 7.3827 29.8571 7.38748 29.8571 7.38986ZM28.3764 7.483C28.3764 7.49494 28.3645 7.49016 28.3526 7.47106C28.3406 7.45195 28.3287 7.4233 28.3287 7.41136C28.3287 7.39703 28.3406 7.40419 28.3526 7.4233C28.3645 7.4424 28.3764 7.46867 28.3764 7.483ZM0.669869 7.483C0.662705 7.49016 0.648377 7.47822 0.641212 7.45434C0.626884 7.42091 0.629272 7.41852 0.653153 7.44001C0.669869 7.45673 0.677034 7.47584 0.669869 7.483ZM15.4187 7.47584C15.4115 7.48539 15.3972 7.49494 15.3829 7.49494C15.3709 7.49494 15.3614 7.48539 15.3614 7.47584C15.3614 7.4639 15.3781 7.45434 15.3972 7.45434C15.4163 7.45434 15.4259 7.4639 15.4187 7.47584ZM15.7268 7.53554C15.7196 7.55225 15.7124 7.56658 15.7076 7.56658C15.7029 7.56658 15.6957 7.55225 15.6885 7.53554C15.6814 7.51643 15.6909 7.5021 15.7076 7.5021C15.7244 7.5021 15.7339 7.51643 15.7268 7.53554ZM28.0373 7.59046C28.0206 7.61434 28.0039 7.63106 27.9967 7.62628C27.9872 7.61673 28.0397 7.5427 28.0564 7.5427C28.0612 7.5427 28.0541 7.56419 28.0373 7.59046ZM18.9435 7.57613C18.9435 7.58091 18.9268 7.59285 18.9053 7.60002C18.8862 7.60718 18.8766 7.60479 18.8838 7.59046C18.8981 7.56658 18.9435 7.55703 18.9435 7.57613ZM15.562 7.63584C15.5691 7.64778 15.5572 7.67166 15.5333 7.68838C15.4951 7.71942 15.4951 7.71942 15.5285 7.67643C15.562 7.63345 15.5596 7.63106 15.5214 7.64539C15.4951 7.65494 15.4832 7.65255 15.4927 7.63823C15.5118 7.60957 15.5453 7.60718 15.562 7.63584ZM28.2308 7.64539C28.2499 7.66927 28.2475 7.67882 28.226 7.67882C28.2069 7.67882 28.1926 7.66449 28.1926 7.64539C28.1926 7.62867 28.195 7.61434 28.1973 7.61434C28.2021 7.61434 28.2164 7.62867 28.2308 7.64539ZM6.11948 7.64778C6.11948 7.65255 6.10277 7.66449 6.08127 7.67166C6.06217 7.67882 6.05262 7.67643 6.05978 7.66211C6.07411 7.63823 6.11948 7.62867 6.11948 7.64778ZM8.93265 7.72181C8.92548 7.72897 8.91115 7.71703 8.90399 7.69315C8.88966 7.65972 8.89205 7.65733 8.91593 7.67882C8.93265 7.69554 8.93981 7.71464 8.93265 7.72181ZM27.9108 7.6836C27.9179 7.69554 27.9155 7.71226 27.9036 7.71942C27.8917 7.72658 27.8821 7.71703 27.8821 7.69793C27.8821 7.65733 27.8893 7.65255 27.9108 7.6836ZM19.5811 7.70032C19.574 7.70987 19.5763 7.73852 19.5907 7.76718C19.6146 7.81494 19.6122 7.81494 19.5787 7.77196C19.5453 7.73136 19.5477 7.68599 19.5811 7.68599C19.5907 7.68599 19.5883 7.69315 19.5811 7.70032ZM16.8014 7.72658C16.7847 7.73136 16.756 7.73136 16.7417 7.72658C16.725 7.71942 16.7369 7.71464 16.7703 7.71464C16.8038 7.71464 16.8157 7.71942 16.8014 7.72658ZM17.1357 7.74569C17.1286 7.76718 17.1166 7.77912 17.1118 7.77196C17.1047 7.76479 17.1071 7.75047 17.1166 7.73614C17.1381 7.69793 17.1524 7.70509 17.1357 7.74569ZM19.6456 7.74808C19.6528 7.76718 19.6504 7.77673 19.636 7.76957C19.6217 7.76241 19.6122 7.74569 19.6122 7.73136C19.6122 7.69793 19.6289 7.70509 19.6456 7.74808ZM29.7138 7.73375C29.7138 7.74569 29.709 7.75763 29.7042 7.75763C29.6971 7.75763 29.6851 7.74569 29.678 7.73375C29.6708 7.71942 29.6756 7.70987 29.6875 7.70987C29.7018 7.70987 29.7138 7.71942 29.7138 7.73375ZM19.5262 7.75285C19.531 7.76241 19.5143 7.77435 19.4856 7.77435C19.445 7.77912 19.4402 7.77435 19.4689 7.75763C19.5119 7.72897 19.5119 7.72897 19.5262 7.75285ZM28.109 7.78151C28.0923 7.80539 28.0755 7.82211 28.0684 7.81733C28.0588 7.80778 28.1114 7.73375 28.1281 7.73375C28.1329 7.73375 28.1257 7.75524 28.109 7.78151ZM16.7871 7.77196C16.7799 7.77912 16.7584 7.78151 16.7417 7.77435C16.7226 7.76718 16.7297 7.76002 16.756 7.76002C16.7823 7.75763 16.7966 7.76479 16.7871 7.77196ZM19.3734 7.79584C19.3734 7.81494 19.328 7.82688 19.316 7.81017C19.3089 7.79823 19.3184 7.78867 19.3375 7.78867C19.3566 7.78867 19.3734 7.79345 19.3734 7.79584ZM15.7196 7.81972C15.7196 7.83882 15.6742 7.85077 15.6623 7.83405C15.6551 7.82211 15.6647 7.81256 15.6838 7.81256C15.7029 7.81256 15.7196 7.81733 15.7196 7.81972ZM28.1615 7.81494C28.1615 7.82211 28.152 7.83405 28.1376 7.84121C28.1257 7.84838 28.1138 7.8436 28.1138 7.83166C28.1138 7.81733 28.1257 7.80539 28.1376 7.80539C28.152 7.80539 28.1615 7.81017 28.1615 7.81494ZM19.6217 7.87942C19.6146 7.89136 19.5978 7.89614 19.5859 7.88659C19.574 7.87942 19.5692 7.86271 19.5787 7.85077C19.5859 7.83882 19.6026 7.83405 19.6146 7.8436C19.6265 7.85077 19.6313 7.86748 19.6217 7.87942ZM29.666 7.83882C29.666 7.84599 29.6565 7.85793 29.6421 7.86509C29.6302 7.87226 29.6182 7.86748 29.6182 7.85554C29.6182 7.84121 29.6302 7.82927 29.6421 7.82927C29.6565 7.82927 29.666 7.83405 29.666 7.83882ZM20.7823 7.91047C20.7656 7.92718 20.7513 7.92718 20.7346 7.91047C20.7202 7.89614 20.7274 7.88659 20.7585 7.88659C20.7895 7.88659 20.7967 7.89614 20.7823 7.91047ZM27.7794 7.9248C27.7484 7.98211 27.746 7.98211 27.7054 7.93196C27.6863 7.91047 27.6839 7.89853 27.6958 7.90569C27.7102 7.91524 27.7364 7.91286 27.7555 7.89853C27.8057 7.86748 27.8081 7.87226 27.7794 7.9248ZM17.5441 7.92002C17.5513 7.93196 17.5417 7.94151 17.5226 7.94151C17.5035 7.94151 17.4939 7.93196 17.5011 7.92002C17.5083 7.91047 17.5178 7.90092 17.5226 7.90092C17.5274 7.90092 17.5369 7.91047 17.5441 7.92002ZM28.0015 8.00838C27.98 8.04659 27.9776 8.04659 27.9633 8.01077C27.9514 7.98211 27.9561 7.97495 27.9752 7.98689C27.9944 7.99883 27.9967 7.98927 27.9848 7.95823C27.9729 7.9248 27.9752 7.92002 27.9944 7.94151C28.0135 7.95823 28.0158 7.98211 28.0015 8.00838ZM29.5227 7.97256C29.5084 7.99883 29.4917 8.02032 29.4845 8.02032C29.4797 8.02032 29.4845 7.99883 29.4988 7.97256C29.5132 7.94629 29.5299 7.9248 29.5371 7.9248C29.5418 7.9248 29.5371 7.94629 29.5227 7.97256ZM5.61798 7.96778C5.61798 7.97972 5.60127 8.00838 5.58216 8.03465C5.54873 8.07763 5.54873 8.07524 5.57261 8.01315C5.60127 7.94868 5.61798 7.93196 5.61798 7.96778ZM17.6898 7.97256C17.6969 7.98689 17.6874 7.98927 17.6683 7.98211C17.6253 7.96539 17.6181 7.94868 17.6516 7.94868C17.6659 7.94868 17.6826 7.95823 17.6898 7.97256ZM17.2002 7.98689C17.2002 8.00599 17.1548 8.01793 17.1429 8.00121C17.1357 7.98927 17.1453 7.97972 17.1644 7.97972C17.1835 7.97972 17.2002 7.9845 17.2002 7.98689ZM17.4605 7.97972C17.4557 7.98211 17.4295 8.00121 17.4032 8.02032C17.3578 8.05375 17.3578 8.05375 17.3889 8.01315C17.4056 7.99166 17.4318 7.97256 17.4462 7.97256C17.4605 7.97256 17.4653 7.97495 17.4605 7.97972ZM15.9035 8.03704C15.9035 8.05853 15.8939 8.06092 15.87 8.04181C15.8533 8.02748 15.839 8.01315 15.839 8.00838C15.839 8.00599 15.8533 8.0036 15.87 8.0036C15.8891 8.0036 15.9035 8.01793 15.9035 8.03704ZM8.77026 8.03465C8.77026 8.05375 8.72488 8.06569 8.71294 8.04898C8.70578 8.03704 8.71533 8.02748 8.73444 8.02748C8.75354 8.02748 8.77026 8.03226 8.77026 8.03465ZM17.0617 8.05614C17.0617 8.06808 17.0498 8.08241 17.0354 8.08719C17.0211 8.09196 17.0092 8.07763 17.0092 8.05614C17.0092 8.03465 17.0211 8.02032 17.0354 8.02509C17.0498 8.02987 17.0617 8.0442 17.0617 8.05614ZM16.0062 8.1039C16.0229 8.12539 16.0253 8.13972 16.0109 8.13972C15.999 8.13972 15.9823 8.12301 15.9727 8.1039C15.9656 8.0848 15.9632 8.06808 15.9679 8.06808C15.9727 8.06808 15.9894 8.0848 16.0062 8.1039ZM17.4868 8.07763C17.4868 8.08241 17.4677 8.10151 17.4462 8.11823C17.408 8.14928 17.4056 8.14689 17.4366 8.10868C17.4677 8.07047 17.4868 8.05853 17.4868 8.07763ZM17.5584 8.07763C17.5584 8.08241 17.5393 8.10151 17.5178 8.11823C17.4796 8.14928 17.4772 8.14689 17.5083 8.10868C17.5393 8.07047 17.5584 8.05853 17.5584 8.07763ZM15.9369 8.13256C15.9679 8.17077 15.9656 8.17316 15.9297 8.14211C15.9059 8.12539 15.8868 8.10629 15.8868 8.10151C15.8868 8.08241 15.9059 8.09435 15.9369 8.13256ZM17.2121 8.11584C17.2193 8.13017 17.2098 8.13256 17.1906 8.12539C17.1477 8.10868 17.1405 8.09196 17.1739 8.09196C17.1883 8.09196 17.205 8.10151 17.2121 8.11584ZM27.1609 8.18032C27.1323 8.22808 27.1275 8.21375 27.149 8.15166C27.1585 8.13017 27.1705 8.11823 27.1752 8.12539C27.1824 8.13017 27.1752 8.15644 27.1609 8.18032ZM6.24605 8.18032C6.23889 8.19704 6.23172 8.21137 6.22695 8.21137C6.22217 8.21137 6.21501 8.19704 6.20784 8.18032C6.20068 8.16122 6.21023 8.14689 6.22695 8.14689C6.24366 8.14689 6.25321 8.16122 6.24605 8.18032ZM18.1124 8.19943C18.1124 8.21137 18.1005 8.22331 18.0862 8.22808C18.0671 8.23047 18.0695 8.22808 18.0862 8.21853C18.1053 8.20898 18.1029 8.19943 18.0814 8.18271C18.0551 8.1636 18.0551 8.16122 18.079 8.16838C18.0981 8.17316 18.1124 8.18748 18.1124 8.19943ZM16.1518 8.22808C16.1829 8.26629 16.1805 8.26868 16.1447 8.23763C16.1208 8.22092 16.1017 8.20181 16.1017 8.19704C16.1017 8.17793 16.1208 8.18987 16.1518 8.22808ZM17.408 8.20181C17.4008 8.20898 17.3793 8.21137 17.3626 8.2042C17.3435 8.19704 17.3507 8.18987 17.3769 8.18987C17.4032 8.18748 17.4175 8.19465 17.408 8.20181ZM17.9166 8.19704C17.9166 8.2042 17.9071 8.21614 17.8927 8.22331C17.8808 8.23047 17.8689 8.22569 17.8689 8.21375C17.8689 8.19943 17.8808 8.18748 17.8927 8.18748C17.9071 8.18748 17.9166 8.19226 17.9166 8.19704ZM27.8511 8.21137C27.8511 8.22331 27.8391 8.23525 27.8248 8.23525C27.8129 8.23525 27.8081 8.22331 27.8152 8.21137C27.8224 8.19704 27.8344 8.18748 27.8415 8.18748C27.8463 8.18748 27.8511 8.19704 27.8511 8.21137ZM5.84246 8.28062C5.83769 8.28778 5.81381 8.27346 5.78993 8.24958C5.75172 8.20898 5.75172 8.20659 5.80187 8.23763C5.83052 8.25435 5.84963 8.27346 5.84246 8.28062ZM3.49736 8.26868C3.51408 8.25913 3.51647 8.2639 3.50692 8.28062C3.48542 8.31167 3.44483 8.29256 3.44721 8.25196C3.44721 8.23047 3.45199 8.23286 3.46154 8.25435C3.46632 8.26868 3.48542 8.27584 3.49736 8.26868ZM5.68007 8.27823C5.67291 8.2854 5.68007 8.30689 5.6944 8.32838C5.71828 8.35943 5.71828 8.36182 5.68963 8.33793C5.65142 8.30211 5.6347 8.22808 5.67052 8.24958C5.68246 8.25674 5.68724 8.27107 5.68007 8.27823ZM27.5406 8.2448C27.5406 8.24958 27.5215 8.26868 27.5 8.2854C27.4618 8.31644 27.4594 8.31405 27.4905 8.27584C27.5215 8.23763 27.5406 8.22569 27.5406 8.2448ZM6.56367 8.32838C6.56367 8.36898 6.5565 8.39525 6.54934 8.39047C6.5374 8.38331 6.53501 8.29973 6.54695 8.2639C6.5565 8.24002 6.56367 8.27107 6.56367 8.32838ZM8.76309 8.29495C8.76309 8.31405 8.75354 8.32361 8.7416 8.31644C8.72966 8.30928 8.72727 8.29256 8.73444 8.28062C8.75593 8.24958 8.76309 8.25435 8.76309 8.29495ZM20.1137 8.29495C20.097 8.31405 20.0731 8.33077 20.0587 8.33077C20.0444 8.33077 20.054 8.31405 20.0802 8.29495C20.1399 8.24958 20.1519 8.24958 20.1137 8.29495ZM27.3758 8.31405C27.3352 8.35465 27.3448 8.37853 27.3926 8.36182C27.4236 8.34987 27.426 8.35465 27.4045 8.37853C27.3496 8.43585 27.3209 8.37614 27.3472 8.2639C27.3496 8.25913 27.3615 8.2639 27.3758 8.27346C27.3949 8.28301 27.3949 8.29495 27.3758 8.31405ZM5.88784 8.31883C5.88067 8.34032 5.86873 8.35226 5.86396 8.3451C5.85679 8.33793 5.85918 8.32361 5.86873 8.30928C5.89023 8.27107 5.90455 8.27823 5.88784 8.31883ZM19.8677 8.29734C19.8605 8.3045 19.839 8.30689 19.8223 8.29973C19.8032 8.29256 19.8104 8.2854 19.8366 8.2854C19.8629 8.28301 19.8772 8.29017 19.8677 8.29734ZM17.7686 8.36659C17.7614 8.37376 17.7471 8.36182 17.7399 8.33793C17.7256 8.3045 17.728 8.30211 17.7519 8.32361C17.7686 8.34032 17.7757 8.35943 17.7686 8.36659ZM29.2505 8.35465C29.2505 8.38331 29.2409 8.39286 29.229 8.38092C29.2171 8.36898 29.2147 8.34749 29.2218 8.33316C29.2457 8.29734 29.2505 8.29973 29.2505 8.35465ZM3.53318 8.36659C3.54274 8.37614 3.54035 8.37853 3.52363 8.37137C3.5093 8.36182 3.49259 8.36659 3.48781 8.38331C3.48065 8.40241 3.47348 8.39764 3.46393 8.37376C3.44721 8.33316 3.49975 8.32838 3.53318 8.36659ZM6.65441 8.38092C6.64725 8.39286 6.63053 8.39764 6.61859 8.38808C6.60665 8.38092 6.60188 8.3642 6.61143 8.35226C6.61859 8.34032 6.63531 8.33555 6.64725 8.3451C6.65919 8.35226 6.66397 8.36898 6.65441 8.38092ZM6.44665 8.43107C6.43949 8.45017 6.43232 8.44301 6.43232 8.41674C6.42993 8.39047 6.4371 8.37614 6.44426 8.3857C6.45143 8.39286 6.45381 8.41435 6.44665 8.43107ZM17.8832 8.41435C17.8569 8.43346 17.845 8.46212 17.8545 8.486C17.8617 8.50749 17.8593 8.51704 17.845 8.50988C17.8068 8.486 17.8163 8.43107 17.8641 8.4048C17.9238 8.36898 17.9357 8.37376 17.8832 8.41435ZM27.6839 8.41674C27.6839 8.43585 27.6385 8.44779 27.6266 8.43107C27.6194 8.41913 27.629 8.40958 27.6481 8.40958C27.6672 8.40958 27.6839 8.41435 27.6839 8.41674ZM5.86157 8.49316C5.8544 8.51704 5.85918 8.52421 5.8759 8.51227C5.895 8.50032 5.89978 8.50749 5.89023 8.53376C5.87351 8.57674 5.87351 8.57674 5.83769 8.50749C5.81858 8.46928 5.81858 8.45734 5.84485 8.45734C5.86157 8.45734 5.87112 8.47406 5.86157 8.49316ZM29.0833 8.486C29.0809 8.5051 29.0714 8.52659 29.0642 8.53615C29.0523 8.5457 29.0547 8.49794 29.0666 8.45495C29.0738 8.43346 29.0881 8.45734 29.0833 8.486ZM27.254 8.48361C27.254 8.48838 27.2349 8.50749 27.2134 8.52421C27.1752 8.55525 27.1728 8.55286 27.2039 8.51465C27.2349 8.47644 27.254 8.4645 27.254 8.48361ZM6.88367 8.56003C6.88367 8.5648 6.86218 8.56003 6.83591 8.5457C6.80964 8.53137 6.78815 8.51465 6.78815 8.50749C6.78815 8.50271 6.80964 8.50749 6.83591 8.52182C6.86218 8.53615 6.88367 8.55286 6.88367 8.56003ZM6.1768 8.55047C6.16486 8.56719 6.1959 8.57913 6.24127 8.57436C6.24844 8.57197 6.2556 8.5863 6.2556 8.6054C6.2556 8.63167 6.23889 8.62689 6.18635 8.59107C6.10993 8.53615 6.10754 8.52898 6.1553 8.52898C6.17441 8.52898 6.18396 8.53853 6.1768 8.55047ZM8.86578 8.6054C8.86578 8.61734 8.85384 8.61256 8.8419 8.59346C8.82996 8.57436 8.81802 8.5457 8.81802 8.53376C8.81802 8.51943 8.82996 8.52659 8.8419 8.5457C8.85384 8.5648 8.86578 8.59107 8.86578 8.6054ZM26.9699 8.60062C26.946 8.62212 26.9436 8.61973 26.9579 8.5863C26.9651 8.56241 26.9794 8.55047 26.9866 8.55764C26.9937 8.5648 26.9866 8.58391 26.9699 8.60062ZM27.4523 8.58152C27.4451 8.60301 27.4332 8.61495 27.4284 8.60779C27.4212 8.60062 27.4236 8.5863 27.4332 8.57197C27.4546 8.53376 27.469 8.54092 27.4523 8.58152ZM0.500315 8.69376C0.493151 8.71286 0.485987 8.7057 0.485987 8.67943C0.483599 8.65316 0.490763 8.63883 0.497927 8.64839C0.505091 8.65555 0.507479 8.67704 0.500315 8.69376ZM6.07172 8.64839C6.07172 8.65316 6.04784 8.67704 6.01918 8.70331L5.96426 8.74868L6.00963 8.69376C6.05262 8.64361 6.07172 8.62928 6.07172 8.64839ZM7.02695 8.67704C7.05322 8.70809 7.05084 8.71048 7.0174 8.69853C6.99591 8.69137 6.97919 8.67465 6.97919 8.66271C6.97919 8.63167 6.99352 8.63645 7.02695 8.67704ZM28.9973 8.65077C28.9973 8.65555 28.9782 8.67465 28.9568 8.69137C28.9185 8.72242 28.9162 8.72003 28.9472 8.68182C28.9782 8.64361 28.9973 8.63167 28.9973 8.65077ZM26.9555 8.68898C26.9627 8.70331 26.9531 8.7057 26.934 8.69853C26.8911 8.68182 26.8839 8.6651 26.9173 8.6651C26.9317 8.6651 26.9484 8.67465 26.9555 8.68898ZM7.11531 8.75346C7.10576 8.76063 7.1177 8.78212 7.14158 8.80122C7.1774 8.83227 7.1774 8.83227 7.12725 8.80839C7.08188 8.78689 7.07233 8.73674 7.11531 8.73674C7.12487 8.73674 7.12248 8.74391 7.11531 8.75346ZM3.84364 8.79645C3.84364 8.81555 3.83408 8.8251 3.82214 8.81794C3.8102 8.81078 3.80781 8.79406 3.81498 8.78212C3.83647 8.75107 3.84364 8.75585 3.84364 8.79645ZM6.66635 8.98749C6.66635 8.99943 6.6568 8.99466 6.64486 8.97555C6.63292 8.95645 6.62337 8.92302 6.62337 8.90391C6.62337 8.8657 6.66397 8.94212 6.66635 8.98749ZM6.19829 8.95406C6.17918 8.97317 6.16724 8.97078 6.1553 8.94928C6.14336 8.93018 6.14575 8.9254 6.16247 8.93734C6.17918 8.9469 6.19112 8.94212 6.19112 8.9254C6.19112 8.90869 6.19829 8.90391 6.20784 8.91107C6.21739 8.92063 6.21262 8.93973 6.19829 8.95406ZM7.33741 8.93734C7.33741 8.94212 7.32069 8.95406 7.2992 8.96122C7.28009 8.96839 7.27054 8.966 7.2777 8.95167C7.29203 8.92779 7.33741 8.91824 7.33741 8.93734ZM6.26038 9.08063C6.28187 9.1069 6.28187 9.11884 6.25799 9.13317C6.24127 9.14272 6.23411 9.14272 6.24366 9.13078C6.25321 9.12123 6.25083 9.09735 6.2365 9.07824C6.22217 9.06152 6.21501 9.0472 6.22217 9.0472C6.22695 9.0472 6.24605 9.06152 6.26038 9.08063ZM7.61681 9.14988C7.61681 9.1666 7.59532 9.18093 7.57144 9.18093C7.52845 9.18093 7.52845 9.17854 7.56666 9.14988C7.59054 9.13317 7.60965 9.11884 7.61204 9.11884C7.61442 9.11884 7.61681 9.13317 7.61681 9.14988ZM4.33558 9.17376C4.33081 9.18332 4.32364 9.19048 4.31648 9.19048C4.30931 9.19048 4.29498 9.19048 4.28066 9.19048C4.26872 9.19048 4.25677 9.18093 4.25677 9.16899C4.25677 9.15705 4.27588 9.14988 4.29976 9.15227C4.32125 9.15705 4.33797 9.1666 4.33558 9.17376ZM7.6789 9.17854C7.67174 9.20003 7.6598 9.21197 7.65502 9.20481C7.64786 9.19765 7.65025 9.18332 7.6598 9.16899C7.68129 9.13078 7.69562 9.13794 7.6789 9.17854ZM28.4242 9.17854C28.4075 9.20003 28.3884 9.20959 28.3836 9.20481C28.3669 9.18809 28.4003 9.14272 28.429 9.14272C28.4433 9.14272 28.4433 9.15705 28.4242 9.17854ZM26.6236 9.19526C26.6331 9.21197 26.6308 9.21436 26.6117 9.20481C26.5973 9.19526 26.5639 9.20003 26.5424 9.21914C26.5066 9.2478 26.5042 9.24541 26.5352 9.2072C26.5734 9.15944 26.5997 9.15466 26.6236 9.19526ZM28.2929 9.28601C28.3 9.30033 28.2905 9.30272 28.2714 9.29556C28.2284 9.27884 28.2212 9.26212 28.2547 9.26212C28.269 9.26212 28.2857 9.27168 28.2929 9.28601ZM7.91055 9.30989C7.91055 9.32183 7.90577 9.33377 7.90099 9.33377C7.89383 9.33377 7.88189 9.32183 7.87472 9.30989C7.86756 9.29556 7.87234 9.28601 7.88428 9.28601C7.89861 9.28601 7.91055 9.29556 7.91055 9.30989ZM26.3609 9.35048C26.3561 9.35765 26.3418 9.36242 26.3299 9.36242C26.3203 9.36242 26.2893 9.37198 26.263 9.3863C26.22 9.40541 26.22 9.40541 26.2558 9.37436C26.2916 9.34571 26.3872 9.32421 26.3609 9.35048ZM8.06577 9.49377C8.061 9.51765 8.05622 9.53914 8.05622 9.54392C8.05383 9.54869 8.04189 9.54392 8.02995 9.53675C8.01085 9.52481 8.01323 9.51048 8.03234 9.4866C8.06816 9.44362 8.07532 9.44362 8.06577 9.49377ZM9.3028 9.48899C9.29564 9.51048 9.2837 9.52243 9.27892 9.51526C9.27176 9.5081 9.27414 9.49377 9.2837 9.47944C9.30519 9.44123 9.31952 9.44839 9.3028 9.48899ZM8.1804 9.53914C8.21383 9.57974 8.21383 9.58929 8.18518 9.58929C8.16607 9.58929 8.15652 9.57974 8.16368 9.57019C8.16846 9.56063 8.16368 9.54631 8.14935 9.53675C8.13741 9.52959 8.12547 9.51048 8.12547 9.49616C8.12547 9.48183 8.12786 9.47466 8.13264 9.47944C8.13503 9.48422 8.15652 9.51048 8.1804 9.53914ZM9.2431 9.53675C9.23593 9.54392 9.22161 9.53198 9.21444 9.5081C9.20011 9.47466 9.2025 9.47228 9.22638 9.49377C9.2431 9.51048 9.25026 9.52959 9.2431 9.53675ZM27.9609 9.50571C27.9729 9.49616 27.9729 9.49854 27.9633 9.51048C27.9347 9.54631 27.8821 9.54631 27.8821 9.51048C27.8821 9.48899 27.8917 9.48422 27.9108 9.50093C27.9275 9.51287 27.949 9.51526 27.9609 9.50571ZM5.21201 9.51048C5.21201 9.51765 5.20246 9.52959 5.18813 9.53675C5.17619 9.54392 5.16425 9.53914 5.16425 9.5272C5.16425 9.51287 5.17619 9.50093 5.18813 9.50093C5.20246 9.50093 5.21201 9.50571 5.21201 9.51048ZM9.31235 9.61317C9.31235 9.63467 9.3028 9.63705 9.27892 9.61795C9.2622 9.60362 9.24787 9.58929 9.24787 9.58452C9.24787 9.58213 9.2622 9.57974 9.27892 9.57974C9.29802 9.57974 9.31235 9.59407 9.31235 9.61317ZM8.34279 9.66093C8.37384 9.69914 8.37145 9.70153 8.33563 9.67049C8.31174 9.65377 8.29264 9.63467 8.29264 9.62989C8.29264 9.61078 8.31174 9.62272 8.34279 9.66093ZM27.7555 9.65616C27.7555 9.66093 27.7341 9.66332 27.7102 9.66093C27.6839 9.66093 27.6672 9.64899 27.6743 9.63944C27.6839 9.62511 27.7555 9.63944 27.7555 9.65616ZM27.6839 9.70153C27.6839 9.70631 27.6672 9.71825 27.6457 9.72541C27.6266 9.73258 27.617 9.73019 27.6242 9.71586C27.6385 9.69198 27.6839 9.68243 27.6839 9.70153ZM25.7615 9.74452C25.771 9.75168 25.7663 9.76601 25.7543 9.77317C25.7424 9.78034 25.7185 9.77079 25.7042 9.75407C25.6803 9.7278 25.6827 9.72064 25.7113 9.72541C25.7328 9.7278 25.7543 9.73735 25.7615 9.74452ZM1.01137 9.84004C1.03763 9.89019 1.03763 9.89258 1.00181 9.86153C0.977932 9.84482 0.961216 9.82094 0.961216 9.809C0.961216 9.77317 0.982709 9.78511 1.01137 9.84004ZM25.5346 9.81138C25.5346 9.82332 25.5227 9.83526 25.5084 9.83526C25.4964 9.83526 25.4916 9.82332 25.4988 9.81138C25.506 9.79705 25.5179 9.7875 25.5251 9.7875C25.5298 9.7875 25.5346 9.79705 25.5346 9.81138ZM16.6915 9.86392C16.6844 9.88303 16.6772 9.87586 16.6772 9.84959C16.6748 9.82332 16.682 9.809 16.6892 9.81855C16.6963 9.82571 16.6987 9.8472 16.6915 9.86392ZM27.4332 9.83288C27.4117 9.85198 27.3472 9.85676 27.3615 9.83765C27.3663 9.8281 27.3878 9.81855 27.4093 9.81855C27.4284 9.81855 27.4403 9.82571 27.4332 9.83288ZM0.985097 9.89497C1.00181 9.91646 1.0042 9.93079 0.989873 9.93079C0.977932 9.93079 0.961216 9.91407 0.951663 9.89497C0.944499 9.87586 0.942111 9.85915 0.946887 9.85915C0.951663 9.85915 0.96838 9.87586 0.985097 9.89497ZM8.50757 9.94273C8.541 9.9881 8.541 9.9881 8.50279 9.95706C8.47891 9.94034 8.45981 9.91407 8.45981 9.89974C8.45981 9.88541 8.46219 9.88064 8.46697 9.88541C8.46936 9.89019 8.48846 9.91646 8.50757 9.94273ZM25.3221 9.96183C25.2982 9.98333 25.2958 9.98094 25.3101 9.9475C25.3173 9.92362 25.3316 9.91168 25.3388 9.91885C25.346 9.92601 25.3388 9.94512 25.3221 9.96183ZM16.6915 10.055C16.6844 10.0741 16.6772 10.0669 16.6772 10.0406C16.6748 10.0144 16.682 10 16.6892 10.0096C16.6963 10.0168 16.6987 10.0383 16.6915 10.055ZM8.66996 10.1577C8.66279 10.1648 8.64847 10.1529 8.6413 10.129C8.62697 10.0956 8.62936 10.0932 8.65324 10.1147C8.66996 10.1314 8.67712 10.1505 8.66996 10.1577ZM25.2003 10.1314C25.2003 10.1362 25.1836 10.1481 25.1621 10.1553C25.143 10.1624 25.1334 10.16 25.1406 10.1457C25.1549 10.1218 25.2003 10.1123 25.2003 10.1314ZM8.62697 10.1696C8.62697 10.1815 8.6222 10.1935 8.61742 10.1935C8.61026 10.1935 8.59832 10.1815 8.59115 10.1696C8.58399 10.1553 8.58876 10.1457 8.6007 10.1457C8.61503 10.1457 8.62697 10.1553 8.62697 10.1696ZM1.29316 10.2365C1.30988 10.2675 1.30749 10.2818 1.28838 10.2818C1.27167 10.2818 1.25734 10.2603 1.25734 10.2365C1.25734 10.2126 1.25973 10.1935 1.2645 10.1935C1.26689 10.1935 1.28122 10.2126 1.29316 10.2365ZM26.7884 10.215C26.7669 10.2341 26.7024 10.2389 26.7167 10.2197C26.7215 10.2102 26.743 10.2006 26.7645 10.2006C26.7836 10.2006 26.7955 10.2078 26.7884 10.215ZM9.69683 10.3009C9.68967 10.3081 9.67534 10.2962 9.66818 10.2723C9.65385 10.2389 9.65624 10.2365 9.68012 10.258C9.69683 10.2747 9.704 10.2938 9.69683 10.3009ZM26.4325 10.3893C26.4421 10.406 26.4421 10.4132 26.4302 10.4036C26.4206 10.3941 26.3967 10.4036 26.3776 10.4275C26.3537 10.4586 26.3466 10.4609 26.3513 10.4323C26.3585 10.4036 26.3896 10.363 26.4111 10.3606C26.4134 10.3606 26.423 10.375 26.4325 10.3893ZM1.47465 10.48C1.48182 10.4944 1.47227 10.4968 1.45316 10.4896C1.41018 10.4729 1.40301 10.4562 1.43644 10.4562C1.45077 10.4562 1.46749 10.4657 1.47465 10.48ZM8.85862 10.5135C8.85862 10.5493 8.80847 10.5493 8.77742 10.5159C8.76548 10.5063 8.77265 10.5039 8.79175 10.5159C8.81802 10.5302 8.82279 10.5254 8.81085 10.4968C8.8013 10.4729 8.80608 10.4633 8.82757 10.4705C8.84429 10.4777 8.85862 10.4968 8.85862 10.5135ZM24.2809 10.5278C24.2737 10.5397 24.2522 10.5517 24.2379 10.5517C24.2212 10.5517 24.2236 10.5421 24.2451 10.5278C24.2904 10.4992 24.3 10.4992 24.2809 10.5278ZM9.88072 10.5756C9.87355 10.5875 9.85206 10.5995 9.83773 10.5995C9.82102 10.5995 9.8234 10.5899 9.8449 10.5756C9.89027 10.5469 9.89982 10.5469 9.88072 10.5756ZM1.68958 10.6472C1.69197 10.6711 1.68481 10.6878 1.67525 10.6806C1.6657 10.6759 1.65854 10.6496 1.66093 10.6233C1.6657 10.5684 1.68481 10.5827 1.68958 10.6472ZM8.92309 10.6377C8.93026 10.6568 8.92787 10.6663 8.91354 10.6592C8.89921 10.652 8.88966 10.6353 8.88966 10.6209C8.88966 10.5875 8.90638 10.5947 8.92309 10.6377ZM23.7913 10.6568C23.7913 10.6639 23.7818 10.6759 23.7674 10.683C23.7555 10.6902 23.7436 10.6854 23.7436 10.6735C23.7436 10.6592 23.7555 10.6472 23.7674 10.6472C23.7818 10.6472 23.7913 10.652 23.7913 10.6568ZM25.8212 10.6592C25.8212 10.6639 25.7901 10.6854 25.7496 10.7069C25.6588 10.7523 25.654 10.7332 25.7448 10.6854C25.8188 10.6448 25.8212 10.6424 25.8212 10.6592ZM25.4391 10.8144C25.4582 10.8263 25.4654 10.8383 25.451 10.8383C25.4391 10.8383 25.4104 10.8263 25.3913 10.8144C25.3722 10.8024 25.3675 10.7905 25.3794 10.7905C25.3937 10.7905 25.42 10.8024 25.4391 10.8144ZM10.0455 10.8359C10.0527 10.8454 10.0359 10.8526 10.0121 10.8502C9.94758 10.8454 9.93326 10.8263 9.98818 10.8215C10.0145 10.8192 10.0407 10.8263 10.0455 10.8359ZM25.3794 10.8621C25.3722 10.8741 25.3507 10.886 25.3364 10.886C25.3197 10.886 25.3221 10.8765 25.3436 10.8621C25.389 10.8335 25.3985 10.8335 25.3794 10.8621ZM9.07832 10.8956C9.09026 10.9051 9.10698 10.898 9.11175 10.886C9.11892 10.8717 9.12131 10.8741 9.11892 10.8908C9.11414 10.9075 9.09504 10.9171 9.07832 10.9123C9.05922 10.9075 9.03295 10.9027 9.01623 10.9004C8.99951 10.898 8.98041 10.8884 8.97086 10.8789C8.95175 10.8621 9.04489 10.8765 9.07832 10.8956ZM2.05974 10.8956C2.05974 10.9004 2.04302 10.9123 2.02153 10.9195C2.00242 10.9266 1.99287 10.9242 2.00003 10.9099C2.01436 10.886 2.05974 10.8765 2.05974 10.8956ZM10.0598 10.9457C10.0933 10.9911 10.0933 10.9911 10.055 10.9601C10.0312 10.9433 10.0121 10.9171 10.0121 10.9027C10.0121 10.8884 10.0145 10.8836 10.0192 10.8884C10.0216 10.8932 10.0407 10.9195 10.0598 10.9457ZM25.0642 10.9696C25.057 10.9911 25.0451 11.003 25.0403 10.9959C25.0331 10.9887 25.0355 10.9744 25.0451 10.9601C25.0666 10.9218 25.0809 10.929 25.0642 10.9696ZM9.25743 11.0508C9.25026 11.058 9.22161 11.0365 9.19295 11.0078L9.14041 10.9505L9.20489 10.9959C9.23832 11.0198 9.2622 11.046 9.25743 11.0508ZM24.8898 10.9672C24.8898 10.972 24.8731 10.9839 24.8516 10.9911C24.8325 10.9983 24.823 10.9959 24.8301 10.9815C24.8445 10.9577 24.8898 10.9481 24.8898 10.9672ZM2.26272 11.0054C2.26989 11.0198 2.26033 11.0221 2.24123 11.015C2.19824 10.9983 2.19108 10.9815 2.22451 10.9815C2.23884 10.9815 2.25556 10.9911 2.26272 11.0054ZM10.1745 11.1129C10.1673 11.1201 10.153 11.1081 10.1458 11.0842C10.1315 11.0508 10.1339 11.0484 10.1577 11.0699C10.1745 11.0866 10.1816 11.1057 10.1745 11.1129ZM2.48959 11.1392C2.48959 11.1583 2.44422 11.1702 2.43228 11.1535C2.42511 11.1415 2.43466 11.132 2.45377 11.132C2.47287 11.132 2.48959 11.1368 2.48959 11.1392ZM24.5674 11.1917C24.5603 11.1989 24.5412 11.1917 24.5245 11.175C24.503 11.1511 24.5054 11.1487 24.5388 11.163C24.5627 11.1702 24.5746 11.1845 24.5674 11.1917ZM9.54639 11.2227C9.53683 11.2347 9.51773 11.2442 9.5034 11.2418C9.48191 11.2418 9.48429 11.2371 9.50579 11.2275C9.52012 11.2227 9.52728 11.2036 9.52012 11.1917C9.51056 11.175 9.51534 11.1726 9.53206 11.1821C9.54639 11.1917 9.55355 11.2108 9.54639 11.2227ZM21.7017 11.292C21.7089 11.3063 21.6994 11.3087 21.6803 11.3015C21.6373 11.2848 21.6301 11.2681 21.6635 11.2681C21.6779 11.2681 21.6946 11.2777 21.7017 11.292ZM21.802 11.2824C21.7949 11.2896 21.7734 11.292 21.7567 11.2848C21.7376 11.2777 21.7447 11.2705 21.771 11.2705C21.7973 11.2681 21.8116 11.2753 21.802 11.2824ZM10.4825 11.3541C10.4825 11.3851 10.3822 11.3827 10.3512 11.3517C10.3416 11.3421 10.3607 11.3421 10.3918 11.3517C10.4252 11.3613 10.4419 11.3589 10.4348 11.3469C10.4252 11.335 10.4348 11.323 10.4515 11.323C10.4682 11.323 10.4825 11.3374 10.4825 11.3541ZM23.808 11.3923C23.8009 11.4114 23.7937 11.4042 23.7937 11.378C23.7913 11.3517 23.7985 11.3374 23.8056 11.3469C23.8128 11.3541 23.8152 11.3756 23.808 11.3923ZM9.80908 11.4592C9.83296 11.4854 9.84728 11.5069 9.84012 11.5069C9.83296 11.5069 9.80908 11.4854 9.78519 11.4592C9.76131 11.4329 9.74698 11.4114 9.75415 11.4114C9.76131 11.4114 9.78519 11.4329 9.80908 11.4592ZM10.6258 11.5475C10.6258 11.569 10.6162 11.5714 10.5924 11.5523C10.5757 11.538 10.5613 11.5236 10.5613 11.5189C10.5613 11.5165 10.5757 11.5141 10.5924 11.5141C10.6115 11.5141 10.6258 11.5284 10.6258 11.5475ZM10.5637 11.5714C10.5948 11.6096 10.5924 11.612 10.5565 11.581C10.5327 11.5642 10.5136 11.5451 10.5136 11.5404C10.5136 11.5213 10.5327 11.5332 10.5637 11.5714ZM10.0025 11.8556C10.0073 11.8819 10.0001 11.8842 9.97863 11.8675C9.96191 11.8532 9.93803 11.8508 9.92609 11.8604C9.91654 11.8699 9.92132 11.858 9.93803 11.8341C9.97385 11.7887 9.99535 11.7959 10.0025 11.8556ZM10.1386 11.8508C10.1458 11.8675 10.1291 11.8795 10.098 11.8819C10.0718 11.8819 10.0622 11.8795 10.0789 11.8723C10.1028 11.8627 10.1028 11.8532 10.0813 11.8269C10.0574 11.7983 10.0598 11.7959 10.0909 11.8078C10.11 11.815 10.1339 11.8341 10.1386 11.8508ZM17.088 11.8293C17.0808 11.8508 17.0689 11.8627 17.0641 11.8556C17.0569 11.8484 17.0593 11.8341 17.0689 11.8198C17.0903 11.7816 17.1047 11.7887 17.088 11.8293ZM11.027 11.9607C11.0294 11.9989 11.0246 12.0013 10.996 11.9798C10.9745 11.9607 10.9721 11.9463 10.9888 11.9416C11.0031 11.9368 11.0079 11.9201 10.9983 11.9057C10.9912 11.889 10.9936 11.8842 11.0031 11.8962C11.0151 11.9057 11.0246 11.9344 11.027 11.9607ZM10.1649 11.9989C10.1721 12.018 10.1697 12.0275 10.1553 12.0204C10.141 12.0132 10.1315 11.9965 10.1315 11.9822C10.1315 11.9487 10.1482 11.9559 10.1649 11.9989ZM11.0103 12.0681C11.0031 12.0753 10.9888 12.0633 10.9816 12.0395C10.9673 12.006 10.9697 12.0036 10.9936 12.0251C11.0103 12.0419 11.0174 12.061 11.0103 12.0681ZM11.1058 12.1111C11.1225 12.1302 11.1225 12.1541 11.1106 12.1756C11.0891 12.209 11.0819 12.1923 11.0891 12.1374C11.0891 12.1278 11.0771 12.1111 11.058 12.1016C11.0389 12.0896 11.0366 12.0801 11.0533 12.0801C11.0676 12.0801 11.0915 12.0944 11.1058 12.1111ZM10.4419 12.1995C10.4419 12.2114 10.4371 12.2234 10.4324 12.2234C10.4252 12.2234 10.4133 12.2114 10.4061 12.1995C10.3989 12.1851 10.4037 12.1756 10.4156 12.1756C10.43 12.1756 10.4419 12.1851 10.4419 12.1995ZM10.3345 12.2448C10.3416 12.2568 10.3392 12.2735 10.3273 12.2807C10.3153 12.2878 10.3058 12.2783 10.3058 12.2592C10.3058 12.2186 10.313 12.2138 10.3345 12.2448ZM10.5183 12.2831C10.5231 12.2759 10.5303 12.2878 10.5303 12.3069C10.5303 12.3523 10.5303 12.3523 10.4754 12.2902C10.4467 12.2568 10.4443 12.2472 10.4682 12.2663C10.4897 12.2807 10.5112 12.2902 10.5183 12.2831ZM11.3016 12.3236C11.3016 12.3332 11.2849 12.3428 11.2658 12.3428C11.2467 12.3428 11.23 12.3332 11.23 12.3236C11.23 12.3117 11.2467 12.3022 11.2658 12.3022C11.2849 12.3022 11.3016 12.3117 11.3016 12.3236ZM8.17324 12.3666C8.15413 12.3786 8.12786 12.3905 8.11353 12.3905C8.10159 12.3905 8.10637 12.3786 8.12547 12.3666C8.14458 12.3547 8.17324 12.3428 8.18518 12.3428C8.1995 12.3428 8.19234 12.3547 8.17324 12.3666ZM17.4175 12.4239C17.3841 12.4645 17.4223 12.5004 17.4677 12.4717C17.482 12.4622 17.4868 12.4645 17.4772 12.4813C17.4581 12.5147 17.3721 12.5099 17.3769 12.4741C17.3817 12.4407 17.4151 12.3905 17.4318 12.3905C17.439 12.3905 17.4318 12.4048 17.4175 12.4239ZM11.6001 12.5099C11.6216 12.4932 11.6288 12.5004 11.6264 12.5386C11.624 12.5744 11.6073 12.5935 11.5763 12.5983C11.538 12.6007 11.538 12.6007 11.5715 12.5911C11.593 12.584 11.6121 12.5672 11.6121 12.5553C11.6121 12.541 11.6025 12.5362 11.5906 12.5434C11.5786 12.5505 11.5548 12.5386 11.538 12.5147C11.5118 12.4813 11.5118 12.4789 11.5404 12.5028C11.5619 12.5219 11.581 12.5242 11.6001 12.5099ZM17.4963 12.6054C17.482 12.6198 17.4724 12.6126 17.4724 12.5816C17.4724 12.5505 17.482 12.5434 17.4963 12.5577C17.513 12.5744 17.513 12.5887 17.4963 12.6054ZM11.784 12.6914C11.8055 12.7057 11.7984 12.7869 11.7721 12.8108C11.7649 12.8204 11.7625 12.7965 11.7697 12.7607C11.7816 12.6986 11.7769 12.6962 11.741 12.7272C11.7172 12.7463 11.7052 12.7487 11.7148 12.732C11.7243 12.7177 11.7219 12.6986 11.7076 12.689C11.6957 12.6819 11.6813 12.6938 11.6813 12.7177C11.6789 12.7583 11.6766 12.7583 11.667 12.7177C11.6622 12.6962 11.6455 12.6843 11.6312 12.6914C11.6169 12.701 11.6121 12.6962 11.6216 12.6819C11.636 12.658 11.7386 12.6651 11.784 12.6914ZM17.6086 12.7177C17.6396 12.7559 17.6372 12.7583 17.6014 12.7272C17.5775 12.7105 17.5584 12.6914 17.5584 12.6866C17.5584 12.6675 17.5775 12.6795 17.6086 12.7177ZM11.9822 12.8657C11.9894 12.8777 11.987 12.8944 11.9751 12.9016C11.9631 12.9087 11.9536 12.8992 11.9536 12.8801C11.9536 12.8395 11.9607 12.8347 11.9822 12.8657ZM17.8044 13.0138C17.7853 13.0329 17.7733 13.0305 17.7614 13.009C17.7495 12.9899 17.7519 12.9851 17.7686 12.9971C17.7853 13.0066 17.7972 13.0019 17.7972 12.9851C17.7972 12.9684 17.8044 12.9637 17.8139 12.9708C17.8235 12.9804 17.8187 12.9995 17.8044 13.0138ZM12.1995 13.1308C12.1995 13.1595 12.19 13.169 12.1781 13.1571C12.1661 13.1452 12.1637 13.1237 12.1709 13.1093C12.1948 13.0735 12.1995 13.0759 12.1995 13.1308ZM17.962 13.1165C17.9835 13.1428 17.9835 13.1547 17.9596 13.169C17.9429 13.1786 17.9357 13.1786 17.9453 13.1666C17.9548 13.1571 17.9524 13.1332 17.9381 13.1141C17.9238 13.0974 17.9166 13.0831 17.9238 13.0831C17.9286 13.0831 17.9477 13.0974 17.962 13.1165ZM18.122 13.2908C18.1053 13.3075 18.0599 13.2741 18.0599 13.2455C18.0599 13.2311 18.0742 13.2311 18.0957 13.2502C18.1172 13.2669 18.1268 13.286 18.122 13.2908ZM18.208 13.3672C18.2127 13.384 18.1984 13.4031 18.1769 13.4055C18.1554 13.4102 18.1387 13.3983 18.1387 13.3792C18.1387 13.3625 18.1507 13.3553 18.1626 13.3625C18.1793 13.372 18.1817 13.3601 18.1698 13.3314C18.1578 13.3028 18.1602 13.2932 18.1769 13.3099C18.1889 13.3219 18.2032 13.3481 18.208 13.3672ZM18.0241 13.3696C18.0313 13.3816 18.0265 13.3935 18.0145 13.3935C18.0002 13.3935 17.9883 13.3816 17.9883 13.3696C17.9883 13.3553 17.993 13.3458 17.9978 13.3458C18.005 13.3458 18.0169 13.3553 18.0241 13.3696ZM12.7225 13.5678C12.7703 13.6108 12.7703 13.6108 12.7154 13.5846C12.6843 13.5702 12.6533 13.5416 12.6461 13.5225C12.639 13.5058 12.627 13.4938 12.6175 13.501C12.6079 13.5058 12.5984 13.4938 12.5984 13.4747C12.5984 13.4461 12.6055 13.4484 12.6366 13.4819C12.6581 13.5058 12.6963 13.544 12.7225 13.5678ZM12.7225 13.4652C12.7154 13.4771 12.7202 13.489 12.7321 13.489C12.7464 13.489 12.7584 13.501 12.7584 13.5153C12.7584 13.5344 12.7464 13.5344 12.7225 13.5129C12.6915 13.4866 12.6939 13.4413 12.7249 13.4413C12.7321 13.4413 12.7297 13.4508 12.7225 13.4652ZM12.9375 13.704C12.9303 13.7159 12.9351 13.7278 12.9518 13.7278C12.9685 13.7278 12.9757 13.735 12.9661 13.7422C12.9446 13.7637 12.8993 13.7278 12.9136 13.7016C12.9231 13.6896 12.9327 13.6801 12.9399 13.6801C12.947 13.6801 12.9446 13.6896 12.9375 13.704ZM18.5638 13.7446C18.5948 13.7828 18.5925 13.7852 18.5566 13.7541C18.5328 13.7374 18.5136 13.7183 18.5136 13.7135C18.5136 13.6944 18.5328 13.7064 18.5638 13.7446ZM13.15 13.8377C13.1572 13.8568 13.1548 13.8664 13.1405 13.8592C13.1261 13.852 13.1166 13.8353 13.1166 13.821C13.1166 13.7875 13.1333 13.7947 13.15 13.8377ZM18.8241 13.9093C18.8241 13.9308 18.836 13.938 18.8551 13.9284C18.8743 13.9141 18.8743 13.9213 18.8504 13.9499C18.8265 13.981 18.8074 13.9834 18.7716 13.9643C18.7357 13.9452 18.731 13.9332 18.7548 13.9046C18.7907 13.8616 18.8241 13.8616 18.8241 13.9093ZM13.2718 13.9428C13.279 13.9571 13.2694 13.9595 13.2503 13.9523C13.2073 13.9356 13.2002 13.9189 13.2336 13.9189C13.2479 13.9189 13.2646 13.9284 13.2718 13.9428ZM18.9316 13.9667C18.9244 13.9786 18.9029 13.9905 18.8886 13.9905C18.8719 13.9905 18.8743 13.981 18.8957 13.9667C18.9411 13.938 18.9507 13.938 18.9316 13.9667ZM13.439 14.0096C13.4318 14.0168 13.4414 14.0383 13.4581 14.0574C13.4843 14.0884 13.4796 14.0908 13.4342 14.0598C13.3697 14.0216 13.3649 13.9977 13.4151 13.9977C13.4342 13.9977 13.4461 14.0049 13.439 14.0096ZM19.2301 14.1195C19.2301 14.1243 19.2134 14.1362 19.1919 14.1434C19.1728 14.1505 19.1632 14.1481 19.1704 14.1338C19.1847 14.1099 19.2301 14.1004 19.2301 14.1195ZM13.7494 14.2031C13.7279 14.2222 13.6634 14.227 13.6778 14.2078C13.6826 14.1983 13.704 14.1887 13.7255 14.1887C13.7446 14.1887 13.7566 14.1959 13.7494 14.2031ZM13.9046 14.2628C13.9046 14.2676 13.8879 14.2795 13.8664 14.2867C13.8473 14.2938 13.8378 14.2914 13.8449 14.2771C13.8593 14.2532 13.9046 14.2437 13.9046 14.2628ZM13.9142 14.3201C13.9214 14.332 13.9118 14.3416 13.8927 14.3416C13.8736 14.3416 13.864 14.332 13.8712 14.3201C13.8784 14.3105 13.8879 14.301 13.8927 14.301C13.8975 14.301 13.907 14.3105 13.9142 14.3201ZM14.0885 14.4084C14.0885 14.4276 14.079 14.4371 14.067 14.4299C14.0551 14.4228 14.0527 14.4061 14.0599 14.3941C14.0814 14.3631 14.0885 14.3679 14.0885 14.4084ZM19.7196 14.4156C19.7125 14.4228 19.6934 14.4156 19.6766 14.3989C19.6552 14.375 19.6575 14.3726 19.691 14.387C19.7149 14.3941 19.7268 14.4084 19.7196 14.4156ZM14.227 14.535C14.2199 14.5422 14.2008 14.535 14.184 14.5183C14.1626 14.4944 14.1649 14.492 14.1984 14.5064C14.2223 14.5135 14.2342 14.5279 14.227 14.535ZM20.1137 14.5995C20.1137 14.6043 20.0993 14.6114 20.0826 14.6186C20.0635 14.6258 20.0492 14.6162 20.0492 14.5995C20.0492 14.5828 20.0635 14.5732 20.0826 14.5804C20.0993 14.5876 20.1137 14.5947 20.1137 14.5995ZM14.4038 14.6282C14.3751 14.664 14.3751 14.6664 14.4133 14.652C14.4396 14.6425 14.4515 14.6449 14.442 14.6592C14.4348 14.6735 14.4396 14.6831 14.4563 14.6831C14.473 14.6831 14.4802 14.6902 14.473 14.6974C14.4635 14.7046 14.4348 14.6974 14.4061 14.6831C14.3655 14.6616 14.3608 14.6496 14.3846 14.621C14.399 14.6019 14.4181 14.5876 14.4229 14.5876C14.43 14.5876 14.4205 14.6067 14.4038 14.6282ZM20.2928 14.7261C20.2856 14.7332 20.2665 14.7261 20.2498 14.7093C20.2283 14.6855 20.2307 14.6831 20.2641 14.6974C20.288 14.7046 20.2999 14.7189 20.2928 14.7261ZM14.7333 14.8073C14.7381 14.8479 14.7333 14.8526 14.7166 14.8264C14.7047 14.8073 14.7023 14.7834 14.707 14.7738C14.7261 14.7452 14.7309 14.7499 14.7333 14.8073ZM15.1082 15.0198C15.0987 15.0341 15.082 15.0341 15.0605 15.015C15.0103 14.9744 15.0199 14.941 15.0748 14.9696C15.1011 14.984 15.1178 15.0055 15.1082 15.0198ZM15.636 15.2085C15.6432 15.2228 15.6336 15.2252 15.6145 15.218C15.5715 15.2013 15.5644 15.1846 15.5978 15.1846C15.6121 15.1846 15.6288 15.1941 15.636 15.2085ZM24.6033 15.2801C24.6033 15.292 24.5913 15.304 24.577 15.304C24.5651 15.304 24.5603 15.292 24.5674 15.2801C24.5746 15.2658 24.5866 15.2562 24.5937 15.2562C24.5985 15.2562 24.6033 15.2658 24.6033 15.2801ZM15.8032 15.3756C15.796 15.3852 15.8032 15.4019 15.8151 15.4067C15.8294 15.4138 15.8271 15.4162 15.8127 15.4138C15.796 15.4114 15.7817 15.39 15.7769 15.3685C15.7745 15.347 15.7817 15.3326 15.7936 15.3422C15.8056 15.3494 15.8103 15.3637 15.8032 15.3756ZM15.9345 15.3995C15.9536 15.4114 15.9608 15.4234 15.9465 15.4234C15.9345 15.4234 15.9059 15.4114 15.8868 15.3995C15.8676 15.3876 15.8629 15.3756 15.8748 15.3756C15.8891 15.3756 15.9154 15.3876 15.9345 15.3995ZM16.0181 15.4688C16.0253 15.4807 16.0229 15.4974 16.0109 15.5046C15.999 15.5117 15.9894 15.5022 15.9894 15.4831C15.9894 15.4425 15.9966 15.4377 16.0181 15.4688ZM16.128 15.5595C16.159 15.5977 16.1566 15.6001 16.1208 15.5691C16.0969 15.5523 16.0778 15.5332 16.0778 15.5285C16.0778 15.5094 16.0969 15.5213 16.128 15.5595ZM16.3047 15.6574C16.2975 15.6646 16.2784 15.6574 16.2617 15.6407C16.2402 15.6168 16.2426 15.6144 16.276 15.6288C16.2999 15.6359 16.3118 15.6503 16.3047 15.6574ZM16.5889 15.7458C16.5721 15.7888 16.5411 15.7912 16.5172 15.7529C16.5077 15.7386 16.51 15.7338 16.5268 15.7434C16.5411 15.7506 16.5578 15.7482 16.5674 15.7338C16.5889 15.698 16.6032 15.7052 16.5889 15.7458ZM25.0809 15.7195C25.0809 15.7243 25.0642 15.7362 25.0427 15.7434C25.0236 15.7506 25.014 15.7482 25.0212 15.7338C25.0355 15.71 25.0809 15.7004 25.0809 15.7195ZM25.2361 15.7792C25.2433 15.7912 25.2361 15.8103 25.2218 15.8198C25.2051 15.8294 25.2003 15.827 25.2098 15.8103C25.217 15.7959 25.2051 15.7792 25.1836 15.7744C25.1454 15.7649 25.1454 15.7625 25.1812 15.7601C25.2027 15.7601 25.2266 15.7673 25.2361 15.7792ZM16.7106 15.8055C16.7178 15.8198 16.7083 15.8222 16.6892 15.815C16.6462 15.7983 16.639 15.7816 16.6724 15.7816C16.6868 15.7816 16.7035 15.7912 16.7106 15.8055ZM25.0809 15.8413C25.0642 15.8628 25.0451 15.8723 25.0355 15.8652C25.0283 15.858 25.0379 15.8413 25.057 15.8294C25.1072 15.7959 25.1143 15.8007 25.0809 15.8413ZM16.9495 15.9249C16.9566 15.9392 16.9471 15.9416 16.928 15.9344C16.885 15.9177 16.8778 15.901 16.9112 15.901C16.9256 15.901 16.9423 15.9106 16.9495 15.9249ZM24.9949 15.9201C25.0021 15.932 24.9925 15.9416 24.9734 15.9416C24.9543 15.9416 24.9448 15.932 24.9519 15.9201C24.9591 15.9106 24.9686 15.901 24.9734 15.901C24.9782 15.901 24.9878 15.9106 24.9949 15.9201ZM17.3077 16.1374C17.3005 16.1518 17.2814 16.1637 17.2695 16.1637C17.2575 16.1637 17.2599 16.1494 17.2766 16.1303C17.3101 16.092 17.3339 16.0992 17.3077 16.1374ZM17.4271 16.2306C17.4199 16.2377 17.4008 16.2306 17.3841 16.2138C17.3626 16.19 17.365 16.1876 17.3984 16.2019C17.4223 16.2091 17.4342 16.2234 17.4271 16.2306ZM17.5656 16.2831C17.5727 16.3094 17.568 16.3261 17.556 16.3165C17.5441 16.3094 17.5345 16.2879 17.5345 16.2688C17.5345 16.221 17.5513 16.2282 17.5656 16.2831ZM17.642 16.3046C17.6492 16.3165 17.6468 16.3332 17.6348 16.3404C17.6229 16.3476 17.6133 16.338 17.6133 16.3189C17.6133 16.2783 17.6205 16.2735 17.642 16.3046ZM24.2546 16.307C24.2474 16.3141 24.2307 16.3213 24.2188 16.3213C24.2068 16.3237 24.1877 16.3261 24.1758 16.3285C24.1639 16.3285 24.1376 16.3476 24.1161 16.3667C24.0851 16.4001 24.0803 16.3977 24.0851 16.3571C24.0874 16.3285 24.0994 16.3165 24.1233 16.3261C24.1424 16.3332 24.1519 16.3285 24.1448 16.3165C24.1352 16.3046 24.1615 16.295 24.1997 16.295C24.2355 16.2926 24.2618 16.2998 24.2546 16.307ZM23.8056 16.5028C23.8128 16.5124 23.8033 16.5147 23.7818 16.5124C23.7627 16.51 23.7388 16.5004 23.7292 16.4932C23.7221 16.4837 23.7316 16.4813 23.7531 16.4837C23.7722 16.4861 23.7961 16.4956 23.8056 16.5028ZM18.1196 16.5434C18.1124 16.5553 18.1292 16.5744 18.1578 16.5816C18.1841 16.5912 18.2008 16.6031 18.196 16.6079C18.1913 16.615 18.1578 16.6055 18.122 16.5912C18.0766 16.5697 18.0671 16.5553 18.0886 16.541C18.1292 16.5171 18.1363 16.5171 18.1196 16.5434ZM18.3083 16.6365C18.313 16.6461 18.2987 16.6556 18.2748 16.6556C18.251 16.6556 18.2366 16.6461 18.2414 16.6365C18.2486 16.627 18.2629 16.6174 18.2748 16.6174C18.2868 16.6174 18.3011 16.627 18.3083 16.6365ZM23.3256 16.6891C23.3185 16.701 23.297 16.713 23.2827 16.713C23.2659 16.713 23.2683 16.7034 23.2898 16.6891C23.3352 16.6604 23.3447 16.6604 23.3256 16.6891ZM18.5375 16.7273C18.5375 16.7321 18.516 16.7368 18.4898 16.7368C18.4635 16.7368 18.442 16.7273 18.442 16.7153C18.442 16.7034 18.4635 16.6986 18.4898 16.7058C18.516 16.713 18.5375 16.7225 18.5375 16.7273ZM23.1704 16.7249C23.1537 16.744 23.1179 16.7583 23.0892 16.7583C23.0415 16.7559 23.0415 16.7535 23.0868 16.744C23.1131 16.7368 23.1441 16.7225 23.1585 16.7106C23.1943 16.6771 23.2039 16.6867 23.1704 16.7249ZM18.5304 16.775C18.5232 16.7822 18.5017 16.7846 18.485 16.7774C18.4659 16.7703 18.4731 16.7631 18.4993 16.7631C18.5256 16.7607 18.5399 16.7679 18.5304 16.775ZM18.6928 16.8324C18.6999 16.8467 18.6904 16.8491 18.6713 16.8419C18.6283 16.8252 18.6211 16.8085 18.6545 16.8085C18.6689 16.8085 18.6856 16.818 18.6928 16.8324ZM18.8671 16.9303C18.8599 16.9494 18.8504 16.9374 18.8408 16.9064C18.8313 16.8658 18.8337 16.8562 18.8528 16.8753C18.8647 16.8873 18.8719 16.9136 18.8671 16.9303ZM22.8122 16.8801C22.7931 16.8921 22.7668 16.904 22.7525 16.904C22.7406 16.904 22.7453 16.8921 22.7644 16.8801C22.7835 16.8682 22.8122 16.8562 22.8241 16.8562C22.8385 16.8562 22.8313 16.8682 22.8122 16.8801ZM22.5734 16.9518C22.5734 16.9637 22.5686 16.9756 22.5638 16.9756C22.5567 16.9756 22.5447 16.9637 22.5376 16.9518C22.5304 16.9374 22.5352 16.9279 22.5471 16.9279C22.5615 16.9279 22.5734 16.9374 22.5734 16.9518ZM19.1178 16.9924C19.1011 16.9971 19.0677 16.9971 19.0462 16.9924C19.0223 16.9852 19.0366 16.9804 19.0749 16.9804C19.1154 16.9804 19.1322 16.9852 19.1178 16.9924ZM19.3614 17.0712C19.3686 17.0831 19.3638 17.095 19.3519 17.095C19.3375 17.095 19.3256 17.0831 19.3256 17.0712C19.3256 17.0568 19.3304 17.0473 19.3351 17.0473C19.3423 17.0473 19.3543 17.0568 19.3614 17.0712ZM22.1053 17.0879C22.1149 17.1118 22.1149 17.1213 22.1053 17.1118C22.0958 17.1022 22.0623 17.1118 22.0337 17.1309C21.9979 17.1524 21.974 17.1571 21.9644 17.1428C21.9549 17.1285 21.962 17.1213 21.9812 17.1237C21.9979 17.1285 22.0098 17.1189 22.0074 17.1022C22.0026 17.0855 22.017 17.0783 22.0361 17.0855C22.0552 17.095 22.0719 17.0879 22.0719 17.0736C22.0719 17.0353 22.0886 17.0425 22.1053 17.0879ZM19.5047 17.095C19.4975 17.107 19.476 17.1189 19.4617 17.1189C19.445 17.1189 19.4474 17.1094 19.4689 17.095C19.5143 17.0664 19.5238 17.0664 19.5047 17.095Z" fill="white"/>
<path d="M18.7669 13.917C18.7597 13.9289 18.7693 13.9433 18.7884 13.9504C18.8099 13.96 18.8171 13.9528 18.8075 13.9289C18.7932 13.8907 18.7836 13.8883 18.7669 13.917Z" fill="white"/>
</svg>
