<svg width="31" height="18" viewBox="0 0 31 18" fill="none" xmlns="http://www.w3.org/2000/svg">
<path d="M9.66579 0.557467C9.41265 0.667319 9.12369 0.772395 8.73444 0.896575C8.54339 0.956277 7.81741 1.21658 6.97919 1.52703C6.55173 1.68464 6.06933 1.86375 5.90455 1.92345C5.31708 2.13599 4.95887 2.31032 4.71051 2.49659C4.27588 2.82615 3.62871 3.43033 3.27766 3.83631C3.20602 3.91989 3.13437 4.00109 3.12243 4.01542C3.10811 4.03213 2.97915 4.15154 2.83586 4.28288C1.29316 5.68946 0.786886 6.36052 0.485987 7.41127C0.292552 8.08949 0.282999 8.67457 0.45733 9.20234C0.552853 9.48891 0.600615 9.58682 0.825095 9.95697C0.994649 10.234 1.50331 10.7713 1.77317 10.96C1.81854 10.991 1.86152 11.0221 1.86869 11.0292C1.89257 11.0531 2.07406 11.1701 2.2675 11.2871C2.47765 11.4137 2.96004 11.6262 3.03646 11.6262C3.06273 11.6262 3.11288 11.6406 3.15109 11.6597C3.28721 11.7289 3.81259 11.8674 4.10155 11.9128C4.18036 11.9271 4.31648 11.9534 4.40245 11.9725C4.59588 12.0155 5.41738 12.1063 5.55351 12.1015C5.60843 12.0991 5.81619 12.1039 6.01202 12.1134C6.31769 12.1277 6.46814 12.1421 6.75232 12.1874C6.8574 12.2042 7.12964 12.2806 7.51651 12.4024C8.17562 12.6077 8.38578 12.6651 8.62697 12.6985C8.89921 12.7367 9.2025 12.7534 9.57027 12.751C10.1721 12.7486 10.3846 12.6937 10.547 12.5074C10.6521 12.3833 10.6903 12.2758 10.6592 12.1922C10.6258 12.1086 10.4921 11.963 10.3082 11.8149C10.1697 11.7027 10.1506 11.6764 10.1052 11.5283C10.0288 11.2895 9.95475 11.2131 9.6443 11.065C9.2431 10.8716 9.11414 10.7212 8.78459 10.0453C8.66996 9.8113 8.61981 9.73966 8.46936 9.58682C8.31174 9.42682 8.13264 9.27876 7.96547 9.16652C7.93682 9.14741 7.7601 9.02801 7.57144 8.90144C7.38517 8.77487 7.12248 8.58382 6.99113 8.47875C6.68546 8.23516 6.31053 7.84829 6.24366 7.7074C6.14336 7.50202 6.11948 7.15097 6.1959 7.00769C6.21023 6.97903 6.2556 6.92888 6.29859 6.89306C6.39172 6.81425 6.42516 6.71395 6.37501 6.66619C6.34396 6.63515 6.32725 6.63992 6.24366 6.69485C5.98336 6.86679 5.87351 7.27276 5.96426 7.74561C6.00008 7.94143 6.03351 8.04173 6.15291 8.31636L6.19351 8.40711L6.05262 8.29725C5.74933 8.06561 5.5941 7.75516 5.62754 7.44471C5.63948 7.33008 5.65619 7.28232 5.71351 7.21784C5.76605 7.15575 5.78515 7.11037 5.78515 7.04112C5.78515 6.90739 5.74455 6.90022 5.63948 7.01963C5.43171 7.25605 5.32186 7.61904 5.37201 7.89844C5.42216 8.16352 5.60127 8.49069 5.83769 8.75338C5.95948 8.8895 6.13142 9.15935 6.21739 9.34801C6.2556 9.43159 6.28665 9.50801 6.28665 9.51518C6.28665 9.54622 5.73261 9.50085 5.49619 9.45309C4.94454 9.34085 4.35707 9.06383 4.00364 8.75338C3.87229 8.63636 3.71946 8.43576 3.65975 8.29964C3.50453 7.94143 3.62871 7.5259 4.00364 7.13903C4.17558 6.96231 4.57917 6.65903 4.64364 6.65903C4.65797 6.65903 4.69857 6.63276 4.73678 6.60171C4.83708 6.51813 5.3744 6.31275 5.74694 6.21723C6.33202 6.06678 6.77143 6.05962 7.94637 6.17186C8.22577 6.19813 8.45742 6.20768 8.69384 6.19574L9.03295 6.1838V6.26022C9.03295 6.60171 8.92787 7.06022 8.69861 7.72172C8.64608 7.87934 8.59832 8.05128 8.59832 8.10382C8.59593 8.15636 8.62458 8.2686 8.65802 8.35457C8.69145 8.44054 8.75354 8.60054 8.79414 8.71278C8.83474 8.82502 8.89205 8.97547 8.91832 9.04711C9.31235 10.0883 9.92848 11.0818 10.6807 11.877C10.9267 12.1397 11.5142 12.7248 11.6001 12.7964C11.8246 12.9803 11.9607 13.0973 11.9822 13.1188C12.1064 13.2573 12.7584 13.7493 13.1094 13.969C13.1858 14.0167 13.4414 14.1791 13.6778 14.3296C14.2843 14.714 14.3823 14.7714 14.8623 15.0173C15.0151 15.0937 15.199 15.1893 15.2682 15.2275C15.3399 15.2657 15.4736 15.3373 15.5644 15.3875C15.6575 15.4376 15.7578 15.4973 15.7912 15.5212C15.8247 15.5427 16.1136 15.6955 16.436 15.8603C16.7584 16.0227 17.1548 16.2257 17.3196 16.3093C17.6945 16.5027 18.2916 16.7893 18.5734 16.9111C19.0366 17.1117 19.5835 17.2526 20.1137 17.3075C20.5435 17.3529 21.4056 17.3362 21.7376 17.2741C21.771 17.2669 21.8307 17.2574 21.8689 17.2502C22.2056 17.1976 22.5376 17.1045 22.7764 17.0018C22.8027 16.9899 22.8647 16.9636 22.9149 16.9397C22.9627 16.9182 23.1346 16.8538 23.297 16.7988C23.8367 16.6054 24.0874 16.4979 24.7824 16.1517C25.4391 15.8269 25.8618 15.6382 25.9358 15.6382C25.9525 15.6382 26.0122 15.612 26.0672 15.5809C26.2367 15.483 26.5878 15.3755 26.743 15.3732L26.8839 15.3708L26.7048 15.3278C26.3824 15.249 25.2576 15.1845 24.2331 15.1845C22.4946 15.1845 21.9883 15.132 21.1286 14.8693C20.3405 14.6281 19.3065 14.0979 18.7429 13.6466C18.3823 13.36 17.8808 12.8466 17.7113 12.5934C17.193 11.8221 16.9065 10.9074 16.8515 9.86384C16.8348 9.53667 16.8778 9.1307 16.9518 8.89189C17.0139 8.69845 16.9972 8.66979 16.7154 8.49069C16.5793 8.40233 16.3691 8.25427 16.2474 8.15874C15.9894 7.95337 15.9823 7.96292 16.448 7.93904C16.6199 7.93188 16.8253 7.91277 16.9017 7.90083C17.1357 7.86262 17.1501 7.87456 16.9781 7.96053C16.8014 8.05128 16.639 8.18501 16.67 8.21606C16.6796 8.22561 16.7584 8.22561 16.842 8.21606C16.928 8.20651 17.033 8.20173 17.076 8.20651L17.1548 8.21367L17.045 8.33307C16.9805 8.40233 16.9375 8.4692 16.9423 8.49308C16.9518 8.53606 16.928 8.53606 17.3984 8.5074C17.5393 8.49785 17.6539 8.49785 17.6539 8.50502C17.6539 8.51218 17.611 8.59099 17.5608 8.68173C17.5107 8.77009 17.4605 8.87039 17.451 8.90144C17.4342 8.95398 17.439 8.95636 17.5154 8.93965C17.5584 8.9301 17.6205 8.9086 17.6539 8.89189C17.7638 8.83696 17.9262 8.81069 18.3584 8.77248C18.9363 8.72472 19.0128 8.71278 19.2635 8.65547C20.1017 8.45964 20.6176 8.21606 20.9495 7.86023C21.1095 7.69068 21.1286 7.61426 21.0546 7.45665C20.9996 7.34202 20.7895 7.13903 20.6247 7.04351C20.2952 6.85246 20.128 6.745 19.9823 6.62798C19.8987 6.56112 19.8319 6.5038 19.8343 6.50141C19.8366 6.49664 19.9799 6.48231 20.1495 6.46798C20.3214 6.45365 20.4934 6.43693 20.5316 6.43455C20.5722 6.42977 20.6844 6.41783 20.7823 6.40828C20.8802 6.39873 20.9829 6.38678 21.0092 6.37962C21.0355 6.37484 21.2886 6.36052 21.5704 6.34858C21.8522 6.33664 22.1173 6.31992 22.1555 6.31514C22.2462 6.29843 23.168 6.23395 23.5167 6.21723C23.8439 6.2029 24.6104 6.2029 24.8182 6.21723C25.7185 6.2841 25.9955 6.35335 26.4469 6.61843C26.7239 6.78082 26.9388 6.98858 27.0391 7.18202C27.1442 7.39217 27.1561 7.65963 27.0726 7.96531C26.9985 8.24233 26.9006 8.47636 26.7597 8.70323C26.5711 9.00651 26.5448 9.02801 25.7615 9.48174C24.7633 10.062 24.5483 10.1647 23.7077 10.4728C22.817 10.8 22.2295 10.9647 21.4391 11.1128C20.7513 11.2394 19.7698 11.354 19.2444 11.3707C19.1298 11.3731 19.051 11.385 19.0462 11.4018C19.039 11.4209 19.1943 11.4328 19.5811 11.4424C20.0874 11.4543 20.4623 11.4925 20.8898 11.5785C21.5107 11.7003 22.4229 11.7242 23.051 11.6358C23.4212 11.5856 23.6982 11.5259 24.1257 11.4065C24.2642 11.3683 24.4409 11.3182 24.5197 11.2991C24.6725 11.2585 25.0952 11.0865 25.9048 10.7355C26.4516 10.4991 26.7669 10.3438 27.1705 10.1194C27.3161 10.0382 27.4809 9.94503 27.5406 9.91399C27.8272 9.75399 28.257 9.45309 28.6105 9.15696C29.3078 8.57905 29.7663 7.98919 29.955 7.43515C30.029 7.21784 30.0362 6.78082 29.9693 6.53962C29.8786 6.2029 29.5991 5.72051 29.3341 5.43633C28.9639 5.0399 28.1472 4.63393 27.2755 4.41423C25.9621 4.08228 24.5197 3.90079 23.1585 3.89362C22.1459 3.88885 20.7393 3.77183 19.8032 3.61183C18.934 3.46377 18.411 3.30854 17.3005 2.85958C15.8509 2.27689 15.027 1.99987 14.1005 1.78733C13.587 1.66793 13.3076 1.63927 12.5196 1.62017L11.7912 1.60106L11.5882 1.52703C10.6425 1.17598 10.1864 0.877471 10.0694 0.535974C10.0431 0.461944 10.0192 0.426122 9.99296 0.42851C9.96908 0.430899 9.8234 0.488213 9.66579 0.557467ZM10.098 0.858366C10.1434 0.910904 10.1434 0.910904 10.0909 0.877471C10.0598 0.858366 10.0359 0.836873 10.0359 0.827321C10.0359 0.798664 10.0503 0.805828 10.098 0.858366ZM8.98041 0.961054C8.96369 0.980158 8.94459 0.989711 8.93981 0.987323C8.92787 0.972994 8.96369 0.92762 8.98757 0.92762C8.99951 0.92762 8.99713 0.941949 8.98041 0.961054ZM10.3321 1.08523C10.3392 1.10434 10.3559 1.11628 10.3679 1.10673C10.3798 1.09956 10.3965 1.10195 10.4037 1.11389C10.4276 1.15449 10.3464 1.133 10.3058 1.09001C10.2843 1.06613 10.2795 1.04702 10.2915 1.04702C10.3058 1.04702 10.3249 1.06374 10.3321 1.08523ZM10.5948 1.2333C10.6019 1.24524 10.5924 1.25479 10.5733 1.25479C10.5542 1.25479 10.5446 1.24524 10.5518 1.2333C10.5589 1.22374 10.5685 1.21419 10.5733 1.21419C10.578 1.21419 10.5876 1.22374 10.5948 1.2333ZM10.621 1.32882C10.6139 1.33598 10.5948 1.32882 10.578 1.3121C10.5565 1.28822 10.5589 1.28583 10.5924 1.30016C10.6162 1.30733 10.6282 1.32165 10.621 1.32882ZM11.0509 1.54852C11.058 1.56285 11.0485 1.56524 11.0294 1.55808C10.9864 1.54136 10.9792 1.52464 11.0127 1.52464C11.027 1.52464 11.0437 1.53419 11.0509 1.54852ZM11.1679 1.54375C11.1727 1.5533 11.1583 1.56285 11.1345 1.56285C11.1106 1.56285 11.0963 1.5533 11.101 1.54375C11.1082 1.53419 11.1225 1.52464 11.1345 1.52464C11.1464 1.52464 11.1607 1.53419 11.1679 1.54375ZM11.433 1.62017C11.4401 1.63449 11.4306 1.63688 11.4115 1.62972C11.3685 1.613 11.3613 1.59628 11.3948 1.59628C11.4091 1.59628 11.4258 1.60584 11.433 1.62017ZM11.3375 1.71569C11.3446 1.72763 11.3398 1.73957 11.3279 1.73957C11.3136 1.73957 11.3016 1.72763 11.3016 1.71569C11.3016 1.70136 11.3064 1.69181 11.3112 1.69181C11.3183 1.69181 11.3303 1.70136 11.3375 1.71569ZM12.0539 1.8542C12.0467 1.86136 12.0276 1.8542 12.0109 1.83748C11.9894 1.8136 11.9918 1.81121 12.0252 1.82554C12.0491 1.83271 12.061 1.84703 12.0539 1.8542ZM12.8945 1.8733C12.8873 1.88047 12.8658 1.88285 12.8491 1.87569C12.83 1.86853 12.8372 1.86136 12.8634 1.86136C12.8897 1.85897 12.904 1.86614 12.8945 1.8733ZM12.147 1.89957C12.1351 1.91151 12.1184 1.92823 12.1088 1.94256C12.0992 1.95689 12.0897 1.94733 12.0897 1.92345C12.0897 1.90196 12.1064 1.88285 12.1303 1.88285C12.1518 1.88285 12.159 1.89002 12.147 1.89957ZM14.024 1.91629C14.024 1.92106 14.0073 1.933 13.9858 1.94017C13.9667 1.94733 13.9572 1.94495 13.9643 1.93062C13.9787 1.90674 14.024 1.89718 14.024 1.91629ZM13.5393 2.01659C13.5321 2.02375 13.5106 2.02614 13.4939 2.01898C13.4748 2.01181 13.482 2.00465 13.5082 2.00465C13.5345 2.00226 13.5488 2.00942 13.5393 2.01659ZM6.0359 2.06913C6.02873 2.07629 6.00963 2.06913 5.99291 2.05241C5.97142 2.02853 5.97381 2.02614 6.00724 2.04047C6.03112 2.04763 6.04306 2.06196 6.0359 2.06913ZM12.9136 2.05002C12.9064 2.06196 12.8849 2.0739 12.8706 2.0739C12.8539 2.0739 12.8563 2.06435 12.8778 2.05002C12.9231 2.02136 12.9327 2.02136 12.9136 2.05002ZM5.62037 2.2339C5.59171 2.28167 5.58694 2.26734 5.60843 2.20525C5.61798 2.18375 5.62992 2.17181 5.6347 2.17898C5.64186 2.18375 5.6347 2.21002 5.62037 2.2339ZM15.8032 2.40823C15.8103 2.42017 15.8056 2.43211 15.7936 2.43211C15.7793 2.43211 15.7673 2.42017 15.7673 2.40823C15.7673 2.39391 15.7721 2.38435 15.7769 2.38435C15.7841 2.38435 15.796 2.39391 15.8032 2.40823ZM15.7315 2.456C15.7244 2.46794 15.7029 2.47988 15.6885 2.47988C15.6718 2.47988 15.6742 2.47032 15.6957 2.456C15.7411 2.42734 15.7506 2.42734 15.7315 2.456ZM16.4384 2.66376C16.4694 2.70197 16.4671 2.70436 16.4312 2.67331C16.4074 2.65659 16.3883 2.63749 16.3883 2.63271C16.3883 2.61361 16.4074 2.62555 16.4384 2.66376ZM16.5435 2.6948C16.5363 2.70674 16.5148 2.71868 16.5005 2.71868C16.4838 2.71868 16.4862 2.70913 16.5077 2.6948C16.553 2.66615 16.5626 2.66615 16.5435 2.6948ZM5.95232 2.79988C5.95232 2.80466 5.9356 2.8166 5.91411 2.82376C5.895 2.83092 5.88545 2.82854 5.89261 2.81421C5.90694 2.79033 5.95232 2.78078 5.95232 2.79988ZM16.8539 2.83809C16.8611 2.85003 16.8563 2.86197 16.8444 2.86197C16.83 2.86197 16.8181 2.85003 16.8181 2.83809C16.8181 2.82376 16.8229 2.81421 16.8277 2.81421C16.8348 2.81421 16.8468 2.82376 16.8539 2.83809ZM16.9375 2.87152C16.9375 2.8763 16.9208 2.88824 16.8993 2.8954C16.8802 2.90257 16.8706 2.90018 16.8778 2.88585C16.8921 2.86197 16.9375 2.85242 16.9375 2.87152ZM7.33024 2.95033C7.33024 2.97182 7.32069 2.97421 7.29681 2.95511C7.28009 2.94078 7.26576 2.92645 7.26576 2.92167C7.26576 2.91928 7.28009 2.9169 7.29681 2.9169C7.31591 2.9169 7.33024 2.93122 7.33024 2.95033ZM17.2575 3.02675C17.2527 3.03391 17.2289 3.01958 17.205 2.9957C17.1668 2.95511 17.1668 2.95272 17.2169 2.98376C17.2456 3.00048 17.2647 3.01958 17.2575 3.02675ZM4.33797 3.02675C4.3714 3.06257 4.37379 3.0769 4.34752 3.09123C4.33081 3.10078 4.32364 3.10078 4.33319 3.08884C4.35946 3.06257 4.30454 3.00287 4.27349 3.02197C4.25916 3.02914 4.25677 3.02436 4.26633 3.01003C4.28782 2.97421 4.29021 2.97421 4.33797 3.02675ZM5.60366 3.06735C5.61082 3.08645 5.60843 3.096 5.5941 3.08884C5.57977 3.08167 5.57022 3.06496 5.57022 3.05063C5.57022 3.0172 5.58694 3.02436 5.60366 3.06735ZM7.22517 3.04585C7.23233 3.05779 7.21084 3.06735 7.1774 3.06973C7.13203 3.07212 7.12487 3.06735 7.14875 3.05063C7.18934 3.02436 7.21084 3.02436 7.22517 3.04585ZM4.84663 3.06735C4.83947 3.07451 4.81798 3.0769 4.80126 3.06973C4.78215 3.06257 4.78932 3.05541 4.81559 3.05541C4.84186 3.05302 4.85618 3.06018 4.84663 3.06735ZM17.7256 3.1963C17.7256 3.20824 17.7136 3.22018 17.6993 3.22018C17.6874 3.22018 17.6826 3.20824 17.6898 3.1963C17.6969 3.18197 17.7089 3.17242 17.716 3.17242C17.7208 3.17242 17.7256 3.18197 17.7256 3.1963ZM5.01141 3.23929C4.98753 3.24406 4.95887 3.23929 4.94454 3.22496C4.93022 3.21063 4.94454 3.20824 4.98992 3.21541C5.04007 3.22735 5.04484 3.23212 5.01141 3.23929ZM4.02991 3.26556C4.03707 3.2775 4.03468 3.29421 4.02274 3.30138C4.0108 3.30854 4.00125 3.29899 4.00125 3.27989C4.00125 3.23929 4.00841 3.23451 4.02991 3.26556ZM5.18813 3.25362C5.18813 3.25839 5.17141 3.27033 5.14992 3.2775C5.13081 3.28466 5.12126 3.28227 5.12843 3.26794C5.14275 3.24406 5.18813 3.23451 5.18813 3.25362ZM4.01797 3.35153C4.01797 3.3563 3.99409 3.37302 3.96543 3.38735C3.91289 3.41362 3.91289 3.41123 3.95588 3.3778C4.00603 3.3372 4.01797 3.33242 4.01797 3.35153ZM4.40006 3.38735C4.40006 3.39929 4.38096 3.41123 4.35946 3.41123C4.32364 3.41123 4.32125 3.40645 4.3523 3.38735C4.39767 3.35869 4.40006 3.35869 4.40006 3.38735ZM18.2199 3.3778C18.2128 3.38496 18.1913 3.38735 18.1745 3.38018C18.1554 3.37302 18.1626 3.36586 18.1889 3.36586C18.2151 3.36347 18.2295 3.37063 18.2199 3.3778ZM14.7548 3.54974C14.7142 3.58795 14.7118 3.58795 14.7429 3.5378C14.7596 3.50914 14.7787 3.49004 14.7858 3.4972C14.793 3.50198 14.7787 3.52586 14.7548 3.54974ZM14.7739 3.62138C14.7811 3.63332 14.7715 3.64287 14.7524 3.64287C14.7333 3.64287 14.7238 3.63332 14.7309 3.62138C14.7381 3.61183 14.7476 3.60228 14.7524 3.60228C14.7572 3.60228 14.7667 3.61183 14.7739 3.62138ZM3.7911 3.72168C3.78393 3.73362 3.75766 3.74556 3.73617 3.74317C3.70274 3.74317 3.70513 3.7384 3.74334 3.72168C3.80781 3.69541 3.80781 3.69541 3.7911 3.72168ZM6.27471 3.72168C6.28187 3.73601 6.27232 3.7384 6.25321 3.73123C6.21023 3.71452 6.20306 3.6978 6.2365 3.6978C6.25083 3.6978 6.26754 3.70735 6.27471 3.72168ZM19.9322 3.78377C19.9441 3.8172 19.9417 3.81959 19.9107 3.79332C19.8701 3.75989 19.8653 3.74556 19.8964 3.74556C19.9083 3.74556 19.925 3.76228 19.9322 3.78377ZM3.67169 3.81243C3.66453 3.81959 3.64542 3.81243 3.62871 3.79571C3.60722 3.77183 3.6096 3.76944 3.64304 3.78377C3.66692 3.79094 3.67886 3.80526 3.67169 3.81243ZM14.6927 3.779C14.6927 3.78616 14.6832 3.7981 14.6688 3.80526C14.6569 3.81243 14.6449 3.80765 14.6449 3.79571C14.6449 3.78138 14.6569 3.76944 14.6688 3.76944C14.6832 3.76944 14.6927 3.77422 14.6927 3.779ZM14.7906 3.82437C14.7667 3.84586 14.7644 3.84347 14.7787 3.81004C14.7858 3.78616 14.8002 3.77422 14.8073 3.78138C14.8145 3.78855 14.8073 3.80765 14.7906 3.82437ZM5.78515 3.87452C5.78515 3.87929 5.76843 3.89124 5.74694 3.8984C5.72784 3.90556 5.71828 3.90318 5.72545 3.88885C5.73978 3.86497 5.78515 3.85541 5.78515 3.87452ZM8.15652 3.89362C8.14219 3.91034 8.13503 3.94377 8.13741 3.96527C8.14219 3.99153 8.13264 4.00109 8.10876 3.99153C8.0801 3.97959 8.0801 3.97482 8.10637 3.9581C8.12309 3.94616 8.12786 3.93661 8.11592 3.93661C8.10398 3.93661 8.10876 3.91989 8.12547 3.90079C8.1613 3.8578 8.18995 3.85303 8.15652 3.89362ZM7.92487 3.91034C7.91532 3.92228 7.92487 3.93661 7.9392 3.94377C7.95592 3.94855 7.94159 3.95333 7.90577 3.95333C7.85562 3.95333 7.84846 3.94855 7.86995 3.92228C7.90338 3.88646 7.94398 3.87691 7.92487 3.91034ZM21.9453 3.95094C21.9382 3.9581 21.9167 3.96049 21.9 3.95333C21.8809 3.94616 21.888 3.939 21.9143 3.939C21.9406 3.93661 21.9549 3.94377 21.9453 3.95094ZM5.82097 3.98437C5.82814 3.99631 5.82336 4.00825 5.81142 4.00825C5.79709 4.00825 5.78515 3.99631 5.78515 3.98437C5.78515 3.97004 5.78993 3.96049 5.7947 3.96049C5.80187 3.96049 5.81381 3.97004 5.82097 3.98437ZM6.14336 3.97004C6.14336 3.98676 6.02396 4.00109 6.01202 3.98676C6.00724 3.97721 6.0359 3.96765 6.07411 3.96527C6.11232 3.96288 6.14336 3.96288 6.14336 3.97004ZM22.6212 4.04407C22.6212 4.05601 22.6092 4.05124 22.5973 4.03213C22.5853 4.01303 22.5734 3.98437 22.5734 3.97243C22.5734 3.9581 22.5853 3.96527 22.5973 3.98437C22.6092 4.00348 22.6212 4.02974 22.6212 4.04407ZM14.5494 4.00825C14.5494 4.02019 14.5375 4.03213 14.5232 4.03213C14.5112 4.03213 14.5064 4.02019 14.5136 4.00825C14.5208 3.99392 14.5327 3.98437 14.5399 3.98437C14.5446 3.98437 14.5494 3.99392 14.5494 4.00825ZM22.9674 4.00586C22.9746 4.0178 22.9722 4.03452 22.9603 4.04168C22.9483 4.04885 22.9388 4.0393 22.9388 4.02019C22.9388 3.97959 22.9459 3.97482 22.9674 4.00586ZM23.1537 4.02019C23.1656 4.04646 23.1298 4.05124 23.0749 4.03213C23.0677 4.02974 23.0534 4.02736 23.0438 4.02974C23.0319 4.03213 23.0295 4.02497 23.0343 4.01303C23.0558 3.98198 23.1418 3.98676 23.1537 4.02019ZM3.42094 4.02258C3.42094 4.04168 3.37557 4.05362 3.36363 4.03691C3.35647 4.02497 3.36602 4.01542 3.38512 4.01542C3.40423 4.01542 3.42094 4.02019 3.42094 4.02258ZM5.61798 4.08945C5.60127 4.10616 5.58694 4.10616 5.57022 4.08945C5.55589 4.07512 5.56306 4.06557 5.5941 4.06557C5.62515 4.06557 5.63231 4.07512 5.61798 4.08945ZM8.37861 4.08467C8.39055 4.07512 8.39055 4.07751 8.381 4.08945C8.35234 4.12527 8.2998 4.12527 8.2998 4.08945C8.2998 4.06795 8.30936 4.06318 8.32846 4.07989C8.34518 4.09183 8.36667 4.09422 8.37861 4.08467ZM8.21145 4.17064C8.20428 4.17781 8.21622 4.19452 8.23771 4.21124C8.27592 4.2399 8.27831 4.2399 8.13741 4.22557C8.12547 4.22318 8.13264 4.21124 8.15652 4.19691C8.17801 4.18258 8.18995 4.16109 8.18279 4.14676C8.17085 4.13004 8.17801 4.12766 8.19473 4.13721C8.21145 4.14915 8.21861 4.16109 8.21145 4.17064ZM5.71112 4.18497C5.73261 4.21124 5.73261 4.22318 5.70873 4.23751C5.69201 4.24706 5.68485 4.24706 5.6944 4.23512C5.70395 4.22557 5.70157 4.20169 5.68724 4.18258C5.67291 4.16586 5.66575 4.15154 5.67291 4.15154C5.67769 4.15154 5.69679 4.16586 5.71112 4.18497ZM3.16781 4.22557C3.16064 4.23751 3.14393 4.24228 3.13199 4.23273C3.12005 4.22557 3.11527 4.20885 3.12482 4.19691C3.13199 4.18497 3.1487 4.18019 3.16064 4.18975C3.17258 4.19691 3.17736 4.21363 3.16781 4.22557ZM5.25977 4.27094C5.25977 4.28288 5.24783 4.29482 5.2335 4.29482C5.22156 4.29482 5.21679 4.28288 5.22395 4.27094C5.23111 4.25661 5.24305 4.24706 5.25022 4.24706C5.25499 4.24706 5.25977 4.25661 5.25977 4.27094ZM8.31652 4.35452C8.34995 4.3999 8.34995 4.3999 8.31174 4.36885C8.28786 4.35214 8.26876 4.32587 8.26876 4.31154C8.26876 4.29721 8.27115 4.29243 8.27592 4.29721C8.27831 4.30199 8.29742 4.32825 8.31652 4.35452ZM8.50757 4.3187C8.50757 4.33064 8.50279 4.34258 8.49802 4.34258C8.49085 4.34258 8.47891 4.33064 8.47175 4.3187C8.46458 4.30437 8.46936 4.29482 8.4813 4.29482C8.49563 4.29482 8.50757 4.30437 8.50757 4.3187ZM5.43649 4.34736C5.42455 4.36646 5.4341 4.36885 5.46515 4.35691C5.49858 4.34497 5.50336 4.34736 5.48186 4.36885C5.45082 4.3999 5.3935 4.37602 5.415 4.3402C5.42455 4.32825 5.4341 4.3187 5.44127 4.3187C5.44843 4.3187 5.44604 4.33064 5.43649 4.34736ZM8.25443 4.35691C8.2616 4.37602 8.25921 4.38557 8.24488 4.3784C8.23055 4.37124 8.221 4.35452 8.221 4.3402C8.221 4.30676 8.23771 4.31393 8.25443 4.35691ZM14.6473 4.44527C14.6235 4.46676 14.6211 4.46438 14.6354 4.43094C14.6426 4.40706 14.6569 4.39512 14.6641 4.40229C14.6712 4.40945 14.6641 4.42855 14.6473 4.44527ZM8.64847 4.49064C8.63652 4.51453 8.6222 4.53363 8.61981 4.53363C8.61503 4.53363 8.61264 4.51453 8.61264 4.49064C8.61264 4.46676 8.62697 4.44527 8.64369 4.44527C8.66279 4.44527 8.66518 4.4596 8.64847 4.49064ZM16.9996 4.49781C16.9948 4.53841 16.8898 4.62199 16.8898 4.58617C16.8898 4.57423 16.9136 4.55273 16.9447 4.53841C16.9781 4.52169 16.9829 4.51214 16.9614 4.51214C16.9303 4.50975 16.9303 4.50736 16.9614 4.48587C17.0068 4.45721 17.0068 4.45482 16.9996 4.49781ZM5.04484 4.49542C5.04484 4.5002 5.02813 4.51214 5.00663 4.5193C4.98753 4.52647 4.97798 4.52408 4.98514 4.50975C4.99947 4.48587 5.04484 4.47632 5.04484 4.49542ZM26.7143 4.50736C26.7239 4.5193 26.7072 4.52408 26.6809 4.51691C26.626 4.50259 26.6188 4.48587 26.6666 4.48587C26.6857 4.48587 26.7072 4.49542 26.7143 4.50736ZM5.28365 4.53363C5.28365 4.54557 5.27171 4.55751 5.25738 4.55751C5.24544 4.55751 5.24067 4.54557 5.24783 4.53363C5.25499 4.5193 5.26694 4.50975 5.2741 4.50975C5.27888 4.50975 5.28365 4.5193 5.28365 4.53363ZM27.3376 4.55751C27.3472 4.57184 27.3758 4.57662 27.4045 4.56945C27.4499 4.55751 27.4523 4.55751 27.414 4.58139C27.383 4.6005 27.3615 4.59811 27.3209 4.57184C27.2923 4.55035 27.2803 4.53363 27.2946 4.53363C27.3114 4.53363 27.3305 4.54557 27.3376 4.55751ZM8.53145 4.58139C8.53145 4.59333 8.52667 4.60527 8.5219 4.60527C8.51473 4.60527 8.50279 4.59333 8.49563 4.58139C8.48846 4.56706 8.49324 4.55751 8.50518 4.55751C8.51951 4.55751 8.53145 4.56706 8.53145 4.58139ZM8.47175 4.62438C8.46458 4.63154 8.44548 4.62438 8.42876 4.60766C8.40727 4.58378 8.40966 4.58139 8.44309 4.59572C8.46697 4.60288 8.47891 4.61721 8.47175 4.62438ZM5.06156 4.67214C5.03051 4.70557 5.02813 4.72229 5.04962 4.74378C5.07111 4.76527 5.07111 4.7796 5.04723 4.8011C5.02335 4.82259 5.01857 4.82259 5.03051 4.80348C5.03768 4.78916 5.03051 4.7605 5.0138 4.74378C4.98514 4.7199 4.98753 4.70796 5.03051 4.67214C5.09499 4.61721 5.10932 4.61721 5.06156 4.67214ZM16.6987 4.68408C16.6987 4.68886 16.6796 4.69124 16.6557 4.69124C16.6318 4.69124 16.6103 4.67692 16.6103 4.6602C16.6103 4.64109 16.6247 4.63871 16.6557 4.65542C16.6796 4.66736 16.6987 4.68169 16.6987 4.68408ZM26.9914 4.66497C26.9914 4.69363 26.946 4.69363 26.9364 4.66497C26.9269 4.64348 26.934 4.63632 26.9579 4.64587C26.9746 4.65303 26.9914 4.66259 26.9914 4.66497ZM15.2181 4.72468C15.2181 4.73662 15.2014 4.74139 15.1823 4.73423C15.1632 4.72468 15.1464 4.71512 15.1464 4.71035C15.1464 4.70557 15.1632 4.7008 15.1823 4.7008C15.2014 4.7008 15.2181 4.71035 15.2181 4.72468ZM27.9752 4.73423C28.0445 4.73662 27.9967 4.7605 27.9155 4.76289C27.8726 4.76527 27.8535 4.7605 27.8726 4.75333C27.8988 4.74378 27.8988 4.73901 27.8726 4.7199C27.8487 4.70318 27.8535 4.7008 27.8869 4.71512C27.9132 4.72468 27.9538 4.73184 27.9752 4.73423ZM4.99708 4.77244C4.99708 4.78438 4.98036 4.78916 4.96126 4.78199C4.94216 4.77244 4.92544 4.76289 4.92544 4.75811C4.92544 4.75333 4.94216 4.74856 4.96126 4.74856C4.98036 4.74856 4.99708 4.75811 4.99708 4.77244ZM26.9054 4.78677C26.9125 4.80587 26.9102 4.81542 26.8958 4.80826C26.8815 4.8011 26.872 4.78438 26.872 4.77005C26.872 4.73662 26.8887 4.74378 26.9054 4.78677ZM27.2899 4.83931C27.2827 4.84647 27.2636 4.83931 27.2469 4.82259C27.2254 4.79871 27.2278 4.79632 27.2612 4.81065C27.2851 4.81781 27.297 4.83214 27.2899 4.83931ZM4.62215 4.8799C4.60544 4.93005 4.59349 4.92528 4.59827 4.87035C4.59827 4.84408 4.61021 4.82736 4.61976 4.83453C4.62932 4.84169 4.6317 4.8608 4.62215 4.8799ZM4.92783 4.87274C4.94216 4.90378 4.94693 4.9205 4.93738 4.90856C4.92544 4.89901 4.89439 4.91095 4.86812 4.93244C4.81798 4.97543 4.81798 4.97543 4.86096 4.92289C4.88723 4.89423 4.89917 4.85841 4.88962 4.84647C4.88245 4.83214 4.88007 4.8202 4.88723 4.8202C4.89439 4.8202 4.9135 4.84408 4.92783 4.87274ZM27.4212 4.82975C27.4212 4.83453 27.4021 4.85363 27.3806 4.87035C27.3424 4.9014 27.34 4.89901 27.3711 4.8608C27.4021 4.82259 27.4212 4.81065 27.4212 4.82975ZM27.1824 4.8799C27.1824 4.88468 27.1681 4.89901 27.1514 4.91334C27.1275 4.93244 27.1179 4.93005 27.1179 4.90856C27.1179 4.88946 27.1323 4.87513 27.1514 4.87513C27.1681 4.87513 27.1824 4.87751 27.1824 4.8799ZM28.3669 4.93722C28.3573 4.95155 28.3311 4.9611 28.3096 4.9611C28.2738 4.95871 28.2738 4.95632 28.312 4.94677C28.3335 4.94199 28.3526 4.92766 28.3526 4.91572C28.3526 4.90378 28.3335 4.89901 28.312 4.90617C28.2761 4.91811 28.2738 4.91572 28.3048 4.89423C28.3454 4.86557 28.3908 4.89662 28.3669 4.93722ZM27.5836 4.94916C27.5669 4.96826 27.543 4.97781 27.5311 4.97065C27.5215 4.96349 27.5263 4.94916 27.543 4.93722C27.5955 4.90617 27.617 4.91095 27.5836 4.94916ZM28.5317 4.98498C28.5364 4.99453 28.515 5.0017 28.4863 5.0017C28.4576 5.0017 28.4314 4.98975 28.4314 4.97304C28.4314 4.94677 28.5126 4.95632 28.5317 4.98498ZM8.65802 5.02558C8.64847 5.05423 8.63891 5.05662 8.62458 5.03274C8.60309 4.99692 8.61981 4.95632 8.65085 4.97543C8.66279 4.98259 8.66518 5.00647 8.65802 5.02558ZM14.8599 4.97304C14.8599 4.97781 14.8432 4.98975 14.8217 4.99692C14.8026 5.00408 14.793 5.0017 14.8002 4.98737C14.8145 4.96349 14.8599 4.95393 14.8599 4.97304ZM27.6696 4.98259C27.6743 4.99214 27.66 5.0017 27.6361 5.0017C27.6123 5.0017 27.5979 4.99214 27.6027 4.98259C27.6099 4.97304 27.6242 4.96349 27.6361 4.96349C27.6481 4.96349 27.6624 4.97304 27.6696 4.98259ZM4.48364 5.08289C4.48842 5.11155 4.48842 5.13065 4.47887 5.12349C4.4717 5.11394 4.44305 5.11871 4.41439 5.13304C4.37379 5.15214 4.37618 5.14737 4.42394 5.10916C4.45737 5.08289 4.46931 5.05901 4.4526 5.05901C4.43588 5.05901 4.42872 5.04707 4.43588 5.03274C4.45737 5.0017 4.4717 5.01602 4.48364 5.08289ZM2.2269 5.04229C2.2269 5.04707 2.19824 5.07573 2.16242 5.10916L2.09556 5.16647L2.15287 5.09961C2.2078 5.0399 2.2269 5.02319 2.2269 5.04229ZM27.8654 5.06379C27.8749 5.0805 27.8726 5.08767 27.863 5.07573C27.8511 5.06617 27.82 5.07811 27.7938 5.09961C27.7436 5.14259 27.7436 5.14259 27.789 5.08767C27.8415 5.02558 27.8439 5.02558 27.8654 5.06379ZM28.7227 5.10438C28.7156 5.11632 28.7203 5.13304 28.7347 5.14259C28.7466 5.14976 28.7585 5.16886 28.7585 5.18558C28.7585 5.19991 28.7442 5.19035 28.7251 5.16647C28.6941 5.12349 28.6941 5.08289 28.7251 5.08289C28.7323 5.08289 28.7323 5.09244 28.7227 5.10438ZM2.2269 5.13065C2.2269 5.14259 2.21496 5.15453 2.20063 5.15453C2.18869 5.15453 2.18392 5.14259 2.19108 5.13065C2.19824 5.11632 2.21018 5.10677 2.21735 5.10677C2.22213 5.10677 2.2269 5.11632 2.2269 5.13065ZM27.8678 5.14259C27.8678 5.1617 27.8582 5.17841 27.8463 5.17841C27.8224 5.17841 27.82 5.14498 27.8439 5.12349C27.8654 5.09961 27.8678 5.10199 27.8678 5.14259ZM27.6218 5.14976C27.629 5.1617 27.6194 5.17125 27.6003 5.17125C27.5812 5.17125 27.5717 5.1617 27.5788 5.14976C27.586 5.1402 27.5955 5.13065 27.6003 5.13065C27.6051 5.13065 27.6146 5.1402 27.6218 5.14976ZM4.72245 5.17841C4.72962 5.19274 4.72006 5.19513 4.70096 5.18797C4.65797 5.17125 4.65081 5.15453 4.68424 5.15453C4.69857 5.15453 4.71529 5.16408 4.72245 5.17841ZM27.5024 5.17603C27.512 5.18797 27.4952 5.19274 27.469 5.18558C27.414 5.17125 27.4069 5.15453 27.4546 5.15453C27.4737 5.15453 27.4952 5.16408 27.5024 5.17603ZM4.29498 5.25006C4.2926 5.26916 4.30692 5.28349 4.32364 5.27871C4.35707 5.27394 4.36185 5.28827 4.33081 5.30737C4.32125 5.31453 4.28782 5.29543 4.26155 5.26677C4.21379 5.21662 4.21379 5.21185 4.25439 5.21185C4.27827 5.21185 4.29737 5.22856 4.29498 5.25006ZM4.38573 5.2214C4.3929 5.23334 4.38334 5.24289 4.36424 5.24289C4.34513 5.24289 4.33558 5.23334 4.34275 5.2214C4.34991 5.21185 4.35946 5.20229 4.36424 5.20229C4.36901 5.20229 4.37857 5.21185 4.38573 5.2214ZM28.9735 5.2811C28.9735 5.28588 28.9544 5.28827 28.9305 5.28827C28.9066 5.28827 28.8851 5.27394 28.8851 5.25722C28.8851 5.23812 28.8994 5.23573 28.9305 5.25244C28.9544 5.26438 28.9735 5.27871 28.9735 5.2811ZM4.51946 5.25961C4.51946 5.26438 4.50036 5.28349 4.47887 5.30021C4.44066 5.33125 4.43827 5.32886 4.46931 5.29065C4.50036 5.25244 4.51946 5.2405 4.51946 5.25961ZM27.7914 5.27394C27.8009 5.28827 27.7985 5.29782 27.7866 5.29543C27.7269 5.28588 27.703 5.30021 27.7197 5.33842C27.7317 5.37424 27.7293 5.37662 27.703 5.35036C27.6767 5.32409 27.6791 5.31215 27.7173 5.28349C27.7746 5.24289 27.7723 5.24289 27.7914 5.27394ZM2.02153 5.33364C2.01197 5.35274 2.01675 5.36946 2.03108 5.36946C2.04541 5.36946 2.06212 5.35513 2.0669 5.33842C2.07645 5.31692 2.08123 5.31692 2.08123 5.33842C2.08362 5.37901 2.03585 5.40289 2.0072 5.37424C1.99287 5.35991 1.99048 5.33842 1.99765 5.32409C2.02153 5.28588 2.03585 5.29304 2.02153 5.33364ZM29.0093 5.3217C29.0021 5.33364 29.0141 5.34558 29.0379 5.34797C29.0762 5.34797 29.0762 5.35036 29.0332 5.36707C28.9711 5.39334 28.94 5.37424 28.9759 5.33125C29.0069 5.29304 29.0308 5.28588 29.0093 5.3217ZM4.52902 5.3408C4.53618 5.35274 4.52663 5.3623 4.50752 5.3623C4.48842 5.3623 4.47887 5.35274 4.48603 5.3408C4.4932 5.33125 4.50275 5.3217 4.50752 5.3217C4.5123 5.3217 4.52185 5.33125 4.52902 5.3408ZM4.24961 5.41006C4.24961 5.43155 4.24006 5.43394 4.21618 5.41483C4.19946 5.40051 4.18513 5.38618 4.18513 5.3814C4.18513 5.37901 4.19946 5.37662 4.21618 5.37662C4.23528 5.37662 4.24961 5.39095 4.24961 5.41006ZM1.82093 5.45066C1.82093 5.45543 1.80182 5.47454 1.78033 5.49125C1.74212 5.5223 1.73973 5.51991 1.77078 5.4817C1.80182 5.44349 1.82093 5.43155 1.82093 5.45066ZM28.2403 5.49125C28.2212 5.51036 28.2093 5.50797 28.1973 5.48648C28.1854 5.46737 28.1878 5.4626 28.2045 5.47454C28.2212 5.48409 28.2332 5.47931 28.2332 5.4626C28.2332 5.44588 28.2403 5.4411 28.2499 5.44827C28.2594 5.45782 28.2547 5.47692 28.2403 5.49125ZM1.86869 5.47215C1.86869 5.47692 1.84003 5.50558 1.80421 5.53901L1.73734 5.59633L1.79466 5.52946C1.84958 5.46976 1.86869 5.45304 1.86869 5.47215ZM8.83474 5.52469C8.79891 5.5629 8.78936 5.55573 8.80847 5.50319C8.81563 5.4817 8.83235 5.47215 8.84429 5.47931C8.85623 5.48648 8.85145 5.50558 8.83474 5.52469ZM4.13976 5.57722C4.1111 5.62499 4.10633 5.61066 4.12782 5.54857C4.13737 5.52707 4.14931 5.51513 4.15409 5.5223C4.16125 5.52707 4.15409 5.55334 4.13976 5.57722ZM4.34991 5.58916C4.33797 5.61305 4.33319 5.64648 4.34275 5.66319C4.3523 5.67991 4.34991 5.6823 4.33797 5.67275C4.30454 5.6417 4.30931 5.54379 4.34513 5.54379C4.36424 5.54379 4.36663 5.55573 4.34991 5.58916ZM1.70152 5.59394C1.70152 5.59872 1.68242 5.61782 1.66093 5.63454C1.62272 5.66558 1.62033 5.66319 1.65137 5.62499C1.68242 5.58678 1.70152 5.57484 1.70152 5.59394ZM4.09916 5.65842C4.092 5.67036 4.07528 5.67514 4.06334 5.66797C4.0514 5.65842 4.04185 5.66558 4.04185 5.67752C4.04185 5.69185 4.02991 5.70379 4.01319 5.70379C3.99886 5.70379 4.00603 5.68469 4.02991 5.65603C4.0705 5.61066 4.12782 5.61305 4.09916 5.65842ZM9.12369 5.69185C9.11653 5.69902 9.1022 5.68708 9.09504 5.66319C9.08071 5.62976 9.0831 5.62737 9.10698 5.64887C9.12369 5.66558 9.13086 5.68469 9.12369 5.69185ZM4.25916 5.72051C4.23051 5.76827 4.22573 5.75394 4.24722 5.69185C4.25677 5.67036 4.26872 5.65842 4.27349 5.66558C4.28066 5.67036 4.27349 5.69663 4.25916 5.72051ZM1.70152 5.742C1.70152 5.76111 1.65615 5.77305 1.64421 5.75633C1.63704 5.74439 1.6466 5.73484 1.6657 5.73484C1.68481 5.73484 1.70152 5.73961 1.70152 5.742ZM28.4003 5.76111C28.4003 5.76827 28.3908 5.78021 28.3764 5.78738C28.3645 5.79454 28.3526 5.78976 28.3526 5.77782C28.3526 5.76349 28.3645 5.75155 28.3764 5.75155C28.3908 5.75155 28.4003 5.75633 28.4003 5.76111ZM28.2475 5.83991C28.2308 5.85663 28.1854 5.8232 28.1854 5.79454C28.1854 5.78021 28.1997 5.78021 28.2212 5.79932C28.2427 5.81603 28.2523 5.83514 28.2475 5.83991ZM28.4385 5.84708C28.4385 5.87573 28.429 5.88529 28.417 5.87335C28.4051 5.86141 28.4027 5.83991 28.4099 5.82558C28.4338 5.78976 28.4385 5.79215 28.4385 5.84708ZM3.92961 5.90439C3.92244 5.91394 3.90811 5.90917 3.89617 5.89245C3.86513 5.83991 3.8699 5.81842 3.90811 5.85185C3.92722 5.86857 3.93677 5.89245 3.92961 5.90439ZM1.49615 5.9235C1.49376 5.95454 1.48898 5.9832 1.48898 5.98797C1.48659 5.99514 1.47465 5.98797 1.45794 5.97126C1.43883 5.95215 1.43883 5.93544 1.46271 5.90678C1.50092 5.85902 1.50331 5.86141 1.49615 5.9235ZM7.67174 5.97603C7.67174 5.98081 7.65741 5.99753 7.6383 6.01186C7.61204 6.03335 7.6001 6.03335 7.58577 6.01186C7.57621 5.99514 7.5786 5.99036 7.59532 5.99991C7.60965 6.00708 7.62636 6.00469 7.63592 5.99036C7.65024 5.96648 7.67174 5.95693 7.67174 5.97603ZM28.4887 6.06678C28.4815 6.08589 28.4744 6.07872 28.4744 6.05245C28.472 6.02618 28.4791 6.01186 28.4863 6.02141C28.4935 6.02857 28.4959 6.05006 28.4887 6.06678ZM23.8558 6.07633C23.8486 6.0835 23.8271 6.08589 23.8104 6.07872C23.7913 6.07156 23.7985 6.06439 23.8248 6.06439C23.851 6.06201 23.8654 6.06917 23.8558 6.07633ZM25.2122 6.0835C25.2194 6.09544 25.217 6.11216 25.2051 6.11932C25.1931 6.12648 25.1836 6.11693 25.1836 6.09783C25.1836 6.05723 25.1907 6.05245 25.2122 6.0835ZM25.0976 6.10021C25.0904 6.10738 25.0689 6.10977 25.0522 6.1026C25.0331 6.09544 25.0403 6.08827 25.0666 6.08827C25.0928 6.08589 25.1072 6.09305 25.0976 6.10021ZM28.3191 6.17663C28.2785 6.21484 28.2761 6.21484 28.3072 6.16469C28.3239 6.13604 28.343 6.11693 28.3502 6.1241C28.3573 6.12887 28.343 6.15275 28.3191 6.17663ZM29.6684 6.15036C29.6994 6.18857 29.6971 6.19096 29.6612 6.15992C29.6206 6.12887 29.6087 6.10977 29.6278 6.10977C29.6326 6.10977 29.6517 6.12887 29.6684 6.15036ZM25.974 6.25783C25.9669 6.26738 25.9478 6.26977 25.9287 6.26022C25.8785 6.2435 25.8833 6.23156 25.9382 6.23634C25.9645 6.23634 25.9812 6.24828 25.974 6.25783ZM1.21913 6.30081C1.20241 6.32469 1.1857 6.34141 1.17853 6.33664C1.16898 6.32708 1.22152 6.25305 1.23823 6.25305C1.24301 6.25305 1.23585 6.27454 1.21913 6.30081ZM14.9745 6.31275C14.9673 6.31992 14.953 6.30798 14.9458 6.2841C14.9315 6.25066 14.9339 6.24828 14.9578 6.26977C14.9745 6.28649 14.9817 6.30559 14.9745 6.31275ZM14.8121 6.33664C14.8455 6.38201 14.8455 6.38201 14.8073 6.35096C14.7835 6.33425 14.7644 6.30798 14.7644 6.29365C14.7644 6.27932 14.7667 6.27454 14.7715 6.27932C14.7739 6.2841 14.793 6.31037 14.8121 6.33664ZM14.7333 6.37723C14.7261 6.39634 14.719 6.38917 14.719 6.3629C14.7166 6.33664 14.7238 6.32231 14.7309 6.33186C14.7381 6.33902 14.7405 6.36052 14.7333 6.37723ZM15.039 6.34619C15.0461 6.35813 15.0438 6.37484 15.0318 6.38201C15.0199 6.38917 15.0103 6.37962 15.0103 6.36052C15.0103 6.31992 15.0175 6.31514 15.039 6.34619ZM18.2629 6.39395L18.3107 6.45126L18.2581 6.41783C18.2271 6.39873 18.2032 6.37007 18.2032 6.35096C18.2032 6.33186 18.2056 6.32231 18.2104 6.32708C18.2128 6.33186 18.2366 6.3629 18.2629 6.39395ZM19.8032 6.3844C19.7865 6.4035 19.7626 6.42022 19.7483 6.42022C19.734 6.42022 19.7435 6.4035 19.7698 6.3844C19.8295 6.33902 19.8414 6.33902 19.8032 6.3844ZM26.5281 6.43455C26.5305 6.45604 26.5281 6.46559 26.5185 6.45843C26.5114 6.44888 26.5018 6.42499 26.4994 6.40589C26.497 6.3844 26.4994 6.37484 26.509 6.38201C26.5161 6.39156 26.5257 6.41544 26.5281 6.43455ZM4.80603 6.4441C4.78693 6.45604 4.76066 6.46798 4.74633 6.46798C4.73439 6.46798 4.73917 6.45604 4.75827 6.4441C4.77738 6.43216 4.80603 6.42022 4.81798 6.42022C4.8323 6.42022 4.82514 6.43216 4.80603 6.4441ZM4.6532 6.52052C4.66275 6.53723 4.66036 6.53962 4.64126 6.53007C4.62454 6.52052 4.57917 6.54201 4.52902 6.585C4.48364 6.62559 4.43827 6.65903 4.43111 6.65903C4.412 6.65903 4.59827 6.49425 4.61976 6.49186C4.62932 6.49186 4.64364 6.5038 4.6532 6.52052ZM19.7244 6.55156C19.7244 6.59932 19.7149 6.59694 19.6838 6.53962C19.6647 6.5038 19.6647 6.49664 19.691 6.50619C19.7101 6.51335 19.7244 6.53246 19.7244 6.55156ZM0.987485 6.59455C0.963604 6.61604 0.961216 6.61365 0.975544 6.58022C0.982709 6.55634 0.997037 6.5444 1.0042 6.55156C1.01137 6.55873 1.0042 6.57783 0.987485 6.59455ZM4.43349 6.58977C4.42633 6.60171 4.40961 6.60649 4.39767 6.59694C4.38573 6.58977 4.38096 6.57306 4.39051 6.56112C4.39767 6.54917 4.41439 6.5444 4.42633 6.55395C4.43827 6.56112 4.44305 6.57783 4.43349 6.58977ZM19.2301 6.58738C19.2301 6.59932 19.2205 6.61126 19.2062 6.61126C19.1943 6.61126 19.1823 6.59932 19.1823 6.58738C19.1823 6.57306 19.1943 6.5635 19.2062 6.5635C19.2205 6.5635 19.2301 6.57306 19.2301 6.58738ZM18.6928 6.61126C18.6999 6.62559 18.6904 6.62798 18.6713 6.62082C18.6283 6.6041 18.6211 6.58738 18.6545 6.58738C18.6689 6.58738 18.6856 6.59694 18.6928 6.61126ZM3.75766 6.66619C3.73378 6.68768 3.7314 6.6853 3.74572 6.65186C3.75289 6.62798 3.76722 6.61604 3.77438 6.62321C3.78155 6.63037 3.77438 6.64947 3.75766 6.66619ZM18.6092 6.63515C18.6092 6.64709 18.6044 6.65903 18.5996 6.65903C18.5925 6.65903 18.5805 6.64709 18.5734 6.63515C18.5662 6.62082 18.571 6.61126 18.5829 6.61126C18.5972 6.61126 18.6092 6.62082 18.6092 6.63515ZM19.8343 6.65903C19.8438 6.65903 19.8462 6.64709 19.839 6.63515C19.8152 6.59455 19.8438 6.60888 19.8772 6.65186C19.894 6.67574 19.9011 6.68768 19.8892 6.67813C19.8772 6.66858 19.8462 6.67336 19.8175 6.68768C19.7913 6.70201 19.7746 6.7044 19.7841 6.69485C19.7937 6.68291 19.7889 6.65903 19.7746 6.63753C19.7507 6.60649 19.7507 6.6041 19.7793 6.62798C19.7984 6.6447 19.8223 6.65903 19.8343 6.65903ZM15.1417 6.69485C15.1345 6.70201 15.1202 6.69007 15.113 6.66619C15.0987 6.63276 15.1011 6.63037 15.125 6.65186C15.1417 6.66858 15.1488 6.68768 15.1417 6.69485ZM18.8408 6.64947C18.8337 6.65664 18.8122 6.65903 18.7954 6.65186C18.7763 6.6447 18.7835 6.63753 18.8098 6.63753C18.836 6.63515 18.8504 6.64231 18.8408 6.64947ZM4.37618 6.66858C4.37618 6.67336 4.35946 6.69007 4.34036 6.70679C4.30931 6.73306 4.30692 6.73067 4.31887 6.69724C4.33081 6.6638 4.37618 6.64231 4.37618 6.66858ZM14.9411 6.69724C14.9482 6.71634 14.9458 6.72589 14.9315 6.71873C14.9172 6.71156 14.9076 6.69485 14.9076 6.68052C14.9076 6.64709 14.9244 6.65425 14.9411 6.69724ZM19.2611 6.67574C19.2444 6.68052 19.2157 6.68052 19.2014 6.67574C19.1847 6.66858 19.1966 6.6638 19.2301 6.6638C19.2635 6.6638 19.2754 6.66858 19.2611 6.67574ZM3.49975 6.74261C3.49259 6.7641 3.48065 6.77604 3.47587 6.76888C3.46871 6.76171 3.47109 6.74739 3.48065 6.73306C3.50214 6.69485 3.51647 6.70201 3.49975 6.74261ZM4.26872 6.73067C4.27588 6.74261 4.2711 6.75455 4.25916 6.75455C4.24483 6.75455 4.23289 6.74261 4.23289 6.73067C4.23289 6.71634 4.23767 6.70679 4.24245 6.70679C4.24961 6.70679 4.26155 6.71634 4.26872 6.73067ZM27.0272 6.75455C27.0343 6.76888 27.0248 6.77127 27.0057 6.7641C26.9627 6.74739 26.9555 6.73067 26.989 6.73067C27.0033 6.73067 27.02 6.74022 27.0272 6.75455ZM4.17797 6.79037C4.17797 6.80948 4.16842 6.81903 4.15648 6.81186C4.14453 6.8047 4.14215 6.78798 4.14931 6.77604C4.1708 6.745 4.17797 6.74977 4.17797 6.79037ZM15.242 6.7641C15.242 6.76888 15.2229 6.78798 15.2014 6.8047C15.1632 6.83575 15.1608 6.83336 15.1918 6.79515C15.2229 6.75694 15.242 6.745 15.242 6.7641ZM4.10155 6.87395C4.10871 6.88828 4.09916 6.89067 4.08006 6.88351C4.03707 6.86679 4.02991 6.85007 4.06334 6.85007C4.07767 6.85007 4.09438 6.85963 4.10155 6.87395ZM15.0748 6.89784C15.1035 6.91455 15.0987 6.91933 15.0557 6.91455C15.027 6.91455 15.0032 6.90261 15.0032 6.89306C15.0032 6.86679 15.0318 6.86918 15.0748 6.89784ZM3.87707 6.96231C3.90811 7.00052 3.90573 7.00291 3.8699 6.97187C3.83647 6.9456 3.82692 6.9456 3.82692 6.96948C3.82692 6.98858 3.81976 6.99575 3.81259 6.98619C3.80065 6.97425 3.81976 6.92172 3.83647 6.92172C3.84125 6.92172 3.86035 6.94082 3.87707 6.96231ZM3.94871 6.96231C3.97976 7.00052 3.97737 7.00291 3.94155 6.97187C3.91767 6.95515 3.89856 6.93604 3.89856 6.93127C3.89856 6.91216 3.91767 6.9241 3.94871 6.96231ZM5.69679 7.07694C5.68963 7.09843 5.67769 7.11037 5.67291 7.10321C5.66575 7.09605 5.66813 7.08172 5.67769 7.06739C5.69918 7.02918 5.71351 7.03634 5.69679 7.07694ZM3.80304 7.13664C3.8317 7.15336 3.82692 7.15814 3.78393 7.15336C3.75528 7.15336 3.7314 7.14142 3.7314 7.13187C3.7314 7.1056 3.76005 7.10799 3.80304 7.13664ZM3.56423 7.18441C3.56423 7.21067 3.55468 7.23217 3.54274 7.23217C3.5308 7.23217 3.52602 7.21067 3.53318 7.18441C3.54035 7.15814 3.5499 7.13664 3.55468 7.13664C3.55945 7.13664 3.56423 7.15814 3.56423 7.18441ZM15.402 7.17247C15.402 7.19157 15.3924 7.20112 15.3805 7.19396C15.3685 7.18679 15.3662 7.17008 15.3733 7.15814C15.3948 7.12709 15.402 7.13187 15.402 7.17247ZM20.651 7.18441C20.6438 7.19635 20.6462 7.20829 20.6605 7.20829C20.6749 7.20829 20.6796 7.225 20.6725 7.24411C20.651 7.29903 20.6223 7.28709 20.6295 7.225C20.6367 7.16052 20.6367 7.16052 20.6534 7.16052C20.6605 7.16052 20.6582 7.17008 20.651 7.18441ZM27.3018 7.29426C27.3018 7.31336 27.2564 7.3253 27.2445 7.30859C27.2373 7.29665 27.2469 7.28709 27.266 7.28709C27.2851 7.28709 27.3018 7.29187 27.3018 7.29426ZM29.8571 7.31814C29.8571 7.33724 29.8117 7.34918 29.7997 7.33247C29.7926 7.32053 29.8021 7.31097 29.8212 7.31097C29.8403 7.31097 29.8571 7.31575 29.8571 7.31814ZM3.56423 7.33724C3.56423 7.34202 3.54513 7.36112 3.52363 7.37784C3.48542 7.40889 3.48303 7.4065 3.51408 7.36829C3.54513 7.33008 3.56423 7.31814 3.56423 7.33724ZM3.65737 7.36829C3.64304 7.385 3.61677 7.39933 3.60244 7.39695C3.58572 7.39695 3.58811 7.39217 3.60722 7.38262C3.62154 7.37784 3.6311 7.36351 3.62632 7.35396C3.61916 7.34441 3.62871 7.33486 3.64781 7.33486C3.67408 7.33486 3.67647 7.34441 3.65737 7.36829ZM15.6241 7.33486C15.6241 7.33963 15.6002 7.36351 15.5715 7.38978L15.5166 7.43515L15.562 7.38023C15.605 7.33008 15.6241 7.31575 15.6241 7.33486ZM15.3232 7.39456C15.3303 7.4065 15.3208 7.41605 15.3017 7.41605C15.2826 7.41605 15.273 7.4065 15.2802 7.39456C15.2873 7.385 15.2969 7.37545 15.3017 7.37545C15.3064 7.37545 15.316 7.385 15.3232 7.39456ZM15.6479 7.385C15.6479 7.38978 15.6288 7.40889 15.6073 7.4256C15.5691 7.45665 15.5668 7.45426 15.5978 7.41605C15.6288 7.37784 15.6479 7.3659 15.6479 7.385ZM20.8802 7.39217C20.8564 7.40172 20.8564 7.40889 20.8755 7.42321C20.897 7.43515 20.8946 7.4471 20.8659 7.47098C20.8349 7.49724 20.8325 7.49486 20.8444 7.45904C20.8588 7.4256 20.854 7.42083 20.8277 7.43515C20.799 7.45426 20.799 7.44948 20.8277 7.41605C20.8444 7.39456 20.8731 7.37545 20.8874 7.37784C20.9017 7.37784 20.8993 7.385 20.8802 7.39217ZM29.8571 7.38978C29.8571 7.40889 29.8117 7.42083 29.7997 7.40411C29.7926 7.39217 29.8021 7.38262 29.8212 7.38262C29.8403 7.38262 29.8571 7.38739 29.8571 7.38978ZM28.3764 7.48292C28.3764 7.49486 28.3645 7.49008 28.3526 7.47098C28.3406 7.45187 28.3287 7.42321 28.3287 7.41127C28.3287 7.39695 28.3406 7.40411 28.3526 7.42321C28.3645 7.44232 28.3764 7.46859 28.3764 7.48292ZM0.669869 7.48292C0.662705 7.49008 0.648377 7.47814 0.641212 7.45426C0.626884 7.42083 0.629272 7.41844 0.653153 7.43993C0.669869 7.45665 0.677034 7.47575 0.669869 7.48292ZM15.4187 7.47575C15.4115 7.4853 15.3972 7.49486 15.3829 7.49486C15.3709 7.49486 15.3614 7.4853 15.3614 7.47575C15.3614 7.46381 15.3781 7.45426 15.3972 7.45426C15.4163 7.45426 15.4259 7.46381 15.4187 7.47575ZM15.7268 7.53545C15.7196 7.55217 15.7124 7.5665 15.7076 7.5665C15.7029 7.5665 15.6957 7.55217 15.6885 7.53545C15.6814 7.51635 15.6909 7.50202 15.7076 7.50202C15.7244 7.50202 15.7339 7.51635 15.7268 7.53545ZM28.0373 7.59038C28.0206 7.61426 28.0039 7.63098 27.9967 7.6262C27.9872 7.61665 28.0397 7.54262 28.0564 7.54262C28.0612 7.54262 28.0541 7.56411 28.0373 7.59038ZM18.9435 7.57605C18.9435 7.58083 18.9268 7.59277 18.9053 7.59993C18.8862 7.6071 18.8766 7.60471 18.8838 7.59038C18.8981 7.5665 18.9435 7.55695 18.9435 7.57605ZM15.562 7.63575C15.5691 7.64769 15.5572 7.67157 15.5333 7.68829C15.4951 7.71934 15.4951 7.71934 15.5285 7.67635C15.562 7.63337 15.5596 7.63098 15.5214 7.64531C15.4951 7.65486 15.4832 7.65247 15.4927 7.63814C15.5118 7.60948 15.5453 7.6071 15.562 7.63575ZM28.2308 7.64531C28.2499 7.66919 28.2475 7.67874 28.226 7.67874C28.2069 7.67874 28.1926 7.66441 28.1926 7.64531C28.1926 7.62859 28.195 7.61426 28.1973 7.61426C28.2021 7.61426 28.2164 7.62859 28.2308 7.64531ZM6.11948 7.64769C6.11948 7.65247 6.10277 7.66441 6.08127 7.67157C6.06217 7.67874 6.05262 7.67635 6.05978 7.66202C6.07411 7.63814 6.11948 7.62859 6.11948 7.64769ZM8.93265 7.72172C8.92548 7.72889 8.91115 7.71695 8.90399 7.69307C8.88966 7.65963 8.89205 7.65725 8.91593 7.67874C8.93265 7.69546 8.93981 7.71456 8.93265 7.72172ZM27.9108 7.68351C27.9179 7.69546 27.9155 7.71217 27.9036 7.71934C27.8917 7.7265 27.8821 7.71695 27.8821 7.69784C27.8821 7.65725 27.8893 7.65247 27.9108 7.68351ZM19.5811 7.70023C19.574 7.70978 19.5763 7.73844 19.5907 7.7671C19.6146 7.81486 19.6122 7.81486 19.5787 7.77187C19.5453 7.73128 19.5477 7.6859 19.5811 7.6859C19.5907 7.6859 19.5883 7.69307 19.5811 7.70023ZM16.8014 7.7265C16.7847 7.73128 16.756 7.73128 16.7417 7.7265C16.725 7.71934 16.7369 7.71456 16.7703 7.71456C16.8038 7.71456 16.8157 7.71934 16.8014 7.7265ZM17.1357 7.74561C17.1286 7.7671 17.1166 7.77904 17.1118 7.77187C17.1047 7.76471 17.1071 7.75038 17.1166 7.73605C17.1381 7.69784 17.1524 7.70501 17.1357 7.74561ZM19.6456 7.74799C19.6528 7.7671 19.6504 7.77665 19.636 7.76949C19.6217 7.76232 19.6122 7.74561 19.6122 7.73128C19.6122 7.69784 19.6289 7.70501 19.6456 7.74799ZM29.7138 7.73366C29.7138 7.74561 29.709 7.75755 29.7042 7.75755C29.6971 7.75755 29.6851 7.74561 29.678 7.73366C29.6708 7.71934 29.6756 7.70978 29.6875 7.70978C29.7018 7.70978 29.7138 7.71934 29.7138 7.73366ZM19.5262 7.75277C19.531 7.76232 19.5143 7.77426 19.4856 7.77426C19.445 7.77904 19.4402 7.77426 19.4689 7.75755C19.5119 7.72889 19.5119 7.72889 19.5262 7.75277ZM28.109 7.78143C28.0923 7.80531 28.0755 7.82202 28.0684 7.81725C28.0588 7.8077 28.1114 7.73366 28.1281 7.73366C28.1329 7.73366 28.1257 7.75516 28.109 7.78143ZM16.7871 7.77187C16.7799 7.77904 16.7584 7.78143 16.7417 7.77426C16.7226 7.7671 16.7297 7.75993 16.756 7.75993C16.7823 7.75755 16.7966 7.76471 16.7871 7.77187ZM19.3734 7.79576C19.3734 7.81486 19.328 7.8268 19.316 7.81008C19.3089 7.79814 19.3184 7.78859 19.3375 7.78859C19.3566 7.78859 19.3734 7.79337 19.3734 7.79576ZM15.7196 7.81964C15.7196 7.83874 15.6742 7.85068 15.6623 7.83396C15.6551 7.82202 15.6647 7.81247 15.6838 7.81247C15.7029 7.81247 15.7196 7.81725 15.7196 7.81964ZM28.1615 7.81486C28.1615 7.82202 28.152 7.83396 28.1376 7.84113C28.1257 7.84829 28.1138 7.84352 28.1138 7.83158C28.1138 7.81725 28.1257 7.80531 28.1376 7.80531C28.152 7.80531 28.1615 7.81008 28.1615 7.81486ZM19.6217 7.87934C19.6146 7.89128 19.5978 7.89605 19.5859 7.8865C19.574 7.87934 19.5692 7.86262 19.5787 7.85068C19.5859 7.83874 19.6026 7.83396 19.6146 7.84352C19.6265 7.85068 19.6313 7.8674 19.6217 7.87934ZM29.666 7.83874C29.666 7.8459 29.6565 7.85785 29.6421 7.86501C29.6302 7.87217 29.6183 7.8674 29.6183 7.85546C29.6183 7.84113 29.6302 7.82919 29.6421 7.82919C29.6565 7.82919 29.666 7.83396 29.666 7.83874ZM20.7823 7.91038C20.7656 7.9271 20.7513 7.9271 20.7346 7.91038C20.7202 7.89605 20.7274 7.8865 20.7585 7.8865C20.7895 7.8865 20.7967 7.89605 20.7823 7.91038ZM27.7794 7.92471C27.7484 7.98203 27.746 7.98203 27.7054 7.93188C27.6863 7.91038 27.6839 7.89844 27.6958 7.90561C27.7102 7.91516 27.7364 7.91277 27.7555 7.89844C27.8057 7.8674 27.8081 7.87217 27.7794 7.92471ZM17.5441 7.91994C17.5513 7.93188 17.5417 7.94143 17.5226 7.94143C17.5035 7.94143 17.4939 7.93188 17.5011 7.91994C17.5083 7.91038 17.5178 7.90083 17.5226 7.90083C17.5274 7.90083 17.5369 7.91038 17.5441 7.91994ZM28.0015 8.00829C27.98 8.0465 27.9776 8.0465 27.9633 8.01068C27.9514 7.98203 27.9561 7.97486 27.9752 7.9868C27.9944 7.99874 27.9967 7.98919 27.9848 7.95814C27.9729 7.92471 27.9752 7.91994 27.9944 7.94143C28.0135 7.95814 28.0158 7.98203 28.0015 8.00829ZM29.5227 7.97247C29.5084 7.99874 29.4917 8.02024 29.4845 8.02024C29.4797 8.02024 29.4845 7.99874 29.4988 7.97247C29.5132 7.9462 29.5299 7.92471 29.5371 7.92471C29.5418 7.92471 29.5371 7.9462 29.5227 7.97247ZM5.61798 7.9677C5.61798 7.97964 5.60127 8.00829 5.58216 8.03456C5.54873 8.07755 5.54873 8.07516 5.57261 8.01307C5.60127 7.94859 5.61798 7.93188 5.61798 7.9677ZM17.6898 7.97247C17.6969 7.9868 17.6874 7.98919 17.6683 7.98203C17.6253 7.96531 17.6181 7.94859 17.6515 7.94859C17.6659 7.94859 17.6826 7.95814 17.6898 7.97247ZM17.2002 7.9868C17.2002 8.00591 17.1548 8.01785 17.1429 8.00113C17.1357 7.98919 17.1453 7.97964 17.1644 7.97964C17.1835 7.97964 17.2002 7.98441 17.2002 7.9868ZM17.4605 7.97964C17.4557 7.98203 17.4295 8.00113 17.4032 8.02024C17.3578 8.05367 17.3578 8.05367 17.3889 8.01307C17.4056 7.99158 17.4318 7.97247 17.4462 7.97247C17.4605 7.97247 17.4653 7.97486 17.4605 7.97964ZM15.9035 8.03695C15.9035 8.05844 15.8939 8.06083 15.87 8.04173C15.8533 8.0274 15.839 8.01307 15.839 8.00829C15.839 8.00591 15.8533 8.00352 15.87 8.00352C15.8891 8.00352 15.9035 8.01785 15.9035 8.03695ZM8.77026 8.03456C8.77026 8.05367 8.72488 8.06561 8.71294 8.04889C8.70578 8.03695 8.71533 8.0274 8.73444 8.0274C8.75354 8.0274 8.77026 8.03218 8.77026 8.03456ZM17.0617 8.05606C17.0617 8.068 17.0498 8.08233 17.0354 8.0871C17.0211 8.09188 17.0092 8.07755 17.0092 8.05606C17.0092 8.03456 17.0211 8.02024 17.0354 8.02501C17.0498 8.02979 17.0617 8.04412 17.0617 8.05606ZM16.0062 8.10382C16.0229 8.12531 16.0253 8.13964 16.0109 8.13964C15.999 8.13964 15.9823 8.12292 15.9727 8.10382C15.9656 8.08471 15.9632 8.068 15.9679 8.068C15.9727 8.068 15.9894 8.08471 16.0062 8.10382ZM17.4868 8.07755C17.4868 8.08233 17.4677 8.10143 17.4462 8.11815C17.408 8.14919 17.4056 8.1468 17.4366 8.10859C17.4677 8.07038 17.4868 8.05844 17.4868 8.07755ZM17.5584 8.07755C17.5584 8.08233 17.5393 8.10143 17.5178 8.11815C17.4796 8.14919 17.4772 8.1468 17.5083 8.10859C17.5393 8.07038 17.5584 8.05844 17.5584 8.07755ZM15.9369 8.13248C15.9679 8.17068 15.9656 8.17307 15.9297 8.14203C15.9059 8.12531 15.8868 8.10621 15.8868 8.10143C15.8868 8.08233 15.9059 8.09427 15.9369 8.13248ZM17.2121 8.11576C17.2193 8.13009 17.2098 8.13248 17.1906 8.12531C17.1477 8.10859 17.1405 8.09188 17.1739 8.09188C17.1883 8.09188 17.205 8.10143 17.2121 8.11576ZM27.1609 8.18024C27.1323 8.228 27.1275 8.21367 27.149 8.15158C27.1585 8.13009 27.1705 8.11815 27.1752 8.12531C27.1824 8.13009 27.1752 8.15636 27.1609 8.18024ZM6.24605 8.18024C6.23889 8.19695 6.23172 8.21128 6.22695 8.21128C6.22217 8.21128 6.21501 8.19695 6.20784 8.18024C6.20068 8.16113 6.21023 8.1468 6.22695 8.1468C6.24366 8.1468 6.25321 8.16113 6.24605 8.18024ZM18.1125 8.19934C18.1125 8.21128 18.1005 8.22322 18.0862 8.228C18.0671 8.23039 18.0695 8.228 18.0862 8.21845C18.1053 8.20889 18.1029 8.19934 18.0814 8.18262C18.0551 8.16352 18.0551 8.16113 18.079 8.1683C18.0981 8.17307 18.1125 8.1874 18.1125 8.19934ZM16.1518 8.228C16.1829 8.26621 16.1805 8.2686 16.1447 8.23755C16.1208 8.22083 16.1017 8.20173 16.1017 8.19695C16.1017 8.17785 16.1208 8.18979 16.1518 8.228ZM17.408 8.20173C17.4008 8.20889 17.3793 8.21128 17.3626 8.20412C17.3435 8.19695 17.3507 8.18979 17.3769 8.18979C17.4032 8.1874 17.4175 8.19457 17.408 8.20173ZM17.9166 8.19695C17.9166 8.20412 17.9071 8.21606 17.8927 8.22322C17.8808 8.23039 17.8689 8.22561 17.8689 8.21367C17.8689 8.19934 17.8808 8.1874 17.8927 8.1874C17.9071 8.1874 17.9166 8.19218 17.9166 8.19695ZM27.8511 8.21128C27.8511 8.22322 27.8391 8.23516 27.8248 8.23516C27.8129 8.23516 27.8081 8.22322 27.8152 8.21128C27.8224 8.19695 27.8344 8.1874 27.8415 8.1874C27.8463 8.1874 27.8511 8.19695 27.8511 8.21128ZM5.84246 8.28054C5.83769 8.2877 5.81381 8.27337 5.78993 8.24949C5.75172 8.20889 5.75172 8.20651 5.80187 8.23755C5.83052 8.25427 5.84963 8.27337 5.84246 8.28054ZM3.49736 8.2686C3.51408 8.25904 3.51647 8.26382 3.50692 8.28054C3.48542 8.31158 3.44483 8.29248 3.44721 8.25188C3.44721 8.23039 3.45199 8.23277 3.46154 8.25427C3.46632 8.2686 3.48542 8.27576 3.49736 8.2686ZM5.68007 8.27815C5.67291 8.28531 5.68007 8.30681 5.6944 8.3283C5.71828 8.35934 5.71828 8.36173 5.68963 8.33785C5.65142 8.30203 5.6347 8.228 5.67052 8.24949C5.68246 8.25666 5.68724 8.27098 5.68007 8.27815ZM27.5406 8.24472C27.5406 8.24949 27.5215 8.2686 27.5 8.28531C27.4618 8.31636 27.4594 8.31397 27.4905 8.27576C27.5215 8.23755 27.5406 8.22561 27.5406 8.24472ZM6.56367 8.3283C6.56367 8.3689 6.5565 8.39516 6.54934 8.39039C6.5374 8.38322 6.53501 8.29964 6.54695 8.26382C6.5565 8.23994 6.56367 8.27098 6.56367 8.3283ZM8.76309 8.29486C8.76309 8.31397 8.75354 8.32352 8.7416 8.31636C8.72966 8.30919 8.72727 8.29248 8.73444 8.28054C8.75593 8.24949 8.76309 8.25427 8.76309 8.29486ZM20.1137 8.29486C20.097 8.31397 20.0731 8.33069 20.0587 8.33069C20.0444 8.33069 20.054 8.31397 20.0802 8.29486C20.1399 8.24949 20.1519 8.24949 20.1137 8.29486ZM27.3758 8.31397C27.3352 8.35457 27.3448 8.37845 27.3926 8.36173C27.4236 8.34979 27.426 8.35457 27.4045 8.37845C27.3496 8.43576 27.3209 8.37606 27.3472 8.26382C27.3496 8.25904 27.3615 8.26382 27.3758 8.27337C27.3949 8.28292 27.3949 8.29486 27.3758 8.31397ZM5.88784 8.31875C5.88067 8.34024 5.86873 8.35218 5.86396 8.34501C5.85679 8.33785 5.85918 8.32352 5.86873 8.30919C5.89023 8.27098 5.90455 8.27815 5.88784 8.31875ZM19.8677 8.29725C19.8605 8.30442 19.839 8.30681 19.8223 8.29964C19.8032 8.29248 19.8104 8.28531 19.8366 8.28531C19.8629 8.28292 19.8772 8.29009 19.8677 8.29725ZM17.7686 8.36651C17.7614 8.37367 17.7471 8.36173 17.7399 8.33785C17.7256 8.30442 17.728 8.30203 17.7518 8.32352C17.7686 8.34024 17.7757 8.35934 17.7686 8.36651ZM29.2505 8.35457C29.2505 8.38322 29.2409 8.39278 29.229 8.38084C29.2171 8.3689 29.2147 8.3474 29.2218 8.33307C29.2457 8.29725 29.2505 8.29964 29.2505 8.35457ZM3.53318 8.36651C3.54274 8.37606 3.54035 8.37845 3.52363 8.37128C3.5093 8.36173 3.49259 8.36651 3.48781 8.38322C3.48065 8.40233 3.47348 8.39755 3.46393 8.37367C3.44721 8.33307 3.49975 8.3283 3.53318 8.36651ZM6.65441 8.38084C6.64725 8.39278 6.63053 8.39755 6.61859 8.388C6.60665 8.38084 6.60188 8.36412 6.61143 8.35218C6.61859 8.34024 6.63531 8.33546 6.64725 8.34501C6.65919 8.35218 6.66397 8.3689 6.65441 8.38084ZM6.44665 8.43099C6.43949 8.45009 6.43232 8.44293 6.43232 8.41666C6.42993 8.39039 6.4371 8.37606 6.44426 8.38561C6.45143 8.39278 6.45381 8.41427 6.44665 8.43099ZM17.8832 8.41427C17.8569 8.43337 17.845 8.46203 17.8545 8.48591C17.8617 8.5074 17.8593 8.51696 17.845 8.50979C17.8068 8.48591 17.8163 8.43099 17.8641 8.40472C17.9238 8.3689 17.9357 8.37367 17.8832 8.41427ZM27.6839 8.41666C27.6839 8.43576 27.6385 8.4477 27.6266 8.43099C27.6194 8.41905 27.629 8.40949 27.6481 8.40949C27.6672 8.40949 27.6839 8.41427 27.6839 8.41666ZM5.86157 8.49308C5.8544 8.51696 5.85918 8.52412 5.8759 8.51218C5.895 8.50024 5.89978 8.5074 5.89023 8.53367C5.87351 8.57666 5.87351 8.57666 5.83769 8.5074C5.81858 8.4692 5.81858 8.45725 5.84485 8.45725C5.86157 8.45725 5.87112 8.47397 5.86157 8.49308ZM29.0833 8.48591C29.0809 8.50502 29.0714 8.52651 29.0642 8.53606C29.0523 8.54561 29.0547 8.49785 29.0666 8.45487C29.0738 8.43337 29.0881 8.45725 29.0833 8.48591ZM27.254 8.48352C27.254 8.4883 27.2349 8.5074 27.2134 8.52412C27.1752 8.55517 27.1729 8.55278 27.2039 8.51457C27.2349 8.47636 27.254 8.46442 27.254 8.48352ZM6.88367 8.55994C6.88367 8.56472 6.86218 8.55994 6.83591 8.54561C6.80964 8.53129 6.78815 8.51457 6.78815 8.5074C6.78815 8.50263 6.80964 8.5074 6.83591 8.52173C6.86218 8.53606 6.88367 8.55278 6.88367 8.55994ZM6.1768 8.55039C6.16486 8.56711 6.1959 8.57905 6.24127 8.57427C6.24844 8.57188 6.2556 8.58621 6.2556 8.60532C6.2556 8.63159 6.23889 8.62681 6.18635 8.59099C6.10993 8.53606 6.10754 8.5289 6.1553 8.5289C6.17441 8.5289 6.18396 8.53845 6.1768 8.55039ZM8.86578 8.60532C8.86578 8.61726 8.85384 8.61248 8.8419 8.59338C8.82996 8.57427 8.81802 8.54561 8.81802 8.53367C8.81802 8.51935 8.82996 8.52651 8.8419 8.54561C8.85384 8.56472 8.86578 8.59099 8.86578 8.60532ZM26.9699 8.60054C26.946 8.62203 26.9436 8.61964 26.9579 8.58621C26.9651 8.56233 26.9794 8.55039 26.9866 8.55755C26.9937 8.56472 26.9866 8.58382 26.9699 8.60054ZM27.4523 8.58144C27.4451 8.60293 27.4332 8.61487 27.4284 8.6077C27.4212 8.60054 27.4236 8.58621 27.4332 8.57188C27.4546 8.53367 27.469 8.54084 27.4523 8.58144ZM0.500315 8.69368C0.493151 8.71278 0.485987 8.70562 0.485987 8.67935C0.483599 8.65308 0.490763 8.63875 0.497927 8.6483C0.505091 8.65547 0.507479 8.67696 0.500315 8.69368ZM6.07172 8.6483C6.07172 8.65308 6.04784 8.67696 6.01918 8.70323L5.96426 8.7486L6.00963 8.69368C6.05262 8.64353 6.07172 8.6292 6.07172 8.6483ZM7.02695 8.67696C7.05322 8.708 7.05084 8.71039 7.0174 8.69845C6.99591 8.69129 6.97919 8.67457 6.97919 8.66263C6.97919 8.63159 6.99352 8.63636 7.02695 8.67696ZM28.9973 8.65069C28.9973 8.65547 28.9782 8.67457 28.9568 8.69129C28.9185 8.72233 28.9162 8.71994 28.9472 8.68173C28.9782 8.64353 28.9973 8.63159 28.9973 8.65069ZM26.9555 8.6889C26.9627 8.70323 26.9531 8.70562 26.934 8.69845C26.8911 8.68173 26.8839 8.66502 26.9173 8.66502C26.9317 8.66502 26.9484 8.67457 26.9555 8.6889ZM7.11531 8.75338C7.10576 8.76054 7.1177 8.78203 7.14158 8.80114C7.1774 8.83218 7.1774 8.83218 7.12725 8.8083C7.08188 8.78681 7.07233 8.73666 7.11531 8.73666C7.12487 8.73666 7.12248 8.74383 7.11531 8.75338ZM3.84364 8.79636C3.84364 8.81547 3.83408 8.82502 3.82214 8.81786C3.8102 8.81069 3.80781 8.79397 3.81498 8.78203C3.83647 8.75099 3.84364 8.75577 3.84364 8.79636ZM6.66635 8.98741C6.66635 8.99935 6.6568 8.99457 6.64486 8.97547C6.63292 8.95636 6.62337 8.92293 6.62337 8.90383C6.62337 8.86562 6.66397 8.94204 6.66635 8.98741ZM6.19829 8.95398C6.17918 8.97308 6.16724 8.97069 6.1553 8.9492C6.14336 8.9301 6.14575 8.92532 6.16247 8.93726C6.17918 8.94681 6.19112 8.94204 6.19112 8.92532C6.19112 8.9086 6.19829 8.90383 6.20784 8.91099C6.21739 8.92054 6.21262 8.93965 6.19829 8.95398ZM7.33741 8.93726C7.33741 8.94204 7.32069 8.95398 7.2992 8.96114C7.28009 8.96831 7.27054 8.96592 7.2777 8.95159C7.29203 8.92771 7.33741 8.91816 7.33741 8.93726ZM6.26038 9.08055C6.28187 9.10681 6.28187 9.11875 6.25799 9.13308C6.24127 9.14264 6.23411 9.14264 6.24366 9.1307C6.25321 9.12114 6.25083 9.09726 6.2365 9.07816C6.22217 9.06144 6.21501 9.04711 6.22217 9.04711C6.22695 9.04711 6.24605 9.06144 6.26038 9.08055ZM7.61681 9.1498C7.61681 9.16652 7.59532 9.18084 7.57144 9.18084C7.52845 9.18084 7.52845 9.17846 7.56666 9.1498C7.59054 9.13308 7.60965 9.11875 7.61204 9.11875C7.61442 9.11875 7.61681 9.13308 7.61681 9.1498ZM4.33558 9.17368C4.33081 9.18323 4.32364 9.1904 4.31648 9.1904C4.30931 9.1904 4.29498 9.1904 4.28066 9.1904C4.26872 9.1904 4.25677 9.18084 4.25677 9.1689C4.25677 9.15696 4.27588 9.1498 4.29976 9.15219C4.32125 9.15696 4.33797 9.16652 4.33558 9.17368ZM7.6789 9.17846C7.67174 9.19995 7.6598 9.21189 7.65502 9.20473C7.64786 9.19756 7.65024 9.18323 7.6598 9.1689C7.68129 9.1307 7.69562 9.13786 7.6789 9.17846ZM28.4242 9.17846C28.4075 9.19995 28.3884 9.2095 28.3836 9.20473C28.3669 9.18801 28.4003 9.14264 28.429 9.14264C28.4433 9.14264 28.4433 9.15696 28.4242 9.17846ZM26.6236 9.19517C26.6331 9.21189 26.6308 9.21428 26.6117 9.20473C26.5973 9.19517 26.5639 9.19995 26.5424 9.21905C26.5066 9.24771 26.5042 9.24532 26.5352 9.20711C26.5734 9.15935 26.5997 9.15458 26.6236 9.19517ZM28.2929 9.28592C28.3 9.30025 28.2905 9.30264 28.2714 9.29547C28.2284 9.27876 28.2212 9.26204 28.2547 9.26204C28.269 9.26204 28.2857 9.27159 28.2929 9.28592ZM7.91055 9.3098C7.91055 9.32174 7.90577 9.33368 7.90099 9.33368C7.89383 9.33368 7.88189 9.32174 7.87473 9.3098C7.86756 9.29547 7.87234 9.28592 7.88428 9.28592C7.89861 9.28592 7.91055 9.29547 7.91055 9.3098ZM26.3609 9.3504C26.3561 9.35756 26.3418 9.36234 26.3299 9.36234C26.3203 9.36234 26.2893 9.37189 26.263 9.38622C26.22 9.40532 26.22 9.40532 26.2558 9.37428C26.2916 9.34562 26.3872 9.32413 26.3609 9.3504ZM8.06577 9.49368C8.061 9.51756 8.05622 9.53906 8.05622 9.54383C8.05383 9.54861 8.04189 9.54383 8.02995 9.53667C8.01085 9.52473 8.01323 9.5104 8.03234 9.48652C8.06816 9.44353 8.07532 9.44353 8.06577 9.49368ZM9.3028 9.48891C9.29564 9.5104 9.2837 9.52234 9.27892 9.51518C9.27176 9.50801 9.27414 9.49368 9.2837 9.47936C9.30519 9.44115 9.31952 9.44831 9.3028 9.48891ZM8.1804 9.53906C8.21383 9.57966 8.21383 9.58921 8.18518 9.58921C8.16607 9.58921 8.15652 9.57966 8.16368 9.5701C8.16846 9.56055 8.16368 9.54622 8.14936 9.53667C8.13741 9.52951 8.12547 9.5104 8.12547 9.49607C8.12547 9.48174 8.12786 9.47458 8.13264 9.47936C8.13503 9.48413 8.15652 9.5104 8.1804 9.53906ZM9.2431 9.53667C9.23593 9.54383 9.22161 9.53189 9.21444 9.50801C9.20011 9.47458 9.2025 9.47219 9.22638 9.49368C9.2431 9.5104 9.25026 9.52951 9.2431 9.53667ZM27.9609 9.50562C27.9729 9.49607 27.9729 9.49846 27.9633 9.5104C27.9347 9.54622 27.8821 9.54622 27.8821 9.5104C27.8821 9.48891 27.8917 9.48413 27.9108 9.50085C27.9275 9.51279 27.949 9.51518 27.9609 9.50562ZM5.21201 9.5104C5.21201 9.51756 5.20246 9.52951 5.18813 9.53667C5.17619 9.54383 5.16425 9.53906 5.16425 9.52712C5.16425 9.51279 5.17619 9.50085 5.18813 9.50085C5.20246 9.50085 5.21201 9.50562 5.21201 9.5104ZM9.31235 9.61309C9.31235 9.63458 9.3028 9.63697 9.27892 9.61786C9.2622 9.60354 9.24787 9.58921 9.24787 9.58443C9.24787 9.58204 9.2622 9.57966 9.27892 9.57966C9.29802 9.57966 9.31235 9.59398 9.31235 9.61309ZM8.34279 9.66085C8.37384 9.69906 8.37145 9.70145 8.33563 9.6704C8.31174 9.65369 8.29264 9.63458 8.29264 9.62981C8.29264 9.6107 8.31174 9.62264 8.34279 9.66085ZM27.7555 9.65607C27.7555 9.66085 27.7341 9.66324 27.7102 9.66085C27.6839 9.66085 27.6672 9.64891 27.6743 9.63936C27.6839 9.62503 27.7555 9.63936 27.7555 9.65607ZM27.6839 9.70145C27.6839 9.70622 27.6672 9.71816 27.6457 9.72533C27.6266 9.73249 27.617 9.7301 27.6242 9.71578C27.6385 9.6919 27.6839 9.68234 27.6839 9.70145ZM25.7615 9.74443C25.771 9.7516 25.7663 9.76593 25.7543 9.77309C25.7424 9.78025 25.7185 9.7707 25.7042 9.75399C25.6803 9.72772 25.6827 9.72055 25.7113 9.72533C25.7328 9.72772 25.7543 9.73727 25.7615 9.74443ZM1.01137 9.83996C1.03763 9.89011 1.03763 9.89249 1.00181 9.86145C0.977932 9.84473 0.961216 9.82085 0.961216 9.80891C0.961216 9.77309 0.982709 9.78503 1.01137 9.83996ZM25.5346 9.8113C25.5346 9.82324 25.5227 9.83518 25.5084 9.83518C25.4964 9.83518 25.4916 9.82324 25.4988 9.8113C25.506 9.79697 25.5179 9.78742 25.5251 9.78742C25.5298 9.78742 25.5346 9.79697 25.5346 9.8113ZM16.6915 9.86384C16.6844 9.88294 16.6772 9.87578 16.6772 9.84951C16.6748 9.82324 16.682 9.80891 16.6892 9.81846C16.6963 9.82563 16.6987 9.84712 16.6915 9.86384ZM27.4332 9.83279C27.4117 9.8519 27.3472 9.85667 27.3615 9.83757C27.3663 9.82802 27.3878 9.81846 27.4093 9.81846C27.4284 9.81846 27.4403 9.82563 27.4332 9.83279ZM0.985097 9.89488C1.00181 9.91638 1.0042 9.9307 0.989873 9.9307C0.977932 9.9307 0.961216 9.91399 0.951664 9.89488C0.944499 9.87578 0.942111 9.85906 0.946887 9.85906C0.951664 9.85906 0.96838 9.87578 0.985097 9.89488ZM8.50757 9.94264C8.541 9.98802 8.541 9.98802 8.50279 9.95697C8.47891 9.94026 8.45981 9.91399 8.45981 9.89966C8.45981 9.88533 8.46219 9.88055 8.46697 9.88533C8.46936 9.89011 8.48846 9.91638 8.50757 9.94264ZM25.3221 9.96175C25.2982 9.98324 25.2958 9.98085 25.3101 9.94742C25.3173 9.92354 25.3316 9.9116 25.3388 9.91876C25.346 9.92593 25.3388 9.94503 25.3221 9.96175ZM16.6915 10.0549C16.6844 10.074 16.6772 10.0668 16.6772 10.0406C16.6748 10.0143 16.682 9.99996 16.6892 10.0095C16.6963 10.0167 16.6987 10.0382 16.6915 10.0549ZM8.66996 10.1576C8.66279 10.1647 8.64847 10.1528 8.6413 10.1289C8.62697 10.0955 8.62936 10.0931 8.65324 10.1146C8.66996 10.1313 8.67712 10.1504 8.66996 10.1576ZM25.2003 10.1313C25.2003 10.1361 25.1836 10.148 25.1621 10.1552C25.143 10.1623 25.1334 10.16 25.1406 10.1456C25.1549 10.1218 25.2003 10.1122 25.2003 10.1313ZM8.62697 10.1695C8.62697 10.1815 8.6222 10.1934 8.61742 10.1934C8.61026 10.1934 8.59832 10.1815 8.59115 10.1695C8.58399 10.1552 8.58876 10.1456 8.6007 10.1456C8.61503 10.1456 8.62697 10.1552 8.62697 10.1695ZM1.29316 10.2364C1.30988 10.2674 1.30749 10.2818 1.28838 10.2818C1.27167 10.2818 1.25734 10.2603 1.25734 10.2364C1.25734 10.2125 1.25973 10.1934 1.2645 10.1934C1.26689 10.1934 1.28122 10.2125 1.29316 10.2364ZM26.7884 10.2149C26.7669 10.234 26.7024 10.2388 26.7167 10.2197C26.7215 10.2101 26.743 10.2006 26.7645 10.2006C26.7836 10.2006 26.7955 10.2077 26.7884 10.2149ZM9.69683 10.3009C9.68967 10.308 9.67534 10.2961 9.66818 10.2722C9.65385 10.2388 9.65624 10.2364 9.68012 10.2579C9.69683 10.2746 9.704 10.2937 9.69683 10.3009ZM26.4325 10.3892C26.4421 10.4059 26.4421 10.4131 26.4302 10.4035C26.4206 10.394 26.3967 10.4035 26.3776 10.4274C26.3537 10.4585 26.3466 10.4609 26.3513 10.4322C26.3585 10.4035 26.3896 10.3629 26.4111 10.3606C26.4134 10.3606 26.423 10.3749 26.4325 10.3892ZM1.47465 10.48C1.48182 10.4943 1.47227 10.4967 1.45316 10.4895C1.41018 10.4728 1.40301 10.4561 1.43645 10.4561C1.45077 10.4561 1.46749 10.4656 1.47465 10.48ZM8.85862 10.5134C8.85862 10.5492 8.80847 10.5492 8.77742 10.5158C8.76548 10.5062 8.77265 10.5038 8.79175 10.5158C8.81802 10.5301 8.8228 10.5253 8.81085 10.4967C8.8013 10.4728 8.80608 10.4632 8.82757 10.4704C8.84429 10.4776 8.85862 10.4967 8.85862 10.5134ZM24.2809 10.5277C24.2737 10.5397 24.2522 10.5516 24.2379 10.5516C24.2212 10.5516 24.2236 10.5421 24.2451 10.5277C24.2904 10.4991 24.3 10.4991 24.2809 10.5277ZM9.88072 10.5755C9.87355 10.5874 9.85206 10.5994 9.83773 10.5994C9.82102 10.5994 9.8234 10.5898 9.8449 10.5755C9.89027 10.5468 9.89982 10.5468 9.88072 10.5755ZM1.68958 10.6471C1.69197 10.671 1.68481 10.6877 1.67525 10.6806C1.6657 10.6758 1.65854 10.6495 1.66093 10.6232C1.6657 10.5683 1.68481 10.5827 1.68958 10.6471ZM8.92309 10.6376C8.93026 10.6567 8.92787 10.6662 8.91354 10.6591C8.89921 10.6519 8.88966 10.6352 8.88966 10.6209C8.88966 10.5874 8.90638 10.5946 8.92309 10.6376ZM23.7913 10.6567C23.7913 10.6638 23.7818 10.6758 23.7674 10.683C23.7555 10.6901 23.7436 10.6853 23.7436 10.6734C23.7436 10.6591 23.7555 10.6471 23.7674 10.6471C23.7818 10.6471 23.7913 10.6519 23.7913 10.6567ZM25.8212 10.6591C25.8212 10.6638 25.7901 10.6853 25.7496 10.7068C25.6588 10.7522 25.654 10.7331 25.7448 10.6853C25.8188 10.6447 25.8212 10.6424 25.8212 10.6591ZM25.4391 10.8143C25.4582 10.8262 25.4654 10.8382 25.451 10.8382C25.4391 10.8382 25.4104 10.8262 25.3913 10.8143C25.3722 10.8024 25.3675 10.7904 25.3794 10.7904C25.3937 10.7904 25.42 10.8024 25.4391 10.8143ZM10.0455 10.8358C10.0527 10.8453 10.0359 10.8525 10.0121 10.8501C9.94758 10.8453 9.93326 10.8262 9.98818 10.8215C10.0145 10.8191 10.0407 10.8262 10.0455 10.8358ZM25.3794 10.8621C25.3722 10.874 25.3507 10.8859 25.3364 10.8859C25.3197 10.8859 25.3221 10.8764 25.3436 10.8621C25.389 10.8334 25.3985 10.8334 25.3794 10.8621ZM9.07832 10.8955C9.09026 10.905 9.10698 10.8979 9.11175 10.8859C9.11892 10.8716 9.12131 10.874 9.11892 10.8907C9.11414 10.9074 9.09504 10.917 9.07832 10.9122C9.05922 10.9074 9.03295 10.9027 9.01623 10.9003C8.99951 10.8979 8.98041 10.8883 8.97086 10.8788C8.95175 10.8621 9.04489 10.8764 9.07832 10.8955ZM2.05974 10.8955C2.05974 10.9003 2.04302 10.9122 2.02153 10.9194C2.00242 10.9265 1.99287 10.9241 2.00003 10.9098C2.01436 10.8859 2.05974 10.8764 2.05974 10.8955ZM10.0598 10.9456C10.0933 10.991 10.0933 10.991 10.055 10.96C10.0312 10.9433 10.0121 10.917 10.0121 10.9027C10.0121 10.8883 10.0145 10.8836 10.0192 10.8883C10.0216 10.8931 10.0407 10.9194 10.0598 10.9456ZM25.0642 10.9695C25.057 10.991 25.0451 11.003 25.0403 10.9958C25.0331 10.9886 25.0355 10.9743 25.0451 10.96C25.0666 10.9218 25.0809 10.9289 25.0642 10.9695ZM9.25743 11.0507C9.25026 11.0579 9.22161 11.0364 9.19295 11.0077L9.14041 10.9504L9.20489 10.9958C9.23832 11.0197 9.2622 11.0459 9.25743 11.0507ZM24.8898 10.9671C24.8898 10.9719 24.8731 10.9838 24.8516 10.991C24.8325 10.9982 24.823 10.9958 24.8301 10.9815C24.8445 10.9576 24.8898 10.948 24.8898 10.9671ZM2.26272 11.0053C2.26989 11.0197 2.26033 11.0221 2.24123 11.0149C2.19824 10.9982 2.19108 10.9815 2.22451 10.9815C2.23884 10.9815 2.25556 10.991 2.26272 11.0053ZM10.1745 11.1128C10.1673 11.12 10.153 11.108 10.1458 11.0841C10.1315 11.0507 10.1339 11.0483 10.1577 11.0698C10.1745 11.0865 10.1816 11.1056 10.1745 11.1128ZM2.48959 11.1391C2.48959 11.1582 2.44422 11.1701 2.43228 11.1534C2.42511 11.1415 2.43466 11.1319 2.45377 11.1319C2.47287 11.1319 2.48959 11.1367 2.48959 11.1391ZM24.5674 11.1916C24.5603 11.1988 24.5412 11.1916 24.5245 11.1749C24.503 11.151 24.5054 11.1486 24.5388 11.163C24.5627 11.1701 24.5746 11.1844 24.5674 11.1916ZM9.54639 11.2227C9.53683 11.2346 9.51773 11.2442 9.5034 11.2418C9.48191 11.2418 9.4843 11.237 9.50579 11.2274C9.52012 11.2227 9.52728 11.2036 9.52012 11.1916C9.51056 11.1749 9.51534 11.1725 9.53206 11.1821C9.54639 11.1916 9.55355 11.2107 9.54639 11.2227ZM21.7017 11.2919C21.7089 11.3062 21.6994 11.3086 21.6803 11.3015C21.6373 11.2847 21.6301 11.268 21.6635 11.268C21.6779 11.268 21.6946 11.2776 21.7017 11.2919ZM21.802 11.2824C21.7949 11.2895 21.7734 11.2919 21.7567 11.2847C21.7376 11.2776 21.7447 11.2704 21.771 11.2704C21.7973 11.268 21.8116 11.2752 21.802 11.2824ZM10.4825 11.354C10.4825 11.385 10.3822 11.3827 10.3512 11.3516C10.3416 11.3421 10.3607 11.3421 10.3918 11.3516C10.4252 11.3612 10.4419 11.3588 10.4348 11.3468C10.4252 11.3349 10.4348 11.323 10.4515 11.323C10.4682 11.323 10.4825 11.3373 10.4825 11.354ZM23.808 11.3922C23.8009 11.4113 23.7937 11.4042 23.7937 11.3779C23.7913 11.3516 23.7985 11.3373 23.8056 11.3468C23.8128 11.354 23.8152 11.3755 23.808 11.3922ZM9.80907 11.4591C9.83296 11.4853 9.84728 11.5068 9.84012 11.5068C9.83296 11.5068 9.80907 11.4853 9.78519 11.4591C9.76131 11.4328 9.74698 11.4113 9.75415 11.4113C9.76131 11.4113 9.78519 11.4328 9.80907 11.4591ZM10.6258 11.5474C10.6258 11.5689 10.6162 11.5713 10.5924 11.5522C10.5757 11.5379 10.5613 11.5236 10.5613 11.5188C10.5613 11.5164 10.5757 11.514 10.5924 11.514C10.6115 11.514 10.6258 11.5283 10.6258 11.5474ZM10.5637 11.5713C10.5948 11.6095 10.5924 11.6119 10.5565 11.5809C10.5327 11.5642 10.5136 11.545 10.5136 11.5403C10.5136 11.5212 10.5327 11.5331 10.5637 11.5713ZM10.0025 11.8555C10.0073 11.8818 10.0001 11.8842 9.97863 11.8674C9.96191 11.8531 9.93803 11.8507 9.92609 11.8603C9.91654 11.8698 9.92131 11.8579 9.93803 11.834C9.97385 11.7886 9.99535 11.7958 10.0025 11.8555ZM10.1386 11.8507C10.1458 11.8674 10.1291 11.8794 10.098 11.8818C10.0718 11.8818 10.0622 11.8794 10.0789 11.8722C10.1028 11.8627 10.1028 11.8531 10.0813 11.8268C10.0574 11.7982 10.0598 11.7958 10.0909 11.8077C10.11 11.8149 10.1339 11.834 10.1386 11.8507ZM17.088 11.8292C17.0808 11.8507 17.0689 11.8627 17.0641 11.8555C17.0569 11.8483 17.0593 11.834 17.0689 11.8197C17.0903 11.7815 17.1047 11.7886 17.088 11.8292ZM11.027 11.9606C11.0294 11.9988 11.0246 12.0012 10.996 11.9797C10.9745 11.9606 10.9721 11.9462 10.9888 11.9415C11.0031 11.9367 11.0079 11.92 10.9983 11.9057C10.9912 11.8889 10.9936 11.8842 11.0031 11.8961C11.0151 11.9057 11.0246 11.9343 11.027 11.9606ZM10.1649 11.9988C10.1721 12.0179 10.1697 12.0274 10.1553 12.0203C10.141 12.0131 10.1315 11.9964 10.1315 11.9821C10.1315 11.9486 10.1482 11.9558 10.1649 11.9988ZM11.0103 12.068C11.0031 12.0752 10.9888 12.0633 10.9816 12.0394C10.9673 12.006 10.9697 12.0036 10.9936 12.0251C11.0103 12.0418 11.0174 12.0609 11.0103 12.068ZM11.1058 12.111C11.1225 12.1301 11.1225 12.154 11.1106 12.1755C11.0891 12.2089 11.0819 12.1922 11.0891 12.1373C11.0891 12.1277 11.0771 12.111 11.058 12.1015C11.0389 12.0895 11.0366 12.08 11.0533 12.08C11.0676 12.08 11.0915 12.0943 11.1058 12.111ZM10.4419 12.1994C10.4419 12.2113 10.4371 12.2233 10.4324 12.2233C10.4252 12.2233 10.4133 12.2113 10.4061 12.1994C10.3989 12.1851 10.4037 12.1755 10.4156 12.1755C10.43 12.1755 10.4419 12.1851 10.4419 12.1994ZM10.3345 12.2448C10.3416 12.2567 10.3392 12.2734 10.3273 12.2806C10.3153 12.2877 10.3058 12.2782 10.3058 12.2591C10.3058 12.2185 10.313 12.2137 10.3345 12.2448ZM10.5183 12.283C10.5231 12.2758 10.5303 12.2877 10.5303 12.3068C10.5303 12.3522 10.5303 12.3522 10.4754 12.2901C10.4467 12.2567 10.4443 12.2471 10.4682 12.2663C10.4897 12.2806 10.5112 12.2901 10.5183 12.283ZM11.3016 12.3236C11.3016 12.3331 11.2849 12.3427 11.2658 12.3427C11.2467 12.3427 11.23 12.3331 11.23 12.3236C11.23 12.3116 11.2467 12.3021 11.2658 12.3021C11.2849 12.3021 11.3016 12.3116 11.3016 12.3236ZM8.17324 12.3666C8.15413 12.3785 8.12786 12.3904 8.11353 12.3904C8.10159 12.3904 8.10637 12.3785 8.12547 12.3666C8.14458 12.3546 8.17324 12.3427 8.18518 12.3427C8.1995 12.3427 8.19234 12.3546 8.17324 12.3666ZM17.4175 12.4239C17.3841 12.4645 17.4223 12.5003 17.4677 12.4716C17.482 12.4621 17.4868 12.4645 17.4772 12.4812C17.4581 12.5146 17.3721 12.5098 17.3769 12.474C17.3817 12.4406 17.4151 12.3904 17.4318 12.3904C17.439 12.3904 17.4318 12.4048 17.4175 12.4239ZM11.6001 12.5098C11.6216 12.4931 11.6288 12.5003 11.6264 12.5385C11.624 12.5743 11.6073 12.5934 11.5763 12.5982C11.538 12.6006 11.538 12.6006 11.5715 12.591C11.593 12.5839 11.6121 12.5672 11.6121 12.5552C11.6121 12.5409 11.6025 12.5361 11.5906 12.5433C11.5786 12.5504 11.5548 12.5385 11.538 12.5146C11.5118 12.4812 11.5118 12.4788 11.5404 12.5027C11.5619 12.5218 11.581 12.5242 11.6001 12.5098ZM17.4963 12.6054C17.482 12.6197 17.4724 12.6125 17.4724 12.5815C17.4724 12.5504 17.482 12.5433 17.4963 12.5576C17.513 12.5743 17.513 12.5886 17.4963 12.6054ZM11.784 12.6913C11.8055 12.7057 11.7984 12.7869 11.7721 12.8107C11.7649 12.8203 11.7625 12.7964 11.7697 12.7606C11.7816 12.6985 11.7769 12.6961 11.741 12.7272C11.7172 12.7463 11.7052 12.7486 11.7148 12.7319C11.7243 12.7176 11.7219 12.6985 11.7076 12.6889C11.6957 12.6818 11.6813 12.6937 11.6813 12.7176C11.6789 12.7582 11.6766 12.7582 11.667 12.7176C11.6622 12.6961 11.6455 12.6842 11.6312 12.6913C11.6169 12.7009 11.6121 12.6961 11.6216 12.6818C11.636 12.6579 11.7386 12.6651 11.784 12.6913ZM17.6086 12.7176C17.6396 12.7558 17.6372 12.7582 17.6014 12.7272C17.5775 12.7104 17.5584 12.6913 17.5584 12.6866C17.5584 12.6675 17.5775 12.6794 17.6086 12.7176ZM11.9822 12.8657C11.9894 12.8776 11.987 12.8943 11.9751 12.9015C11.9631 12.9086 11.9536 12.8991 11.9536 12.88C11.9536 12.8394 11.9607 12.8346 11.9822 12.8657ZM17.8044 13.0137C17.7853 13.0328 17.7733 13.0304 17.7614 13.0089C17.7495 12.9898 17.7518 12.9851 17.7686 12.997C17.7853 13.0066 17.7972 13.0018 17.7972 12.9851C17.7972 12.9683 17.8044 12.9636 17.8139 12.9707C17.8235 12.9803 17.8187 12.9994 17.8044 13.0137ZM12.1995 13.1307C12.1995 13.1594 12.19 13.1689 12.1781 13.157C12.1661 13.1451 12.1637 13.1236 12.1709 13.1092C12.1948 13.0734 12.1995 13.0758 12.1995 13.1307ZM17.962 13.1164C17.9835 13.1427 17.9835 13.1546 17.9596 13.1689C17.9429 13.1785 17.9357 13.1785 17.9453 13.1666C17.9548 13.157 17.9524 13.1331 17.9381 13.114C17.9238 13.0973 17.9166 13.083 17.9238 13.083C17.9286 13.083 17.9477 13.0973 17.962 13.1164ZM18.122 13.2907C18.1053 13.3075 18.0599 13.274 18.0599 13.2454C18.0599 13.231 18.0742 13.231 18.0957 13.2501C18.1172 13.2669 18.1268 13.286 18.122 13.2907ZM18.208 13.3672C18.2128 13.3839 18.1984 13.403 18.1769 13.4054C18.1554 13.4101 18.1387 13.3982 18.1387 13.3791C18.1387 13.3624 18.1507 13.3552 18.1626 13.3624C18.1793 13.3719 18.1817 13.36 18.1698 13.3313C18.1578 13.3027 18.1602 13.2931 18.1769 13.3098C18.1889 13.3218 18.2032 13.3481 18.208 13.3672ZM18.0241 13.3695C18.0313 13.3815 18.0265 13.3934 18.0145 13.3934C18.0002 13.3934 17.9883 13.3815 17.9883 13.3695C17.9883 13.3552 17.993 13.3457 17.9978 13.3457C18.005 13.3457 18.0169 13.3552 18.0241 13.3695ZM12.7225 13.5678C12.7703 13.6107 12.7703 13.6107 12.7154 13.5845C12.6843 13.5701 12.6533 13.5415 12.6461 13.5224C12.639 13.5057 12.627 13.4937 12.6175 13.5009C12.6079 13.5057 12.5984 13.4937 12.5984 13.4746C12.5984 13.446 12.6055 13.4484 12.6366 13.4818C12.6581 13.5057 12.6963 13.5439 12.7225 13.5678ZM12.7225 13.4651C12.7154 13.477 12.7202 13.489 12.7321 13.489C12.7464 13.489 12.7584 13.5009 12.7584 13.5152C12.7584 13.5343 12.7464 13.5343 12.7225 13.5128C12.6915 13.4866 12.6939 13.4412 12.7249 13.4412C12.7321 13.4412 12.7297 13.4507 12.7225 13.4651ZM12.9375 13.7039C12.9303 13.7158 12.9351 13.7278 12.9518 13.7278C12.9685 13.7278 12.9757 13.7349 12.9661 13.7421C12.9446 13.7636 12.8993 13.7278 12.9136 13.7015C12.9231 13.6896 12.9327 13.68 12.9399 13.68C12.947 13.68 12.9446 13.6896 12.9375 13.7039ZM18.5638 13.7445C18.5948 13.7827 18.5925 13.7851 18.5566 13.754C18.5328 13.7373 18.5136 13.7182 18.5136 13.7134C18.5136 13.6943 18.5328 13.7063 18.5638 13.7445ZM13.15 13.8376C13.1572 13.8567 13.1548 13.8663 13.1405 13.8591C13.1261 13.8519 13.1166 13.8352 13.1166 13.8209C13.1166 13.7875 13.1333 13.7946 13.15 13.8376ZM18.8241 13.9093C18.8241 13.9307 18.836 13.9379 18.8551 13.9284C18.8742 13.914 18.8742 13.9212 18.8504 13.9499C18.8265 13.9809 18.8074 13.9833 18.7716 13.9642C18.7357 13.9451 18.731 13.9331 18.7548 13.9045C18.7907 13.8615 18.8241 13.8615 18.8241 13.9093ZM13.2718 13.9427C13.279 13.957 13.2694 13.9594 13.2503 13.9522C13.2073 13.9355 13.2002 13.9188 13.2336 13.9188C13.2479 13.9188 13.2646 13.9284 13.2718 13.9427ZM18.9316 13.9666C18.9244 13.9785 18.9029 13.9904 18.8886 13.9904C18.8719 13.9904 18.8742 13.9809 18.8957 13.9666C18.9411 13.9379 18.9507 13.9379 18.9316 13.9666ZM13.439 14.0096C13.4318 14.0167 13.4414 14.0382 13.4581 14.0573C13.4843 14.0884 13.4796 14.0907 13.4342 14.0597C13.3697 14.0215 13.3649 13.9976 13.4151 13.9976C13.4342 13.9976 13.4461 14.0048 13.439 14.0096ZM19.2301 14.1194C19.2301 14.1242 19.2134 14.1361 19.1919 14.1433C19.1728 14.1505 19.1632 14.1481 19.1704 14.1337C19.1847 14.1099 19.2301 14.1003 19.2301 14.1194ZM13.7494 14.203C13.7279 14.2221 13.6634 14.2269 13.6778 14.2078C13.6826 14.1982 13.704 14.1887 13.7255 14.1887C13.7446 14.1887 13.7566 14.1958 13.7494 14.203ZM13.9046 14.2627C13.9046 14.2675 13.8879 14.2794 13.8664 14.2866C13.8473 14.2937 13.8378 14.2913 13.8449 14.277C13.8593 14.2531 13.9046 14.2436 13.9046 14.2627ZM13.9142 14.32C13.9214 14.3319 13.9118 14.3415 13.8927 14.3415C13.8736 14.3415 13.864 14.3319 13.8712 14.32C13.8784 14.3105 13.8879 14.3009 13.8927 14.3009C13.8975 14.3009 13.907 14.3105 13.9142 14.32ZM14.0885 14.4084C14.0885 14.4275 14.079 14.437 14.067 14.4299C14.0551 14.4227 14.0527 14.406 14.0599 14.394C14.0814 14.363 14.0885 14.3678 14.0885 14.4084ZM19.7196 14.4155C19.7125 14.4227 19.6934 14.4155 19.6766 14.3988C19.6552 14.3749 19.6575 14.3725 19.691 14.3869C19.7149 14.394 19.7268 14.4084 19.7196 14.4155ZM14.227 14.5349C14.2199 14.5421 14.2008 14.5349 14.184 14.5182C14.1626 14.4943 14.1649 14.4919 14.1984 14.5063C14.2223 14.5134 14.2342 14.5278 14.227 14.5349ZM20.1137 14.5994C20.1137 14.6042 20.0993 14.6114 20.0826 14.6185C20.0635 14.6257 20.0492 14.6161 20.0492 14.5994C20.0492 14.5827 20.0635 14.5731 20.0826 14.5803C20.0993 14.5875 20.1137 14.5946 20.1137 14.5994ZM14.4038 14.6281C14.3751 14.6639 14.3751 14.6663 14.4133 14.6519C14.4396 14.6424 14.4515 14.6448 14.442 14.6591C14.4348 14.6734 14.4396 14.683 14.4563 14.683C14.473 14.683 14.4802 14.6902 14.473 14.6973C14.4635 14.7045 14.4348 14.6973 14.4061 14.683C14.3655 14.6615 14.3608 14.6496 14.3846 14.6209C14.399 14.6018 14.4181 14.5875 14.4229 14.5875C14.43 14.5875 14.4205 14.6066 14.4038 14.6281ZM20.2928 14.726C20.2856 14.7331 20.2665 14.726 20.2498 14.7093C20.2283 14.6854 20.2307 14.683 20.2641 14.6973C20.288 14.7045 20.2999 14.7188 20.2928 14.726ZM14.7333 14.8072C14.7381 14.8478 14.7333 14.8525 14.7166 14.8263C14.7047 14.8072 14.7023 14.7833 14.707 14.7737C14.7261 14.7451 14.7309 14.7499 14.7333 14.8072ZM15.1082 15.0197C15.0987 15.034 15.082 15.034 15.0605 15.0149C15.0103 14.9743 15.0199 14.9409 15.0748 14.9696C15.1011 14.9839 15.1178 15.0054 15.1082 15.0197ZM15.636 15.2084C15.6432 15.2227 15.6336 15.2251 15.6145 15.2179C15.5715 15.2012 15.5644 15.1845 15.5978 15.1845C15.6121 15.1845 15.6288 15.194 15.636 15.2084ZM24.6033 15.28C24.6033 15.292 24.5913 15.3039 24.577 15.3039C24.5651 15.3039 24.5603 15.292 24.5674 15.28C24.5746 15.2657 24.5866 15.2561 24.5937 15.2561C24.5985 15.2561 24.6033 15.2657 24.6033 15.28ZM15.8032 15.3755C15.796 15.3851 15.8032 15.4018 15.8151 15.4066C15.8294 15.4137 15.8271 15.4161 15.8127 15.4137C15.796 15.4114 15.7817 15.3899 15.7769 15.3684C15.7745 15.3469 15.7817 15.3326 15.7936 15.3421C15.8056 15.3493 15.8103 15.3636 15.8032 15.3755ZM15.9345 15.3994C15.9536 15.4114 15.9608 15.4233 15.9465 15.4233C15.9345 15.4233 15.9059 15.4114 15.8868 15.3994C15.8676 15.3875 15.8629 15.3755 15.8748 15.3755C15.8891 15.3755 15.9154 15.3875 15.9345 15.3994ZM16.0181 15.4687C16.0253 15.4806 16.0229 15.4973 16.0109 15.5045C15.999 15.5117 15.9894 15.5021 15.9894 15.483C15.9894 15.4424 15.9966 15.4376 16.0181 15.4687ZM16.128 15.5594C16.159 15.5976 16.1566 15.6 16.1208 15.569C16.0969 15.5523 16.0778 15.5332 16.0778 15.5284C16.0778 15.5093 16.0969 15.5212 16.128 15.5594ZM16.3047 15.6573C16.2975 15.6645 16.2784 15.6573 16.2617 15.6406C16.2402 15.6167 16.2426 15.6143 16.276 15.6287C16.2999 15.6358 16.3118 15.6502 16.3047 15.6573ZM16.5889 15.7457C16.5721 15.7887 16.5411 15.7911 16.5172 15.7529C16.5077 15.7385 16.51 15.7338 16.5268 15.7433C16.5411 15.7505 16.5578 15.7481 16.5674 15.7338C16.5889 15.6979 16.6032 15.7051 16.5889 15.7457ZM25.0809 15.7194C25.0809 15.7242 25.0642 15.7361 25.0427 15.7433C25.0236 15.7505 25.014 15.7481 25.0212 15.7338C25.0355 15.7099 25.0809 15.7003 25.0809 15.7194ZM25.2361 15.7791C25.2433 15.7911 25.2361 15.8102 25.2218 15.8197C25.2051 15.8293 25.2003 15.8269 25.2098 15.8102C25.217 15.7958 25.2051 15.7791 25.1836 15.7744C25.1454 15.7648 25.1454 15.7624 25.1812 15.76C25.2027 15.76 25.2266 15.7672 25.2361 15.7791ZM16.7106 15.8054C16.7178 15.8197 16.7083 15.8221 16.6892 15.8149C16.6462 15.7982 16.639 15.7815 16.6724 15.7815C16.6868 15.7815 16.7035 15.7911 16.7106 15.8054ZM25.0809 15.8412C25.0642 15.8627 25.0451 15.8723 25.0355 15.8651C25.0283 15.8579 25.0379 15.8412 25.057 15.8293C25.1072 15.7958 25.1143 15.8006 25.0809 15.8412ZM16.9495 15.9248C16.9566 15.9391 16.9471 15.9415 16.928 15.9344C16.885 15.9176 16.8778 15.9009 16.9112 15.9009C16.9256 15.9009 16.9423 15.9105 16.9495 15.9248ZM24.9949 15.92C25.0021 15.932 24.9925 15.9415 24.9734 15.9415C24.9543 15.9415 24.9448 15.932 24.9519 15.92C24.9591 15.9105 24.9686 15.9009 24.9734 15.9009C24.9782 15.9009 24.9878 15.9105 24.9949 15.92ZM17.3077 16.1373C17.3005 16.1517 17.2814 16.1636 17.2695 16.1636C17.2575 16.1636 17.2599 16.1493 17.2766 16.1302C17.3101 16.092 17.3339 16.0991 17.3077 16.1373ZM17.4271 16.2305C17.4199 16.2376 17.4008 16.2305 17.3841 16.2138C17.3626 16.1899 17.365 16.1875 17.3984 16.2018C17.4223 16.209 17.4342 16.2233 17.4271 16.2305ZM17.5656 16.283C17.5727 16.3093 17.568 16.326 17.556 16.3164C17.5441 16.3093 17.5345 16.2878 17.5345 16.2687C17.5345 16.2209 17.5513 16.2281 17.5656 16.283ZM17.642 16.3045C17.6492 16.3164 17.6468 16.3332 17.6348 16.3403C17.6229 16.3475 17.6133 16.3379 17.6133 16.3188C17.6133 16.2782 17.6205 16.2735 17.642 16.3045ZM24.2546 16.3069C24.2474 16.3141 24.2307 16.3212 24.2188 16.3212C24.2068 16.3236 24.1877 16.326 24.1758 16.3284C24.1639 16.3284 24.1376 16.3475 24.1161 16.3666C24.0851 16.4 24.0803 16.3976 24.0851 16.357C24.0874 16.3284 24.0994 16.3164 24.1233 16.326C24.1424 16.3332 24.1519 16.3284 24.1448 16.3164C24.1352 16.3045 24.1615 16.295 24.1997 16.295C24.2355 16.2926 24.2618 16.2997 24.2546 16.3069ZM23.8056 16.5027C23.8128 16.5123 23.8033 16.5147 23.7818 16.5123C23.7627 16.5099 23.7388 16.5003 23.7292 16.4932C23.7221 16.4836 23.7316 16.4812 23.7531 16.4836C23.7722 16.486 23.7961 16.4956 23.8056 16.5027ZM18.1196 16.5433C18.1125 16.5553 18.1292 16.5744 18.1578 16.5815C18.1841 16.5911 18.2008 16.603 18.196 16.6078C18.1913 16.615 18.1578 16.6054 18.122 16.5911C18.0766 16.5696 18.0671 16.5553 18.0886 16.5409C18.1292 16.517 18.1363 16.517 18.1196 16.5433ZM18.3083 16.6364C18.313 16.646 18.2987 16.6556 18.2748 16.6556C18.251 16.6556 18.2366 16.646 18.2414 16.6364C18.2486 16.6269 18.2629 16.6173 18.2748 16.6173C18.2868 16.6173 18.3011 16.6269 18.3083 16.6364ZM23.3256 16.689C23.3185 16.7009 23.297 16.7129 23.2827 16.7129C23.2659 16.7129 23.2683 16.7033 23.2898 16.689C23.3352 16.6603 23.3447 16.6603 23.3256 16.689ZM18.5375 16.7272C18.5375 16.732 18.516 16.7367 18.4898 16.7367C18.4635 16.7367 18.442 16.7272 18.442 16.7153C18.442 16.7033 18.4635 16.6985 18.4898 16.7057C18.516 16.7129 18.5375 16.7224 18.5375 16.7272ZM23.1704 16.7248C23.1537 16.7439 23.1179 16.7582 23.0892 16.7582C23.0415 16.7559 23.0415 16.7535 23.0868 16.7439C23.1131 16.7367 23.1441 16.7224 23.1585 16.7105C23.1943 16.677 23.2039 16.6866 23.1704 16.7248ZM18.5304 16.775C18.5232 16.7821 18.5017 16.7845 18.485 16.7773C18.4659 16.7702 18.4731 16.763 18.4993 16.763C18.5256 16.7606 18.5399 16.7678 18.5304 16.775ZM18.6928 16.8323C18.6999 16.8466 18.6904 16.849 18.6713 16.8418C18.6283 16.8251 18.6211 16.8084 18.6545 16.8084C18.6689 16.8084 18.6856 16.8179 18.6928 16.8323ZM18.8671 16.9302C18.8599 16.9493 18.8504 16.9373 18.8408 16.9063C18.8313 16.8657 18.8337 16.8562 18.8528 16.8753C18.8647 16.8872 18.8719 16.9135 18.8671 16.9302ZM22.8122 16.88C22.7931 16.892 22.7668 16.9039 22.7525 16.9039C22.7406 16.9039 22.7453 16.892 22.7644 16.88C22.7835 16.8681 22.8122 16.8562 22.8241 16.8562C22.8385 16.8562 22.8313 16.8681 22.8122 16.88ZM22.5734 16.9517C22.5734 16.9636 22.5686 16.9756 22.5638 16.9756C22.5567 16.9756 22.5447 16.9636 22.5376 16.9517C22.5304 16.9373 22.5352 16.9278 22.5471 16.9278C22.5615 16.9278 22.5734 16.9373 22.5734 16.9517ZM19.1178 16.9923C19.1011 16.9971 19.0677 16.9971 19.0462 16.9923C19.0223 16.9851 19.0366 16.9803 19.0748 16.9803C19.1154 16.9803 19.1322 16.9851 19.1178 16.9923ZM19.3614 17.0711C19.3686 17.083 19.3638 17.095 19.3519 17.095C19.3375 17.095 19.3256 17.083 19.3256 17.0711C19.3256 17.0568 19.3304 17.0472 19.3352 17.0472C19.3423 17.0472 19.3543 17.0568 19.3614 17.0711ZM22.1053 17.0878C22.1149 17.1117 22.1149 17.1212 22.1053 17.1117C22.0958 17.1021 22.0623 17.1117 22.0337 17.1308C21.9979 17.1523 21.974 17.1571 21.9644 17.1427C21.9549 17.1284 21.962 17.1212 21.9812 17.1236C21.9979 17.1284 22.0098 17.1188 22.0074 17.1021C22.0026 17.0854 22.017 17.0782 22.0361 17.0854C22.0552 17.095 22.0719 17.0878 22.0719 17.0735C22.0719 17.0353 22.0886 17.0424 22.1053 17.0878ZM19.5047 17.095C19.4975 17.1069 19.476 17.1188 19.4617 17.1188C19.445 17.1188 19.4474 17.1093 19.4689 17.095C19.5143 17.0663 19.5238 17.0663 19.5047 17.095Z" fill="#D9AE6A"/>
<path d="M18.7669 13.9168C18.7597 13.9288 18.7693 13.9431 18.7884 13.9503C18.8099 13.9598 18.8171 13.9526 18.8075 13.9288C18.7932 13.8905 18.7836 13.8882 18.7669 13.9168Z" fill="#D9AE6A"/>
</svg>
