<svg width="24" height="20" viewBox="0 0 24 20" fill="none" xmlns="http://www.w3.org/2000/svg">
<path d="M2.98594 0.113869C1.66406 0.287306 0.553125 1.24824 0.13125 2.59356L0.0234375 2.94512V9.99981V17.0545L0.13125 17.4061C0.5625 18.7795 1.65938 19.7123 3.05156 19.8857C3.59531 19.9561 20.4047 19.9561 20.9484 19.8857C22.3313 19.717 23.4141 18.8029 23.8641 17.4295C23.9672 17.1154 23.9719 17.0311 23.9906 15.2873L24.0047 13.4732L20.475 13.4545C16.5516 13.4404 16.7625 13.4545 16.0453 13.1123C14.0203 12.1467 13.4484 9.50762 14.8922 7.78731C15.3328 7.26231 15.975 6.84512 16.6641 6.64356C16.9219 6.56856 17.2594 6.55918 20.475 6.54512L24.0047 6.52637L23.9906 4.71231C23.9719 2.96856 23.9672 2.88418 23.8641 2.57012C23.4141 1.19668 22.3313 0.282618 20.9484 0.113869C20.4656 0.0529308 3.46406 0.0529308 2.98594 0.113869Z" fill="#D9AE6A"/>
</svg>
