<svg width="48" height="48" viewBox="0 0 48 48" fill="none" xmlns="http://www.w3.org/2000/svg">
<rect width="48" height="48" rx="4" fill="#616161" fill-opacity="0.3"/>
<g clip-path="url(#clip0_733_294)">
<path d="M14.9859 14.1141C13.6641 14.2875 12.5531 15.2484 12.1313 16.5937L12.0234 16.9453V24V31.0547L12.1313 31.4062C12.5625 32.7797 13.6594 33.7125 15.0516 33.8859C15.5953 33.9562 32.4047 33.9562 32.9484 33.8859C34.3313 33.7172 35.4141 32.8031 35.8641 31.4297C35.9672 31.1156 35.9719 31.0312 35.9906 29.2875L36.0047 27.4734L32.475 27.4547C28.5516 27.4406 28.7625 27.4547 28.0453 27.1125C26.0203 26.1469 25.4484 23.5078 26.8922 21.7875C27.3328 21.2625 27.975 20.8453 28.6641 20.6437C28.9219 20.5687 29.2594 20.5594 32.475 20.5453L36.0047 20.5266L35.9906 18.7125C35.9719 16.9687 35.9672 16.8844 35.8641 16.5703C35.4141 15.1969 34.3313 14.2828 32.9484 14.1141C32.4656 14.0531 15.4641 14.0531 14.9859 14.1141Z" fill="white"/>
<path d="M28.964 22.0125C27.9656 22.3172 27.3328 23.3203 27.5062 24.3281C27.6422 25.125 28.2093 25.7625 28.9828 25.9922C29.1843 26.0531 29.7281 26.0625 32.6109 26.0625H36V24V21.9375L32.5922 21.9422C29.789 21.9422 29.1422 21.9562 28.964 22.0125ZM30.825 23.4187C31.0593 23.5922 31.1343 23.7375 31.1343 24C31.1343 24.2625 31.0593 24.4078 30.825 24.5812C30.7172 24.6656 30.614 24.6844 30.1218 24.6937C29.8031 24.7031 29.4703 24.6891 29.3625 24.6609C28.8656 24.5297 28.6875 23.8969 29.0437 23.5266C29.2312 23.3297 29.3812 23.3016 30.0797 23.3109C30.6187 23.3203 30.7125 23.3344 30.825 23.4187Z" fill="white"/>
</g>
<defs>
<clipPath id="clip0_733_294">
<rect width="24" height="24" fill="white" transform="translate(12 12)"/>
</clipPath>
</defs>
</svg>
