<svg width="24" height="24" viewBox="0 0 24 24" fill="none" xmlns="http://www.w3.org/2000/svg">
<g clip-path="url(#clip0_733_467)">
<path d="M2.98594 2.11405C1.66406 2.28749 0.553125 3.24843 0.13125 4.59374L0.0234375 4.9453V12V19.0547L0.13125 19.4062C0.5625 20.7797 1.65938 21.7125 3.05156 21.8859C3.59531 21.9562 20.4047 21.9562 20.9484 21.8859C22.3313 21.7172 23.4141 20.8031 23.8641 19.4297C23.9672 19.1156 23.9719 19.0312 23.9906 17.2875L24.0047 15.4734L20.475 15.4547C16.5516 15.4406 16.7625 15.4547 16.0453 15.1125C14.0203 14.1469 13.4484 11.5078 14.8922 9.78749C15.3328 9.26249 15.975 8.8453 16.6641 8.64374C16.9219 8.56874 17.2594 8.55936 20.475 8.5453L24.0047 8.52655L23.9906 6.71249C23.9719 4.96874 23.9672 4.88436 23.8641 4.5703C23.4141 3.19686 22.3313 2.2828 20.9484 2.11405C20.4656 2.05311 3.46406 2.05311 2.98594 2.11405Z" fill="white"/>
<path d="M16.9641 10.0125C15.9656 10.3172 15.3328 11.3203 15.5062 12.3281C15.6422 13.125 16.2094 13.7625 16.9828 13.9922C17.1844 14.0531 17.7281 14.0625 20.6109 14.0625H24V12V9.9375L20.5922 9.94219C17.7891 9.94219 17.1422 9.95625 16.9641 10.0125ZM18.825 11.4187C19.0594 11.5922 19.1344 11.7375 19.1344 12C19.1344 12.2625 19.0594 12.4078 18.825 12.5812C18.7172 12.6656 18.6141 12.6844 18.1219 12.6937C17.8031 12.7031 17.4703 12.6891 17.3625 12.6609C16.8656 12.5297 16.6875 11.8969 17.0437 11.5266C17.2312 11.3297 17.3812 11.3016 18.0797 11.3109C18.6187 11.3203 18.7125 11.3344 18.825 11.4187Z" fill="white"/>
</g>
<defs>
<clipPath id="clip0_733_467">
<rect width="24" height="24" fill="white"/>
</clipPath>
</defs>
</svg>
