<svg width="24" height="24" viewBox="0 0 24 24" fill="none" xmlns="http://www.w3.org/2000/svg">
<path d="M0.365625 1.55165C0.164062 1.65478 0 1.93134 0 2.15634C0 2.39072 0.164062 2.65791 0.375 2.76572C0.548438 2.85478 0.646875 2.85947 2.09531 2.85947H3.6375L5.32969 8.79384L7.02656 14.7282L6.89063 15.0001C6.65625 15.4642 6.55313 15.8298 6.55313 16.2188C6.55313 17.1938 7.18594 18.0095 8.13281 18.2579C8.33438 18.3095 8.67188 18.3282 9.375 18.3329C10.2375 18.3376 10.3125 18.3423 10.1016 18.3938C9.7125 18.4876 9.41719 18.6563 9.1125 18.9563C8.28281 19.7907 8.28281 21.0892 9.1125 21.9142C9.95156 22.7485 11.2453 22.7485 12.0703 21.9188C12.7125 21.272 12.8719 20.3345 12.4828 19.5095C12.2391 18.9892 11.6016 18.4876 11.0484 18.3751C10.9359 18.3563 12.2766 18.3376 14.1328 18.3376C16.8188 18.3376 17.3719 18.347 17.1797 18.3938C16.7906 18.4876 16.4953 18.6563 16.1906 18.9563C15.3609 19.7907 15.3609 21.0892 16.1906 21.9142C17.0297 22.7485 18.3234 22.7485 19.1484 21.9188C19.9828 21.0798 19.9828 19.7907 19.1484 18.9563C18.8531 18.6563 18.5531 18.4876 18.1641 18.3938C17.9625 18.3423 18.1125 18.3376 19.2797 18.3329C20.5359 18.3282 20.6438 18.3235 20.8125 18.2345C21.0234 18.1267 21.1875 17.8595 21.1875 17.6251C21.1875 17.3907 21.0234 17.1235 20.8125 17.0157C20.6297 16.922 20.55 16.922 14.5688 16.922C8.89219 16.922 8.49844 16.9173 8.34375 16.8376C7.96406 16.6501 7.87031 16.2376 8.09531 15.7735L8.22188 15.5157H14.4234C20.5734 15.5157 20.6297 15.5157 20.8172 15.422C20.9484 15.3517 21.0328 15.2673 21.0938 15.1267C21.2109 14.8735 24 5.10478 24 4.94541C24 4.73447 23.8266 4.46259 23.625 4.35947C23.4422 4.26572 23.3672 4.26572 14.4703 4.26572H5.49844L5.18438 3.15009C4.80938 1.82822 4.74844 1.69228 4.50469 1.55634C4.32656 1.45322 4.28906 1.45322 2.43281 1.45322C0.642188 1.4579 0.529688 1.46259 0.365625 1.55165Z" fill="white"/>
</svg>
