<svg width="104" height="103" viewBox="0 0 104 103" fill="none" xmlns="http://www.w3.org/2000/svg">
<path fill-rule="evenodd" clip-rule="evenodd" d="M13.0632 8.57246C13.6478 7.87702 14 6.97963 14 5.99999C14 3.79085 12.2091 1.99999 10 1.99999C7.79086 1.99999 6 3.79085 6 5.99999C3.79086 5.99999 2 7.79085 2 9.99999C2 10.8233 2.24874 11.5885 2.67518 12.2246C1.11714 12.7713 0 14.2552 0 16C0 17.4924 0.817271 18.7938 2.02866 19.4813C2.26637 21.4635 3.95375 23 6 23C6.48002 23 6.94028 22.9154 7.36672 22.7604C8.17799 24.6668 10.2759 26.2578 13.0627 27.1697C13.0213 27.442 13 27.719 13 28C13 31.0512 15.51 33.6465 19.0117 34.6049C19.004 34.7357 19 34.8674 19 35C19 37.7058 20.6449 40.0531 23.0524 41.2182C23.0178 41.4749 23 41.7357 23 42C23 43.8628 23.8836 45.5557 25.3245 46.8099C25.1139 47.4989 25 48.2351 25 49C25 49.7678 25.1148 50.5068 25.3269 51.198C24.5989 51.0698 23.8157 51 23 51C21.7078 51 20.4973 51.1751 19.4584 51.4804C18.7652 49.3989 17.4759 48 16 48C15.99 48 15.98 48.0001 15.97 48.0002C15.9897 47.8386 16 47.6713 16 47.5C16 46.1193 15.3284 45 14.5 45C13.7743 45 13.1689 45.859 13.03 47.0002C13.02 47.0001 13.01 47 13 47C10.7909 47 9 51.0294 9 56C9 60.9706 10.7909 65 13 65C14.1847 65 15.2491 63.8412 15.9815 61.9999L16 62C17.6859 62 19.1282 60.1748 19.7168 57.5919C20.696 57.8524 21.8135 58 23 58C24.5697 58 26.0187 57.7417 27.1862 57.3054C27.5104 57.9936 28.2408 58.6034 29.244 59.0681C29.5909 60.498 30.2882 61.7322 31.2082 62.6083C31.0717 63.2196 31 63.8522 31 64.5C31 68.2114 33.3523 71.4257 36.7815 72.989C33.7018 75.6279 33.0695 80.0916 35.4165 83.1743C36.2162 84.2247 37.2626 84.9843 38.4277 85.4397C38.5732 85.6918 38.7361 85.9371 38.9167 86.1743C39.3906 86.7968 39.9511 87.3171 40.5717 87.7326C38.5999 89.2371 37.5434 91.1656 38.2115 92.0431C38.8806 92.922 41.026 92.414 43.0035 90.9085C43.0281 90.8897 43.0526 90.8709 43.077 90.852C43.0264 91.062 43 91.2786 43 91.5C43 93.3128 44.772 94.8038 47.0424 94.9821C47.3443 96.687 49.225 98 51.5 98L51.5234 97.9999C52.3167 98.6223 53.3587 99 54.5 99C54.6691 99 54.8359 98.9917 55.0002 98.9756L55 99C55 100.657 57.0147 102 59.5 102C61.0652 102 62.4438 101.467 63.25 100.659C63.8628 101.44 65.5342 102 67.5 102C69.9853 102 72 101.105 72 100C72 99.8323 71.9536 99.6694 71.8661 99.5138C72.3043 99.8167 72.8754 100 73.5 100C74.8807 100 76 99.1046 76 98C76 97.908 75.9922 97.8174 75.9772 97.7286C75.9984 97.7432 76.0202 97.7569 76.0427 97.7698C77.2405 98.4565 79.6907 96.4328 81.5154 93.2499C83.34 90.0669 83.8481 86.93 82.6503 86.2433C81.4524 85.5566 79.0022 87.5803 77.1776 90.7632C75.8411 93.0946 75.2109 95.4013 75.4401 96.7386C74.9817 96.2879 74.2829 96 73.5 96C72.1193 96 71 96.8954 71 98C71 98.3275 71.0984 98.6366 71.2729 98.9095C70.47 98.362 69.0801 98 67.5 98C66.0776 98 64.8094 98.2933 63.9847 98.7512C63.7951 97.2108 61.8596 96 59.5 96C59.2789 96 59.0616 96.0106 58.8491 96.0312C58.9475 95.7022 59 95.3565 59 95C59 93.3218 57.8374 91.885 56.189 91.2913C56.7001 90.6423 57 89.8523 57 89C57 87.8053 56.4108 86.7329 55.4766 86C56.4108 85.267 57 84.1947 57 83C57 81.5763 56.1632 80.3263 54.9029 79.6174C55.5864 78.9159 56 78.0009 56 77C56 75.4918 55.061 74.1786 53.6742 73.497C53.8843 73.0346 54 72.5293 54 72C54 70.7634 53.3687 69.6578 52.3769 68.9241C54.4424 68.5614 56 66.9424 56 65L56 64.9916C56.1657 64.9972 56.3324 65 56.5 65C58.4331 65 60.2442 64.6269 61.7998 63.9759C62.0312 63.9919 62.2647 64 62.5 64C63.4563 64 64.3827 63.8661 65.2632 63.6151C65.9759 63.8661 66.7259 64 67.5 64C72.1944 64 76 59.0751 76 53C76 52.9147 75.9993 52.8296 75.9978 52.7447C77.7123 52.1397 78.9505 50.5254 78.9986 48.6153C82.5468 47.9735 85 46.5959 85 45C85 44.9243 84.9945 44.8492 84.9836 44.7746C89.0703 44.2272 92 42.7439 92 41C92 40.2575 91.469 39.5623 90.5438 38.9665C92.6665 38.2345 94 37.1766 94 36C94 35.6254 93.8648 35.2629 93.6121 34.919C98.3988 34.5466 102 32.9335 102 31C102 29.5424 99.9534 28.2668 96.8951 27.5677C96.9642 27.3822 97 27.1927 97 27C97 24.7909 92.299 23 86.5 23C85.8615 23 85.2363 23.0217 84.6292 23.0633C82.7568 22.4033 80.252 22 77.5 22C71.701 22 67 23.7909 67 26C67 26.4762 67.2185 26.933 67.6193 27.3566C65.989 28.0615 65 28.9867 65 30C65 30.4762 65.2185 30.933 65.6193 31.3566C63.989 32.0615 63 32.9867 63 34C63 34.3677 63.1303 34.7239 63.3742 35.0621C61.2992 35.7929 60 36.8386 60 38C60 38.273 60.0718 38.5396 60.2086 38.7972C57.6534 39.5269 56 40.6899 56 42C56 42.5932 56.3389 43.1562 56.947 43.6624C55.6444 44.5144 54.5329 45.6573 53.6955 47.0042C53.6307 47.0014 53.5655 47 53.5 47C51.0147 47 49 49.0147 49 51.5C49 51.7418 49.0191 51.9792 49.0558 52.2107C47.6352 53.2308 46.6228 54.5411 46.2083 56.0063C44.7922 55.3625 43.1929 55 41.5 55C41.1204 55 40.7455 55.0182 40.3763 55.0538C40.1672 54.8236 39.9096 54.6067 39.6101 54.4064C39.2102 53.1311 38.524 52.0406 37.6527 51.2634C37.8778 50.5535 38 49.7921 38 49C38 48.2351 37.8861 47.4989 37.6755 46.8099C39.1164 45.5557 40 43.8628 40 42C40 38.8484 37.4709 36.1832 33.993 35.3059C33.9976 35.2045 34 35.1025 34 35C34 32.6461 32.7552 30.5636 30.8464 29.2946C30.9473 28.875 31 28.4423 31 28C31 26.3819 30.2941 24.8921 29.1088 23.7066C29.6828 22.8739 30 21.9595 30 21C30 17.8817 26.6502 15.2396 22.0214 14.3343C20.3792 12.9922 17.8565 12.1017 15 12.0082L15 12C15 10.5457 14.2239 9.27262 13.0632 8.57246ZM7.50224 13.942L7.45155 13.9771C7.41127 13.9086 7.369 13.8413 7.32482 13.7754C7.35034 13.7664 7.37575 13.7572 7.40103 13.7478C7.43304 13.8135 7.46679 13.8783 7.50224 13.942Z" fill="url(#paint0_linear_57_24)" fill-opacity="0.62"/>
<path d="M12.0645 0.413223C3.4063 3.22874 -1.10277 10.4263 0.2309 19.3386C0.357916 20.2065 0.52727 21.011 0.590778 21.1168C0.675456 21.2438 1.58574 21.7942 2.6442 22.3446C10.244 26.3456 16.6583 33.268 21.4637 42.6672C22.8821 45.398 24.6815 49.7165 24.4909 49.8859C24.4274 49.9494 23.8347 49.9071 23.1573 49.7801C22.4798 49.653 21.5696 49.5472 21.1038 49.5472C20.2147 49.5472 20.2359 49.6319 20.6593 48.1288C20.744 47.8325 20.6381 47.5361 20.3206 47.2186C19.876 46.774 19.1351 46.7528 17.7591 47.1339C17.4839 47.2186 17.3992 46.9222 17.2722 45.3768C17.124 43.4293 16.7641 42.5613 16.1079 42.5613C15.5363 42.5613 13.8428 43.768 13.0172 44.7629C10.0958 48.3405 8.76213 52.8496 8.52927 60.0683L8.40225 64.2599L9.03733 64.9161C9.58773 65.4453 9.98995 65.6147 11.5565 65.8899C12.5726 66.0804 13.5464 66.1863 13.6734 66.1228C13.8216 66.0592 14.3297 65.4453 14.7954 64.7256C15.4093 63.773 16.0232 63.1591 17.0393 62.5028C18.5 61.529 19.7067 60.153 20.1512 58.9252L20.4264 58.1843L22.3317 58.2901C24.4698 58.396 26.5232 58.8829 27.9204 59.5603L28.8518 60.026L29.4445 62.397C30.3972 66.2286 32.5988 70.3143 34.5675 71.8808L35.2873 72.4735L34.0806 75.9877C32.3447 80.9624 32.3447 81.0895 34.1018 83.4181C35.4566 85.2175 36.0494 85.6409 37.4465 85.8737C38.6744 86.0642 38.9496 86.4665 38.2086 87.0592C37.2349 87.8213 36.8326 88.9856 36.8326 91.166C36.8326 93.4735 36.9173 93.6005 39.0131 94.1298C40.3679 94.4685 40.4738 94.4685 40.8336 94.1298C41.0665 93.9181 41.2994 93.4523 41.3629 93.0713C41.4475 92.6902 41.6381 92.2033 41.8286 91.9705C42.125 91.6106 42.125 91.6953 41.9979 93.1136C41.8498 94.913 41.9133 95.04 43.5433 95.8021C45.0887 96.5007 45.8719 96.5007 46.1895 95.8021L46.4223 95.2729L47.4808 96.4372C51.6935 101.158 58.4888 103.487 66.4697 102.915C71.0846 102.576 72.9475 101.878 76.9696 98.9564C82.9394 94.6166 84.1249 92.6902 84.4636 86.7205C84.6541 83.2699 84.5059 82.5713 83.6168 82.5713C83.3628 82.5713 82.262 83.3969 81.1188 84.4342C78.642 86.7205 77.7106 87.7155 76.9696 88.9644C76.3981 89.9594 75.5725 92.7961 75.5725 93.8122C75.5725 94.2144 75.3396 94.5955 74.7892 95.0612C72.0372 97.4745 66.0039 98.1519 62.3205 96.4584C60.3729 95.5693 58.5735 93.283 57.7902 90.7215C57.6421 90.2558 57.4515 87.779 57.3669 85.2175C57.0917 78.2104 56.3719 74.1459 54.8265 71.034L53.9798 69.3405L55.0171 68.3879C58.1501 65.53 62.7439 64.1328 68.0574 64.4504C69.3487 64.5139 70.9787 64.6409 71.6773 64.7044C72.5453 64.7891 73.0322 64.7468 73.1168 64.5986C73.2015 64.4716 73.4979 63.4343 73.7731 62.2911C75.3608 55.7498 78.134 51.3466 82.5583 48.3405C84.5694 46.9857 87.3849 45.8637 89.4172 45.6097C91.0896 45.398 91.3648 45.144 91.5341 43.5774C91.8728 40.5291 93.143 37.9041 94.9847 36.5069C96.5089 35.3426 98.0119 34.898 100.827 34.7498C104.151 34.5805 104.257 34.4535 102.902 31.6803C99.5361 24.7579 91.0049 20.9686 78.8537 20.9686C74.9797 20.9686 67.7187 21.7519 67.2529 22.2176C67.1683 22.3023 66.9142 23.1491 66.6814 24.0805C65.3477 29.7115 61.1138 36.1047 52.4979 45.5674C50.9314 47.2821 50.2116 48.2982 49.2167 50.1611C48.5181 51.4736 47.6078 52.9343 47.2056 53.4212L46.4435 54.2679L44.8135 54.0351C43.9032 53.8869 42.506 53.7811 41.7227 53.7811H40.2621L39.9022 52.7649C39.6905 52.1934 39.5 50.8385 39.4365 49.5472C39.3094 46.7528 39.6482 45.3133 41.0665 42.6248C41.6381 41.5452 42.0615 40.5291 41.9979 40.3597C41.9344 40.2115 41.0665 39.4494 40.0504 38.6873C35.5413 35.3214 32.5776 30.9817 31.0746 25.4777C30.6935 24.1017 30.6089 23.1702 30.5877 19.9525C30.5454 16.9676 30.4607 15.9938 30.249 15.7821C30.0796 15.634 29.0847 15.3588 28.0262 15.1682C21.379 13.9827 16.5736 11.3578 14.9224 7.99184C14.1391 6.3618 13.991 4.37188 14.499 2.38197C15.1341 -0.0736742 14.6895 -0.433549 12.0645 0.413223ZM12.1069 3.99084C11.8317 8.73276 14.626 12.6279 20.0242 15.0412C21.6966 15.8033 24.8931 16.7771 26.9042 17.1581L28.3014 17.4122L28.4284 20.7146C28.5131 23.3396 28.6401 24.4827 29.0635 26.1128C29.7833 28.8013 30.9899 31.5109 32.5141 33.8184C33.6996 35.639 36.6209 38.772 38.505 40.2539L39.4365 40.9948L38.7802 42.3708C37.3407 45.2922 36.875 49.2297 37.5736 52.278C37.7641 53.0401 37.8276 53.7175 37.7429 53.8022C37.4042 54.1409 35.6683 54.0563 34.9274 53.6752C34.5252 53.4635 33.4455 52.9766 32.5353 52.6167L30.8841 51.9393L29.5081 47.8536C27.5393 42.0744 26.9889 41.0583 26.0998 41.6299C25.2742 42.1591 25.3165 42.392 26.8619 46.6893C27.7087 48.9756 28.3437 50.902 28.3014 50.9655C28.1321 51.1349 27.0948 50.775 27.0948 50.5421C27.0948 50.1188 24.7026 44.3395 23.6865 42.2861C18.754 32.4847 12.0645 25.0966 4.10488 20.7146C2.49602 19.8255 2.43251 19.762 2.26315 18.8517C2.03029 17.5604 2.24198 13.7287 2.62303 12.2892C3.49097 9.13498 5.69258 6.15011 8.42342 4.43539C9.63007 3.6733 11.7047 2.59366 12.0645 2.57249C12.1281 2.55133 12.1492 3.20757 12.1069 3.99084ZM86.5805 23.6995C93.27 24.8638 97.7367 27.3194 100.214 31.2146C100.637 31.8496 100.976 32.4424 100.976 32.5059C100.976 32.5694 100.531 32.6117 100.002 32.6117C98.7529 32.6117 96.7629 33.1198 95.2599 33.8396C93.6511 34.6017 91.5976 36.6763 90.8144 38.3698C90.1581 39.767 89.5442 41.8839 89.5442 42.7095C89.5442 43.2599 89.3749 43.3446 86.898 44.0432C80.3779 45.8214 75.0856 51.2196 72.6088 58.6077C72.2701 59.6449 71.889 60.9574 71.762 61.529L71.5291 62.5875L70.3225 62.4393C65.7922 61.8677 60.5846 62.6298 57.1552 64.3657C54.8901 65.4877 51.4395 68.5361 51.4395 69.404C51.4395 69.5522 51.7147 70.0391 52.0745 70.4625C53.9374 72.8123 54.9536 77.533 55.2288 85.4292C55.3981 89.9594 55.4616 90.404 55.9909 91.8858C57.0917 94.9342 58.8911 97.0723 61.3679 98.3213C64.5221 99.9301 70.1108 99.8878 73.6461 98.2366C74.7469 97.7074 74.9374 97.665 74.641 98.0037C74.1118 98.5753 71.6773 99.8243 70.1743 100.269C69.2217 100.565 68.2055 100.65 66.1521 100.65C60.4999 100.65 57.3457 99.0834 53.9798 94.5955C52.3709 92.4785 50.381 88.4352 49.5766 85.7044C49.0473 83.8203 49.005 83.4816 49.1743 82.1479C49.3225 81.026 49.3225 80.6026 49.1108 80.3485C48.7721 79.9463 47.9677 79.9251 47.5866 80.3274C47.4173 80.4967 47.0362 82.2114 46.6975 84.4977C46.38 86.6358 46.0624 88.5411 46.0201 88.7527C45.9354 89.0279 45.5544 89.1126 43.8397 89.1761C41.8709 89.2396 41.7016 89.282 40.9395 89.8959C40.4949 90.2346 39.9657 90.8908 39.7328 91.3142C39.5211 91.7376 39.2459 92.034 39.1401 91.9705C38.8226 91.78 38.9284 89.4937 39.2671 88.9856C39.627 88.4775 40.4526 88.16 42.0826 87.9695C43.5645 87.779 43.882 87.4191 43.7762 86.1278C43.628 84.7306 42.8024 83.5663 41.3629 82.7407C39.9234 81.9362 39.6482 81.407 39.4576 79.0149L39.3094 77.3002L40.0292 76.5804C40.6643 75.9453 41.0242 75.8183 43.0988 75.4161C45.9354 74.8445 46.0625 74.8657 48.1582 76.7498C49.005 77.5118 49.8729 78.1258 50.1058 78.1258C50.6774 78.1258 51.0161 77.7235 51.0161 77.025C51.0161 76.5592 50.6562 76.1358 49.2167 74.8657C46.8245 72.7911 46.2106 72.6217 43.0988 73.2568L40.876 73.7014L38.9072 72.3889C37.8276 71.6691 36.5786 70.78 36.134 70.4413C34.4828 69.15 32.6199 65.9111 31.6673 62.6933L31.3286 61.5714L32.2601 62.3335C32.7893 62.7568 33.3397 63.0955 33.5091 63.0955C33.9959 63.0955 34.504 62.5028 34.504 61.9312C34.504 60.7246 29.3175 57.4645 26.1421 56.6601C23.877 56.0885 21.1673 55.8768 18.9234 56.1097C16.1714 56.406 15.4728 56.8718 16.0867 58.0361C16.2561 58.3324 16.5313 58.4383 17.1452 58.4383C17.6109 58.4383 17.9919 58.523 17.9919 58.6077C17.9919 58.904 16.002 60.7034 15.0282 61.275C14.3932 61.6349 13.8639 62.1853 13.4405 62.905C12.8266 63.9211 12.7843 63.9635 12.0645 63.8365C10.5192 63.5613 10.5827 63.6671 10.5827 61.5502C10.6039 55.0724 11.7893 49.9917 14.0333 46.9645C14.5202 46.2871 14.9859 45.7367 15.0918 45.7367C15.1764 45.7367 15.2399 46.3083 15.2399 47.0069C15.2399 48.15 15.1764 48.3405 14.499 49.1026C13.5464 50.1399 12.7208 51.9817 12.4244 53.6329C12.1492 55.3052 12.3186 56.0673 13.0383 56.2367C13.8639 56.4484 14.3085 55.8768 14.4778 54.395C14.6895 52.2145 15.748 50.394 17.2087 49.6107C17.5474 49.4413 17.8649 49.3567 17.9496 49.4202C18.0131 49.5049 17.7591 50.3305 17.378 51.3042C16.5313 53.4423 16.3831 54.1198 16.7218 54.522C17.0817 54.9454 17.8649 54.9242 18.246 54.4585C18.4153 54.2679 18.7964 53.5482 19.0716 52.8496L19.5796 51.6006L21.379 51.7276C24.3427 51.9393 29.1482 53.3577 33.0222 55.1994L35.4566 56.3425L36.875 56.1097C38.759 55.8345 42.6542 55.8345 44.7923 56.152C46.1683 56.3425 46.634 56.3425 47.1844 56.1097C48.2429 55.6863 49.5554 54.0351 50.9102 51.4524C51.9687 49.4625 52.6038 48.5946 54.6995 46.2871C60.754 39.6188 64.0352 35.2156 66.4062 30.5795C67.4858 28.4626 68.7983 25.0755 68.7983 24.3557C68.7983 23.8688 69.2217 23.8053 75.0432 23.2126C77.2237 23.0009 84.2307 23.2761 86.5805 23.6995ZM38.2298 75.3949C37.4254 76.3475 37.1925 77.3637 37.3407 79.1631C37.4042 80.0522 37.5524 81.1106 37.6794 81.4917C38.0181 82.656 38.8861 83.7991 39.7963 84.2649C40.7278 84.7306 41.4899 85.408 41.4899 85.7467C41.4899 86.1701 40.9183 85.9372 40.4526 85.3022C39.881 84.5401 38.8014 83.8415 38.1663 83.8415C37.9123 83.8415 37.4889 83.7356 37.2137 83.6086C36.5151 83.2911 34.9274 81.1318 34.9274 80.5179C34.9274 80.2215 35.4143 78.5703 36.007 76.8556L37.0867 73.7014L37.9123 74.2518L38.7379 74.781L38.2298 75.3949ZM82.1561 89.2608C81.6481 91.9281 80.145 94.0239 77.1602 96.162L75.6783 97.2416L76.6944 96.162C77.4777 95.2941 77.6894 94.9342 77.6894 94.3414C77.6894 91.9493 78.6632 89.8324 80.7378 87.6943L82.2408 86.1278L82.3043 87.1015C82.3466 87.6308 82.262 88.6046 82.1561 89.2608ZM51.3548 94.5531C52.011 95.5693 53.1753 97.0511 53.9374 97.8556C54.6784 98.6388 55.2288 99.2951 55.1441 99.2951C54.7419 99.2951 52.0745 97.6862 50.8679 96.7124C49.4284 95.5904 48.2641 94.2568 47.2268 92.6479C46.4647 91.4201 46.4223 91.2507 46.9727 91.2507C47.502 91.2507 47.8195 90.8485 47.9677 89.9594C48.0312 89.5572 48.137 89.1126 48.1794 88.9433C48.2429 88.7739 48.6874 89.5572 49.1955 90.6792C49.7036 91.8011 50.6774 93.5582 51.3548 94.5531ZM44.877 92.8596C44.877 93.3677 44.6229 93.791 44.3054 93.791C44.0725 93.791 44.009 93.664 44.1149 93.3041C44.1784 93.0501 44.2419 92.6056 44.2419 92.3092C44.2631 91.8011 44.2631 91.8011 44.5594 92.1822C44.7288 92.415 44.877 92.7114 44.877 92.8596Z" fill="#3E3E3E"/>
<path d="M8.16941 10.0241C7.74602 10.5321 7.15328 11.5059 6.83574 12.2045C6.28534 13.3477 6.243 13.644 6.243 15.9938C6.26417 19.1057 6.58171 20.1218 7.57667 20.1218C8.59279 20.1218 8.76215 19.7196 8.46578 18.0472C7.95771 15.2106 8.40227 13.1571 9.9688 11.0825C10.625 10.2146 10.625 10.1723 10.2863 9.64303C9.7571 8.81742 9.05852 8.94444 8.16941 10.0241Z" fill="#3E3E3E"/>
<path d="M13.0172 17.8567C12.4244 18.0049 11.8317 18.1954 11.7047 18.2801C11.2813 18.5341 11.2389 19.2751 11.6412 19.7408C12.001 20.1853 12.0434 20.1853 13.5041 19.9101C16.5313 19.3386 20.2782 19.9313 23.9194 21.5402C25.1895 22.0906 25.9304 22.0482 26.1421 21.392C26.3962 20.5876 26.0575 20.1853 24.5333 19.5079C21.7178 18.2378 19.622 17.7509 16.7218 17.6662C15.0071 17.6239 13.6946 17.6874 13.0172 17.8567Z" fill="#3E3E3E"/>
<path d="M70.64 25.52C70.4707 25.6894 70.1743 26.4938 69.9838 27.3194C68.7983 32.5694 64.5433 39.2166 57.0917 47.4091C55.5251 49.1238 54.4032 50.5421 54.4032 50.7962C54.4032 51.3254 54.9536 51.8758 55.4616 51.8758C55.6945 51.8758 56.753 50.902 57.9596 49.5895C66.0463 40.8889 70.7459 33.6279 72.0584 27.7851C72.4182 26.1763 72.3336 25.5835 71.635 25.3295C71.1481 25.139 70.9787 25.1601 70.64 25.52Z" fill="#3E3E3E"/>
<path d="M72.9051 30.1773C72.5876 30.643 72.5876 30.7488 72.884 31.1934C73.1168 31.5533 73.6037 31.765 74.7892 32.019C79.891 33.141 84.146 36.9303 85.7126 41.778C86.0089 42.646 86.6652 42.9635 87.4061 42.5613C88.02 42.2438 87.9777 41.4817 87.2368 39.7881C85.141 34.8557 80.7589 31.2569 75.3396 29.9656C73.519 29.5422 73.3073 29.5634 72.9051 30.1773Z" fill="#3E3E3E"/>
<path d="M68.7559 41.1006C68.2479 41.3758 68.2902 41.9262 68.9041 43.895C69.9414 47.155 69.9414 52.1722 68.9253 56.7659C68.2479 59.6873 68.2479 60.0472 68.8194 60.3647C69.6027 60.7669 70.1955 60.3224 70.5553 59.031C71.9737 54.0774 72.2489 48.1712 71.2328 44.2125C70.4495 41.27 69.8356 40.4655 68.7559 41.1006Z" fill="#3E3E3E"/>
<path d="M11.6835 58.5653C10.8155 59.158 11.2813 60.5552 12.3609 60.5552C12.9113 60.5552 13.5464 59.9413 13.5464 59.4332C13.5464 59.0099 12.8266 58.2266 12.4244 58.2266C12.2762 58.2266 11.9375 58.3748 11.6835 58.5653Z" fill="#3E3E3E"/>
<defs>
<linearGradient id="paint0_linear_57_24" x1="-3.5238e-07" y1="78" x2="105.5" y2="19" gradientUnits="userSpaceOnUse">
<stop stop-color="#AB8964"/>
<stop offset="1" stop-color="#C4B186"/>
</linearGradient>
</defs>
</svg>
