<svg width="28" height="34" viewBox="0 0 28 34" fill="none" xmlns="http://www.w3.org/2000/svg">
<path d="M23.1707 17.7192C23.132 13.5293 26.6893 11.4909 26.852 11.396C24.8373 8.53208 21.7147 8.14078 20.6173 8.10958C17.9947 7.84048 15.4507 9.63968 14.1147 9.63968C12.752 9.63968 10.6947 8.13558 8.47734 8.17978C5.624 8.22268 2.95467 9.83338 1.49067 12.3346C-1.53066 17.4345 0.722672 24.929 3.61734 29.0513C5.06534 31.0702 6.75734 33.3244 8.97201 33.2451C11.1387 33.158 11.948 31.8983 14.5627 31.8983C17.1533 31.8983 17.9133 33.2451 20.172 33.1944C22.4973 33.158 23.9613 31.1664 25.3587 29.1293C27.032 26.8153 27.704 24.5364 27.7307 24.4194C27.676 24.4012 23.2147 22.7411 23.1707 17.7192Z" fill="white"/>
<path d="M18.904 5.39778C20.0693 3.97688 20.8667 2.04378 20.6453 0.0820808C18.9587 0.154881 16.8493 1.21958 15.6347 2.60928C14.56 3.83388 13.6 5.84108 13.848 7.72868C15.7427 7.86648 17.688 6.79658 18.904 5.39778Z" fill="white"/>
</svg>
