<svg width="846" height="649" viewBox="0 0 846 649" fill="none" xmlns="http://www.w3.org/2000/svg">
<path d="M677.5 167.5L681 158.5L683 144C683 144 681.321 140.719 681.5 138.5C681.812 134.637 687.606 134.856 688 131C688.295 128.112 685.704 126.896 685.5 124C685.095 118.248 692.5 111 692.5 111C692.5 111 693.501 109.551 693.499 108.5C693.496 106.274 690.146 106.908 688.999 105C687.875 103.129 689.218 101.311 687.999 99.5C687.148 98.2347 685.916 98.2189 684.999 97C683.319 94.7656 682.93 92.7372 683.499 90C683.963 87.7705 685.935 87.2061 686.499 85C687.391 81.5119 684.767 79.5905 684.499 76C684.252 72.684 686.728 70.3404 684.999 67.5C684.281 66.3206 683.182 66.2001 682.499 65C681.433 63.1254 680.97 61.3955 681.999 59.5C682.526 58.5292 683.709 58.5656 683.999 57.5C684.261 56.5394 683.237 55.9606 683.499 55C683.79 53.9344 685.499 53 685.499 53C685.499 53 687.196 52.6792 687.999 52C688.999 51.1539 689.804 50.2739 689.499 49C689.208 47.7841 687.79 47.9683 686.999 47C686.17 45.9856 686.53 44.808 685.499 44C684.26 43.0289 682.369 44.8119 681.499 43.5C680.736 42.3494 682.213 41.3641 681.999 40C681.836 38.9612 681.162 38.5388 680.999 37.5C680.785 36.1359 681.475 35.3805 681.499 34C681.527 32.426 681.763 31.3766 680.999 30C680.259 28.6664 678.956 28.6871 677.999 27.5C677.557 26.952 677.238 26.6622 676.999 26C676.53 24.7013 677.215 23.8512 677.499 22.5C677.665 21.7121 677.654 21.2276 677.999 20.5C678.59 19.2522 679.882 19.2349 680.499 18C680.775 17.4477 680.952 17.1157 680.999 16.5C681.061 15.6973 680.228 15.2582 680.499 14.5C680.959 13.2128 682.846 15.2338 683.999 14.5C684.96 13.8887 685.538 13.1379 685.499 12C685.47 11.1273 684.358 10.8618 684.499 10C684.683 8.87631 686.258 9.36446 686.999 8.5C687.567 7.83699 687.486 7.20622 687.999 6.5C688.486 5.83002 688.958 5.62697 689.499 5C690.419 3.93435 691.968 3.32778 691.499 2C691.174 1.07935 689.499 0.5 689.499 0.5M677.5 167.5C677.5 167.5 673.615 170.975 673 174C672.689 175.531 672.524 176.512 673 178C673.429 179.341 674.59 179.653 675 181C676.343 185.408 666.717 183.555 665.5 188C664.341 192.232 671.058 194.398 669.5 198.5C668.904 200.07 667 202 667 202C667 202 664.24 202.77 663 204C659.937 207.037 665.721 211.045 664 215C663.112 217.041 661.447 217.485 660.5 219.5C658.504 223.745 661 231.5 661 231.5C661 231.5 661.891 233.583 662 235C662.497 241.448 648.467 236.605 647.5 243M677.5 167.5C677.5 167.5 673.148 164.324 669.999 163C663.837 160.408 659.013 163.918 652.999 161C646.663 157.926 646.636 151.456 640.499 148C635.545 145.21 631.166 147.249 626.499 144C620.535 139.848 616.999 128 616.999 128L604.999 115L594.499 101.5C594.499 101.5 588.213 93.0792 582.499 90C578.531 87.8614 575.245 89.0083 571.499 86.5C568.399 84.4243 568.671 80.1583 564.999 79.5C560.945 78.7731 559.704 83.2003 555.999 85C549.943 87.9418 539.499 90 539.499 90C539.499 90 533.749 95.687 528.999 97C523.116 98.6261 513.499 95 513.499 95M647.5 243C646.946 246.663 650.436 248.296 650.5 252C650.548 254.795 647.529 256.623 649 259C650.398 261.258 653.972 258.828 655.5 261C657.077 263.242 655 268 655 268C655 268 652.187 273.614 652 277.5C651.838 280.867 652.079 282.944 653.5 286C655.539 290.384 660.215 290.239 662.5 294.5C665.914 300.867 660.599 306.03 662.5 313C663.627 317.132 667 323 667 323L668.5 328C668.5 328 668.21 330.465 668.5 332C668.858 333.89 670.088 334.622 670.5 336.5C671.264 339.98 669.095 341.938 669 345.5C668.906 349.035 667.968 351.606 670 354.5C672.008 357.358 675.609 355.954 678 358.5C680.458 361.117 681.5 367 681.5 367C681.5 367 681.163 373.834 678 374.5C675.346 375.059 674.632 371.656 672 371C669.727 370.433 667.3 369.05 666 371C664.896 372.657 667.288 374.03 667 376C666.441 379.835 659.5 382.5 659.5 382.5L656 387L654.5 395C654.5 395 656 399.204 656 402C656 404.796 654.357 406.208 654.5 409C654.684 412.585 658 417.5 658 417.5L658.5 425L658 433L658.5 441M647.5 243C647.5 243 644.117 243.36 641.999 243C634.512 241.726 635.77 231.194 628.499 229C624.2 227.702 616.999 229 616.999 229C616.999 229 604.328 231.7 596.999 229C593.636 227.761 588.999 224.5 588.999 224.5L583.499 222.5C583.499 222.5 577.905 217.672 573.499 217C567.331 216.059 564.686 221.693 558.499 222.5C552.276 223.311 542.499 221 542.499 221L533.499 220C533.499 220 526.918 222.269 522.999 221C520.32 220.132 516.999 217 516.999 217C516.999 217 513.975 215.753 511.999 216C509.205 216.349 508.781 219.564 505.999 220C502.949 220.478 498.499 217.5 498.499 217.5L488.999 217L483.999 214.5C483.999 214.5 483.001 212.214 481.999 211C478.534 206.798 468.499 207.5 468.499 207.5L462.499 204.5M658.5 441C658.5 441 659.452 443.325 660.499 444.5C663.43 447.789 667.41 445.36 671.499 447C675.975 448.795 677.382 452.108 681.999 453.5C684.273 454.186 685.655 454.885 687.999 454.5C690.153 454.146 690.939 452.723 692.999 452C694.518 451.466 696.999 451 696.999 451C696.999 451 701.279 451.165 703.999 451.5C707.952 451.987 710.887 455.985 713.999 453.5C715.843 452.028 714.918 449.751 716.499 448C717.337 447.072 717.754 446.108 718.999 446C720.402 445.878 720.65 447.598 721.999 448C723.309 448.39 724.173 448.333 725.499 448C728.047 447.36 727.906 443.922 730.499 443.5C733.707 442.978 734.662 446.415 737.499 448C740.702 449.79 742.332 452.099 745.999 452C748.718 451.927 749.817 449.951 752.499 449.5C756.584 448.813 758.89 451.524 762.999 451C766.74 450.523 768.301 448.241 771.999 447.5C776.211 446.656 778.703 447.5 782.999 447.5C784.561 447.5 785.646 446.719 786.999 447.5C788.363 448.287 787.713 450.092 788.999 451C790.753 452.239 792.916 449.549 794.499 451C796.226 452.583 793.781 454.77 794.499 457C794.982 458.498 795.865 459.059 796.499 460.5C797.396 462.538 797.078 463.973 797.999 466C798.761 467.677 800.499 470 800.499 470L802.999 476.5C802.999 476.5 805.168 480.301 805.499 483C805.666 484.357 805.046 485.211 805.499 486.5C806.344 488.902 808.591 489.175 810.999 490C814.324 491.139 816.487 490.127 819.999 490C822.933 489.894 824.847 488.242 827.499 489.5C829.624 490.508 830.312 491.97 831.499 494C832.746 496.132 832.032 498.013 833.499 500C835.997 503.384 841.116 500.534 843.499 504C844.342 505.225 844.65 506.055 844.999 507.5C845.739 510.56 843.62 512.374 843.999 515.5C844.193 517.098 845.085 517.892 844.999 519.5C844.882 521.68 843.188 522.428 842.499 524.5C841.689 526.937 841.85 528.456 841.499 531C841.042 534.311 840.499 539.5 840.499 539.5C840.499 539.5 840.348 545.789 838.999 549.5C838.014 552.21 837.251 553.71 835.499 556C833.568 558.524 831.202 558.816 829.499 561.5C826.955 565.512 829.379 569.137 827.499 573.5C826.213 576.485 823.727 577.333 822.999 580.5C821.838 585.557 826.856 587.852 827.499 593C827.862 595.906 828.61 597.79 827.499 600.5C826.077 603.971 819.999 606.5 819.999 606.5C819.999 606.5 817.713 607.497 816.499 608.5C814.201 610.398 812.499 615 812.499 615C812.499 615 810.047 618.498 808.999 621C807.682 624.145 808.344 626.366 806.999 629.5C805.718 632.486 803.266 633.342 802.499 636.5C801.947 638.777 802.818 640.179 802.499 642.5C802.196 644.706 800.999 648 800.999 648M658.5 441C658.5 441 654.149 436.833 652 438.5C650.681 439.522 651.331 441.054 650.5 442.5C648.629 445.751 643 448.5 643 448.5H630.5C630.5 448.5 626.654 446.418 624 446.5C617.751 446.693 614 459 614 459C614 459 614.571 463.627 614 466.5C612.618 473.439 603.427 473.486 602.5 480.5C602.269 482.242 602.776 483.265 602.5 485C601.317 492.408 594.487 494.269 587.5 497M462.499 204.5C462.499 204.5 458.472 202.805 455.999 203.5C453.075 204.322 453.33 207.899 450.499 209C447.951 209.991 446.064 208.055 443.499 209C441.153 209.864 440.931 212.418 438.499 213C437.17 213.318 434.999 213 434.999 213L397.999 238.5M462.499 204.5C462.499 204.5 459.373 197.799 461.499 194.5C462.79 192.496 464.482 192.27 466.499 191C470.563 188.441 476.347 190.162 477.499 185.5C478.285 182.322 474.955 180.773 474.999 177.5C475.031 175.085 476.499 171.5 476.499 171.5V168C476.499 168 501.129 138.185 505.499 115C505.975 112.476 505.108 110.659 506.499 108.5C507.474 106.987 509.512 107.233 509.999 105.5C510.435 103.95 508.937 103.109 508.999 101.5C509.119 98.415 513.22 98.0747 513.499 95M397.999 238.5L386.499 247C386.499 247 384.848 252.616 381.999 254.5C379.508 256.148 376.96 254.308 374.499 256C372.179 257.595 373.071 260.853 370.499 262C368.537 262.875 364.999 262 364.999 262L358.499 252.5C358.499 252.5 358.255 246.871 355.999 244.5C352.989 241.337 348.503 245.105 344.999 242.5C342.992 241.008 340.999 237.5 340.999 237.5L336.999 228M397.999 238.5V243.5L400.499 248.5C400.499 248.5 399.033 250.959 399.499 252.5C400.182 254.758 403.746 253.001 404.999 255C406.466 257.34 403.969 259.239 403.999 262C404.027 264.568 403.962 266.15 404.999 268.5C407.033 273.11 412.991 271.629 415.499 276C417.291 279.123 416.094 281.685 417.499 285C419.298 289.243 424.499 294.5 424.499 294.5C424.499 294.5 429.478 303.777 434.499 308C438.912 311.711 447.499 315 447.499 315C447.499 315 450.054 315.289 451.499 316C456.319 318.372 455.999 329 455.999 329C455.999 329 456.033 332.094 456.499 334C458.173 340.841 466.143 340.562 468.999 347C471.318 352.225 468.761 356.24 470.999 361.5C475.023 370.956 489.81 367.863 491.499 378C491.916 380.504 491.217 381.977 491.499 384.5C492.286 391.534 498.999 401 498.999 401C498.999 401 500.357 402.698 500.499 404C500.746 406.264 497.499 409 497.499 409V412.5C497.499 412.5 499.95 418.307 497.999 421C497.513 421.671 496.965 421.815 496.499 422.5C495.285 424.283 495.453 425.913 495.999 428C496.331 429.267 497.499 431 497.499 431L496.999 436.5C496.999 436.5 497.484 441.529 496.499 444.5C495.271 448.207 490.09 448.616 490.499 452.5C490.628 453.728 491.657 454.275 491.499 455.5C491.304 457.013 489.761 457.179 488.999 458.5C487.698 460.757 487.499 465 487.499 465L485.499 470C485.499 470 485.956 475.243 483.999 477.5M336.999 228C336.999 228 332.755 224.955 331.999 222C331.564 220.297 332.544 219.171 331.999 217.5C331.007 214.455 327.711 214.816 325.499 212.5C321.937 208.769 318.999 201 318.999 201L309.499 196C309.499 196 307.569 194.096 305.999 193.5C301.897 191.942 299.872 197.136 295.499 197.5C291.756 197.811 285.999 196 285.999 196L269.999 193.5C269.999 193.5 265.666 192.898 262.999 193.5C261.794 193.772 261.227 194.631 259.999 194.5C257.566 194.241 258.605 190.846 256.999 189C254.018 185.573 250.08 186.793 246.499 184C241.161 179.836 242.04 174.018 236.999 169.5C233.732 166.571 229.755 167.264 227.499 163.5C225.668 160.444 227.614 157.676 225.999 154.5C224.558 151.667 222.015 151.294 220.499 148.5C219.144 146.001 218.518 144.343 218.499 141.5M336.999 228C336.999 228 331.578 234.663 326.999 237.5C321.593 240.85 316.677 238.806 311.499 242.5C307.327 245.477 307.307 249.723 302.999 252.5C299.521 254.742 295.997 253.148 292.999 256C290.083 258.775 292.764 264.075 288.999 265.5C275.47 270.619 271.033 270.925 262.584 276M218.499 141.5C218.467 136.697 222.302 134.993 223.999 130.5C226.058 125.051 227.499 116 227.499 116C227.499 116 233.367 102.106 227.499 99M218.499 141.5C218.499 141.5 215.802 146.054 213.499 148.5C209.639 152.601 201.499 156.5 201.499 156.5C201.499 156.5 197.96 157.992 196.999 160C196.072 161.938 197.432 163.396 196.999 165.5C196.523 167.811 194.499 171 194.499 171L187.999 179C187.999 179 182.427 182.748 178.999 181.5C177.421 180.925 176.954 179.84 175.499 179C173.144 177.64 168.999 176.5 168.999 176.5C168.999 176.5 162.516 174.803 158.999 176.5C154.804 178.524 152.139 181.856 152.499 186.5C152.642 188.347 154.207 189.159 153.999 191C153.673 193.884 150.041 193.54 148.499 196C146.587 199.051 146.737 201.407 146.499 205C146.396 206.559 146.726 207.454 146.499 209M227.499 99C224.393 97.3555 221.977 99.5043 218.499 99C208.687 97.5774 203.681 92.8242 196.999 85.5C193.786 81.9784 193.274 78.9639 189.999 75.5C188.194 73.5911 186.159 73.3569 184.999 71C182.677 66.283 189.505 63.7343 189.999 58.5C190.524 52.9333 186.999 44.5 186.999 44.5L180.999 30C180.999 30 178.424 23.7434 177.999 19.5C177.262 12.1452 181.999 1 181.999 1M227.499 99C227.499 99 231.415 89.9099 236.499 87C239.829 85.0943 243.687 87.5612 245.999 84.5C246.895 83.3134 246.749 82.2842 247.499 81C250.89 75.1931 256.396 72.228 262.999 73.5C266.259 74.1279 267.254 76.8026 270.499 77.5C276.058 78.6945 278.82 73.225 284.499 73.5C289.681 73.751 291.837 78.5163 296.999 78C299.887 77.7111 301.104 75.7084 303.999 75.5C310.482 75.0334 314.265 79.18 317.999 84.5C319.958 87.2912 319.441 89.7812 321.499 92.5C324.573 96.5596 327.517 98.4466 332.499 99.5C344.81 102.103 353.999 75.5 353.999 75.5C353.999 75.5 356.928 51.4904 367.499 52C371.266 52.1816 372.729 55.4325 376.499 55.5C380.452 55.5708 382.047 51.9011 385.999 52C390.891 52.1223 392.14 57.4234 396.999 58C401.374 58.5191 404.391 58.0272 407.999 55.5C413.316 51.7764 410.412 45.4093 413.999 40C416.141 36.77 420.499 32.5 420.499 32.5L426.999 23M183.499 278C187.212 269.763 197.583 281.963 206.499 280.5C210.099 279.909 215.499 278 215.499 278C215.499 278 225.835 274.715 232.499 275.5C240.395 276.43 244.638 288.77 250.999 284C255.835 280.373 259.481 277.865 262.584 276M183.499 278C181.894 281.56 181.448 284.677 183.499 288C184.813 290.128 187.072 289.947 188.499 292C190.122 294.334 190.499 299 190.499 299L194.499 315C194.499 315 197.8 317.962 197.999 320.5C198.36 325.094 188.499 327.5 188.499 327.5L183.499 336C183.499 336 184.393 340.124 183.499 342.5C182.574 344.959 179.991 345.067 178.999 347.5C177.248 351.798 182.268 354.366 181.999 359C181.823 362.026 179.999 366.5 179.999 366.5L178.999 370.5C178.999 370.5 180.267 375.363 179.999 378.5C179.721 381.761 177.499 386.5 177.499 386.5L176.499 392.5C176.499 392.5 170.698 398.228 169.999 403C169.745 404.739 169.999 407.5 169.999 407.5L164.499 418L159.499 420C159.499 420 156.913 419.335 155.499 420C152.496 421.413 155.499 428.5 155.499 428.5L157.499 438.5C157.499 438.5 155.574 444.559 157.499 447.5C158.804 449.494 161.049 449.108 162.499 451C164.343 453.406 162.626 456.117 164.499 458.5C166.073 460.501 167.47 461.707 169.999 462C172.453 462.284 173.645 459.253 175.999 460M183.499 278C183.499 278 180.356 280.401 177.999 280.5C172.849 280.716 169.999 270 169.999 270C169.999 270 167.947 263.253 164.499 261C162.276 259.547 159.459 261.219 157.999 259C156.482 256.693 159.211 254.753 158.999 252C158.631 247.211 153.499 241 153.499 241C153.499 241 149.662 237.181 148.999 234C148.311 230.7 151.162 228.805 150.499 225.5C149.807 222.049 146.27 221.435 145.499 218C145.029 215.904 145.141 214.618 145.499 212.5C145.736 211.098 146.293 210.406 146.499 209M175.999 460C179.579 461.135 176.197 465.977 177.499 469.5C178.591 472.453 180.882 473.413 181.499 476.5C181.882 478.415 180.794 479.679 181.499 481.5C182.149 483.179 184.063 483.254 184.499 485C185.135 487.541 182.647 488.645 181.499 491C179.891 494.297 177.499 499.5 177.499 499.5C177.499 499.5 175.44 503 174.999 505.5C174.419 508.792 173.636 511.637 175.999 514C178.363 516.363 182.762 512.144 184.499 515C186.233 517.851 182.035 519.707 181.499 523C180.539 528.896 186.276 532.296 184.499 538C183.452 541.361 179.499 545.5 179.499 545.5L177.499 552.5C177.499 552.5 172.243 558.788 172.499 563.5C172.657 566.398 174.688 567.614 174.999 570.5C175.316 573.438 175.221 575.309 173.999 578C172.515 581.269 168.634 581.094 167.499 584.5C166.091 588.724 170.362 591.049 170.499 595.5C170.653 600.518 167.499 608 167.499 608L164.499 612C164.499 612 161.59 613.015 160.499 614.5C159.207 616.26 159.499 620 159.499 620L159.999 627.5L159.499 632L156.499 635.5L155.499 639.5L153.499 642.5L149.499 645.5L145.499 648.5M175.999 460C175.999 460 184.647 446.214 193.499 442C199.275 439.251 204.094 441.919 209.499 438.5C214.422 435.386 216.826 432.404 218.999 427C219.83 424.934 219.216 423.319 220.499 421.5C222.063 419.283 224.229 419.485 226.499 418C230.455 415.413 235.999 410.5 235.999 410.5C235.999 410.5 237.384 407.105 238.999 405.5C242.667 401.857 247.698 405.868 251.999 403C254.644 401.236 254.703 398.511 257.499 397C262.337 394.386 266.034 399.106 271.499 398.5C275.738 398.03 281.999 395.5 281.999 395.5M483.999 477.5C481.641 480.221 478.211 477.874 474.999 479.5C469.802 482.131 470.604 488.194 465.499 491C462.137 492.848 458.958 491.059 455.999 493.5C452.331 496.526 451.999 505 451.999 505C451.999 505 452.913 507.632 453.999 509C456.615 512.294 462.386 509.116 463.999 513C465.133 515.729 462.268 517.637 462.999 520.5C463.497 522.448 464.747 523.136 465.499 525C466.76 528.126 466.999 533.5 466.999 533.5C466.999 533.5 467.867 538.192 469.999 540C471.883 541.597 475.999 542 475.999 542C475.999 542 480.875 546.876 483.999 550C485.171 551.172 486.999 553 486.999 553C486.999 553 490.487 557.271 489.499 560C488.841 561.818 486.472 561.626 485.999 563.5C485.253 566.457 489.601 566.789 490.999 569.5C492.475 572.362 491.942 574.458 492.999 577.5C495.562 584.87 506.35 587.236 503.499 594.5C503.18 595.313 502.499 596.5 502.499 596.5C502.499 596.5 503.659 601.89 502.499 605C501.666 607.233 498.999 610 498.999 610L492.999 616L486.999 624.5L480.499 633.5L475.999 637.5C475.999 637.5 470.868 638.417 468.499 640.5C466.007 642.692 464.499 648 464.499 648M483.999 477.5C483.999 477.5 488.47 479.373 491.499 479.5C495.097 479.651 496.903 477.339 500.5 477.5C511.073 477.973 508.049 493.351 517 499C523.58 503.153 536 505 536 505C536 505 543.602 507.67 548.5 507C555.637 506.023 557.166 499.279 564 497C572.705 494.096 578.952 500.341 587.5 497M513.499 95C513.867 90.9535 508.486 90.4415 507.499 86.5C506.835 83.8482 508.682 81.9646 507.499 79.5C505.874 76.1137 502.704 75.6175 498.999 75C497.073 74.679 495.876 75.5371 493.999 75C489.521 73.7187 491.06 68.0025 487.499 65C484.361 62.3537 481.351 62.8706 477.999 60.5C475.629 58.8237 475.278 56.3395 472.499 55.5C470.63 54.9353 469.393 55.9736 467.499 55.5C465.029 54.8825 464.241 53.2064 461.999 52C458.838 50.2989 456.442 50.5554 453.499 48.5C447.621 44.3953 444.499 32.5 444.499 32.5C444.499 32.5 439.509 27.4358 435.499 25.5C432.383 23.9958 428.742 25.989 426.999 23M426.999 23C425.72 20.8072 426.115 18.8796 426.999 16.5C428.305 12.9838 433.621 14.1467 434.499 10.5C435.526 6.23393 428.499 1 428.499 1M146.499 209C146.499 209 139.688 212.263 134.999 212.5C129.371 212.784 120.999 209 120.999 209H114.499L101.999 214.5C101.999 214.5 94.5684 217.945 89.4994 218C81.1127 218.091 78.0207 206.55 69.9994 209C66.3735 210.108 65.5309 213.121 61.9994 214.5C56.3611 216.702 52.4223 213.251 46.4994 214.5C41.7806 215.495 39.8211 219.094 34.9994 219C22.6708 218.76 35.2988 198.6 28.9994 188C27.0044 184.643 25.7708 182.751 22.9994 180C17.9119 174.949 10.9059 177.011 6.9994 171C5.18123 168.202 4.26761 166.326 3.9994 163C3.65659 158.749 6.9994 152.5 6.9994 152.5C6.9994 152.5 11.0586 132.829 4.9994 123C4.11798 121.57 2.4994 119.5 2.4994 119.5L0.9994 108.5C0.9994 108.5 0.465283 97.5245 4.9994 93.5C8.232 90.6307 12.7738 93.3546 15.4994 90C17.7698 87.2056 17.4994 81 17.4994 81C19.452 78.2663 20.5468 76.7337 22.4994 74C22.4994 74 22.4994 72.1716 22.4994 71L33.4994 56C33.4994 56 39.7327 51.0877 44.4994 50.5C46.2436 50.285 47.4985 51.4141 48.9994 50.5C50.6419 49.4997 50.0454 47.6698 50.9994 46C52.7854 42.8738 55.8795 42.4219 56.9994 39C57.9104 36.2164 57.9845 34.2583 56.9994 31.5C56.289 29.511 54.3322 29.0857 53.9994 27C53.4083 23.296 58.9116 23.0897 59.9994 19.5C60.8488 16.6969 60.6303 14.8602 59.9994 12C58.9378 7.1875 52.9994 1.5 52.9994 1.5M262.584 276L267.499 289L275.999 299L277.999 304L279.999 311.5C279.999 311.5 285.25 317.337 285.999 322C286.902 327.614 281.999 336 281.999 336C281.999 336 276.774 339.134 275.999 342.5C274.94 347.102 280.511 348.518 281.999 353C284.963 361.926 275.937 368.517 279.999 377C282.269 381.739 289.334 381.757 288.999 387C288.725 391.291 283.348 391.417 281.999 395.5M281.999 395.5C278.975 404.661 291.395 407.314 296.499 415.5C304.957 429.063 313.999 452.5 313.999 452.5C314.78 466.949 315.218 475.051 315.999 489.5C316.78 503.949 328.33 497.875 334.499 505C342.793 514.578 352.258 521.034 349.999 533.5C348.637 541.015 342.988 543.205 339.499 550C333.943 560.821 329.499 579.5 329.499 579.5C329.499 579.5 330.768 589.983 329.499 596.5C328.425 602.019 325.38 604.447 324.499 610C323.796 614.436 326.87 617.686 324.499 621.5C322.641 624.49 316.999 626.5 316.999 626.5C316.999 626.5 304.986 627.119 299.999 632C297.367 634.577 297.529 637.322 294.999 640C290.017 645.275 277.999 647.5 277.999 647.5M587.5 497L596.5 510C596.5 510 620.353 517.295 630.5 528.5C633.593 531.916 637.5 538 637.5 538C637.5 538 640.89 548.717 646.5 552C649.486 553.748 652.19 552.481 655 554.5C661.518 559.185 662.161 569.309 656.5 575C655.01 576.497 653.643 576.673 652 578C644.117 584.367 641 601.5 641 601.5C641 601.5 641.69 610.838 637.5 612.5C635.503 613.292 634.105 612.076 632 612.5C624.566 613.995 624.803 621.941 621 628.5C616.881 635.602 612 647.5 612 647.5" stroke="url(#paint0_linear_1536_2428)" stroke-opacity="0.67" stroke-linecap="round"/>
<defs>
<linearGradient id="paint0_linear_1536_2428" x1="803.5" y1="648.001" x2="688.5" y2="1.00071" gradientUnits="userSpaceOnUse">
<stop stop-color="#E6E1C1"/>
<stop offset="1" stop-color="#624B2C"/>
</linearGradient>
</defs>
</svg>
