<svg width="205" height="260" viewBox="0 0 205 260" fill="none" xmlns="http://www.w3.org/2000/svg">
<path d="M95.6719 3.17059L90.916 6.34116L88.6262 5.22559C83.5767 2.64215 79.2906 4.28616 72.832 11.2732C63.9661 20.9023 56.1571 34.4066 53.515 44.7991L52.7517 47.6174L50.9315 44.7404C48.2307 40.513 46.5867 39.1625 43.5922 38.8689C40.8327 38.5166 38.4254 39.4561 36.5465 41.5111C35.9594 42.1569 33.3759 49.2614 30.7925 57.3053C26.5063 70.4573 26.0953 72.2187 26.3302 75.3893C26.5063 77.3269 26.7999 79.4406 27.0348 80.1452C27.3284 81.1433 27.0935 81.4956 25.5669 82.1414C20.8111 84.1377 17.9928 87.2496 17.112 91.6532C16.8185 92.8862 16.2313 93.4146 14.5286 93.8256C12.3562 94.4128 9.30303 97.1136 8.07003 99.5209C7.71774 100.167 7.01317 105.921 6.48474 112.321C5.72145 121.656 5.66274 124.709 6.19117 127.939C6.95445 132.577 9.89017 139.094 12.591 142.148L14.4699 144.261L11.0645 145.259C6.24988 146.669 4.66459 147.608 2.96187 150.074C0.906871 153.127 0.906871 157.766 2.96187 161.347L4.42973 163.872L2.43344 166.103C-0.208703 169.039 -0.502275 170.918 0.613299 176.143C4.31231 192.759 7.1306 198.572 13.2956 202.506C15.468 203.915 16.1139 204.678 15.8203 205.383C15.6442 205.911 15.2919 207.438 15.1745 208.788C14.646 212.84 17.0533 216.95 24.3339 224.289C33.7282 233.801 43.4748 239.555 55.159 242.608L60.091 243.841L59.7974 246.835L59.5038 249.771L64.6707 251.65C76.4723 255.936 93.5582 259.459 102.541 259.459C110.938 259.459 130.255 255.525 140.412 251.709L145.579 249.771L145.403 246.659C145.286 244.193 145.462 243.606 146.166 243.606C147.81 243.606 158.496 239.966 162.078 238.204C171.648 233.448 181.982 224.759 187.325 216.95C189.439 213.838 189.674 213.192 189.615 209.904C189.615 207.966 189.439 205.911 189.321 205.383C189.145 204.737 190.085 203.739 192.022 202.447C197.894 198.455 201.064 192.055 204.059 177.846C205.585 170.8 205.35 168.745 202.65 166.162L200.595 164.165L202.356 160.936C204.294 157.296 204.47 155.3 203.119 152.129C201.651 148.606 199.538 146.845 195.134 145.494C192.962 144.848 191.142 144.203 191.142 143.968C191.142 143.792 191.964 142.735 192.962 141.56C195.545 138.625 198.187 132.812 198.951 128.291C199.655 124.181 198.657 105.921 197.483 100.989C196.661 97.8182 193.725 94.7063 190.613 93.8843C188.499 93.3559 188.265 93.0623 187.912 90.8899C187.443 88.0129 184.8 84.901 181.512 83.1983C177.696 81.3195 177.696 81.3194 178.635 77.8553C179.633 73.9801 179.34 72.6297 173.997 56.0723C169.182 41.1588 168.067 39.3974 163.487 38.8689C159.729 38.4579 157.498 39.7497 154.797 43.9771L152.507 47.5L151.04 42.6266C147.634 31.9406 140.588 20.1391 132.134 11.2145C125.499 4.16873 121.389 2.64215 116.281 5.22559L114.05 6.3999L109.294 3.17059C103.07 -1.05685 101.954 -1.05685 95.6719 3.17059ZM105.301 8.27875C110.468 11.7429 110.351 11.4493 107.884 14.5612C106.71 16.029 105.007 18.1428 104.127 19.1996L102.483 21.0785L98.9599 16.6162C96.9636 14.1502 95.437 11.919 95.5545 11.6255C95.7306 11.1557 101.896 6.4586 102.365 6.3999C102.483 6.3999 103.774 7.22189 105.301 8.27875ZM86.1602 11.2145C87.628 12.33 97.7856 25.3646 97.7856 26.1279C97.7856 27.7719 76.1787 47.8522 65.3753 56.2484L61.4414 59.3015L60.502 57.5401C58.7993 54.1934 58.7405 49.4962 60.4433 44.2707C63.6726 34.1131 70.0137 23.7206 77.8227 15.6768C82.8722 10.4512 84.2226 9.7466 86.1602 11.2145ZM126.321 14.4437C133.895 22.0179 140.647 32.7626 144.464 43.39C145.755 47.0302 145.99 48.4981 145.814 51.9035C145.638 54.1347 145.168 56.7768 144.698 57.6575L143.818 59.3015L139.414 55.9548C130.137 48.8504 114.813 34.8763 109.822 29.0049L107.121 25.8343L111.877 19.7868C114.519 16.44 117.279 13.0346 118.042 12.0952C120.273 9.51175 121.859 9.98143 126.321 14.4437ZM110.174 38.6928C118.218 46.7367 127.436 54.9567 134.952 60.7107C137.477 62.6483 139.473 64.4684 139.473 64.8207C139.473 65.7014 127.143 78.7947 120.156 85.312C113.404 91.5945 103.481 99.7558 102.541 99.7558C100.31 99.7558 74.065 75.3893 67.5477 67.2867L65.3166 64.4684L66.6083 63.529C72.0687 59.7713 85.4556 48.0284 93.0298 40.3955C98.0792 35.4048 102.307 31.2361 102.365 31.1774C102.483 31.1186 106.006 34.4654 110.174 38.6928ZM46.3518 49.555C47.8784 51.9622 50.5792 55.9548 52.3407 58.4208C54.1021 60.8281 55.5113 63.0006 55.5113 63.2354C55.5113 63.7051 43.5922 71.6903 37.4859 75.3306C35.4309 76.5636 33.5521 77.3856 33.1998 77.1507C31.9081 76.3287 32.7888 72.0426 37.0749 58.8905C40.5978 47.8522 41.7134 45.1514 42.5354 45.1514C43.1812 45.1514 44.5904 46.7954 46.3518 49.555ZM168.067 58.6557C170.415 65.9363 172.353 72.5123 172.412 73.3343C172.588 75.9764 172.353 77.4443 171.707 77.4443C171.002 77.4443 156.383 68.4023 152.273 65.4078L149.513 63.4115L155.15 55.0154C158.203 50.377 161.021 46.267 161.373 45.856C162.959 43.8597 163.839 45.5624 168.067 58.6557ZM65.9624 75.3306C73.7127 84.079 85.6905 95.2348 95.3196 102.75L97.2572 104.218L89.1546 109.561C78.2337 116.724 71.3642 120.658 60.091 126.295C52.9278 129.876 50.4031 130.874 49.6985 130.463C49.1701 130.111 46.528 127.234 43.8271 124.064C36.3116 115.139 29.8531 105.745 25.2733 96.9962C23.1596 93.0036 23.1009 92.6513 23.9816 91.3596C24.4513 90.5963 28.6788 87.8367 33.3172 85.1946C37.9557 82.6112 45.706 77.8553 50.5205 74.626C55.3938 71.3967 59.5038 68.6959 59.68 68.6959C59.8561 68.6371 62.7331 71.6316 65.9624 75.3306ZM149.219 71.1031C154.562 74.8609 165.425 81.5543 173.645 86.1927C179.105 89.3046 181.278 90.8312 181.512 91.7706C182.393 95.2935 168.947 116.02 158.731 127.058L154.915 131.168L147.341 127.469C136.831 122.302 125.616 115.902 116.281 109.737C111.936 106.801 108.354 104.335 108.354 104.218C108.354 104.042 111.055 101.752 114.402 99.0512C121.448 93.2972 135.128 80.1452 140.941 73.393C143.172 70.7509 145.227 68.6371 145.403 68.6371C145.579 68.6371 147.282 69.7527 149.219 71.1031ZM18.8735 100.636C19.5781 101.106 21.9266 104.394 24.1578 107.976C29.0898 115.961 35.9007 125.238 40.4804 130.111L43.8858 133.81L41.0675 134.984C38.4254 136.159 25.4495 140.915 22.8073 141.678C21.8092 142.03 20.9872 141.56 19.2258 139.799C15.9965 136.57 14.0002 132.988 12.8846 128.408C12.0039 124.886 12.0039 123.653 12.8846 113.201C13.7653 103.044 14.0002 101.693 15.057 100.754C16.5836 99.5209 17.2882 99.5209 18.8735 100.636ZM189.967 100.813C191.2 101.811 191.376 102.809 192.14 111.264C193.255 123.711 192.962 127.939 190.731 132.753C188.969 136.57 185.975 140.445 184.037 141.443C183.274 141.854 181.336 141.443 176.639 139.74C170.415 137.509 162.254 134.339 161.843 134.045C161.784 133.928 163.839 131.285 166.423 128.115C172.47 120.893 177.872 113.26 181.865 106.625C185.916 99.7558 187.384 98.6989 189.967 100.813ZM110.233 113.495C120.332 120.365 128.2 125.003 139.884 130.992L149.924 136.159L144.875 140.915C134.952 150.25 122.152 159.821 109.646 167.453L102.835 171.563L99.2535 169.626C92.8536 166.103 79.408 156.885 71.6577 150.661C63.2616 143.909 55.0415 136.452 55.5113 135.983C55.6874 135.865 60.0323 133.575 65.1991 130.992C75.7677 125.649 86.8648 119.132 96.0242 112.849C99.4296 110.501 102.365 108.563 102.6 108.563C102.835 108.563 106.241 110.794 110.233 113.495ZM54.2783 144.261C65.845 154.889 77.2943 163.754 88.861 170.918C92.4426 173.207 95.437 175.145 95.437 175.321C95.437 175.732 79.1144 183.424 73.1256 185.772C65.7276 188.708 55.4525 192.172 47.9371 194.286L41.8308 196.047L37.9557 192.583C25.0972 181.134 7.9526 160.055 7.9526 155.711C7.9526 153.245 9.24432 152.423 15.879 150.544C23.2183 148.489 34.7264 144.555 42.007 141.502C45.0601 140.21 47.8197 139.153 48.1132 139.153C48.3481 139.094 51.1664 141.443 54.2783 144.261ZM164.485 142.089C171.355 144.79 180.162 147.784 192.316 151.542C199.538 153.773 199.303 155.241 189.791 167.982C182.98 177.024 173.938 186.829 166.188 193.405L163.193 195.989L155.267 193.699C146.577 191.233 137.183 187.945 129.374 184.715C120.626 181.075 109.352 175.439 109.881 174.969C110.174 174.734 112.934 172.973 115.987 171.094C128.552 163.226 140.647 154.008 150.629 144.437C153.682 141.56 156.383 139.153 156.559 139.094C156.794 139.094 160.375 140.445 164.485 142.089ZM13.824 176.495C16.5836 179.96 22.1615 186.183 26.3302 190.293C32.0842 196.047 33.5521 197.809 32.7888 198.044C29.6769 198.924 24.0991 199.57 22.1615 199.218C17.7579 198.396 13.8828 195.578 11.8865 191.644C10.0663 188.004 5.89759 171.74 6.54345 170.683C7.42417 169.274 9.30303 170.741 13.824 176.495ZM198.54 170.976C198.892 171.974 196.954 180.899 194.958 187.182C191.729 197.28 185.27 200.921 174.702 198.513L171.413 197.75L179.692 189.354C184.213 184.774 189.791 178.55 192.022 175.615C195.956 170.565 197.835 169.215 198.54 170.976ZM111.76 183.659C123.326 189.413 133.367 193.523 146.46 197.809L156.676 201.156L153.212 203.798C141.352 212.84 124.677 222.351 108.765 229.162L102.541 231.804L95.3196 228.693C79.6429 221.94 66.1386 214.19 52.3994 204.091L48.4068 201.156L60.3258 197.222C75.8264 192.055 87.5106 187.064 102.365 179.079C102.424 179.079 106.651 181.075 111.76 183.659ZM45.4124 207.027C58.5644 217.126 79.819 229.573 91.9142 234.329C93.9692 235.151 92.8536 235.621 85.6317 237.089C62.6744 241.786 38.4254 233.155 24.8036 215.364C19.2845 208.084 19.9303 207.086 31.2035 204.855C35.6658 203.974 39.5409 203.211 39.8345 203.152C40.0694 203.152 42.5941 204.855 45.4124 207.027ZM173.351 204.796C177.99 205.735 182.158 206.792 182.628 207.203C184.213 208.554 183.626 211.02 180.867 214.719C173.292 224.817 160.375 233.272 147.693 236.619C138.357 239.026 124.97 238.85 115.165 236.149L111.701 235.21L120.449 230.982C130.548 226.168 136.537 222.821 145.755 216.832C152.507 212.487 163.252 204.62 163.839 203.622C164.309 202.917 163.839 202.858 173.351 204.796ZM112.406 242.079C117.749 243.782 124.207 245.72 126.732 246.307C129.198 246.894 131.253 247.54 131.253 247.716C131.253 248.421 120.626 250.71 111.642 252.002C101.837 253.353 97.903 253.118 83.929 250.358C72.3036 248.01 72.2449 247.951 80.1713 245.837C83.8703 244.898 90.2115 242.96 94.2628 241.551C98.314 240.201 101.837 239.026 102.13 238.968C102.424 238.909 107.004 240.318 112.406 242.079Z" fill="white"/>
</svg>
