<svg width="24" height="24" viewBox="0 0 24 24" fill="none" xmlns="http://www.w3.org/2000/svg">
<path d="M12 1.98791C6.4794 1.98791 1.98803 6.47941 1.98803 11.9999C1.98803 17.5205 6.4794 22.0118 12 22.0118C17.5207 22.0118 22.0121 17.5205 22.0121 11.9999C22.0121 6.47941 17.5207 1.98791 12 1.98791ZM12 23.9999C5.3833 23.9999 0 18.6167 0 11.9999C0 5.38318 5.3833 3.8147e-06 12 3.8147e-06C18.6168 3.8147e-06 24 5.38318 24 11.9999C24 18.6167 18.6168 23.9999 12 23.9999Z" fill="#C60202"/>
<path d="M16.8022 14.537L14.2649 11.9999L16.8018 9.4629C17.5078 8.7572 17.5757 7.66994 16.9528 7.04705C16.3299 6.42415 15.2429 6.49204 14.5371 7.19775L12 9.73497L9.463 7.19788C8.75717 6.49204 7.66979 6.42415 7.04715 7.04705C6.42426 7.66982 6.49215 8.75682 7.19798 9.46265L9.73507 11.9999L7.19798 14.537C6.49215 15.2428 6.42413 16.3301 7.04703 16.9529C7.66967 17.5757 8.75692 17.5077 9.46275 16.802L12 14.2648L14.5371 16.8017C15.243 17.5077 16.3302 17.5756 16.953 16.9528C17.5759 16.3299 17.5081 15.2429 16.8022 14.537Z" fill="#C60202"/>
</svg>
