<svg width="32" height="34" viewBox="0 0 32 34" fill="none" xmlns="http://www.w3.org/2000/svg">
<path d="M0.894208 0.80036C0.50308 1.20011 0.276726 1.82249 0.276726 2.62849V31.378C0.276726 32.184 0.50308 32.8064 0.894208 33.2061L0.990742 33.2939L17.4914 17.1901V16.8099L0.990742 0.706113L0.894208 0.80036Z" fill="url(#paint0_linear_0_1)"/>
<path d="M22.9855 22.5607L17.4913 17.1901V16.8099L22.9921 11.4392L23.1153 11.5091L29.6296 15.128C31.4887 16.155 31.4887 17.845 29.6296 18.8785L23.1153 22.4908L22.9855 22.5607Z" fill="url(#paint1_linear_0_1)"/>
<path d="M23.1153 22.4909L17.4914 17L0.894211 33.2061C1.51169 33.8399 2.51864 33.9162 3.66373 33.2825L23.1153 22.4909Z" fill="url(#paint2_linear_0_1)"/>
<path d="M23.1153 11.5091L3.66373 0.717505C2.51864 0.0902549 1.51169 0.166628 0.894211 0.800378L17.4914 17L23.1153 11.5091Z" fill="url(#paint3_linear_0_1)"/>
<defs>
<linearGradient id="paint0_linear_0_1" x1="16.0263" y1="31.6774" x2="-5.78456" y2="9.33802" gradientUnits="userSpaceOnUse">
<stop stop-color="#00A0FF"/>
<stop offset="0.0066" stop-color="#00A1FF"/>
<stop offset="0.2601" stop-color="#00BEFF"/>
<stop offset="0.5122" stop-color="#00D2FF"/>
<stop offset="0.7604" stop-color="#00DFFF"/>
<stop offset="1" stop-color="#00E3FF"/>
</linearGradient>
<linearGradient id="paint1_linear_0_1" x1="32.0505" y1="16.9982" x2="-0.167674" y2="16.9982" gradientUnits="userSpaceOnUse">
<stop stop-color="#FFE000"/>
<stop offset="0.4087" stop-color="#FFBD00"/>
<stop offset="0.7754" stop-color="#FFA500"/>
<stop offset="1" stop-color="#FF9C00"/>
</linearGradient>
<linearGradient id="paint2_linear_0_1" x1="20.0572" y1="14.0151" x2="-9.52014" y2="-16.2789" gradientUnits="userSpaceOnUse">
<stop stop-color="#FF3A44"/>
<stop offset="1" stop-color="#C31162"/>
</linearGradient>
<linearGradient id="paint3_linear_0_1" x1="-3.28364" y1="42.7709" x2="9.92396" y2="29.2434" gradientUnits="userSpaceOnUse">
<stop stop-color="#32A071"/>
<stop offset="0.0685" stop-color="#2DA771"/>
<stop offset="0.4762" stop-color="#15CF74"/>
<stop offset="0.8009" stop-color="#06E775"/>
<stop offset="1" stop-color="#00F076"/>
</linearGradient>
</defs>
</svg>
