<svg width="103" height="103" viewBox="0 0 103 103" fill="none" xmlns="http://www.w3.org/2000/svg">
<path fill-rule="evenodd" clip-rule="evenodd" d="M12.973 8.57282C13.5538 7.87733 13.9036 6.9798 13.9036 5.99999C13.9036 3.79085 12.1252 1.99999 9.93132 1.99999C7.73746 1.99999 5.95898 3.79085 5.95898 5.99999H5.9585C3.76464 5.99999 1.98617 7.79085 1.98617 9.99999C1.98617 10.8233 2.23319 11.5885 2.65668 12.2246C1.10942 12.7713 0 14.2552 0 16C0 17.4924 0.811618 18.7938 2.01463 19.4813C2.25069 21.4635 3.9264 23 5.9585 23C6.43506 23 6.89202 22.9155 7.31541 22.7605C8.12114 24.6669 10.2046 26.258 12.9723 27.1698C12.9312 27.4421 12.9101 27.7191 12.9101 28C12.9101 31.0511 15.4026 33.6463 18.8798 34.6048C18.8721 34.7356 18.8682 34.8674 18.8682 35C18.8682 37.706 20.5019 40.0534 22.8929 41.2184C22.8586 41.475 22.8409 41.7358 22.8409 42C22.8409 43.8628 23.7184 45.5557 25.1493 46.8099C24.9402 47.4989 24.8271 48.2351 24.8271 49C24.8271 49.7678 24.9411 50.5067 25.1517 51.198C24.4288 51.0697 23.6512 51 22.8412 51C21.5578 51 20.3556 51.1751 19.3238 51.4805C18.6354 49.3989 17.3551 48 15.8893 48C15.8794 48 15.8694 48.0001 15.8595 48.0002C15.8791 47.8386 15.8893 47.6713 15.8893 47.5C15.8893 46.1193 15.2224 45 14.3997 45C13.679 45 13.0778 45.859 12.9398 47.0002C12.9299 47.0001 12.9198 47 12.9098 47C10.716 47 8.9375 51.0294 8.9375 56C8.9375 60.9706 10.716 65 12.9098 65C14.0863 65 15.1434 63.8412 15.8707 61.9999L15.8893 62C17.5636 62 18.9959 60.1747 19.5805 57.5918C20.5529 57.8524 21.6628 58 22.8412 58C24.3999 58 25.8388 57.7417 26.9982 57.3055C27.3202 57.9938 28.0457 58.6036 29.0422 59.0683C29.3866 60.4978 30.0788 61.7316 30.992 62.6077C30.8564 63.2192 30.7852 63.852 30.7852 64.5C30.7852 68.2115 33.1213 71.4259 36.527 72.9892C33.4686 75.6281 32.8408 80.0917 35.1715 83.1744C35.9656 84.2247 37.0046 84.9843 38.1615 85.4397C38.3061 85.6918 38.4679 85.9372 38.6472 86.1744C39.1179 86.7969 39.6746 87.3173 40.2909 87.7328C38.3328 89.2373 37.2837 91.1657 37.9472 92.0432C38.6117 92.9221 40.7423 92.4141 42.706 90.9086L42.7407 90.8819L42.7785 90.8525C42.7284 91.0624 42.7021 91.2788 42.7021 91.5C42.7021 93.3129 44.4621 94.8039 46.717 94.9821C47.0169 96.687 48.8845 98 51.1438 98L51.167 97.9999C51.9548 98.6223 52.9896 99 54.123 99C54.2908 99 54.4563 98.9917 54.6193 98.9756L54.6191 99C54.6191 100.657 56.6199 102 59.088 102C60.6425 102 62.0117 101.467 62.8123 100.659C63.4207 101.44 65.0807 102 67.0331 102C69.5012 102 71.502 101.105 71.502 100C71.502 99.8323 71.4559 99.6694 71.369 99.5138C71.8042 99.8167 72.3713 100 72.9916 100C74.3628 100 75.4743 99.1046 75.4743 98C75.4743 97.9078 75.4666 97.817 75.4516 97.7282C75.4728 97.7429 75.4947 97.7567 75.5172 97.7697C76.7067 98.4564 79.14 96.4327 80.952 93.2498C82.764 90.0668 83.2686 86.9299 82.0791 86.2432C80.8895 85.5566 78.4562 87.5802 76.6442 90.7631C75.3168 93.0949 74.691 95.402 74.9189 96.7392C74.4637 96.2881 73.7694 96 72.9916 96C71.6204 96 70.5089 96.8954 70.5089 98C70.5089 98.3275 70.6066 98.6366 70.7799 98.9095C69.9826 98.362 68.6023 98 67.0331 98C65.6203 98 64.3607 98.2934 63.5418 98.7515C63.3536 97.2109 61.4314 96 59.088 96C58.8686 96 58.6529 96.0106 58.442 96.0311C58.5398 95.7021 58.5919 95.3565 58.5919 95C58.5919 93.3218 57.4373 91.885 55.8004 91.2913C56.3079 90.6423 56.6057 89.8523 56.6057 89C56.6057 87.8053 56.0206 86.7329 55.0928 86C56.0206 85.267 56.6057 84.1947 56.6057 83C56.6057 81.5763 55.7747 80.3263 54.5232 79.6174C55.202 78.9159 55.6127 78.0009 55.6127 77C55.6127 75.4917 54.68 74.1784 53.3028 73.4969C53.5114 73.0345 53.6262 72.5293 53.6262 72C53.6262 70.7634 52.9993 69.6579 52.0144 68.9241C54.0657 68.5616 55.6127 66.9425 55.6127 65L55.6126 64.9916C55.7772 64.9972 55.9427 65 56.1092 65C58.0289 65 59.8275 64.6269 61.3724 63.9759C61.6023 63.9919 61.8342 64 62.068 64C63.0176 64 63.9376 63.8661 64.8119 63.6152C65.5196 63.8661 66.2644 64 67.0331 64C71.6951 64 75.4743 59.0751 75.4743 53C75.4743 52.9147 75.4736 52.8296 75.4721 52.7447C77.1748 52.1398 78.4044 50.5254 78.4521 48.6154C81.9759 47.9735 84.4124 46.5959 84.4124 45C84.4124 44.9243 84.4069 44.8492 84.3961 44.7745C88.4544 44.2272 91.3636 42.7439 91.3636 41C91.3636 40.2575 90.8363 39.5623 89.9175 38.9665C92.0255 38.2345 93.3498 37.1766 93.3498 36C93.3498 35.6254 93.2156 35.2629 92.9646 34.919C97.718 34.5466 101.294 32.9335 101.294 31C101.294 29.5424 99.2619 28.267 96.2251 27.5678C96.2938 27.3823 96.3294 27.1928 96.3294 27C96.3294 24.7909 91.6609 23 85.902 23C85.2677 23 84.6466 23.0217 84.0435 23.0633C82.1841 22.4033 79.6966 22 76.9635 22C71.2046 22 66.5361 23.7909 66.5361 26C66.5361 26.4763 66.7532 26.9332 67.1514 27.3569C65.5327 28.0617 64.5508 28.9868 64.5508 30C64.5508 30.4762 64.7677 30.9329 65.1657 31.3565C63.5465 32.0614 62.5642 32.9867 62.5642 34C62.5642 34.3677 62.6936 34.7239 62.9358 35.0621C60.8752 35.7929 59.585 36.8386 59.585 38C59.585 38.273 59.6563 38.5396 59.7921 38.7972C57.2544 39.5268 55.6123 40.6898 55.6123 42C55.6123 42.5932 55.949 43.1563 56.553 43.6627C55.2596 44.5146 54.156 45.6574 53.3244 47.0042C53.2599 47.0014 53.1951 47 53.1299 47C50.6619 47 48.6611 49.0147 48.6611 51.5C48.6611 51.7418 48.68 51.9792 48.7165 52.2107C47.3057 53.2308 46.3002 54.5412 45.8886 56.0065C44.4822 55.3625 42.8938 55 41.2125 55C40.8357 55 40.4635 55.0182 40.097 55.0537C39.8894 54.8237 39.6338 54.6069 39.3366 54.4067C38.9394 53.1311 38.2579 52.0404 37.3923 51.2632C37.6159 50.5533 37.7372 49.792 37.7372 49C37.7372 48.2351 37.624 47.4989 37.4149 46.8099C38.8458 45.5557 39.7233 43.8628 39.7233 42C39.7233 38.8483 37.2115 36.183 33.7574 35.3058C33.7621 35.2044 33.7644 35.1025 33.7644 35C33.7644 32.6462 32.5283 30.5638 30.633 29.2948C30.7332 28.8752 30.7856 28.4424 30.7856 28C30.7856 26.3818 30.0845 24.8919 28.9073 23.7063C29.4772 22.8738 29.7921 21.9594 29.7921 21C29.7921 17.8819 26.4659 15.24 21.8697 14.3345C20.2387 12.9921 17.7331 12.1015 14.8958 12.0081L14.8958 12C14.8958 10.5459 14.1253 9.27306 12.973 8.57282ZM7.45016 13.9424L7.40012 13.9773C7.36008 13.9087 7.31807 13.8413 7.27415 13.7754C7.29939 13.7665 7.3245 13.7573 7.3495 13.7479C7.38133 13.8138 7.4149 13.8786 7.45016 13.9424Z" fill="#D9AE6A"/>
<path d="M11.9811 0.413223C3.38273 3.22874 -1.09514 10.4263 0.229303 19.3386C0.35544 20.2065 0.523623 21.011 0.586692 21.1168C0.670784 21.2438 1.57477 21.7942 2.62591 22.3446C10.1731 26.3456 16.5431 33.268 21.3153 42.6672C22.7238 45.398 24.5107 49.7165 24.3215 49.8859C24.2585 49.9494 23.6698 49.9071 22.9971 49.7801C22.3244 49.653 21.4204 49.5472 20.9579 49.5472C20.0749 49.5472 20.0959 49.6319 20.5164 48.1288C20.6005 47.8325 20.4954 47.5361 20.18 47.2186C19.7385 46.774 19.0027 46.7528 17.6362 47.1339C17.363 47.2186 17.2789 46.9222 17.1527 45.3768C17.0056 43.4293 16.6482 42.5613 15.9965 42.5613C15.4288 42.5613 13.747 43.768 12.9271 44.7629C10.026 48.3405 8.70152 52.8496 8.47027 60.0683L8.34414 64.2599L8.97482 64.9161C9.52142 65.4453 9.92085 65.6147 11.4765 65.8899C12.4856 66.0804 13.4527 66.1863 13.5788 66.1228C13.726 66.0592 14.2305 65.4453 14.693 64.7256C15.3027 63.773 15.9124 63.1591 16.9215 62.5028C18.372 61.529 19.5704 60.153 20.0118 58.9252L20.2851 58.1843L22.1772 58.2901C24.3005 58.396 26.3397 58.8829 27.7272 59.5603L28.6522 60.026L29.2409 62.397C30.1869 66.2286 32.3733 70.3143 34.3284 71.8808L35.0432 72.4735L33.8449 75.9877C32.121 80.9624 32.121 81.0895 33.8659 83.4181C35.2114 85.2175 35.8 85.6409 37.1875 85.8737C38.4069 86.0642 38.6802 86.4665 37.9444 87.0592C36.9773 87.8213 36.5779 88.9856 36.5779 91.166C36.5779 93.4735 36.662 93.6005 38.7432 94.1298C40.0887 94.4685 40.1938 94.4685 40.5512 94.1298C40.7824 93.9181 41.0137 93.4523 41.0768 93.0713C41.1609 92.6902 41.3501 92.2033 41.5393 91.9705C41.8336 91.6106 41.8336 91.6953 41.7075 93.1136C41.5603 94.913 41.6234 95.04 43.2421 95.8021C44.7768 96.5007 45.5546 96.5007 45.87 95.8021L46.1012 95.2729L47.1524 96.4372C51.3359 101.158 58.0843 103.487 66.0099 102.915C70.5929 102.576 72.4429 101.878 76.4372 98.9564C82.3657 94.6166 83.543 92.6902 83.8793 86.7205C84.0686 83.2699 83.9214 82.5713 83.0384 82.5713C82.7862 82.5713 81.693 83.3969 80.5577 84.4342C78.0981 86.7205 77.173 87.7155 76.4372 88.9644C75.8696 89.9594 75.0497 92.7961 75.0497 93.8122C75.0497 94.2144 74.8185 94.5955 74.2719 95.0612C71.5389 97.4745 65.5474 98.1519 61.8894 96.4584C59.9553 95.5693 58.1684 93.283 57.3905 90.7215C57.2434 90.2558 57.0542 87.779 56.9701 85.2175C56.6968 78.2104 55.982 74.1459 54.4473 71.034L53.6064 69.3405L54.6365 68.3879C57.7479 65.53 62.3099 64.1328 67.5866 64.4504C68.869 64.5139 70.4878 64.6409 71.1815 64.7044C72.0435 64.7891 72.527 64.7468 72.6111 64.5986C72.6952 64.4716 72.9895 63.4343 73.2628 62.2911C74.8395 55.7498 77.5935 51.3466 81.9873 48.3405C83.9845 46.9857 86.7805 45.8637 88.7987 45.6097C90.4595 45.398 90.7328 45.144 90.901 43.5774C91.2374 40.5291 92.4987 37.9041 94.3277 36.5069C95.8414 35.3426 97.334 34.898 100.13 34.7498C103.431 34.5805 103.536 34.4535 102.19 31.6803C98.8476 24.7579 90.3754 20.9686 78.3083 20.9686C74.4611 20.9686 67.2503 21.7519 66.7877 22.2176C66.7037 22.3023 66.4514 23.1491 66.2201 24.0805C64.8957 29.7115 60.6911 36.1047 52.1348 45.5674C50.5791 47.2821 49.8643 48.2982 48.8763 50.1611C48.1825 51.4736 47.2785 52.9343 46.8791 53.4212L46.1223 54.2679L44.5035 54.0351C43.5995 53.8869 42.212 53.7811 41.4342 53.7811H39.9836L39.6262 52.7649C39.416 52.1934 39.2268 50.8385 39.1637 49.5472C39.0375 46.7528 39.3739 45.3133 40.7824 42.6248C41.3501 41.5452 41.7705 40.5291 41.7075 40.3597C41.6444 40.2115 40.7824 39.4494 39.7733 38.6873C35.2955 35.3214 32.3523 30.9817 30.8596 25.4777C30.4812 24.1017 30.3971 23.1702 30.3761 19.9525C30.3341 16.9676 30.25 15.9938 30.0398 15.7821C29.8716 15.634 28.8835 15.3587 27.8323 15.1682C21.2312 13.9827 16.459 11.3578 14.8192 7.99184C14.0413 6.3618 13.8942 4.37188 14.3987 2.38197C15.0294 -0.0736771 14.5879 -0.433548 11.9811 0.413223ZM12.0231 3.99084C11.7498 8.73277 14.5249 12.6279 19.8857 15.0412C21.5465 15.8033 24.721 16.7771 26.7181 17.1581L28.1056 17.4122L28.2318 20.7146C28.3159 23.3396 28.442 24.4827 28.8625 26.1128C29.5772 28.8013 30.7755 31.5109 32.2892 33.8184C33.4665 35.639 36.3676 38.772 38.2387 40.2539L39.1637 40.9948L38.512 42.3708C37.0824 45.2922 36.6199 49.2296 37.3137 52.278C37.5029 53.0401 37.5659 53.7175 37.4818 53.8022C37.1455 54.1409 35.4216 54.0563 34.6858 53.6752C34.2864 53.4635 33.2142 52.9766 32.3102 52.6167L30.6704 51.9393L29.3039 47.8536C27.3488 42.0744 26.8022 41.0583 25.9193 41.6299C25.0994 42.1591 25.1414 42.392 26.6761 46.6893C27.517 48.9756 28.1477 50.902 28.1056 50.9655C27.9375 51.1349 26.9073 50.775 26.9073 50.5421C26.9073 50.1188 24.5318 44.3395 23.5227 42.2861C18.6243 32.4847 11.9811 25.0966 4.07649 20.7146C2.47875 19.8255 2.41568 19.762 2.2475 18.8517C2.01625 17.5604 2.22648 13.7287 2.60489 12.2892C3.46683 9.13498 5.65321 6.15011 8.36516 4.43539C9.56346 3.6733 11.6237 2.59367 11.9811 2.57249C12.0442 2.55132 12.0652 3.20757 12.0231 3.99084ZM85.9816 23.6995C92.6249 24.8638 97.0607 27.3194 99.5204 31.2146C99.9408 31.8496 100.277 32.4424 100.277 32.5059C100.277 32.5694 99.8357 32.6117 99.3101 32.6117C98.0698 32.6117 96.0936 33.1198 94.601 33.8396C93.0033 34.6017 90.9641 36.6763 90.1862 38.3698C89.5345 39.767 88.9248 41.8839 88.9248 42.7095C88.9248 43.2599 88.7567 43.3446 86.297 44.0432C79.8219 45.8214 74.5662 51.2196 72.1065 58.6077C71.7702 59.6449 71.3918 60.9574 71.2656 61.529L71.0344 62.5875L69.8361 62.4393C65.3372 61.8677 60.1655 62.6298 56.7598 64.3657C54.5104 65.4877 51.0837 68.5361 51.0837 69.404C51.0837 69.5522 51.3569 70.0391 51.7143 70.4625C53.5644 72.8123 54.5735 77.533 54.8467 85.4292C55.0149 89.9594 55.078 90.404 55.6036 91.8858C56.6968 94.9342 58.4837 97.0723 60.9434 98.3213C64.0758 99.9301 69.6258 99.8878 73.1367 98.2366C74.2298 97.7074 74.4191 97.665 74.1247 98.0037C73.5992 98.5753 71.1815 99.8243 69.6889 100.269C68.7429 100.565 67.7338 100.65 65.6945 100.65C60.0814 100.65 56.949 99.0834 53.6064 94.5955C52.0087 92.4785 50.0325 88.4352 49.2336 85.7044C48.7081 83.8203 48.666 83.4816 48.8342 82.1479C48.9814 81.026 48.9814 80.6026 48.7711 80.3485C48.4348 79.9463 47.6359 79.9251 47.2575 80.3274C47.0893 80.4967 46.7109 82.2114 46.3745 84.4977C46.0592 86.6358 45.7438 88.5411 45.7018 88.7527C45.6177 89.0279 45.2393 89.1126 43.5364 89.1761C41.5813 89.2396 41.4131 89.282 40.6563 89.8959C40.2148 90.2346 39.6893 90.8908 39.458 91.3142C39.2478 91.7376 38.9745 92.034 38.8694 91.9705C38.554 91.78 38.6591 89.4937 38.9955 88.9856C39.3529 88.4775 40.1728 88.16 41.7915 87.9695C43.2631 87.779 43.5785 87.4191 43.4734 86.1278C43.3262 84.7306 42.5063 83.5663 41.0768 82.7407C39.6472 81.9362 39.3739 81.407 39.1847 79.0149L39.0375 77.3002L39.7523 76.5804C40.383 75.9453 40.7404 75.8183 42.8006 75.4161C45.6177 74.8445 45.7438 74.8657 47.8251 76.7498C48.666 77.5118 49.528 78.1258 49.7592 78.1258C50.3268 78.1258 50.6632 77.7235 50.6632 77.025C50.6632 76.5592 50.3058 76.1358 48.8763 74.8657C46.5007 72.7911 45.891 72.6217 42.8006 73.2568L40.5932 73.7014L38.6381 72.3889C37.5659 71.6691 36.3256 70.78 35.8841 70.4413C34.2443 69.15 32.3943 65.9111 31.4483 62.6933L31.1119 61.5714L32.0369 62.3335C32.5625 62.7568 33.1091 63.0955 33.2773 63.0955C33.7608 63.0955 34.2654 62.5028 34.2654 61.9312C34.2654 60.7246 29.1147 57.4645 25.9613 56.6601C23.7119 56.0885 21.0209 55.8768 18.7925 56.1097C16.0595 56.406 15.3658 56.8718 15.9754 58.0361C16.1436 58.3325 16.4169 58.4383 17.0266 58.4383C17.4891 58.4383 17.8675 58.523 17.8675 58.6077C17.8675 58.904 15.8913 60.7034 14.9243 61.275C14.2936 61.6349 13.768 62.1853 13.3476 62.905C12.7379 63.9212 12.6959 63.9635 11.9811 63.8365C10.4464 63.5613 10.5095 63.6671 10.5095 61.5502C10.5305 55.0724 11.7078 49.9917 13.9362 46.9645C14.4197 46.2871 14.8823 45.7367 14.9874 45.7367C15.0715 45.7367 15.1345 46.3083 15.1345 47.0069C15.1345 48.15 15.0715 48.3405 14.3987 49.1026C13.4527 50.1399 12.6328 51.9817 12.3385 53.6329C12.0652 55.3052 12.2334 56.0673 12.9481 56.2367C13.768 56.4484 14.2095 55.8768 14.3777 54.395C14.5879 52.2145 15.6391 50.394 17.0897 49.6107C17.426 49.4413 17.7414 49.3567 17.8255 49.4202C17.8885 49.5049 17.6362 50.3305 17.2578 51.3042C16.4169 53.4423 16.2698 54.1198 16.6061 54.522C16.9635 54.9454 17.7414 54.9242 18.1198 54.4585C18.288 54.2679 18.6664 53.5482 18.9397 52.8496L19.4442 51.6006L21.2312 51.7276C24.1744 51.9393 28.9466 53.3577 32.7937 55.1994L35.2114 56.3425L36.6199 56.1097C38.4909 55.8345 42.3592 55.8345 44.4825 56.152C45.849 56.3425 46.3115 56.3425 46.8581 56.1097C47.9092 55.6863 49.2126 54.0351 50.5581 51.4524C51.6092 49.4625 52.2399 48.5946 54.3212 46.2871C60.3337 39.6188 63.5923 35.2156 65.9468 30.5795C67.019 28.4626 68.3224 25.0755 68.3224 24.3557C68.3224 23.8688 68.7429 23.8053 74.5242 23.2126C76.6895 23.0009 83.6481 23.2761 85.9816 23.6995ZM37.9654 75.3949C37.1665 76.3475 36.9353 77.3637 37.0824 79.1631C37.1455 80.0522 37.2926 81.1106 37.4188 81.4917C37.7551 82.656 38.6171 83.7991 39.5211 84.2649C40.4461 84.7306 41.2029 85.408 41.2029 85.7467C41.2029 86.1701 40.6353 85.9372 40.1728 85.3022C39.6052 84.5401 38.533 83.8415 37.9023 83.8415C37.65 83.8415 37.2296 83.7356 36.9563 83.6086C36.2625 83.2911 34.6858 81.1318 34.6858 80.5179C34.6858 80.2215 35.1693 78.5703 35.758 76.8556L36.8301 73.7014L37.65 74.2518L38.4699 74.781L37.9654 75.3949ZM81.5879 89.2608C81.0833 91.9281 79.5907 94.0239 76.6264 96.162L75.1549 97.2416L76.164 96.162C76.9418 95.2941 77.152 94.9342 77.152 94.3414C77.152 91.9493 78.1191 89.8324 80.1793 87.6943L81.6719 86.1278L81.735 87.1015C81.7771 87.6308 81.693 88.6046 81.5879 89.2608ZM50.9996 94.5531C51.6513 95.5693 52.8075 97.0511 53.5644 97.8556C54.3002 98.6388 54.8467 99.2951 54.7627 99.2951C54.3632 99.2951 51.7143 97.6862 50.516 96.7124C49.0865 95.5904 47.9302 94.2568 46.9001 92.6479C46.1433 91.4201 46.1012 91.2507 46.6478 91.2507C47.1734 91.2507 47.4887 90.8485 47.6359 89.9594C47.699 89.5572 47.8041 89.1126 47.8461 88.9433C47.9092 88.7739 48.3507 89.5572 48.8552 90.6792C49.3598 91.8011 50.3268 93.5582 50.9996 94.5531ZM44.5666 92.8596C44.5666 93.3677 44.3143 93.791 43.9989 93.791C43.7677 93.791 43.7046 93.664 43.8097 93.3041C43.8728 93.0501 43.9359 92.6056 43.9359 92.3092C43.9569 91.8011 43.9569 91.8011 44.2512 92.1822C44.4194 92.415 44.5666 92.7114 44.5666 92.8596Z" fill="#3E3E3E"/>
<path d="M8.11328 10.0241C7.69282 10.5321 7.10418 11.5059 6.78884 12.2045C6.24224 13.3476 6.2002 13.644 6.2002 15.9938C6.22122 19.1057 6.53656 20.1218 7.52464 20.1218C8.53374 20.1218 8.70192 19.7196 8.4076 18.0472C7.90305 15.2105 8.34453 13.1571 9.90022 11.0825C10.5519 10.2146 10.5519 10.1722 10.2156 9.64301C9.68999 8.81741 8.99624 8.94442 8.11328 10.0241Z" fill="#3E3E3E"/>
<path d="M12.9269 17.8567C12.3382 18.0049 11.7496 18.1954 11.6235 18.2801C11.203 18.5341 11.161 19.275 11.5604 19.7408C11.9178 20.1853 11.9598 20.1853 13.4104 19.9101C16.4167 19.3385 20.1377 19.9313 23.7537 21.5402C25.015 22.0906 25.7508 22.0482 25.9611 21.392C26.2133 20.5875 25.877 20.1853 24.3633 19.5079C21.5673 18.2377 19.486 17.7508 16.6059 17.6662C14.903 17.6238 13.5996 17.6873 12.9269 17.8567Z" fill="#3E3E3E"/>
<path d="M70.1519 25.5201C69.9837 25.6894 69.6894 26.4938 69.5002 27.3194C68.3229 32.5694 64.0973 39.2166 56.6972 47.4091C55.1416 49.1238 54.0273 50.5422 54.0273 50.7962C54.0273 51.3254 54.5739 51.8758 55.0785 51.8758C55.3097 51.8758 56.3609 50.9021 57.5592 49.5896C65.5899 40.889 70.257 33.6279 71.5604 27.7852C71.9178 26.1763 71.8337 25.5836 71.14 25.3295C70.6564 25.139 70.4883 25.1602 70.1519 25.5201Z" fill="#3E3E3E"/>
<path d="M72.4013 30.1772C72.086 30.643 72.086 30.7488 72.3803 31.1934C72.6115 31.5533 73.0951 31.7649 74.2723 32.019C79.3389 33.1409 83.5645 36.9303 85.1202 41.778C85.4145 42.646 86.0662 42.9635 86.802 42.5613C87.4117 42.2438 87.3696 41.4817 86.6338 39.7881C84.5525 34.8557 80.2008 31.2569 74.8189 29.9656C73.011 29.5422 72.8007 29.5633 72.4013 30.1772Z" fill="#3E3E3E"/>
<path d="M68.28 41.1006C67.7755 41.3758 67.8175 41.9262 68.4272 43.8949C69.4573 47.155 69.4573 52.1721 68.4482 56.7659C67.7755 59.6872 67.7755 60.0471 68.3431 60.3646C69.1209 60.7669 69.7096 60.3223 70.067 59.031C71.4755 54.0774 71.7488 48.1711 70.7397 44.2125C69.9619 41.2699 69.3522 40.4655 68.28 41.1006Z" fill="#3E3E3E"/>
<path d="M11.6026 58.5653C10.7407 59.158 11.2032 60.5552 12.2754 60.5552C12.8219 60.5552 13.4526 59.9413 13.4526 59.4332C13.4526 59.0098 12.7379 58.2265 12.3384 58.2265C12.1913 58.2265 11.8549 58.3747 11.6026 58.5653Z" fill="#3E3E3E"/>
</svg>
