<svg width="24" height="24" viewBox="0 0 24 24" fill="none" xmlns="http://www.w3.org/2000/svg">
<path d="M12.0001 1.98805C6.47958 1.98805 1.98805 6.47945 1.98805 12C1.98805 17.5206 6.47958 22.0121 12.0001 22.0121C17.5209 22.0121 22.0121 17.5206 22.0121 12C22.0121 6.47945 17.5209 1.98805 12.0001 1.98805ZM12.0001 24.0001C5.38322 24.0001 0 18.6168 0 12C0 5.38321 5.38322 0 12.0001 0C18.617 0 24.0002 5.38321 24.0002 12C24.0002 18.6168 18.617 24.0001 12.0001 24.0001Z" fill="#59AD00"/>
<path d="M17.9946 7.56482C17.3674 6.93762 16.2864 6.99211 15.5928 7.68568L10.1962 13.0822L8.40751 11.2932C7.71368 10.5995 6.63287 10.5451 6.00567 11.1725C5.37822 11.7998 5.43258 12.8807 6.12615 13.5742L8.86605 16.3144C9.2246 16.6727 9.68605 16.8589 10.1352 16.8703C10.1516 16.871 10.1681 16.8701 10.1844 16.8704C10.2093 16.8703 10.2342 16.8713 10.2589 16.8703C10.7076 16.8585 11.1687 16.6723 11.5267 16.3144L17.8739 9.96679C18.5677 9.27322 18.6218 8.19215 17.9946 7.56482Z" fill="#59AD00"/>
</svg>
