<svg width="24" height="24" viewBox="0 0 24 24" fill="none" xmlns="http://www.w3.org/2000/svg">
<g clip-path="url(#clip0_1038_1185)">
<path d="M8.76875 0.0520506C8.16875 0.169238 7.56406 0.637988 7.31094 1.18174C7.1375 1.55205 7.07656 1.86611 7.07656 2.3958V2.8083L4.79375 2.82236C2.56719 2.83643 2.50156 2.84111 2.29063 2.93486C2.00938 3.06611 1.70469 3.3708 1.57813 3.65205C1.4375 3.95205 1.4375 4.48643 1.57813 4.78643C1.70469 5.06768 2.00938 5.37236 2.29063 5.50361L2.50625 5.60205H11.9984H21.4906L21.7063 5.50361C21.9875 5.37236 22.2922 5.06768 22.4188 4.78643C22.5594 4.48643 22.5594 3.95205 22.4188 3.65205C22.2922 3.3708 21.9875 3.06611 21.7063 2.93486C21.4953 2.84111 21.4297 2.83643 19.2078 2.82236L16.9203 2.8083V2.3958C16.9203 2.16611 16.8969 1.8708 16.8734 1.73018C16.7141 0.886425 16.0344 0.206738 15.1906 0.0473633C14.8813 -0.00888681 9.06875 -0.00888681 8.76875 0.0520506ZM15.1391 1.50049C15.4203 1.6458 15.5141 1.86611 15.5141 2.39111V2.81299H11.9984H8.48281V2.39111C8.48281 1.87549 8.57656 1.6458 8.84844 1.50518C9.01719 1.41611 9.12969 1.41143 11.9891 1.40674C14.8719 1.40674 14.9609 1.41143 15.1391 1.50049Z" fill="white"/>
<path d="M2.92773 7.22842C2.9418 7.34092 3.21836 10.6362 3.53711 14.555C3.86055 18.4737 4.14648 21.8581 4.17461 22.0784C4.28711 23.0019 4.91992 23.7284 5.78242 23.93C6.20898 24.0331 17.7871 24.0331 18.2137 23.93C19.0762 23.7284 19.709 23.0019 19.8215 22.0784C19.8496 21.8581 20.1355 18.4737 20.459 14.555C20.7777 10.6362 21.0543 7.34092 21.0684 7.22842L21.0918 7.03154H11.998H2.9043L2.92773 7.22842ZM8.18711 8.56904C8.2668 8.62529 8.36055 8.73779 8.40273 8.82217C8.45898 8.94404 8.55273 10.2472 8.83398 14.7894L9.19492 20.5972L9.09648 20.7987C8.92305 21.1597 8.4918 21.2862 8.13555 21.08C7.7793 20.8784 7.82617 21.2628 7.42773 14.8362L7.0668 9.02842L7.16523 8.82686C7.34336 8.45654 7.84961 8.32998 8.18711 8.56904ZM12.3262 8.53154C12.448 8.59248 12.5465 8.69092 12.6074 8.81279C12.7012 8.99561 12.7012 9.07529 12.7012 14.8128C12.7012 20.5503 12.7012 20.63 12.6074 20.8128C12.4996 21.0237 12.2324 21.1878 11.998 21.1878C11.7637 21.1878 11.4965 21.0237 11.3887 20.8128C11.2949 20.63 11.2949 20.5503 11.2949 14.8128C11.2949 9.07998 11.2949 8.99561 11.3887 8.81279C11.5621 8.47061 11.9699 8.34873 12.3262 8.53154ZM16.5496 8.53154C16.6762 8.59717 16.7652 8.69092 16.8309 8.82686L16.9293 9.02842L16.5684 14.8362C16.1699 21.2628 16.2168 20.8784 15.8605 21.08C15.5043 21.2862 15.073 21.1597 14.8996 20.7987L14.8012 20.5972L15.1574 14.8128C15.4902 9.39873 15.5184 9.00967 15.6121 8.82686C15.6824 8.69092 15.7715 8.60186 15.9074 8.53154C16.1512 8.41436 16.3105 8.41436 16.5496 8.53154Z" fill="white"/>
</g>
<defs>
<clipPath id="clip0_1038_1185">
<rect width="24" height="24" fill="white"/>
</clipPath>
</defs>
</svg>
