<svg width="24" height="24" viewBox="0 0 24 24" fill="none" xmlns="http://www.w3.org/2000/svg">
<g clip-path="url(#clip0_1038_1200)">
<path d="M10.8718 0.0265446C4.59051 0.63592 -0.195424 6.04061 0.00613851 12.3078C0.067076 14.1312 0.460826 15.7109 1.26239 17.3187C2.42958 19.6719 4.2952 21.5375 6.65301 22.7094C10.4733 24.6125 14.9921 24.35 18.5546 22.0203C19.9468 21.1109 21.2686 19.7609 22.1686 18.3265C22.5155 17.7828 23.0311 16.7234 23.2655 16.0859C23.5046 15.439 23.7811 14.3234 23.8796 13.5969C23.9874 12.8609 24.0015 11.1547 23.9077 10.5031C23.6311 8.55779 23.0124 6.89842 21.9858 5.35154C21.5546 4.69529 21.1186 4.16092 20.5093 3.54686C18.639 1.65779 16.314 0.48592 13.6561 0.0921707C13.0843 0.00779533 11.4718 -0.029705 10.8718 0.0265446ZM12.3577 3.24217C12.578 3.33123 12.7702 3.51405 12.8874 3.73904C12.9718 3.90779 12.9765 4.07654 12.9765 8.44061C12.9765 10.9297 12.9905 12.964 13.014 12.964C13.0327 12.964 13.5765 12.4344 14.2186 11.7922C15.3061 10.7 15.4093 10.6109 15.639 10.5453C15.9483 10.4515 16.178 10.489 16.4686 10.6719C16.7124 10.8265 16.914 11.1828 16.914 11.464C16.914 11.9047 16.9421 11.8719 14.7202 14.1031C13.5671 15.2609 12.5499 16.2453 12.4608 16.2922C12.2077 16.4187 12.0108 16.4469 11.7436 16.3859C11.5046 16.3297 11.4436 16.2734 9.37176 14.2109C7.94676 12.7906 7.2202 12.0359 7.15926 11.9094C7.04676 11.6703 7.04676 11.3094 7.15926 11.0609C7.30458 10.7422 7.7077 10.4797 8.05458 10.4797C8.41083 10.4797 8.51395 10.5547 9.74208 11.7781C10.403 12.4297 10.9561 12.964 10.9749 12.964C10.9936 12.964 11.0077 10.9297 11.0077 8.44061C11.0077 4.07654 11.0124 3.90779 11.0968 3.73904C11.3452 3.26092 11.889 3.0453 12.3577 3.24217ZM16.1827 17.75C16.9421 17.9422 17.1671 18.9406 16.5718 19.4656C16.478 19.55 16.3233 19.639 16.2249 19.6625C15.9811 19.7328 8.00301 19.7328 7.75926 19.6625C7.66083 19.639 7.50614 19.55 7.41239 19.4656C6.83114 18.9547 7.02801 17.989 7.75926 17.7594C8.00301 17.6844 15.8874 17.675 16.1827 17.75Z" fill="white"/>
</g>
<defs>
<clipPath id="clip0_1038_1200">
<rect width="24" height="24" fill="white"/>
</clipPath>
</defs>
</svg>
