<svg width="124" height="184" viewBox="0 0 124 184" fill="none" xmlns="http://www.w3.org/2000/svg">
<path fill-rule="evenodd" clip-rule="evenodd" d="M32.0536 58.4984C32.5062 57.9604 32.7789 57.2659 32.7789 56.5078C32.7789 54.799 31.3937 53.4138 29.685 53.4138C27.9764 53.4138 26.5912 54.7988 26.591 56.5073H26.591C24.8823 56.5073 23.497 57.8925 23.497 59.6013C23.497 60.238 23.6894 60.8298 24.0191 61.3217C22.8137 61.7445 21.9494 62.8924 21.9494 64.2421C21.9494 65.3967 22.5818 66.4036 23.5192 66.9352C23.7028 68.4687 25.0081 69.6574 26.591 69.6574C26.9621 69.6574 27.3179 69.5921 27.6476 69.4723C28.2757 70.9467 29.8988 72.1772 32.0547 72.8822C32.0226 73.0932 32.006 73.3078 32.006 73.5255C32.006 75.8852 33.9469 77.8924 36.6547 78.6339C36.6487 78.7348 36.6457 78.8363 36.6457 78.9386C36.6457 81.0311 37.9176 82.8464 39.7792 83.7478C39.7523 83.9467 39.7385 84.1488 39.7385 84.3536C39.7385 85.7952 40.4225 87.1051 41.538 88.0754C41.3754 88.6079 41.2875 89.1768 41.2875 89.7679C41.2875 90.3615 41.3762 90.9328 41.5401 91.4673C40.9766 91.3679 40.3703 91.3139 39.7388 91.3139C38.7388 91.3139 37.8021 91.4494 36.9982 91.6858C36.462 90.0764 35.465 88.9949 34.3236 88.9949C34.3168 88.9949 34.3101 88.9949 34.3033 88.995C34.3185 88.87 34.3265 88.7407 34.3265 88.6083C34.3265 87.5403 33.807 86.6746 33.1663 86.6746C32.605 86.6746 32.1368 87.3389 32.0293 88.2215C32.0209 88.2213 32.0126 88.2212 32.0042 88.2212C30.2955 88.2212 28.9103 91.338 28.9103 95.1826C28.9103 99.0273 30.2955 102.144 32.0042 102.144C32.9205 102.144 33.7438 101.248 34.3103 99.8236L34.3236 99.8237C35.628 99.8237 36.7438 98.4112 37.1989 96.4125C37.9564 96.6141 38.8209 96.7283 39.7388 96.7283C40.9525 96.7283 42.0729 96.5286 42.9758 96.1914C43.2264 96.7245 43.7921 97.1969 44.5692 97.5567C44.8377 98.6618 45.3768 99.6157 46.0879 100.293C45.9824 100.766 45.9269 101.255 45.9269 101.756C45.9269 104.627 47.7466 107.113 50.3993 108.322C48.0175 110.364 47.5286 113.816 49.3438 116.2C49.9619 117.012 50.7704 117.599 51.6707 117.952C51.7835 118.147 51.9098 118.338 52.0499 118.522C52.4167 119.003 52.8505 119.406 53.3308 119.727C51.8063 120.891 50.9896 122.382 51.5063 123.061C52.0238 123.741 53.6833 123.348 55.2128 122.183L55.2674 122.141C55.2285 122.303 55.2082 122.47 55.2082 122.641C55.2082 124.044 56.5793 125.197 58.3359 125.335C58.5701 126.653 60.0245 127.668 61.7836 127.668L61.7993 127.668C62.4131 128.15 63.2196 128.442 64.1031 128.442C64.2341 128.442 64.3635 128.436 64.4907 128.423L64.4906 128.442C64.4906 129.724 66.049 130.762 67.9713 130.762C69.1821 130.762 70.2485 130.35 70.8721 129.725C71.346 130.329 72.6389 130.762 74.1596 130.762C76.0819 130.762 77.6403 130.07 77.6403 129.215C77.6403 129.086 77.6042 128.959 77.5364 128.839C77.8755 129.074 78.3175 129.216 78.8011 129.216C79.869 129.216 80.7348 128.523 80.7348 127.669C80.7348 127.597 80.7287 127.527 80.717 127.458C80.7276 127.465 80.7384 127.472 80.7493 127.479L80.7676 127.49C81.6942 128.021 83.5894 126.456 85.0007 123.994C86.412 121.532 86.805 119.105 85.8785 118.574C84.952 118.043 83.0568 119.608 81.6455 122.07C80.6115 123.874 80.1241 125.659 80.3017 126.693C79.9471 126.344 79.4066 126.122 78.8011 126.122C77.7331 126.122 76.8674 126.814 76.8674 127.669C76.8674 127.922 76.9436 128.161 77.0788 128.373C76.4579 127.949 75.3824 127.669 74.1596 127.669C73.0592 127.669 72.0781 127.895 71.4402 128.25C71.2936 127.058 69.7966 126.122 67.9713 126.122C67.8001 126.122 67.6317 126.13 67.4671 126.146C67.5432 125.891 67.5838 125.624 67.5838 125.348C67.5838 124.051 66.6852 122.94 65.4111 122.48C65.8066 121.978 66.0387 121.367 66.0387 120.708C66.0387 119.783 65.5828 118.954 64.86 118.387C65.5828 117.82 66.0388 116.99 66.0388 116.066C66.0388 114.965 65.3913 113.998 64.4162 113.449C64.9446 112.907 65.2643 112.199 65.2643 111.425C65.2643 110.259 64.538 109.243 63.4654 108.716C63.6279 108.358 63.7173 107.967 63.7173 107.558C63.7173 106.601 63.2288 105.746 62.4614 105.178C64.0593 104.898 65.2643 103.646 65.2643 102.143L65.2643 102.137C65.3925 102.141 65.5214 102.143 65.6511 102.143C67.1462 102.143 68.5469 101.855 69.7501 101.351C69.9288 101.364 70.1091 101.37 70.2907 101.37C71.0305 101.37 71.7472 101.266 72.4283 101.072C72.9797 101.266 73.5599 101.37 74.1588 101.37C77.7899 101.37 80.7334 97.5606 80.7334 92.8615C80.7334 92.7956 80.7329 92.7299 80.7317 92.6644C82.0574 92.1964 83.0148 90.9481 83.0522 89.4712C85.7979 88.9749 87.6965 87.9091 87.6965 86.6744C87.6965 86.6159 87.6923 86.5578 87.6839 86.5002C90.8447 86.0768 93.1106 84.9295 93.1106 83.5806C93.1106 83.0061 92.6996 82.4682 91.9834 82.0072C93.6257 81.4411 94.6574 80.6227 94.6574 79.7125C94.6574 79.4227 94.5529 79.1423 94.3575 78.8764C98.0587 78.588 100.843 77.3405 100.843 75.8453C100.843 74.718 99.2605 73.7315 96.8956 73.1907C96.9491 73.0472 96.9768 72.9006 96.9768 72.7515C96.9768 71.0428 93.3406 69.6576 88.8552 69.6576C88.3621 69.6576 87.8793 69.6743 87.4104 69.7064C85.9619 69.1955 84.0238 68.8832 81.8941 68.8832C77.4087 68.8832 73.7725 70.2684 73.7725 71.9772C73.7725 72.3458 73.9417 72.6993 74.2522 73.0272C72.9914 73.5723 72.2266 74.2879 72.2266 75.0716C72.2266 75.4396 72.3953 75.7926 72.7048 76.12C71.4438 76.6652 70.6789 77.3809 70.6789 78.1646C70.6789 78.4494 70.7799 78.7252 70.969 78.9871C69.3643 79.5523 68.3596 80.3611 68.3596 81.2593C68.3596 81.4705 68.4151 81.6768 68.521 81.8762C66.5436 82.4405 65.264 83.3403 65.264 84.3539C65.264 84.8124 65.5258 85.2476 65.9956 85.639C64.9882 86.2979 64.1287 87.1816 63.481 88.2232C63.4314 88.2211 63.3815 88.22 63.3315 88.22C61.4091 88.22 59.8508 89.7784 59.8508 91.7007C59.8508 91.8877 59.8655 92.0713 59.8939 92.2504C58.7948 93.0394 58.0114 94.0531 57.6906 95.1865C56.5952 94.6884 55.3581 94.408 54.0485 94.408C53.7543 94.408 53.4637 94.4222 53.1776 94.4498C53.0164 94.2726 52.818 94.1056 52.5876 93.9513C52.2785 92.9645 51.7479 92.1206 51.074 91.5191C51.2482 90.9698 51.3428 90.3807 51.3428 89.7679C51.3428 89.1758 51.2545 88.6059 51.0914 88.0726C52.2049 87.1027 52.8877 85.7938 52.8877 84.3536C52.8877 81.9162 50.9321 79.855 48.2425 79.1761C48.2461 79.0973 48.248 79.0182 48.248 78.9386C48.248 77.1184 47.2857 75.5081 45.8101 74.5264C45.888 74.202 45.9288 73.8675 45.9288 73.5255C45.9288 72.2732 45.3822 71.1202 44.4644 70.2029C44.9083 69.5589 45.1536 68.8516 45.1536 68.1095C45.1536 65.6969 42.5613 63.6529 38.9797 62.9531C37.7098 61.9157 35.7596 61.2272 33.5513 61.1546L33.5514 61.1494C33.5514 60.0246 32.9512 59.04 32.0536 58.4984ZM27.751 62.6497L27.7124 62.6764C27.6815 62.6238 27.6491 62.5722 27.6152 62.5217C27.6347 62.5148 27.6541 62.5078 27.6734 62.5006C27.6979 62.5511 27.7238 62.6008 27.751 62.6497Z" fill="url(#paint0_linear_616_2325)" fill-opacity="0.62"/>
<path d="M31.2812 52.1846C24.5841 54.3624 21.0964 59.9296 22.128 66.8231C22.2262 67.4945 22.3572 68.1167 22.4064 68.1986C22.4719 68.2968 23.1759 68.7225 23.9947 69.1483C29.873 72.243 34.8343 77.5973 38.5513 84.8675C39.6484 86.9797 41.0402 90.3201 40.8928 90.4511C40.8437 90.5002 40.3852 90.4674 39.8612 90.3692C39.3372 90.2709 38.6332 90.1891 38.2729 90.1891C37.5852 90.1891 37.6016 90.2546 37.9291 89.092C37.9946 88.8628 37.9127 88.6335 37.6671 88.3879C37.3232 88.0441 36.7501 88.0277 35.6858 88.3224C35.4729 88.3879 35.4074 88.1587 35.3092 86.9634C35.1946 85.4569 34.9162 84.7856 34.4086 84.7856C33.9665 84.7856 32.6566 85.7189 32.018 86.4885C29.7584 89.2557 28.7268 92.7434 28.5467 98.327L28.4484 101.569L28.9397 102.077C29.3654 102.486 29.6765 102.617 30.8882 102.83C31.6741 102.977 32.4273 103.059 32.5256 103.01C32.6402 102.961 33.0332 102.486 33.3934 101.929C33.8683 101.193 34.3431 100.718 35.1291 100.21C36.2589 99.4568 37.1922 98.3925 37.5361 97.4428L37.7489 96.8697L39.2226 96.9516C40.8764 97.0335 42.4647 97.4101 43.5454 97.934L44.2659 98.2943L44.7243 100.128C45.4612 103.092 47.1641 106.252 48.6869 107.464L49.2436 107.922L48.3103 110.64C46.9676 114.488 46.9676 114.587 48.3267 116.388C49.3746 117.78 49.8331 118.107 50.9138 118.287C51.8635 118.434 52.0763 118.746 51.5032 119.204C50.75 119.794 50.4389 120.694 50.4389 122.381C50.4389 124.165 50.5044 124.264 52.1255 124.673C53.1734 124.935 53.2553 124.935 53.5336 124.673C53.7138 124.509 53.8939 124.149 53.943 123.854C54.0085 123.56 54.1559 123.183 54.3032 123.003C54.5325 122.725 54.5325 122.79 54.4342 123.887C54.3196 125.279 54.3687 125.377 55.6295 125.967C56.8248 126.507 57.4307 126.507 57.6763 125.967L57.8564 125.557L58.6751 126.458C61.9336 130.109 67.1897 131.91 73.3627 131.468C76.9323 131.206 78.3732 130.666 81.4843 128.406C86.1018 125.05 87.0188 123.56 87.2808 118.942C87.4282 116.273 87.3135 115.733 86.6258 115.733C86.4293 115.733 85.5779 116.371 84.6937 117.174C82.7779 118.942 82.0574 119.712 81.4843 120.678C81.0422 121.447 80.4036 123.641 80.4036 124.427C80.4036 124.739 80.2235 125.033 79.7978 125.394C77.6691 127.26 73.0025 127.784 70.1534 126.474C68.647 125.786 67.2552 124.018 66.6493 122.037C66.5347 121.677 66.3874 119.761 66.3219 117.78C66.109 112.36 65.5523 109.216 64.357 106.809L63.702 105.499L64.5043 104.762C66.9277 102.552 70.4809 101.471 74.5908 101.716C75.5896 101.766 76.8504 101.864 77.3908 101.913C78.0621 101.978 78.4387 101.946 78.5042 101.831C78.5697 101.733 78.799 100.931 79.0118 100.046C80.2399 94.9867 82.3849 91.5809 85.8071 89.2557C87.3627 88.2078 89.5404 87.34 91.1123 87.1435C92.4059 86.9797 92.6188 86.7832 92.7498 85.5716C93.0117 83.2137 93.9942 81.1833 95.4187 80.1026C96.5977 79.202 97.7602 78.8581 99.938 78.7435C102.509 78.6125 102.591 78.5143 101.543 76.3693C98.9392 71.0149 92.3404 68.0839 82.9416 68.0839C79.9452 68.0839 74.3288 68.6898 73.9686 69.05C73.9031 69.1155 73.7066 69.7705 73.5265 70.491C72.4949 74.8465 69.2201 79.7915 62.5558 87.1107C61.3441 88.437 60.7874 89.223 60.0178 90.6639C59.4775 91.6791 58.7734 92.8089 58.4623 93.1855L57.8728 93.8405L56.612 93.6604C55.9079 93.5458 54.8272 93.4639 54.2214 93.4639H53.0915L52.8132 92.6779C52.6494 92.2358 52.5021 91.1879 52.4529 90.1891C52.3547 88.0277 52.6167 86.9142 53.7138 84.8347C54.1559 83.9996 54.4833 83.2137 54.4342 83.0827C54.3851 82.9681 53.7138 82.3786 52.9278 81.7891C49.4401 79.1856 47.1477 75.8289 45.9852 71.5716C45.6904 70.5073 45.6249 69.7869 45.6085 67.298C45.5758 64.9892 45.5103 64.236 45.3466 64.0723C45.2156 63.9577 44.446 63.7448 43.6273 63.5974C38.4858 62.6805 34.7689 60.6501 33.4917 58.0466C32.8858 56.7858 32.7712 55.2466 33.1642 53.7074C33.6554 51.808 33.3116 51.5297 31.2812 52.1846ZM31.3139 54.9519C31.101 58.6197 33.2624 61.6325 37.4378 63.4992C38.7314 64.0887 41.2039 64.8419 42.7594 65.1366L43.8401 65.3331L43.9384 67.8875C44.0039 69.9179 44.1021 70.8021 44.4296 72.0629C44.9863 74.1424 45.9197 76.2383 47.0986 78.0231C48.0155 79.4312 50.2752 81.8546 51.7325 83.0008L52.4529 83.5739L51.9453 84.6382C50.8319 86.8979 50.4717 89.9435 51.012 92.3013C51.1594 92.8908 51.2085 93.4148 51.143 93.4803C50.881 93.7423 49.5383 93.6768 48.9653 93.382C48.6541 93.2183 47.8191 92.8417 47.115 92.5633L45.8378 92.0393L44.7735 88.8791C43.2507 84.409 42.8249 83.623 42.1372 84.0651C41.4986 84.4745 41.5314 84.6546 42.7267 87.9786C43.3817 89.747 43.8729 91.237 43.8401 91.2861C43.7091 91.4171 42.9068 91.1388 42.9068 90.9587C42.9068 90.6312 41.0565 86.161 40.2706 84.5727C36.4554 76.9915 31.2812 71.2769 25.1245 67.8875C23.88 67.1997 23.8309 67.1506 23.6999 66.4465C23.5198 65.4477 23.6835 62.484 23.9783 61.3705C24.6496 58.9308 26.3525 56.622 28.4648 55.2957C29.3981 54.7063 31.0028 53.8712 31.2812 53.8548C31.3303 53.8384 31.3467 54.346 31.3139 54.9519ZM88.9182 70.1962C94.0924 71.0968 97.5474 72.9962 99.4632 76.009C99.7906 76.5003 100.053 76.9587 100.053 77.0079C100.053 77.057 99.7088 77.0897 99.2994 77.0897C98.3333 77.0897 96.7942 77.4827 95.6316 78.0394C94.3872 78.6289 92.7989 80.2336 92.193 81.5435C91.6854 82.6242 91.2106 84.2616 91.2106 84.9002C91.2106 85.3259 91.0796 85.3914 89.1638 85.9318C84.1206 87.3072 80.027 91.4826 78.1113 97.1972C77.8493 97.9995 77.5545 99.0147 77.4563 99.4568L77.2762 100.276L76.3428 100.161C72.8388 99.7188 68.8107 100.308 66.1581 101.651C64.4061 102.519 61.7371 104.877 61.7371 105.548C61.7371 105.663 61.95 106.039 62.2283 106.367C63.6692 108.184 64.4552 111.836 64.6681 117.943C64.7991 121.447 64.8482 121.791 65.2575 122.937C66.109 125.295 67.5008 126.949 69.4166 127.915C71.8563 129.16 76.1791 129.127 78.9136 127.85C79.765 127.44 79.9124 127.408 79.6832 127.67C79.2738 128.112 77.3908 129.078 76.2282 129.422C75.4914 129.651 74.7054 129.716 73.1171 129.716C68.7452 129.716 66.3055 128.505 63.702 125.033C62.4576 123.396 60.9184 120.268 60.2962 118.156C59.8868 116.699 59.8541 116.437 59.9851 115.405C60.0997 114.537 60.0997 114.21 59.9359 114.013C59.674 113.702 59.0517 113.686 58.757 113.997C58.626 114.128 58.3313 115.454 58.0693 117.223C57.8237 118.877 57.5781 120.35 57.5453 120.514C57.4798 120.727 57.1851 120.792 55.8588 120.841C54.336 120.891 54.205 120.923 53.6155 121.398C53.2717 121.66 52.8623 122.168 52.6822 122.495C52.5184 122.823 52.3056 123.052 52.2237 123.003C51.9781 122.856 52.06 121.087 52.322 120.694C52.6003 120.301 53.2389 120.056 54.4997 119.908C55.6459 119.761 55.8915 119.482 55.8096 118.484C55.695 117.403 55.0564 116.502 53.943 115.864C52.8296 115.242 52.6167 114.832 52.4693 112.982L52.3547 111.656L52.9114 111.099C53.4026 110.608 53.681 110.509 55.2857 110.198C57.4798 109.756 57.5781 109.773 59.1991 111.23C59.8541 111.819 60.5254 112.294 60.7055 112.294C61.1476 112.294 61.4096 111.983 61.4096 111.443C61.4096 111.082 61.1312 110.755 60.0178 109.773C58.1675 108.168 57.6927 108.037 55.2857 108.528L53.5664 108.872L52.0436 107.857C51.2085 107.3 50.2424 106.612 49.8986 106.35C48.6214 105.352 47.1805 102.846 46.4436 100.357L46.1816 99.4896L46.9021 100.079C47.3115 100.407 47.7372 100.669 47.8682 100.669C48.2448 100.669 48.6378 100.21 48.6378 99.768C48.6378 98.8346 44.6261 96.313 42.17 95.6908C40.4179 95.2487 38.322 95.0849 36.5864 95.2651C34.4577 95.4943 33.9174 95.8545 34.3922 96.7551C34.5232 96.9843 34.7361 97.0662 35.211 97.0662C35.5712 97.0662 35.8659 97.1317 35.8659 97.1972C35.8659 97.4264 34.3267 98.8183 33.5735 99.2604C33.0823 99.5387 32.673 99.9644 32.3455 100.521C31.8706 101.307 31.8379 101.34 31.2812 101.242C30.0858 101.029 30.135 101.111 30.135 99.4732C30.1513 94.4627 31.0683 90.5329 32.804 88.1914C33.1806 87.6674 33.5408 87.2417 33.6227 87.2417C33.6882 87.2417 33.7373 87.6838 33.7373 88.2242C33.7373 89.1084 33.6882 89.2557 33.1642 89.8452C32.4273 90.6475 31.7888 92.0721 31.5595 93.3493C31.3467 94.6428 31.4776 95.2323 32.0344 95.3633C32.673 95.527 33.0168 95.0849 33.1478 93.9387C33.3116 92.2522 34.1303 90.844 35.2601 90.2382C35.5221 90.1072 35.7677 90.0417 35.8332 90.0908C35.8823 90.1563 35.6858 90.7949 35.3911 91.5481C34.7361 93.2019 34.6215 93.7259 34.8835 94.037C35.1618 94.3645 35.7677 94.3481 36.0624 93.9879C36.1934 93.8405 36.4881 93.2838 36.701 92.7434L37.094 91.7774L38.4858 91.8756C40.7782 92.0393 44.4951 93.1364 47.4916 94.561L49.3746 95.4452L50.4717 95.2651C51.929 95.0522 54.9418 95.0522 56.5956 95.2978C57.6599 95.4452 58.0202 95.4452 58.4459 95.2651C59.2646 94.9376 60.2798 93.6604 61.3277 91.6627C62.1464 90.1236 62.6377 89.4522 64.2587 87.6674C68.9417 82.5096 71.4797 79.1038 73.3136 75.5178C74.1487 73.8804 75.1639 71.2605 75.1639 70.7038C75.1639 70.3272 75.4914 70.2781 79.9943 69.8196C81.6808 69.6559 87.1007 69.8687 88.9182 70.1962ZM51.5196 110.182C50.8974 110.919 50.7173 111.705 50.8319 113.097C50.881 113.784 50.9956 114.603 51.0939 114.898C51.3559 115.798 52.0272 116.682 52.7313 117.043C53.4518 117.403 54.0412 117.927 54.0412 118.189C54.0412 118.516 53.5991 118.336 53.2389 117.845C52.7968 117.256 51.9617 116.715 51.4705 116.715C51.274 116.715 50.9465 116.633 50.7337 116.535C50.1933 116.289 48.9653 114.619 48.9653 114.144C48.9653 113.915 49.3419 112.638 49.8003 111.312L50.6354 108.872L51.274 109.298L51.9126 109.707L51.5196 110.182ZM85.496 120.907C85.103 122.97 83.9405 124.591 81.6317 126.245L80.4855 127.08L81.2715 126.245C81.8773 125.574 82.0411 125.295 82.0411 124.837C82.0411 122.987 82.7943 121.349 84.3989 119.695L85.5615 118.484L85.6106 119.237C85.6434 119.646 85.5779 120.399 85.496 120.907ZM61.6716 125.001C62.1792 125.786 63.0798 126.933 63.6692 127.555C64.2423 128.161 64.6681 128.668 64.6026 128.668C64.2915 128.668 62.2283 127.424 61.295 126.671C60.1815 125.803 59.281 124.771 58.4786 123.527C57.8892 122.577 57.8564 122.446 58.2821 122.446C58.6915 122.446 58.9371 122.135 59.0517 121.447C59.1009 121.136 59.1827 120.792 59.2155 120.661C59.2646 120.53 59.6085 121.136 60.0014 122.004C60.3944 122.872 61.1476 124.231 61.6716 125.001ZM56.6611 123.691C56.6611 124.084 56.4646 124.411 56.219 124.411C56.0389 124.411 55.9898 124.313 56.0716 124.034C56.1208 123.838 56.1699 123.494 56.1699 123.265C56.1863 122.872 56.1863 122.872 56.4155 123.167C56.5465 123.347 56.6611 123.576 56.6611 123.691Z" fill="#3E3E3E"/>
<path d="M28.2684 59.618C27.9409 60.011 27.4824 60.7642 27.2368 61.3045C26.8111 62.1887 26.7784 62.418 26.7784 64.2355C26.7947 66.6425 27.0403 67.4285 27.8099 67.4285C28.5959 67.4285 28.7269 67.1174 28.4976 65.8238C28.1047 63.6297 28.4485 62.0414 29.6602 60.4367C30.1678 59.7654 30.1678 59.7326 29.9058 59.3233C29.4965 58.6847 28.9561 58.7829 28.2684 59.618Z" fill="#3E3E3E"/>
<path d="M32.0177 65.6772C31.5592 65.7918 31.1007 65.9392 31.0025 66.0047C30.675 66.2012 30.6423 66.7743 30.9534 67.1345C31.2317 67.4784 31.2645 67.4784 32.3943 67.2655C34.7358 66.8234 37.634 67.2819 40.4504 68.5263C41.4328 68.952 42.0059 68.9193 42.1697 68.4117C42.3662 67.7895 42.1042 67.4784 40.9252 66.9544C38.7475 65.9719 37.1264 65.5953 34.8832 65.5298C33.5569 65.4971 32.5417 65.5462 32.0177 65.6772Z" fill="#3E3E3E"/>
<path d="M76.5875 71.6043C76.4565 71.7353 76.2273 72.3575 76.0799 72.9961C75.1629 77.0569 71.8717 82.1984 66.108 88.5352C64.8963 89.8615 64.0285 90.9585 64.0285 91.155C64.0285 91.5644 64.4542 91.9901 64.8472 91.9901C65.0273 91.9901 65.846 91.2369 66.7794 90.2217C73.0343 83.4919 76.6694 77.8756 77.6846 73.3563C77.9629 72.1119 77.8974 71.6534 77.3571 71.4569C76.9805 71.3095 76.8495 71.3259 76.5875 71.6043Z" fill="#3E3E3E"/>
<path d="M78.3408 75.2056C78.0952 75.5658 78.0952 75.6477 78.3244 75.9915C78.5045 76.2699 78.8811 76.4336 79.7981 76.6301C83.7443 77.4979 87.0355 80.4289 88.2472 84.1786C88.4764 84.8499 88.984 85.0956 89.5571 84.7844C90.0319 84.5388 89.9992 83.9494 89.4261 82.6394C87.8051 78.8243 84.4156 76.0406 80.2238 75.0418C78.8156 74.7143 78.6519 74.7307 78.3408 75.2056Z" fill="#3E3E3E"/>
<path d="M75.1315 83.6555C74.7385 83.8684 74.7712 84.2941 75.2461 85.8169C76.0484 88.3386 76.0484 92.2192 75.2624 95.7724C74.7385 98.0321 74.7385 98.3104 75.1806 98.556C75.7864 98.8671 76.2449 98.5233 76.5233 97.5245C77.6203 93.6929 77.8332 89.1245 77.0472 86.0625C76.4414 83.7865 75.9665 83.1643 75.1315 83.6555Z" fill="#3E3E3E"/>
<path d="M30.9868 97.1638C30.3155 97.6223 30.6757 98.703 31.5108 98.703C31.9366 98.703 32.4278 98.2282 32.4278 97.8352C32.4278 97.5077 31.8711 96.9018 31.5599 96.9018C31.4453 96.9018 31.1833 97.0165 30.9868 97.1638Z" fill="#3E3E3E"/>
<g filter="url(#filter0_bi_616_2325)">
<rect x="0.0275879" width="123.514" height="184" rx="15.2657" fill="#616161" fill-opacity="0.3"/>
<path fill-rule="evenodd" clip-rule="evenodd" d="M32.0539 58.4974C32.5062 57.9594 32.7787 57.2652 32.7787 56.5074C32.7787 54.7987 31.3935 53.4135 29.6847 53.4135C27.9761 53.4135 26.591 54.7984 26.5908 56.507L26.5899 56.507C24.8811 56.507 23.4959 57.8922 23.4959 59.6009C23.4959 60.2379 23.6884 60.8299 24.0184 61.322C22.8135 61.745 21.9496 62.8926 21.9496 64.2421C21.9496 65.3961 22.5814 66.4025 23.518 66.9344C23.7014 68.4681 25.0068 69.6571 26.5899 69.6571C26.9615 69.6571 27.3179 69.5915 27.648 69.4714C28.2757 70.9458 29.8984 72.1764 32.0539 72.8816C32.0218 73.0925 32.0053 73.3071 32.0053 73.5247C32.0053 75.8849 33.9469 77.8924 36.6555 78.6336C36.6495 78.7345 36.6465 78.8361 36.6465 78.9384C36.6465 81.0309 37.9183 82.8461 39.7798 83.7475C39.7529 83.9463 39.7391 84.1483 39.7391 84.3529C39.7391 85.7944 40.4231 87.1043 41.5383 88.0745C41.3757 88.6071 41.2877 89.1762 41.2877 89.7675C41.2877 90.3611 41.3764 90.9324 41.5403 91.4668C40.9771 91.3676 40.3713 91.3137 39.7403 91.3137C38.74 91.3137 37.803 91.4493 36.999 91.6858C36.4627 90.0761 35.4656 88.9943 34.3241 88.9943C34.3169 88.9943 34.3098 88.9943 34.3026 88.9944C34.3178 88.8695 34.3258 88.7402 34.3258 88.6078C34.3258 87.5399 33.8063 86.6741 33.1656 86.6741C32.6043 86.6741 32.136 87.3384 32.0285 88.2211C32.0208 88.2209 32.0131 88.2209 32.0053 88.2209C30.2966 88.2209 28.9114 91.3376 28.9114 95.1823C28.9114 99.0269 30.2966 102.144 32.0053 102.144C32.9217 102.144 33.745 101.247 34.3115 99.823L34.3241 99.8231C35.6284 99.8231 36.7443 98.4106 37.1994 96.412C37.9571 96.6138 38.822 96.7281 39.7403 96.7281C40.9537 96.7281 42.0739 96.5285 42.9767 96.1914C43.2273 96.7243 43.7927 97.1964 44.5695 97.5561C44.838 98.6612 45.377 99.6151 46.0881 100.292C45.9825 100.765 45.9271 101.255 45.9271 101.756C45.9271 104.627 47.7466 107.113 50.3992 108.322C48.0173 110.363 47.5284 113.816 49.3437 116.2C49.9617 117.012 50.7702 117.599 51.6705 117.951C51.7833 118.147 51.9096 118.337 52.0496 118.521C52.4164 119.003 52.8502 119.405 53.3305 119.727C51.8058 120.89 50.9889 122.382 51.5056 123.06C52.0231 123.74 53.6826 123.347 55.2121 122.183L55.2355 122.165L55.2673 122.14C55.2284 122.302 55.2081 122.47 55.2081 122.64C55.2081 124.043 56.5794 125.196 58.3362 125.334C58.57 126.652 60.0246 127.668 61.784 127.668L61.7999 127.668C62.4137 128.15 63.2201 128.442 64.1033 128.442C64.2343 128.442 64.3637 128.436 64.491 128.423L64.4908 128.442C64.4908 129.723 66.0492 130.762 67.9715 130.762C69.1825 130.762 70.2491 130.35 70.8726 129.724C71.3463 130.329 72.6394 130.762 74.1603 130.762C76.0827 130.762 77.641 130.069 77.641 129.215C77.641 129.086 77.6053 128.96 77.5379 128.84C77.8767 129.074 78.3181 129.215 78.8009 129.215C79.8688 129.215 80.7346 128.523 80.7346 127.668C80.7346 127.597 80.7285 127.527 80.7168 127.458C80.7332 127.469 80.75 127.48 80.7673 127.49C81.6939 128.021 83.5891 126.456 85.0004 123.994C86.4117 121.532 86.8047 119.105 85.8782 118.574C84.9517 118.043 83.0565 119.608 81.6452 122.07C80.6113 123.874 80.1239 125.658 80.3013 126.692C79.9468 126.344 79.4063 126.121 78.8009 126.121C77.7329 126.121 76.8671 126.814 76.8671 127.668C76.8671 127.921 76.9431 128.16 77.0777 128.371C76.4565 127.948 75.3819 127.668 74.1603 127.668C73.0597 127.668 72.0783 127.895 71.4405 128.25C71.2941 127.058 69.7969 126.121 67.9715 126.121C67.8003 126.121 67.6319 126.129 67.4673 126.145C67.5434 125.891 67.584 125.624 67.584 125.348C67.584 124.051 66.6855 122.94 65.4115 122.48C65.8072 121.978 66.0394 121.366 66.0394 120.707C66.0394 119.783 65.5836 118.953 64.8609 118.386C65.5836 117.819 66.0394 116.99 66.0394 116.066C66.0394 114.964 65.3918 113.997 64.4164 113.449C64.945 112.906 65.2647 112.199 65.2647 111.425C65.2647 110.258 64.5384 109.242 63.4658 108.715C63.6281 108.358 63.7175 107.967 63.7175 107.558C63.7175 106.601 63.2292 105.746 62.462 105.178C64.0598 104.898 65.2647 103.646 65.2647 102.143L65.2647 102.136C65.3929 102.14 65.5219 102.143 65.6516 102.143C67.1466 102.143 68.5473 101.854 69.7505 101.351C69.9291 101.363 70.1093 101.369 70.291 101.369C71.031 101.369 71.748 101.266 72.4293 101.071C72.9808 101.266 73.5612 101.369 74.1603 101.369C77.7914 101.369 80.735 97.5599 80.735 92.8609C80.735 92.7951 80.7344 92.7296 80.7332 92.6642C82.0589 92.1959 83.0161 90.9473 83.0531 89.4702C85.798 88.9738 87.6958 87.9082 87.6958 86.6737C87.6958 86.6153 87.6916 86.5573 87.6832 86.4998C90.8443 86.0764 93.1103 84.9291 93.1103 83.5802C93.1103 83.0058 92.6995 82.468 91.9837 82.0071C93.6259 81.4409 94.6575 80.6226 94.6575 79.7124C94.6575 79.4225 94.5529 79.1419 94.3572 78.8758C98.0587 78.5875 100.843 77.3399 100.843 75.8446C100.843 74.7174 99.2608 73.7309 96.8961 73.1901C96.9496 73.0467 96.9772 72.9001 96.9772 72.7511C96.9772 71.0423 93.3411 69.6571 88.8556 69.6571C88.3623 69.6571 87.8792 69.6739 87.4101 69.706C85.9617 69.1951 84.0235 68.8829 81.8939 68.8829C77.4085 68.8829 73.7723 70.2681 73.7723 71.9768C73.7723 72.3455 73.9415 72.6991 74.2521 73.027C72.9915 73.5721 72.2269 74.2876 72.2269 75.0712C72.2269 75.4392 72.3955 75.7922 72.7049 76.1196C71.4443 76.6647 70.6797 77.3802 70.6797 78.1639C70.6797 78.4487 70.7807 78.7245 70.9698 78.9864C69.3644 79.5517 68.3591 80.3607 68.3591 81.2591C68.3591 81.4705 68.4147 81.6768 68.5206 81.8762C66.5441 82.4405 65.2651 83.3402 65.2651 84.3536C65.2651 84.8119 65.5267 85.2469 65.9961 85.6382C64.9885 86.2972 64.1287 87.1812 63.4809 88.2231C63.4312 88.221 63.3814 88.2199 63.3312 88.2199C61.4089 88.2199 59.8506 89.7783 59.8506 91.7006C59.8506 91.8876 59.8653 92.0712 59.8937 92.2502C58.7948 93.0392 58.0116 94.0529 57.691 95.1863C56.5955 94.6881 55.3583 94.4077 54.0487 94.4077C53.7546 94.4077 53.4642 94.4218 53.1783 94.4494C53.0169 94.2721 52.8184 94.105 52.5878 93.9507C52.2787 92.9638 51.7481 92.12 51.0743 91.5185C51.2485 90.9693 51.343 90.3803 51.343 89.7675C51.343 89.1754 51.2547 88.6056 51.0916 88.0723C52.2054 87.1023 52.8884 85.7933 52.8884 84.3529C52.8884 81.9156 50.9328 79.8544 48.2433 79.1755C48.247 79.0969 48.2488 79.0178 48.2488 78.9384C48.2488 77.1177 47.2859 75.5068 45.8094 74.5253C45.8873 74.201 45.9281 73.8666 45.9281 73.5247C45.9281 72.2729 45.3819 71.1203 44.4647 70.2032C44.9089 69.5591 45.1543 68.8517 45.1543 68.1093C45.1543 65.6968 42.5621 63.6528 38.9806 62.953C37.7107 61.9155 35.7604 61.2271 33.552 61.1545L33.5521 61.1486C33.5521 60.0236 32.9517 59.0389 32.0539 58.4974ZM27.752 62.6496L27.7129 62.6767C27.6818 62.6238 27.6491 62.5719 27.615 62.521C27.6347 62.5141 27.6544 62.5069 27.674 62.4996C27.6986 62.5504 27.7247 62.6004 27.752 62.6496Z" fill="url(#paint1_linear_616_2325)" fill-opacity="0.62"/>
<path d="M31.2812 52.1846C24.5841 54.3624 21.0964 59.9296 22.128 66.8231C22.2262 67.4945 22.3572 68.1167 22.4064 68.1986C22.4719 68.2968 23.1759 68.7225 23.9947 69.1483C29.873 72.243 34.8343 77.5973 38.5513 84.8675C39.6484 86.9797 41.0402 90.3201 40.8928 90.4511C40.8437 90.5002 40.3852 90.4674 39.8612 90.3692C39.3372 90.2709 38.6332 90.1891 38.2729 90.1891C37.5852 90.1891 37.6016 90.2546 37.9291 89.092C37.9946 88.8628 37.9127 88.6335 37.6671 88.3879C37.3232 88.0441 36.7501 88.0277 35.6858 88.3224C35.4729 88.3879 35.4074 88.1587 35.3092 86.9634C35.1946 85.4569 34.9162 84.7856 34.4086 84.7856C33.9665 84.7856 32.6566 85.7189 32.018 86.4885C29.7584 89.2557 28.7268 92.7434 28.5467 98.327L28.4484 101.569L28.9397 102.077C29.3654 102.486 29.6765 102.617 30.8882 102.83C31.6741 102.977 32.4273 103.059 32.5256 103.01C32.6402 102.961 33.0332 102.486 33.3934 101.929C33.8683 101.193 34.3431 100.718 35.1291 100.21C36.2589 99.4568 37.1922 98.3925 37.5361 97.4428L37.7489 96.8697L39.2226 96.9516C40.8764 97.0335 42.4647 97.4101 43.5454 97.934L44.2659 98.2943L44.7243 100.128C45.4612 103.092 47.1641 106.252 48.6869 107.464L49.2436 107.922L48.3103 110.64C46.9676 114.488 46.9676 114.587 48.3267 116.388C49.3746 117.78 49.8331 118.107 50.9138 118.287C51.8635 118.434 52.0763 118.746 51.5032 119.204C50.75 119.794 50.4389 120.694 50.4389 122.381C50.4389 124.165 50.5044 124.264 52.1255 124.673C53.1734 124.935 53.2553 124.935 53.5336 124.673C53.7138 124.509 53.8939 124.149 53.943 123.854C54.0085 123.56 54.1559 123.183 54.3032 123.003C54.5325 122.725 54.5325 122.79 54.4342 123.887C54.3196 125.279 54.3687 125.377 55.6295 125.967C56.8248 126.507 57.4307 126.507 57.6763 125.967L57.8564 125.557L58.6751 126.458C61.9336 130.109 67.1897 131.91 73.3627 131.468C76.9323 131.206 78.3732 130.666 81.4843 128.406C86.1018 125.05 87.0188 123.56 87.2808 118.942C87.4282 116.273 87.3135 115.733 86.6258 115.733C86.4293 115.733 85.5779 116.371 84.6937 117.174C82.7779 118.942 82.0574 119.712 81.4843 120.678C81.0422 121.447 80.4036 123.641 80.4036 124.427C80.4036 124.739 80.2235 125.033 79.7978 125.394C77.6691 127.26 73.0025 127.784 70.1534 126.474C68.647 125.786 67.2552 124.018 66.6493 122.037C66.5347 121.677 66.3874 119.761 66.3219 117.78C66.109 112.36 65.5523 109.216 64.357 106.809L63.702 105.499L64.5043 104.762C66.9277 102.552 70.4809 101.471 74.5908 101.716C75.5896 101.766 76.8504 101.864 77.3908 101.913C78.0621 101.978 78.4387 101.946 78.5042 101.831C78.5697 101.733 78.799 100.931 79.0118 100.046C80.2399 94.9867 82.3849 91.5809 85.8071 89.2557C87.3627 88.2078 89.5404 87.34 91.1123 87.1435C92.4059 86.9797 92.6188 86.7832 92.7498 85.5716C93.0117 83.2137 93.9942 81.1833 95.4187 80.1026C96.5977 79.202 97.7602 78.8581 99.938 78.7435C102.509 78.6125 102.591 78.5143 101.543 76.3693C98.9392 71.0149 92.3404 68.0839 82.9416 68.0839C79.9452 68.0839 74.3288 68.6898 73.9686 69.05C73.9031 69.1155 73.7066 69.7705 73.5265 70.491C72.4949 74.8465 69.2201 79.7915 62.5558 87.1107C61.3441 88.437 60.7874 89.223 60.0178 90.6639C59.4775 91.6791 58.7734 92.8089 58.4623 93.1855L57.8728 93.8405L56.612 93.6604C55.9079 93.5458 54.8272 93.4639 54.2214 93.4639H53.0915L52.8132 92.6779C52.6494 92.2358 52.5021 91.1879 52.4529 90.1891C52.3547 88.0277 52.6167 86.9142 53.7138 84.8347C54.1559 83.9996 54.4833 83.2137 54.4342 83.0827C54.3851 82.9681 53.7138 82.3786 52.9278 81.7891C49.4401 79.1856 47.1477 75.8289 45.9852 71.5716C45.6904 70.5073 45.6249 69.7869 45.6085 67.298C45.5758 64.9892 45.5103 64.236 45.3466 64.0723C45.2156 63.9577 44.446 63.7448 43.6273 63.5974C38.4858 62.6805 34.7689 60.6501 33.4917 58.0466C32.8858 56.7858 32.7712 55.2466 33.1642 53.7074C33.6554 51.808 33.3116 51.5297 31.2812 52.1846ZM31.3139 54.9519C31.101 58.6197 33.2624 61.6325 37.4378 63.4992C38.7314 64.0887 41.2039 64.8419 42.7594 65.1366L43.8401 65.3331L43.9384 67.8875C44.0039 69.9179 44.1021 70.8021 44.4296 72.0629C44.9863 74.1424 45.9197 76.2383 47.0986 78.0231C48.0155 79.4312 50.2752 81.8546 51.7325 83.0008L52.4529 83.5739L51.9453 84.6382C50.8319 86.8979 50.4717 89.9435 51.012 92.3013C51.1594 92.8908 51.2085 93.4148 51.143 93.4803C50.881 93.7423 49.5383 93.6768 48.9653 93.382C48.6541 93.2183 47.8191 92.8417 47.115 92.5633L45.8378 92.0393L44.7735 88.8791C43.2507 84.409 42.8249 83.623 42.1372 84.0651C41.4986 84.4745 41.5314 84.6546 42.7267 87.9786C43.3817 89.747 43.8729 91.237 43.8401 91.2861C43.7091 91.4171 42.9068 91.1388 42.9068 90.9587C42.9068 90.6312 41.0565 86.161 40.2706 84.5727C36.4554 76.9915 31.2812 71.2769 25.1245 67.8875C23.88 67.1997 23.8309 67.1506 23.6999 66.4465C23.5198 65.4477 23.6835 62.484 23.9783 61.3705C24.6496 58.9308 26.3525 56.622 28.4648 55.2957C29.3981 54.7063 31.0028 53.8712 31.2812 53.8548C31.3303 53.8384 31.3467 54.346 31.3139 54.9519ZM88.9182 70.1962C94.0924 71.0968 97.5474 72.9962 99.4632 76.009C99.7906 76.5003 100.053 76.9587 100.053 77.0079C100.053 77.057 99.7088 77.0897 99.2994 77.0897C98.3333 77.0897 96.7942 77.4827 95.6316 78.0394C94.3872 78.6289 92.7989 80.2336 92.193 81.5435C91.6854 82.6242 91.2106 84.2616 91.2106 84.9002C91.2106 85.3259 91.0796 85.3914 89.1638 85.9318C84.1206 87.3072 80.027 91.4826 78.1113 97.1972C77.8493 97.9995 77.5545 99.0147 77.4563 99.4568L77.2762 100.276L76.3428 100.161C72.8388 99.7188 68.8107 100.308 66.1581 101.651C64.4061 102.519 61.7371 104.877 61.7371 105.548C61.7371 105.663 61.95 106.039 62.2283 106.367C63.6692 108.184 64.4552 111.836 64.6681 117.943C64.7991 121.447 64.8482 121.791 65.2575 122.937C66.109 125.295 67.5008 126.949 69.4166 127.915C71.8563 129.16 76.1791 129.127 78.9136 127.85C79.765 127.44 79.9124 127.408 79.6832 127.67C79.2738 128.112 77.3908 129.078 76.2282 129.422C75.4914 129.651 74.7054 129.716 73.1171 129.716C68.7452 129.716 66.3055 128.505 63.702 125.033C62.4576 123.396 60.9184 120.268 60.2962 118.156C59.8868 116.699 59.8541 116.437 59.9851 115.405C60.0997 114.537 60.0997 114.21 59.9359 114.013C59.674 113.702 59.0517 113.686 58.757 113.997C58.626 114.128 58.3313 115.454 58.0693 117.223C57.8237 118.877 57.5781 120.35 57.5453 120.514C57.4798 120.727 57.1851 120.792 55.8588 120.841C54.336 120.891 54.205 120.923 53.6155 121.398C53.2717 121.66 52.8623 122.168 52.6822 122.495C52.5184 122.823 52.3056 123.052 52.2237 123.003C51.9781 122.856 52.06 121.087 52.322 120.694C52.6003 120.301 53.2389 120.056 54.4997 119.908C55.6459 119.761 55.8915 119.482 55.8096 118.484C55.695 117.403 55.0564 116.502 53.943 115.864C52.8296 115.242 52.6167 114.832 52.4693 112.982L52.3547 111.656L52.9114 111.099C53.4026 110.608 53.681 110.509 55.2857 110.198C57.4798 109.756 57.5781 109.773 59.1991 111.23C59.8541 111.819 60.5254 112.294 60.7055 112.294C61.1476 112.294 61.4096 111.983 61.4096 111.443C61.4096 111.082 61.1312 110.755 60.0178 109.773C58.1675 108.168 57.6927 108.037 55.2857 108.528L53.5664 108.872L52.0436 107.857C51.2085 107.3 50.2424 106.612 49.8986 106.35C48.6214 105.352 47.1805 102.846 46.4436 100.357L46.1816 99.4896L46.9021 100.079C47.3115 100.407 47.7372 100.669 47.8682 100.669C48.2448 100.669 48.6378 100.21 48.6378 99.768C48.6378 98.8346 44.6261 96.313 42.17 95.6908C40.4179 95.2487 38.322 95.0849 36.5864 95.2651C34.4577 95.4943 33.9174 95.8545 34.3922 96.7551C34.5232 96.9843 34.7361 97.0662 35.211 97.0662C35.5712 97.0662 35.8659 97.1317 35.8659 97.1972C35.8659 97.4264 34.3267 98.8183 33.5735 99.2604C33.0823 99.5387 32.673 99.9644 32.3455 100.521C31.8706 101.307 31.8379 101.34 31.2812 101.242C30.0858 101.029 30.135 101.111 30.135 99.4732C30.1513 94.4627 31.0683 90.5329 32.804 88.1914C33.1806 87.6674 33.5408 87.2417 33.6227 87.2417C33.6882 87.2417 33.7373 87.6838 33.7373 88.2242C33.7373 89.1084 33.6882 89.2557 33.1642 89.8452C32.4273 90.6475 31.7888 92.0721 31.5595 93.3493C31.3467 94.6428 31.4776 95.2323 32.0344 95.3633C32.673 95.527 33.0168 95.0849 33.1478 93.9387C33.3116 92.2522 34.1303 90.844 35.2601 90.2382C35.5221 90.1072 35.7677 90.0417 35.8332 90.0908C35.8823 90.1563 35.6858 90.7949 35.3911 91.5481C34.7361 93.2019 34.6215 93.7259 34.8835 94.037C35.1618 94.3645 35.7677 94.3481 36.0624 93.9879C36.1934 93.8405 36.4881 93.2838 36.701 92.7434L37.094 91.7774L38.4858 91.8756C40.7782 92.0393 44.4951 93.1364 47.4916 94.561L49.3746 95.4452L50.4717 95.2651C51.929 95.0522 54.9418 95.0522 56.5956 95.2978C57.6599 95.4452 58.0202 95.4452 58.4459 95.2651C59.2646 94.9376 60.2798 93.6604 61.3277 91.6627C62.1464 90.1236 62.6377 89.4522 64.2587 87.6674C68.9417 82.5096 71.4797 79.1038 73.3136 75.5178C74.1487 73.8804 75.1639 71.2605 75.1639 70.7038C75.1639 70.3272 75.4914 70.2781 79.9943 69.8196C81.6808 69.6559 87.1007 69.8687 88.9182 70.1962ZM51.5196 110.182C50.8974 110.919 50.7173 111.705 50.8319 113.097C50.881 113.784 50.9956 114.603 51.0939 114.898C51.3559 115.798 52.0272 116.682 52.7313 117.043C53.4518 117.403 54.0412 117.927 54.0412 118.189C54.0412 118.516 53.5991 118.336 53.2389 117.845C52.7968 117.256 51.9617 116.715 51.4705 116.715C51.274 116.715 50.9465 116.633 50.7337 116.535C50.1933 116.289 48.9653 114.619 48.9653 114.144C48.9653 113.915 49.3419 112.638 49.8003 111.312L50.6354 108.872L51.274 109.298L51.9126 109.707L51.5196 110.182ZM85.496 120.907C85.103 122.97 83.9405 124.591 81.6317 126.245L80.4855 127.08L81.2715 126.245C81.8773 125.574 82.0411 125.295 82.0411 124.837C82.0411 122.987 82.7943 121.349 84.3989 119.695L85.5615 118.484L85.6106 119.237C85.6434 119.646 85.5779 120.399 85.496 120.907ZM61.6716 125.001C62.1792 125.786 63.0798 126.933 63.6692 127.555C64.2423 128.161 64.6681 128.668 64.6026 128.668C64.2915 128.668 62.2283 127.424 61.295 126.671C60.1815 125.803 59.281 124.771 58.4786 123.527C57.8892 122.577 57.8564 122.446 58.2821 122.446C58.6915 122.446 58.9371 122.135 59.0517 121.447C59.1009 121.136 59.1827 120.792 59.2155 120.661C59.2646 120.53 59.6085 121.136 60.0014 122.004C60.3944 122.872 61.1476 124.231 61.6716 125.001ZM56.6611 123.691C56.6611 124.084 56.4646 124.411 56.219 124.411C56.0389 124.411 55.9898 124.313 56.0716 124.034C56.1208 123.838 56.1699 123.494 56.1699 123.265C56.1863 122.872 56.1863 122.872 56.4155 123.167C56.5465 123.347 56.6611 123.576 56.6611 123.691Z" fill="#3E3E3E"/>
<path d="M28.2684 59.618C27.9409 60.011 27.4824 60.7642 27.2368 61.3045C26.8111 62.1887 26.7784 62.418 26.7784 64.2355C26.7947 66.6425 27.0403 67.4285 27.8099 67.4285C28.5959 67.4285 28.7269 67.1174 28.4976 65.8238C28.1047 63.6297 28.4485 62.0414 29.6602 60.4367C30.1678 59.7654 30.1678 59.7326 29.9058 59.3233C29.4965 58.6847 28.9561 58.7829 28.2684 59.618Z" fill="#3E3E3E"/>
<path d="M32.0186 65.6769C31.5601 65.7916 31.1016 65.9389 31.0034 66.0044C30.6759 66.2009 30.6432 66.774 30.9543 67.1342C31.2326 67.4781 31.2654 67.4781 32.3952 67.2652C34.7367 66.8231 37.6349 67.2816 40.4513 68.5261C41.4337 68.9518 42.0068 68.919 42.1706 68.4114C42.3671 67.7892 42.1051 67.4781 40.9261 66.9541C38.7484 65.9717 37.1273 65.5951 34.8841 65.5296C33.5578 65.4968 32.5426 65.546 32.0186 65.6769Z" fill="#3E3E3E"/>
<path d="M76.5873 71.6046C76.4563 71.7356 76.2271 72.3579 76.0797 72.9965C75.1628 77.0572 71.8715 82.1987 66.1078 88.5355C64.8962 89.8618 64.0283 90.9589 64.0283 91.1554C64.0283 91.5648 64.454 91.9905 64.847 91.9905C65.0271 91.9905 65.8459 91.2373 66.7792 90.2221C73.0341 83.4923 76.6692 77.876 77.6844 73.3567C77.9627 72.1122 77.8972 71.6538 77.3569 71.4573C76.9803 71.3099 76.8493 71.3263 76.5873 71.6046Z" fill="#3E3E3E"/>
<path d="M78.3417 75.2059C78.0961 75.5662 78.0961 75.648 78.3253 75.9919C78.5054 76.2702 78.882 76.434 79.799 76.6305C83.7451 77.4983 87.0364 80.4293 88.248 84.179C88.4773 84.8503 88.9849 85.0959 89.558 84.7848C90.0328 84.5392 90.0001 83.9497 89.427 82.6398C87.8059 78.8246 84.4165 76.041 80.2247 75.0422C78.8165 74.7147 78.6528 74.7311 78.3417 75.2059Z" fill="#3E3E3E"/>
<path d="M75.1321 83.6557C74.7391 83.8685 74.7718 84.2943 75.2467 85.8171C76.049 88.3387 76.049 92.2194 75.2631 95.7726C74.7391 98.0322 74.7391 98.3105 75.1812 98.5562C75.787 98.8673 76.2455 98.5234 76.5239 97.5246C77.6209 93.693 77.8338 89.1246 77.0478 86.0627C76.442 83.7867 75.9671 83.1644 75.1321 83.6557Z" fill="#3E3E3E"/>
<path d="M30.9859 97.1642C30.3146 97.6227 30.6748 98.7034 31.5099 98.7034C31.9356 98.7034 32.4268 98.2285 32.4268 97.8355C32.4268 97.5081 31.8701 96.9022 31.559 96.9022C31.4444 96.9022 31.1824 97.0168 30.9859 97.1642Z" fill="#3E3E3E"/>
</g>
<defs>
<filter id="filter0_bi_616_2325" x="-46.2322" y="-46.2598" width="216.033" height="276.52" filterUnits="userSpaceOnUse" color-interpolation-filters="sRGB">
<feFlood flood-opacity="0" result="BackgroundImageFix"/>
<feGaussianBlur in="BackgroundImage" stdDeviation="23.1299"/>
<feComposite in2="SourceAlpha" operator="in" result="effect1_backgroundBlur_616_2325"/>
<feBlend mode="normal" in="SourceGraphic" in2="effect1_backgroundBlur_616_2325" result="shape"/>
<feColorMatrix in="SourceAlpha" type="matrix" values="0 0 0 0 0 0 0 0 0 0 0 0 0 0 0 0 0 0 127 0" result="hardAlpha"/>
<feOffset dx="2.31299" dy="2.31299"/>
<feGaussianBlur stdDeviation="2.77559"/>
<feComposite in2="hardAlpha" operator="arithmetic" k2="-1" k3="1"/>
<feColorMatrix type="matrix" values="0 0 0 0 1 0 0 0 0 1 0 0 0 0 1 0 0 0 0.15 0"/>
<feBlend mode="normal" in2="shape" result="effect2_innerShadow_616_2325"/>
</filter>
<linearGradient id="paint0_linear_616_2325" x1="21.9494" y1="112.199" x2="103.551" y2="66.5649" gradientUnits="userSpaceOnUse">
<stop stop-color="#AB8964"/>
<stop offset="1" stop-color="#C4B186"/>
</linearGradient>
<linearGradient id="paint1_linear_616_2325" x1="21.9496" y1="112.198" x2="103.551" y2="66.5645" gradientUnits="userSpaceOnUse">
<stop stop-color="#AB8964"/>
<stop offset="1" stop-color="#C4B186"/>
</linearGradient>
</defs>
</svg>
