<svg width="124" height="184" viewBox="0 0 124 184" fill="none" xmlns="http://www.w3.org/2000/svg">
<g filter="url(#filter0_bi_1038_3753)">
<rect width="123.514" height="184" rx="15.2657" fill="#616161" fill-opacity="0.3"/>
<path d="M59.2826 53.3722L57.8241 54.3445L57.1219 54.0024C55.5734 53.2101 54.259 53.7143 52.2784 55.857C49.5595 58.8099 47.1648 62.9512 46.3545 66.1382L46.1204 67.0025L45.5623 66.1202C44.734 64.8238 44.2299 64.4096 43.3116 64.3196C42.4653 64.2116 41.7271 64.4997 41.1509 65.1299C40.9708 65.3279 40.1786 67.5066 39.3863 69.9734C38.0719 74.0066 37.9459 74.5468 38.0179 75.5191C38.0719 76.1133 38.162 76.7615 38.234 76.9776C38.324 77.2837 38.252 77.3917 37.7838 77.5898C36.3254 78.202 35.4611 79.1563 35.191 80.5067C35.101 80.8848 34.9209 81.0469 34.3988 81.1729C33.7326 81.3529 32.7963 82.1812 32.4182 82.9194C32.3101 83.1175 32.0941 84.8821 31.932 86.8447C31.6979 89.7076 31.6799 90.6439 31.842 91.6342C32.076 93.0566 32.9763 95.0552 33.8046 95.9915L34.3808 96.6397L33.3364 96.9458C31.86 97.378 31.3738 97.6661 30.8517 98.4223C30.2215 99.3586 30.2215 100.781 30.8517 101.879L31.3018 102.654L30.6896 103.338C29.8794 104.238 29.7893 104.814 30.1314 106.417C31.2658 111.512 32.1301 113.295 34.0207 114.501C34.6869 114.933 34.8849 115.168 34.7949 115.384C34.7409 115.546 34.6328 116.014 34.5968 116.428C34.4348 117.67 35.173 118.931 37.4057 121.181C40.2866 124.098 43.2756 125.863 46.8587 126.799L48.3711 127.177L48.2811 128.096L48.1911 128.996L49.7756 129.572C53.3947 130.886 58.6344 131.967 61.3892 131.967C63.964 131.967 69.8879 130.76 73.0029 129.59L74.5874 128.996L74.5333 128.042C74.4973 127.285 74.5514 127.105 74.7674 127.105C75.2716 127.105 78.5486 125.989 79.6469 125.449C82.5819 123.99 85.7509 121.325 87.3894 118.931C88.0376 117.976 88.1096 117.778 88.0916 116.77C88.0916 116.176 88.0376 115.546 88.0016 115.384C87.9475 115.186 88.2356 114.879 88.8298 114.483C90.6304 113.259 91.6027 111.296 92.521 106.939C92.9891 104.778 92.9171 104.148 92.0888 103.356L91.4586 102.744L91.9988 101.753C92.593 100.637 92.647 100.025 92.2329 99.0525C91.7827 97.9722 91.1345 97.432 89.7841 97.0179C89.1179 96.8198 88.5597 96.6217 88.5597 96.5497C88.5597 96.4957 88.8118 96.1716 89.1179 95.8115C89.9102 94.9112 90.7204 93.1286 90.9545 91.7422C91.1706 90.4818 90.8645 84.8821 90.5043 83.3696C90.2523 82.3973 89.352 81.443 88.3977 81.1909C87.7495 81.0288 87.6775 80.9388 87.5694 80.2726C87.4254 79.3903 86.6151 78.436 85.6068 77.9139C84.4364 77.3377 84.4364 77.3377 84.7245 76.2754C85.0306 75.087 84.9406 74.6729 83.3021 69.5953C81.8256 65.0218 81.4835 64.4817 80.0791 64.3196C78.9267 64.1936 78.2425 64.5897 77.4142 65.8861L76.712 66.9664L76.2619 65.472C75.2176 62.195 73.0569 58.5758 70.4641 55.839C68.4294 53.6783 67.169 53.2101 65.6025 54.0024L64.9183 54.3625L63.4599 53.3722C61.5513 52.0758 61.2092 52.0758 59.2826 53.3722ZM62.2355 54.9387C63.82 56.001 63.784 55.911 63.0277 56.8653C62.6676 57.3154 62.1455 57.9636 61.8754 58.2877L61.3712 58.8639L60.2909 57.4955C59.6787 56.7392 59.2105 56.055 59.2466 55.965C59.3006 55.821 61.1912 54.3805 61.3352 54.3625C61.3712 54.3625 61.7673 54.6146 62.2355 54.9387ZM56.3657 55.839C56.8158 56.1811 59.9308 60.1783 59.9308 60.4124C59.9308 60.9166 53.3047 67.0745 49.9917 69.6493L48.7853 70.5856L48.4972 70.0454C47.975 69.0191 47.957 67.5786 48.4792 65.9761C49.4695 62.8612 51.4141 59.6742 53.8089 57.2074C55.3573 55.6049 55.7715 55.3888 56.3657 55.839ZM68.6815 56.8293C71.0042 59.152 73.0749 62.447 74.2453 65.7061C74.6414 66.8224 74.7134 67.2725 74.6594 68.3169C74.6054 69.0011 74.4613 69.8113 74.3173 70.0814L74.0472 70.5856L72.6968 69.5593C69.8519 67.3806 65.1524 63.0952 63.6219 61.2947L62.7937 60.3224L64.2521 58.4678C65.0624 57.4415 65.9086 56.3971 66.1427 56.109C66.8269 55.3168 67.3131 55.4608 68.6815 56.8293ZM63.73 64.2656C66.1967 66.7324 69.0236 69.2532 71.3283 71.0177C72.1026 71.6119 72.7148 72.1701 72.7148 72.2781C72.7148 72.5482 68.9336 76.5635 66.7909 78.5621C64.7203 80.4887 61.6773 82.9915 61.3892 82.9915C60.705 82.9915 52.6565 75.5191 50.6579 73.0343L49.9737 72.1701L50.3698 71.882C52.0443 70.7296 56.1496 67.1285 58.4723 64.7878C60.0208 63.2573 61.3172 61.9789 61.3352 61.9609C61.3712 61.9429 62.4516 62.9692 63.73 64.2656ZM44.1578 67.5966C44.626 68.3349 45.4542 69.5593 45.9944 70.3155C46.5346 71.0537 46.9667 71.7199 46.9667 71.792C46.9667 71.936 43.3116 74.3848 41.439 75.5011C40.8088 75.8792 40.2326 76.1313 40.1246 76.0593C39.7284 75.8072 39.9985 74.4928 41.3129 70.4595C42.3933 67.0745 42.7354 66.2462 42.9875 66.2462C43.1855 66.2462 43.6177 66.7504 44.1578 67.5966ZM81.4835 70.3875C82.2037 72.6202 82.7979 74.6368 82.8159 74.8889C82.87 75.6992 82.7979 76.1493 82.5999 76.1493C82.3838 76.1493 77.9004 73.3765 76.64 72.4582L75.7937 71.846L77.5223 69.2712C78.4586 67.8487 79.3228 66.5883 79.4309 66.4623C79.917 65.8501 80.1871 66.3723 81.4835 70.3875ZM50.1717 75.5011C52.5485 78.184 56.2216 81.605 59.1745 83.9098L59.7687 84.3599L57.2839 85.9984C53.9349 88.1951 51.8282 89.4015 48.3711 91.13C46.1745 92.2284 45.4002 92.5345 45.1842 92.4084C45.0221 92.3004 44.2118 91.4181 43.3836 90.4458C41.0789 87.7089 39.0982 84.828 37.6938 82.1452C37.0456 80.9208 37.0276 80.8128 37.2977 80.4167C37.4417 80.1826 38.7381 79.3363 40.1606 78.5261C41.583 77.7338 43.9598 76.2754 45.4362 75.2851C46.9307 74.2947 48.1911 73.4665 48.2451 73.4665C48.2991 73.4485 49.1814 74.3668 50.1717 75.5011ZM75.7037 74.2047C77.3422 75.3571 80.6733 77.4097 83.1941 78.8322C84.8686 79.7865 85.5348 80.2546 85.6068 80.5427C85.8769 81.623 81.7536 87.979 78.6206 91.3641L77.4503 92.6245L75.1275 91.4901C71.9045 89.9056 68.4654 87.943 65.6025 86.0524C64.2701 85.1521 63.1718 84.3959 63.1718 84.3599C63.1718 84.3059 64 83.6037 65.0264 82.7754C67.187 81.0108 71.3824 76.9776 73.1649 74.9069C73.8491 74.0967 74.4793 73.4485 74.5333 73.4485C74.5874 73.4485 75.1095 73.7906 75.7037 74.2047ZM35.7312 83.2615C35.9473 83.4056 36.6675 84.4139 37.3517 85.5123C38.8642 87.961 40.9528 90.8059 42.3573 92.3004L43.4016 93.4347L42.5373 93.7948C41.7271 94.155 37.7478 95.6134 36.9376 95.8475C36.6315 95.9555 36.3794 95.8115 35.8392 95.2713C34.8489 94.281 34.2367 93.1827 33.8946 91.7782C33.6245 90.6979 33.6245 90.3198 33.8946 87.1148C34.1647 83.9998 34.2367 83.5856 34.5608 83.2976C35.029 82.9194 35.245 82.9194 35.7312 83.2615ZM88.1996 83.3156C88.5777 83.6217 88.6318 83.9278 88.8658 86.5206C89.2079 90.3378 89.1179 91.6342 88.4337 93.1106C87.8935 94.281 86.9752 95.4694 86.3811 95.7755C86.147 95.9015 85.5528 95.7755 84.1123 95.2533C82.2037 94.5691 79.701 93.5968 79.5749 93.5068C79.5569 93.4707 80.1871 92.6605 80.9794 91.6882C82.8339 89.4735 84.4905 87.1328 85.7148 85.0981C86.9572 82.9915 87.4074 82.6674 88.1996 83.3156ZM63.748 87.2048C66.8449 89.3114 69.2577 90.7339 72.8408 92.5705L75.9198 94.155L74.3713 95.6134C71.3283 98.4763 67.4031 101.411 63.5679 103.752L61.4793 105.012L60.3809 104.418C58.4183 103.338 54.295 100.511 51.9183 98.6024C49.3435 96.5317 46.8227 94.245 46.9667 94.1009C47.0207 94.0649 48.3531 93.3627 49.9376 92.5705C53.1787 90.9319 56.5817 88.9333 59.3906 87.0067C60.4349 86.2865 61.3352 85.6923 61.4072 85.6923C61.4793 85.6923 62.5236 86.3765 63.748 87.2048ZM46.5886 96.6397C50.1357 99.8988 53.6468 102.618 57.1939 104.814C58.2923 105.517 59.2105 106.111 59.2105 106.165C59.2105 106.291 54.205 108.649 52.3684 109.37C50.0997 110.27 46.9487 111.332 44.644 111.981L42.7714 112.521L41.583 111.458C37.6398 107.947 32.3821 101.483 32.3821 100.151C32.3821 99.3946 32.7783 99.1425 34.8129 98.5663C37.0636 97.9361 40.5927 96.7298 42.8254 95.7935C43.7617 95.3973 44.608 95.0732 44.698 95.0732C44.77 95.0552 45.6343 95.7755 46.5886 96.6397ZM80.3852 95.9735C82.4918 96.8018 85.1927 97.7201 88.9199 98.8724C91.1345 99.5566 91.0625 100.007 88.1456 103.914C86.057 106.687 83.2841 109.694 80.9073 111.71L79.9891 112.503L77.5583 111.8C74.8935 111.044 72.0126 110.036 69.6178 109.046C66.935 107.929 63.4779 106.201 63.6399 106.057C63.73 105.985 64.5762 105.444 65.5125 104.868C69.3657 102.456 73.0749 99.6287 76.1358 96.6938C77.0721 95.8115 77.9004 95.0732 77.9544 95.0552C78.0264 95.0552 79.1248 95.4694 80.3852 95.9735ZM34.1827 106.525C35.029 107.587 36.7395 109.496 38.0179 110.756C39.7825 112.521 40.2326 113.061 39.9985 113.133C39.0442 113.403 37.3337 113.601 36.7395 113.493C35.3891 113.241 34.2007 112.377 33.5885 111.17C33.0303 110.054 31.7519 105.066 31.95 104.742C32.2201 104.31 32.7963 104.76 34.1827 106.525ZM90.8284 104.832C90.9365 105.138 90.3423 107.875 89.7301 109.802C88.7398 112.899 86.7592 114.015 83.5182 113.277L82.5098 113.043L85.0486 110.468C86.4351 109.064 88.1456 107.155 88.8298 106.255C90.0362 104.706 90.6124 104.292 90.8284 104.832ZM64.2161 108.722C67.7632 110.486 70.8422 111.746 74.8574 113.061L77.9904 114.087L76.9281 114.897C73.291 117.67 68.1774 120.587 63.2978 122.676L61.3892 123.486L59.1745 122.532C54.367 120.461 50.2257 118.084 46.0124 114.987L44.788 114.087L48.4432 112.881C53.1967 111.296 56.7798 109.766 61.3352 107.317C61.3532 107.317 62.6496 107.929 64.2161 108.722ZM43.8697 115.888C47.903 118.985 54.421 122.802 58.1302 124.26C58.7604 124.512 58.4183 124.657 56.2036 125.107C49.1634 126.547 41.7271 123.9 37.5498 118.445C35.8572 116.212 36.0553 115.906 39.5124 115.222C40.8808 114.951 42.0692 114.717 42.1592 114.699C42.2312 114.699 43.0055 115.222 43.8697 115.888ZM83.104 115.204C84.5265 115.492 85.8049 115.816 85.9489 115.942C86.4351 116.356 86.255 117.112 85.4088 118.247C83.086 121.343 79.1248 123.936 75.2356 124.963C72.3727 125.701 68.2674 125.647 65.2604 124.819L64.1981 124.53L66.8809 123.234C69.9779 121.758 71.8145 120.731 74.6414 118.895C76.712 117.562 80.0071 115.15 80.1871 114.843C80.3312 114.627 80.1871 114.609 83.104 115.204ZM64.4142 126.637C66.0527 127.159 68.0333 127.753 68.8076 127.934C69.5638 128.114 70.194 128.312 70.194 128.366C70.194 128.582 66.935 129.284 64.1801 129.68C61.1732 130.094 59.9668 130.022 55.6814 129.176C52.1163 128.456 52.0983 128.438 54.5291 127.789C55.6634 127.501 57.608 126.907 58.8504 126.475C60.0928 126.061 61.1732 125.701 61.2632 125.683C61.3532 125.665 62.7577 126.097 64.4142 126.637Z" fill="#D9F4FC"/>
</g>
<defs>
<filter id="filter0_bi_1038_3753" x="-46.2598" y="-46.2598" width="216.033" height="276.52" filterUnits="userSpaceOnUse" color-interpolation-filters="sRGB">
<feFlood flood-opacity="0" result="BackgroundImageFix"/>
<feGaussianBlur in="BackgroundImage" stdDeviation="23.1299"/>
<feComposite in2="SourceAlpha" operator="in" result="effect1_backgroundBlur_1038_3753"/>
<feBlend mode="normal" in="SourceGraphic" in2="effect1_backgroundBlur_1038_3753" result="shape"/>
<feColorMatrix in="SourceAlpha" type="matrix" values="0 0 0 0 0 0 0 0 0 0 0 0 0 0 0 0 0 0 127 0" result="hardAlpha"/>
<feOffset dx="2.31299" dy="2.31299"/>
<feGaussianBlur stdDeviation="2.77559"/>
<feComposite in2="hardAlpha" operator="arithmetic" k2="-1" k3="1"/>
<feColorMatrix type="matrix" values="0 0 0 0 1 0 0 0 0 1 0 0 0 0 1 0 0 0 0.15 0"/>
<feBlend mode="normal" in2="shape" result="effect2_innerShadow_1038_3753"/>
</filter>
</defs>
</svg>
