<svg width="24" height="24" viewBox="0 0 24 24" fill="none" xmlns="http://www.w3.org/2000/svg">
<path d="M11.1092 0.0324402C9.33262 0.201191 8.01074 0.576191 6.51543 1.33557C4.74356 2.24025 3.15449 3.66525 1.99199 5.39025C1.50449 6.1215 0.904492 7.35431 0.613867 8.22619C0.38418 8.92931 0.19668 9.73088 0.0841797 10.5231C0.00449219 11.0762 0.00449219 12.9231 0.0841797 13.4762C0.281055 14.859 0.64668 16.0684 1.21855 17.2262C1.86074 18.5387 2.49355 19.4199 3.53418 20.4653C4.57012 21.4965 5.46543 22.1387 6.72637 22.7574C7.60762 23.1887 8.1748 23.3996 9.07012 23.6246C11.4139 24.2153 13.767 24.1028 16.0545 23.2918C16.7529 23.0434 17.9623 22.4387 18.5857 22.0215C19.9873 21.0887 21.2717 19.7715 22.1904 18.3278C22.5279 17.7981 23.0717 16.6731 23.292 16.0496C24.3936 12.9465 24.2014 9.61838 22.7529 6.70744C22.1717 5.53556 21.5201 4.61213 20.6061 3.66994C19.5936 2.61994 18.5998 1.89807 17.2732 1.24182C15.8857 0.557442 14.592 0.187128 13.0545 0.0465031C12.5764 0.00431633 11.4936 -0.0050602 11.1092 0.0324402ZM17.7795 11.1559C17.8779 11.2215 18.0139 11.3574 18.0842 11.4559C18.1967 11.6199 18.2107 11.6856 18.2107 11.9996C18.2107 12.3137 18.1967 12.3793 18.0842 12.5434C18.0139 12.6418 17.8779 12.7778 17.7795 12.8434L17.6061 12.9606H11.9998H6.39356L6.22012 12.8434C6.12168 12.7778 5.98574 12.6418 5.91543 12.5434C5.80293 12.3793 5.78887 12.3137 5.78887 11.9949C5.78887 11.6668 5.80293 11.6153 5.92949 11.4324C6.00918 11.3246 6.16387 11.184 6.27637 11.1231L6.48731 11.0153L12.0467 11.0246L17.6061 11.0387L17.7795 11.1559Z" fill="white"/>
</svg>
