<svg width="24" height="24" viewBox="0 0 24 24" fill="none" xmlns="http://www.w3.org/2000/svg">
<path d="M11.3062 0.0516968C10.0031 0.267323 8.75624 1.19076 8.16562 2.36732C7.78124 3.14076 7.68749 3.77826 7.68749 5.63451V6.84388H5.96718C4.89374 6.84388 4.17655 6.86263 4.06405 6.89544C3.83437 6.95638 3.53437 7.22826 3.47343 7.42045C3.4453 7.50482 3.25312 10.7111 3.04218 14.5548C2.61093 22.3783 2.61562 21.8861 2.95312 22.5751C3.24843 23.1798 3.79687 23.6486 4.4953 23.897C4.69218 23.9673 5.37655 23.9767 11.8125 23.9908C16.8 24.0001 19.0031 23.9908 19.2187 23.9533C19.3875 23.9251 19.6922 23.8173 19.9031 23.7189C20.6062 23.3814 21.1547 22.6454 21.2859 21.8673C21.3375 21.5767 21.2953 20.6486 20.9578 14.6017C20.7469 10.7861 20.5547 7.57982 20.5266 7.4767C20.4609 7.23763 20.1844 6.96107 19.9453 6.89544C19.8234 6.86263 19.1391 6.84388 18.0141 6.84388H16.2656V5.32045C16.2656 3.63763 16.2375 3.38451 15.975 2.70013C15.675 1.9267 14.9859 1.1017 14.2406 0.642323C13.4109 0.122009 12.2672 -0.107679 11.3062 0.0516968ZM12.8578 1.86576C13.5891 2.13295 14.1984 2.76576 14.4469 3.51107C14.5406 3.79701 14.55 3.92826 14.5687 5.32982L14.5828 6.84388H12.0047H9.42187V5.44701C9.42187 4.43451 9.44062 3.97045 9.48749 3.74545C9.68437 2.82201 10.3969 2.07201 11.3437 1.80013C11.6719 1.70638 12.5203 1.7392 12.8578 1.86576Z" fill="white"/>
</svg>
