<svg width="24" height="24" viewBox="0 0 24 24" fill="none" xmlns="http://www.w3.org/2000/svg">
<path d="M7.18125 0.791992C5.84531 0.974804 4.81406 1.95449 4.56563 3.28105C4.425 4.00293 4.57031 4.82793 4.94531 5.45605C5.14688 5.79355 5.59219 6.25762 5.97188 6.5248L6.24844 6.72168L3.675 6.74512C1.3875 6.76387 1.08281 6.77793 0.928125 6.84824C0.501563 7.04043 0.178125 7.41074 0.065625 7.84199C0.01875 8.01543 0 8.42793 0 9.37012C0 10.617 0.0046875 10.6639 0.107813 10.842C0.164062 10.9451 0.285938 11.0717 0.375 11.1232C0.539062 11.2217 0.590625 11.2217 5.52188 11.2357L10.5 11.2451V9.74512V8.24512H12H13.5V9.74512V11.2451L18.4828 11.2357C23.4094 11.2217 23.4609 11.2217 23.625 11.1232C23.7141 11.0717 23.8359 10.9451 23.8922 10.842C23.9953 10.6639 24 10.617 24 9.37012C24 8.42793 23.9813 8.01543 23.9344 7.84199C23.8219 7.41074 23.4984 7.04043 23.0719 6.84824C22.9172 6.77793 22.6125 6.76387 20.325 6.74512L17.7516 6.72168L18.0281 6.5248C18.4078 6.25762 18.8531 5.79355 19.0547 5.45605C19.7766 4.25137 19.5797 2.65293 18.5859 1.65918C18 1.07324 17.2594 0.777929 16.3828 0.777929C15.1734 0.777929 14.3531 1.27949 13.5281 2.52168C12.5906 3.94668 12.1172 5.1373 12.0609 6.21543C12.0469 6.50605 12.0188 6.74512 12 6.74512C11.9813 6.74512 11.9531 6.52012 11.9438 6.23887C11.9062 5.44199 11.7 4.77168 11.1469 3.6748C10.7438 2.86855 10.1484 1.99668 9.74063 1.60762C9.07031 0.970117 8.11406 0.665429 7.18125 0.791992ZM8.18906 2.34824C8.70938 2.54043 9.30938 3.29043 9.84375 4.41543C10.2938 5.36699 10.5563 6.30449 10.4531 6.58105C10.2938 6.99824 8.54531 6.44512 7.16719 5.53574C6.33281 4.97793 6.02813 4.54668 6.02813 3.88574C6.02344 3.4498 6.09375 3.21074 6.30938 2.92012C6.53438 2.62012 6.69844 2.48887 7.02188 2.35762C7.37813 2.2123 7.81875 2.20762 8.18906 2.34824ZM16.8047 2.31074C17.1234 2.39512 17.2875 2.48418 17.4984 2.6998C18.1453 3.34199 18.1547 4.30293 17.5266 4.9873C17.0953 5.45137 15.7781 6.20605 14.8594 6.51543C14.1188 6.75918 13.6266 6.7873 13.5469 6.58105C13.4438 6.30449 13.7063 5.36699 14.1563 4.42012C14.9859 2.67168 15.7828 2.03418 16.8047 2.31074Z" fill="white"/>
<path d="M1.50938 17.4187L1.52344 22.0969L1.63594 22.3453C1.77188 22.6453 2.16094 23.0156 2.47031 23.1328C2.68125 23.2172 2.93438 23.2219 6.6 23.2359L10.5 23.25V17.9953V12.7453H6H1.5L1.50938 17.4187Z" fill="white"/>
<path d="M13.5 17.9953V23.25L17.4047 23.2359C21.0656 23.2219 21.3188 23.2172 21.5297 23.1328C21.8391 23.0156 22.2281 22.6453 22.3641 22.3453L22.4766 22.0969L22.4906 17.4187L22.5 12.7453H18H13.5V17.9953Z" fill="white"/>
</svg>
